;TYPE=PLATED
;Layer: PTH_Through_Via
;EasyEDA Pro v2.2.45.4, 2026-01-10 08:56:26
;Gerber Generator version 0.3
M48
METRIC,LZ,0000.00000
;Hole size 1 = 0.30500 METRIC
T01C0.30500
;Hole size 2 = 3.17500 METRIC
T02C3.17500
%
G05
G90
T01
X49.276Y-48.895
X53.086Y-58.928
X46.609Y-61.849
X50.71658Y-52.49458
X17.145Y-34.544
X33.528Y-32.639
X49.3395Y-48.1205
X49.3395Y-47.1805
X48.4505Y-48.38282
X48.3995Y-47.5615
X47.5615Y-47.07163
X47.5615Y-47.9425
X47.5615Y-48.8315
X44.85843Y-14.47114
X44.85843Y-20.05914
X43.45828Y-18.82028
X52.832Y-37.973
X47.117Y-38.1
X60.325Y-41.91
X53.467Y-42.672
X46.34802Y-47.43196
X46.863Y-54.97551
X41.275Y-62.119
X17.653Y-58.42
X61.46573Y-45.27817
X49.51499Y-33.19223
X55.372Y-52.324
X56.642Y-59.944
X60.706Y-39.37
X53.467Y-41.021
X44.831Y-40.513
X36.465Y-44.323
X60.452Y-37.338
X52.578Y-52.07
X49.022Y-56.642
X57.658Y-35.052
X5.79034Y-37.13566
X45.212Y-21.59
X37.719Y-9.017
X72.39Y-21.78056
X71.882Y-20.447
X13.208Y-67.056
X13.208Y-69.56026
X12.7Y-57.785
X9.1509Y-57.785
X67.183Y-50.546
T02
X4.191Y-70.104
X92.583Y-70.104
X92.583Y-3.556
X4.191Y-3.556
M30