;TYPE=PLATED
;Layer: PTH_Through
;EasyEDA Pro v2.2.45.4, 2026-01-10 08:56:26
;Gerber Generator version 0.3
M48
METRIC,LZ,0000.00000
;Hole size 1 = 0.30500 METRIC
T01C0.30500
;Hole size 2 = 0.80000 METRIC
T02C0.80000
;Hole size 3 = 0.84999 METRIC
T03C0.84999
;Hole size 4 = 1.00000 METRIC
T04C1.00000
;Hole size 5 = 1.04999 METRIC
T05C1.04999
;Hole size 6 = 1.10002 METRIC
T06C1.10002
;Hole size 7 = 1.20000 METRIC
T07C1.20000
;Hole size 8 = 1.30002 METRIC
T08C1.30002
;Hole size 9 = 1.60000 METRIC
T09C1.60000
;Hole size 10 = 3.17500 METRIC
T10C3.17500
%
G05
G90
T01
X49.276Y-48.895
X53.086Y-58.928
X46.609Y-61.849
X50.71658Y-52.49458
X17.145Y-34.544
X33.528Y-32.639
X49.3395Y-48.1205
X49.3395Y-47.1805
X48.4505Y-48.38282
X48.3995Y-47.5615
X47.5615Y-47.07163
X47.5615Y-47.9425
X47.5615Y-48.8315
X44.85843Y-14.47114
X44.85843Y-20.05914
X43.45828Y-18.82028
X52.832Y-37.973
X47.117Y-38.1
X60.325Y-41.91
X53.467Y-42.672
X46.34802Y-47.43196
X46.863Y-54.97551
X41.275Y-62.119
X17.653Y-58.42
X61.46573Y-45.27817
X49.51499Y-33.19223
X55.372Y-52.324
X56.642Y-59.944
X60.706Y-39.37
X53.467Y-41.021
X44.831Y-40.513
X36.465Y-44.323
X60.452Y-37.338
X52.578Y-52.07
X49.022Y-56.642
X57.658Y-35.052
X5.79034Y-37.13566
X45.212Y-21.59
X37.719Y-9.017
X72.39Y-21.78056
X71.882Y-20.447
X13.208Y-67.056
X13.208Y-69.56026
X12.7Y-57.785
X9.1509Y-57.785
X67.183Y-50.546
T02
X69.02501Y-50.8
X77.02499Y-50.8
X68.517Y-34.798
X76.51698Y-34.798
X68.39001Y-18.161
X76.38999Y-18.161
T03
X70.739Y-54.11216
X70.739Y-57.31256
X70.739Y-59.5122
X70.739Y-61.71184
X75.819Y-61.71184
X75.819Y-59.5122
X75.819Y-57.31256
X75.819Y-54.11216
X70.358Y-38.11016
X70.358Y-41.31056
X70.358Y-43.5102
X70.358Y-45.70984
X75.438Y-45.70984
X75.438Y-43.5102
X75.438Y-41.31056
X75.438Y-38.11016
X70.35801Y-22.23516
X70.35801Y-25.43556
X70.35801Y-27.6352
X70.35801Y-29.83484
X75.43801Y-29.83484
X75.43801Y-27.6352
X75.43801Y-25.43556
X75.43801Y-22.23516
T04
X26.924Y-30.607
X24.384Y-30.607
X21.844Y-30.607
X13.589Y-35.941
X13.589Y-33.401
X5.969Y-35.941
X5.969Y-33.401
X23.495Y-9.55294
X23.495Y-13.05306
X23.876Y-19.58594
X23.876Y-23.08606
T05
X39.37Y-12.7
X39.37Y-15.24
X39.37Y-17.78
X39.37Y-20.32
X39.37Y-22.86
X39.37Y-25.4
X39.37Y-27.94
X39.37Y-30.48
X39.37Y-33.02
X39.37Y-35.56
X39.37Y-38.1
X39.37Y-40.64
X39.37Y-43.18
X39.37Y-45.72
X39.37Y-48.26
X39.37Y-50.8
X39.37Y-53.34
X39.37Y-55.88
X39.37Y-58.42
X39.37Y-60.96
X39.37Y-63.5
X39.37Y-66.04
X64.77Y-12.7
X64.77Y-15.24
X64.77Y-17.78
X64.77Y-20.32
X64.77Y-22.86
X64.77Y-25.4
X64.77Y-27.94
X64.77Y-30.48
X64.77Y-33.02
X64.77Y-35.56
X64.77Y-38.1
X64.77Y-40.64
X64.77Y-43.18
X64.77Y-45.72
X64.77Y-48.26
X64.77Y-50.8
X64.77Y-53.34
X64.77Y-55.88
X64.77Y-58.42
X64.77Y-60.96
X64.77Y-63.5
X64.77Y-66.04
T06
X69.723Y-67.818
X72.263Y-67.818
X74.803Y-67.818
X77.343Y-67.818
X6.35Y-46.228
X8.89Y-46.228
X11.43Y-46.228
X13.97Y-46.228
T07
X23.495Y-60.198
X23.495Y-57.658
X23.495Y-55.118
X23.495Y-52.578
X23.495Y-50.038
X23.495Y-47.498
X30.226Y-60.198
X30.226Y-57.658
X30.226Y-55.118
X30.226Y-52.578
X30.226Y-50.038
X30.226Y-47.498
X26.924Y-60.198
X26.924Y-57.658
X26.924Y-55.118
X26.924Y-52.578
X26.924Y-50.038
X26.924Y-47.498
X29.337Y-65.024
X26.797Y-65.024
X24.257Y-65.024
X31.369Y-7.239
X33.909Y-7.239
X32.131Y-13.716
X34.671Y-13.716
X82.169Y-36.576
X82.169Y-34.036
X5.57085Y-65.00685
X8.11085Y-65.00685
X10.65086Y-65.00685
X13.19086Y-65.00685
X15.73086Y-65.00685
X18.27086Y-65.00685
X90.17Y-28.70906
X90.17Y-23.7091
X90.17Y-18.70911
X90.17Y-13.70914
X90.424Y-62.61806
X90.424Y-57.6181
X90.424Y-52.61811
X90.424Y-47.61814
X80.01Y-59.436
X80.01Y-56.896
X80.01Y-43.18
X80.01Y-40.64
X80.01Y-25.146
X80.01Y-27.686
T08
X89.662Y-40.98112
X89.662Y-35.98113
X9.398Y-14.89888
X9.398Y-19.89887
T09
X75.20381Y-6.35
X80.2038Y-6.35
X85.32381Y-6.35
T10
X4.191Y-70.104
X92.583Y-70.104
X92.583Y-3.556
X4.191Y-3.556
M30