G04 Layer: DrillDrawingLayer*
G04 EasyEDA Pro v2.2.45.4, 2026-01-10 08:56:26*
G04 Gerber Generator version 0.3*
G04 Scale: 100 percent, Rotated: No, Reflected: No*
G04 Dimensions in millimeters*
G04 Leading zeros omitted, absolute positions, 4 integers and 5 decimals*
G04 Generated by one-click*
%FSLAX45Y45*%
%MOMM*%
%AMIconRect*4,1,4,0.28,-0.28,-0.28,-0.28,-0.28,0.28,0.28,0.28,0.28,-0.28,0*4,0,4,0.233333,-0.233333,0.233333,0.233333,-0.233333,0.233333,-0.233333,-0.233333,0.233333,-0.233333,0*%
%AMIconTriangle*4,1,3,-0.339593,0.240473,0.339593,0.240473,0,-0.37884,-0.339593,0.240473,0*4,0,3,-0.265673,0.19404,0,-0.27342,0.266233,0.19404,-0.265673,0.19404,0*%
%AMIconStar6*4,1,12,0.12068,0.20888,0.298527,0.172713,0.241313,0,0.298527,-0.17206,0.12068,-0.208227,0,-0.344073,-0.120073,-0.208227,-0.298573,-0.17206,-0.240707,0,-0.298573,0.17206,-0.120073,0.20888,0,0.344073,0.12068,0.20888,0*4,0,12,-0.000467,0.273467,-0.090067,0.171733,-0.237533,0.136733,-0.193667,-0.007467,-0.237533,-0.1372,-0.090067,-0.171733,-0.000467,-0.273933,0.090067,-0.171733,0.237533,-0.1372,0.194133,0.007,0.237533,0.1372,0.090067,0.171267,-0.000467,0.273467,0*%
%AMIconStar4*4,1,8,-0.311733,0.311733,0,0.202533,0.311733,0.311733,0.202533,0,0.311733,-0.311733,0,-0.202533,-0.304407,-0.311733,-0.202533,0,-0.311733,0.311733,0*4,0,8,0.233333,-0.233333,0.1512,0,0.233333,0.233333,0,0.1512,-0.233333,0.233333,-0.1512,0,-0.233333,-0.233333,0,-0.1512,0.233333,-0.233333,0*%
%AMIconPlus*4,1,12,0.1736,-0.28,-0.1736,-0.28,-0.1736,-0.1736,-0.28,-0.1736,-0.28,0.1736,-0.1736,0.1736,-0.1736,0.28,0.1736,0.28,0.1736,0.1736,0.28,0.1736,0.28,-0.1736,0.1736,-0.1736,0.1736,-0.28,0*4,0,12,0.126933,-0.233333,0.126933,-0.126933,0.233333,-0.126933,0.233333,0.126933,0.126933,0.126933,0.126933,0.233333,-0.126933,0.233333,-0.126933,0.126933,-0.233333,0.126933,-0.233333,-0.126933,-0.126933,-0.126933,-0.126933,-0.233333,0.126933,-0.233333,0*%
%AMIconX*4,1,16,0.28,-0.28,0.076347,-0.28,0,-0.203653,-0.076347,-0.28,-0.28,-0.28,-0.28,-0.076347,-0.203653,0,-0.28,0.076347,-0.28,0.28,-0.076347,0.28,0,0.203653,0.076347,0.28,0.28,0.28,0.28,0.076347,0.203653,0,0.28,-0.076347,0.28,-0.28,0*4,0,16,0.23352,-0.23296,0.23352,-0.095853,0.137107,0.000093,0.23352,0.095853,0.23352,0.2331,0.095853,0.2331,0,0.137107,-0.095853,0.2331,-0.23352,0.2331,-0.23352,0.095853,-0.137107,0.000093,-0.23352,-0.095853,-0.23352,-0.23296,-0.095853,-0.23296,0,-0.137107,0.095853,-0.23296,0.23352,-0.23296,0*%
%AMIconDiamond*4,1,4,0,-0.364,-0.364,0,0,0.364,0.364,0,0,-0.364,0*4,0,4,0,-0.284807,0.284807,0,0,0.28504,-0.284807,0,0,-0.284807,0*%
%AMIconRect2*4,1,6,0.28,-0.28,-0.28,-0.28,-0.28,0.28,-0.23352,0.2331,-0.233333,-0.233333,0.23352,-0.233333,0.28,-0.28,0*4,1,6,0.28,-0.28,0.23352,-0.233333,0.23352,0.2331,-0.23352,0.2331,-0.28,0.28,0.28,0.28,0.28,-0.28,0*4,1,6,0.186853,-0.186667,-0.186667,-0.186667,-0.186667,0.186853,-0.14,0.140187,-0.14,-0.14,0.140187,-0.14,0.186853,-0.186667,0*4,1,6,0.186853,-0.186667,0.140187,-0.14,0.140187,0.140187,-0.14,0.140187,-0.186667,0.186853,0.186853,0.186853,0.186853,-0.186667,0*%
%AMCharA*4,1,8,-0.170893,-0.26096,-0.21448,-0.244347,-0.021187,0.26096,0.0224,0.26096,0.21448,-0.244347,0.170893,-0.26096,0.10696,-0.09268,-0.106587,-0.09268,-0.170893,-0.26096,0*4,0,3,-0.088667,-0.046013,0.089133,-0.046013,0.000467,0.18732,-0.088667,-0.046013,0*%
%ADD10IconRect*%
%ADD11C,0.616X0.522667*%
%ADD12IconTriangle*%
%ADD13IconStar6*%
%ADD14IconStar4*%
%ADD15IconPlus*%
%ADD16IconX*%
%ADD17IconDiamond*%
%ADD18IconRect2*%
%ADD19CharA*%
G75*


G04 Drill Drawing Start*
G54D10*
G01X7520394Y-635000D03*
G01X8020393Y-635000D03*
G01X8532393Y-635000D03*
G54D11*
G01X419100Y-7010400D03*
G01X419100Y-355600D03*
G01X9258300Y-7010400D03*
G01X9258300Y-355600D03*
G54D12*
G01X939800Y-1989899D03*
G01X939800Y-1489900D03*
G01X8966200Y-4098099D03*
G01X8966200Y-3598100D03*
G54D13*
G01X6839001Y-1816100D03*
G01X6851700Y-3479800D03*
G01X6902501Y-5080000D03*
G01X7638999Y-1816100D03*
G01X7651698Y-3479800D03*
G01X7702499Y-5080000D03*
G54D14*
G01X635000Y-4622800D03*
G01X889000Y-4622800D03*
G01X1143000Y-4622800D03*
G01X1397000Y-4622800D03*
G01X6972300Y-6781800D03*
G01X7226300Y-6781800D03*
G01X7480300Y-6781800D03*
G01X7734300Y-6781800D03*
G54D15*
G01X596900Y-3594100D03*
G01X596900Y-3340100D03*
G01X1358900Y-3594100D03*
G01X1358900Y-3340100D03*
G01X2184400Y-3060700D03*
G01X2349503Y-1305316D03*
G01X2349503Y-955304D03*
G01X2387603Y-2308616D03*
G01X2387603Y-1958604D03*
G01X2438400Y-3060700D03*
G01X2692400Y-3060700D03*
G54D16*
G01X7035800Y-4570984D03*
G01X7035800Y-4351020D03*
G01X7035800Y-4131056D03*
G01X7035800Y-3811016D03*
G01X7035801Y-2983484D03*
G01X7035801Y-2763520D03*
G01X7035801Y-2543556D03*
G01X7035801Y-2223516D03*
G01X7073900Y-6171184D03*
G01X7073900Y-5951220D03*
G01X7073900Y-5731256D03*
G01X7073900Y-5411216D03*
G01X7543800Y-4570984D03*
G01X7543800Y-4351020D03*
G01X7543800Y-4131056D03*
G01X7543800Y-3811016D03*
G01X7543801Y-2983484D03*
G01X7543801Y-2763520D03*
G01X7543801Y-2543556D03*
G01X7543801Y-2223516D03*
G01X7581900Y-6171184D03*
G01X7581900Y-5951220D03*
G01X7581900Y-5731256D03*
G01X7581900Y-5411216D03*
G54D17*
G01X3937000Y-6604000D03*
G01X3937000Y-6350000D03*
G01X3937000Y-6096000D03*
G01X3937000Y-5842000D03*
G01X3937000Y-5588000D03*
G01X3937000Y-5334000D03*
G01X3937000Y-5080000D03*
G01X3937000Y-4826000D03*
G01X3937000Y-4572000D03*
G01X3937000Y-4318000D03*
G01X3937000Y-4064000D03*
G01X3937000Y-3810000D03*
G01X3937000Y-3556000D03*
G01X3937000Y-3302000D03*
G01X3937000Y-3048000D03*
G01X3937000Y-2794000D03*
G01X3937000Y-2540000D03*
G01X3937000Y-2286000D03*
G01X3937000Y-2032000D03*
G01X3937000Y-1778000D03*
G01X3937000Y-1524000D03*
G01X3937000Y-1270000D03*
G01X6477000Y-6604000D03*
G01X6477000Y-6350000D03*
G01X6477000Y-6096000D03*
G01X6477000Y-5842000D03*
G01X6477000Y-5588000D03*
G01X6477000Y-5334000D03*
G01X6477000Y-5080000D03*
G01X6477000Y-4826000D03*
G01X6477000Y-4572000D03*
G01X6477000Y-4318000D03*
G01X6477000Y-4064000D03*
G01X6477000Y-3810000D03*
G01X6477000Y-3556000D03*
G01X6477000Y-3302000D03*
G01X6477000Y-3048000D03*
G01X6477000Y-2794000D03*
G01X6477000Y-2540000D03*
G01X6477000Y-2286000D03*
G01X6477000Y-2032000D03*
G01X6477000Y-1778000D03*
G01X6477000Y-1524000D03*
G01X6477000Y-1270000D03*
G54D18*
G01X579034Y-3713566D03*
G01X915090Y-5778500D03*
G01X1270000Y-5778500D03*
G01X1320800Y-6956026D03*
G01X1320800Y-6705600D03*
G01X1714500Y-3454400D03*
G01X1765300Y-5842000D03*
G01X3352800Y-3263900D03*
G01X3646500Y-4432300D03*
G01X3771900Y-901700D03*
G01X4127500Y-6211900D03*
G01X4345828Y-1882028D03*
G01X4483100Y-4051300D03*
G01X4485843Y-2005914D03*
G01X4485843Y-1447114D03*
G01X4521200Y-2159000D03*
G01X4634802Y-4743196D03*
G01X4660900Y-6184900D03*
G01X4686300Y-5497551D03*
G01X4711700Y-3810000D03*
G01X4756150Y-4883150D03*
G01X4756150Y-4794250D03*
G01X4756150Y-4707163D03*
G01X4839950Y-4756150D03*
G01X4845050Y-4838282D03*
G01X4902200Y-5664200D03*
G01X4927600Y-4889500D03*
G01X4933950Y-4812050D03*
G01X4933950Y-4718050D03*
G01X4951499Y-3319223D03*
G01X5071658Y-5249458D03*
G01X5257800Y-5207000D03*
G01X5283200Y-3797300D03*
G01X5308600Y-5892800D03*
G01X5346700Y-4267200D03*
G01X5346700Y-4102100D03*
G01X5537200Y-5232400D03*
G01X5664200Y-5994400D03*
G01X5765800Y-3505200D03*
G01X6032500Y-4191000D03*
G01X6045200Y-3733800D03*
G01X6070600Y-3937000D03*
G01X6146573Y-4527817D03*
G01X6718300Y-5054600D03*
G01X7188200Y-2044700D03*
G01X7239000Y-2178056D03*
G54D19*
G01X557086Y-6500685D03*
G01X811086Y-6500685D03*
G01X1065086Y-6500685D03*
G01X1319086Y-6500685D03*
G01X1573086Y-6500685D03*
G01X1827086Y-6500685D03*
G01X2349500Y-6019800D03*
G01X2349500Y-5765800D03*
G01X2349500Y-5511800D03*
G01X2349500Y-5257800D03*
G01X2349500Y-5003800D03*
G01X2349500Y-4749800D03*
G01X2425700Y-6502400D03*
G01X2679700Y-6502400D03*
G01X2692400Y-6019800D03*
G01X2692400Y-5765800D03*
G01X2692400Y-5511800D03*
G01X2692400Y-5257800D03*
G01X2692400Y-5003800D03*
G01X2692400Y-4749800D03*
G01X2933700Y-6502400D03*
G01X3022600Y-6019800D03*
G01X3022600Y-5765800D03*
G01X3022600Y-5511800D03*
G01X3022600Y-5257800D03*
G01X3022600Y-5003800D03*
G01X3022600Y-4749800D03*
G01X3136900Y-723900D03*
G01X3213100Y-1371600D03*
G01X3390900Y-723900D03*
G01X3467100Y-1371600D03*
G01X8001000Y-5943600D03*
G01X8001000Y-5689600D03*
G01X8001000Y-4318000D03*
G01X8001000Y-4064000D03*
G01X8001000Y-2768600D03*
G01X8001000Y-2514600D03*
G01X8216900Y-3657600D03*
G01X8216900Y-3403600D03*
G01X9017000Y-2870898D03*
G01X9017000Y-2370899D03*
G01X9017000Y-1870900D03*
G01X9017000Y-1370901D03*
G01X9042400Y-6261798D03*
G01X9042400Y-5761799D03*
G01X9042400Y-5261800D03*
G01X9042400Y-4761801D03*
G04 Drill Drawing End*

M02*

