G04 Layer: TopLayer*
G04 EasyEDA Pro v2.2.45.4, 2026-01-10 08:56:26*
G04 Gerber Generator version 0.3*
G04 Scale: 100 percent, Rotated: No, Reflected: No*
G04 Dimensions in millimeters*
G04 Leading zeros omitted, absolute positions, 4 integers and 5 decimals*
G04 Generated by one-click*
%FSLAX45Y45*%
%MOMM*%
%ADD10C,0.2032*%
%ADD11R,1.35001X1.41*%
%ADD12R,0.95001X1.15001*%
%ADD13C,1.4*%
%ADD14R,1.0X0.8*%
%ADD15R,1.19009X1.72799*%
%ADD16R,1.6X1.6*%
%ADD17C,1.6*%
%ADD18C,1.8*%
%ADD19R,1.8092X1.8*%
%ADD20R,1.8X1.8*%
%ADD21R,1.5748X1.8*%
%ADD22R,2.0X2.0*%
%ADD23C,2.0*%
%ADD24R,1.0X1.39954*%
%ADD25R,1.13254X1.37701*%
%ADD26R,1.37701X1.13254*%
%ADD27O,2.0X1.524*%
%ADD28O,0.63X1.865*%
%ADD29R,1.7X1.7*%
%ADD30C,1.7*%
%ADD31R,0.95999X0.88001*%
%ADD32C,2.49999*%
%ADD33C,0.61*%
%ADD34C,4.445*%
%ADD35C,1.27*%
%ADD36C,0.762*%
%ADD37C,0.254*%
%ADD38C,0.508*%
%ADD39C,1.016*%
G75*


G04 Copper Start*
G36*
G01X5012690Y-4936490D02*
G01X4688396Y-4936490D01*
G01X4688396Y-4790364D01*
G01X4697033Y-4778187D01*
G01X4702949Y-4764480D01*
G01X4705886Y-4749842D01*
G01X4705714Y-4734914D01*
G01X4702441Y-4720348D01*
G01X4696210Y-4706781D01*
G01X4723498Y-4679493D01*
G01X4725472Y-4677410D01*
G01X5012690Y-4677410D01*
G01X5012690Y-4936490D01*
G37*
G54D10*
G01X5012690Y-4936490D02*
G01X4688396Y-4936490D01*
G01X4688396Y-4790364D01*
G03X4696210Y-4706781I-53594J47168D01*
G01X4723498Y-4679493D01*
G03X4725472Y-4677410I-37897J37897D01*
G01X5012690Y-4677410D01*
G01X5012690Y-4936490D01*
G04 Copper End*

G04 Pad Start*
G54D11*
G01X1714500Y-3062300D03*
G01X1714500Y-3262300D03*
G01X3182441Y-3023225D03*
G01X3182441Y-3223224D03*
G54D12*
G01X1456360Y-927100D03*
G01X1794840Y-927100D03*
G54D13*
G01X6902501Y-5080000D03*
G01X7702499Y-5080000D03*
G01X6851700Y-3479800D03*
G01X7651698Y-3479800D03*
G54D14*
G01X4685602Y-4514596D03*
G01X4915599Y-4419600D03*
G01X4685602Y-4324604D03*
G54D15*
G01X922299Y-927100D03*
G01X1211301Y-927100D03*
G54D16*
G01X3937000Y-1270000D03*
G54D17*
G01X3937000Y-1524000D03*
G01X3937000Y-1778000D03*
G01X3937000Y-2032000D03*
G01X3937000Y-2286000D03*
G01X3937000Y-2540000D03*
G01X3937000Y-2794000D03*
G01X3937000Y-3048000D03*
G01X3937000Y-3302000D03*
G01X3937000Y-3556000D03*
G01X3937000Y-3810000D03*
G01X3937000Y-4064000D03*
G01X3937000Y-4318000D03*
G01X3937000Y-4572000D03*
G01X3937000Y-4826000D03*
G01X3937000Y-5080000D03*
G01X3937000Y-5334000D03*
G01X3937000Y-5588000D03*
G01X3937000Y-5842000D03*
G01X3937000Y-6096000D03*
G01X3937000Y-6350000D03*
G01X3937000Y-6604000D03*
G54D16*
G01X6477000Y-1270000D03*
G54D17*
G01X6477000Y-1524000D03*
G01X6477000Y-1778000D03*
G01X6477000Y-2032000D03*
G01X6477000Y-2286000D03*
G01X6477000Y-2540000D03*
G01X6477000Y-2794000D03*
G01X6477000Y-3048000D03*
G01X6477000Y-3302000D03*
G01X6477000Y-3556000D03*
G01X6477000Y-3810000D03*
G01X6477000Y-4064000D03*
G01X6477000Y-4318000D03*
G01X6477000Y-4572000D03*
G01X6477000Y-4826000D03*
G01X6477000Y-5080000D03*
G01X6477000Y-5334000D03*
G01X6477000Y-5588000D03*
G01X6477000Y-5842000D03*
G01X6477000Y-6096000D03*
G01X6477000Y-6350000D03*
G01X6477000Y-6604000D03*
G54D18*
G01X2349500Y-6019800D03*
G01X2349500Y-5765800D03*
G01X2349500Y-5511800D03*
G01X2349500Y-5257800D03*
G01X2349500Y-5003800D03*
G54D20*
G01X2349500Y-4749800D03*
G54D18*
G01X3022600Y-6019800D03*
G01X3022600Y-5765800D03*
G01X3022600Y-5511800D03*
G01X3022600Y-5257800D03*
G01X3022600Y-5003800D03*
G54D20*
G01X3022600Y-4749800D03*
G54D18*
G01X2692400Y-6019800D03*
G01X2692400Y-5765800D03*
G01X2692400Y-5511800D03*
G01X2692400Y-5257800D03*
G01X2692400Y-5003800D03*
G54D20*
G01X2692400Y-4749800D03*
G54D18*
G01X2933700Y-6502400D03*
G01X2679700Y-6502400D03*
G54D21*
G01X2425700Y-6502400D03*
G54D22*
G01X3136900Y-723900D03*
G54D23*
G01X3390900Y-723900D03*
G54D24*
G01X3781171Y-723900D03*
G01X3991229Y-723900D03*
G54D25*
G01X4685843Y-1882028D03*
G01X4485843Y-1882028D03*
G01X4358843Y-2259102D03*
G01X4558843Y-2259102D03*
G01X4685843Y-2636176D03*
G01X4485843Y-2636176D03*
G54D26*
G01X5668616Y-5693799D03*
G01X5668616Y-5493799D03*
G54D25*
G01X5662600Y-6197600D03*
G01X5462600Y-6197600D03*
G01X4558843Y-3000550D03*
G01X4358843Y-3000550D03*
G01X4571543Y-3390323D03*
G01X4371543Y-3390323D03*
G01X5040300Y-6184900D03*
G01X4840300Y-6184900D03*
G01X779033Y-4165600D03*
G01X579034Y-4165600D03*
G01X1452966Y-4165600D03*
G01X1252967Y-4165600D03*
G01X4608500Y-3949700D03*
G01X4408500Y-3949700D03*
G01X4865700Y-3962400D03*
G01X5065700Y-3962400D03*
G54D22*
G01X3213100Y-1371600D03*
G54D23*
G01X3467100Y-1371600D03*
G54D22*
G01X8216900Y-3657600D03*
G54D23*
G01X8216900Y-3403600D03*
G54D17*
G01X2692400Y-3060700D03*
G01X2438400Y-3060700D03*
G01X2184400Y-3060700D03*
G54D27*
G01X1358900Y-3594100D03*
G01X1358900Y-3340100D03*
G01X596900Y-3594100D03*
G01X596900Y-3340100D03*
G54D28*
G01X4584700Y-5856249D03*
G01X4711700Y-5856249D03*
G01X4838700Y-5856249D03*
G01X4965700Y-5856249D03*
G01X4584700Y-5319751D03*
G01X4711700Y-5319751D03*
G01X4838700Y-5319751D03*
G01X4965700Y-5319751D03*
G54D11*
G01X5283200Y-5500700D03*
G01X5283200Y-5700700D03*
G54D17*
G01X7073900Y-5411216D03*
G01X7073900Y-5731256D03*
G01X7073900Y-5951220D03*
G01X7073900Y-6171184D03*
G01X7581900Y-6171184D03*
G01X7581900Y-5951220D03*
G01X7581900Y-5731256D03*
G01X7581900Y-5411216D03*
G01X7035800Y-3811016D03*
G01X7035800Y-4131056D03*
G01X7035800Y-4351020D03*
G01X7035800Y-4570984D03*
G01X7543800Y-4570984D03*
G01X7543800Y-4351020D03*
G01X7543800Y-4131056D03*
G01X7543800Y-3811016D03*
G01X7035801Y-2223516D03*
G01X7035801Y-2543556D03*
G01X7035801Y-2763520D03*
G01X7035801Y-2983484D03*
G01X7543801Y-2983484D03*
G01X7543801Y-2763520D03*
G01X7543801Y-2543556D03*
G01X7543801Y-2223516D03*
G54D18*
G01X557086Y-6500685D03*
G01X811086Y-6500685D03*
G01X1065086Y-6500685D03*
G01X1319086Y-6500685D03*
G01X1573086Y-6500685D03*
G54D20*
G01X1827086Y-6500685D03*
G54D17*
G01X2349503Y-955304D03*
G01X2349503Y-1305316D03*
G01X2387603Y-1958604D03*
G01X2387603Y-2308616D03*
G54D18*
G01X9017000Y-2870898D03*
G01X9017000Y-2370899D03*
G01X9017000Y-1870900D03*
G01X9017000Y-1370901D03*
G01X9042400Y-6261798D03*
G01X9042400Y-5761799D03*
G01X9042400Y-5261800D03*
G01X9042400Y-4761801D03*
G54D29*
G01X6972300Y-6781800D03*
G54D30*
G01X7226300Y-6781800D03*
G01X7480300Y-6781800D03*
G01X7734300Y-6781800D03*
G54D29*
G01X635000Y-4622800D03*
G54D30*
G01X889000Y-4622800D03*
G01X1143000Y-4622800D03*
G01X1397000Y-4622800D03*
G54D31*
G01X1765300Y-4720311D03*
G01X1765300Y-4398289D03*
G54D13*
G01X6839001Y-1816100D03*
G01X7638999Y-1816100D03*
G54D22*
G01X8001000Y-5943600D03*
G54D23*
G01X8001000Y-5689600D03*
G54D22*
G01X8001000Y-4318000D03*
G54D23*
G01X8001000Y-4064000D03*
G54D22*
G01X8001000Y-2514600D03*
G54D23*
G01X8001000Y-2768600D03*
G01X8966200Y-4098099D03*
G01X8966200Y-3598100D03*
G01X939800Y-1489900D03*
G01X939800Y-1989899D03*
G54D32*
G01X7520394Y-635000D03*
G01X8020393Y-635000D03*
G01X8532393Y-635000D03*
G04 Pad End*

G04 Via Start*
G54D33*
G01X4927600Y-4889500D03*
G01X5308600Y-5892800D03*
G01X4660900Y-6184900D03*
G01X5071658Y-5249458D03*
G01X1714500Y-3454400D03*
G01X3352800Y-3263900D03*
G01X4933950Y-4812050D03*
G01X4933950Y-4718050D03*
G01X4845050Y-4838282D03*
G01X4839950Y-4756150D03*
G01X4756150Y-4707163D03*
G01X4756150Y-4794250D03*
G01X4756150Y-4883150D03*
G54D34*
G01X419100Y-7010400D03*
G01X9258300Y-7010400D03*
G01X9258300Y-355600D03*
G01X419100Y-355600D03*
G54D33*
G01X4485843Y-1447114D03*
G01X4485843Y-2005914D03*
G01X4345828Y-1882028D03*
G01X5283200Y-3797300D03*
G01X4711700Y-3810000D03*
G01X6032500Y-4191000D03*
G01X5346700Y-4267200D03*
G01X4634802Y-4743196D03*
G01X4686300Y-5497551D03*
G01X4127500Y-6211900D03*
G01X1765300Y-5842000D03*
G01X6146573Y-4527817D03*
G01X4951499Y-3319223D03*
G01X5537200Y-5232400D03*
G01X5664200Y-5994400D03*
G01X6070600Y-3937000D03*
G01X5346700Y-4102100D03*
G01X4483100Y-4051300D03*
G01X3646500Y-4432300D03*
G01X6045200Y-3733800D03*
G01X5257800Y-5207000D03*
G01X4902200Y-5664200D03*
G01X5765800Y-3505200D03*
G01X579034Y-3713566D03*
G01X4521200Y-2159000D03*
G01X3771900Y-901700D03*
G01X7239000Y-2178056D03*
G01X7188200Y-2044700D03*
G01X1320800Y-6705600D03*
G01X1320800Y-6956026D03*
G01X1270000Y-5778500D03*
G01X915090Y-5778500D03*
G01X6718300Y-5054600D03*
G04 Via End*

G04 Track Start*
G54D35*
G01X4999324Y-4503325D02*
G01X4999324Y-4652676D01*
G01X4915599Y-4419600D02*
G01X4999324Y-4503325D01*
G01X4999324Y-4652676D02*
G01X4933950Y-4718050D01*
G01X1714500Y-3262300D02*
G01X1714500Y-3454400D01*
G01X3312124Y-3223224D02*
G01X3352800Y-3263900D01*
G01X3182441Y-3223224D02*
G01X3312124Y-3223224D01*
G54D36*
G01X1456360Y-927100D02*
G01X1211301Y-927100D01*
G01X922299Y-927100D02*
G01X922299Y-1472400D01*
G01X939800Y-1489900D01*
G54D37*
G01X3991229Y-723900D02*
G01X4485843Y-1218514D01*
G01X4485843Y-1447114D01*
G01X4485843Y-2005914D02*
G01X4460443Y-2031314D01*
G01X4460443Y-2610776D01*
G01X4485843Y-2636176D01*
G01X4345828Y-1882028D02*
G01X4485843Y-1882028D01*
G01X1452966Y-4165600D02*
G01X1532611Y-4165600D01*
G01X1765300Y-4398289D01*
G01X1358900Y-3340100D02*
G01X1498600Y-3479800D01*
G01X1498600Y-3937000D01*
G01X1346200Y-4089400D01*
G01X1346200Y-4572000D01*
G01X1397000Y-4622800D01*
G01X1252967Y-4165600D02*
G01X1252967Y-3700033D01*
G01X1358900Y-3594100D01*
G01X1143000Y-4622800D02*
G01X1270000Y-4749800D01*
G01X1735811Y-4749800D01*
G01X1765300Y-4720311D01*
G01X6032500Y-4191000D02*
G01X5422900Y-4191000D01*
G01X5346700Y-4267200D01*
G01X4685602Y-4514596D02*
G01X4685602Y-4463796D01*
G01X4863402Y-4285996D01*
G01X4863402Y-3964699D01*
G01X4865700Y-3962400D01*
G01X4685602Y-4514596D02*
G01X4685602Y-4641596D01*
G01X4634802Y-4692396D01*
G01X4634802Y-5174996D02*
G01X4711700Y-5251894D01*
G01X4711700Y-5319751D01*
G01X4685602Y-4324604D02*
G01X4717606Y-4292600D01*
G01X4717606Y-3937000D01*
G01X4793806Y-3860800D01*
G01X4946206Y-3860800D01*
G01X5047806Y-3962400D01*
G01X5065700Y-3962400D01*
G01X5047806Y-3962400D02*
G01X5124006Y-4038600D01*
G01X5124006Y-4978400D01*
G01X4838700Y-5263705D01*
G01X4838700Y-5319751D01*
G01X4838700Y-5345151D01*
G01X4686300Y-5497551D01*
G54D36*
G01X2182800Y-3062300D02*
G01X2184400Y-3060700D01*
G01X2184400Y-1120407D02*
G01X2349503Y-955304D01*
G01X2184400Y-1231900D02*
G01X2099640Y-1231900D01*
G01X1794840Y-927100D01*
G01X1866900Y-3062300D02*
G01X1903286Y-3098686D01*
G01X1903286Y-5845315D01*
G01X1827086Y-5921515D01*
G01X1827086Y-6302515D01*
G01X1903286Y-6378715D01*
G01X1903286Y-6424485D01*
G01X1827086Y-6500685D01*
G01X1903286Y-6378715D02*
G01X2512886Y-6988315D01*
G01X7770686Y-6988315D01*
G01X8001000Y-6758000D01*
G01X8001000Y-5943600D01*
G54D38*
G01X3937000Y-1270000D02*
G01X4241800Y-1574800D01*
G01X4241800Y-2142059D01*
G01X4358843Y-2259102D01*
G01X4358843Y-3000549D01*
G01X4358843Y-3000550D02*
G01X4358843Y-3377623D01*
G01X4371543Y-3390323D01*
G01X4371543Y-3712743D01*
G01X4608500Y-3949700D01*
G01X4608500Y-4203700D01*
G01X4533900Y-4278300D01*
G01X4533900Y-5268951D01*
G01X4584700Y-5319751D01*
G01X4584700Y-5602300D01*
G01X4483100Y-5703900D01*
G01X4483100Y-5957900D01*
G01X4533900Y-6008700D01*
G01X5029200Y-6008700D01*
G01X5130800Y-5907100D01*
G01X5130800Y-5602300D01*
G01X5232400Y-5500700D01*
G01X5283200Y-5500700D01*
G01X5661715Y-5500700D02*
G01X5668616Y-5493799D01*
G01X5537200Y-5500700D02*
G01X5537200Y-5805500D01*
G01X5638800Y-5907100D01*
G01X5791200Y-5907100D01*
G01X6299200Y-6415100D01*
G01X6299200Y-6618300D01*
G01X6451600Y-6770700D01*
G01X6961200Y-6770700D01*
G01X6972300Y-6781800D01*
G01X4483100Y-5957900D02*
G01X4381500Y-5957900D01*
G01X4127500Y-6211900D01*
G01X1765300Y-5842000D02*
G01X1591833Y-5842000D01*
G01X474233Y-4724400D01*
G01X474233Y-4470400D01*
G01X779033Y-4165600D01*
G54D39*
G01X2729875Y-3023225D02*
G01X2692400Y-3060700D01*
G01X2776041Y-3023225D02*
G01X2776041Y-2347043D01*
G01X2387603Y-1958604D01*
G01X2387603Y-1857004D01*
G01X3200403Y-1044204D01*
G01X4013203Y-1044204D01*
G01X4318003Y-1349004D01*
G01X4318003Y-1450604D01*
G01X4622803Y-1755404D01*
G01X4622803Y-2060204D02*
G01X4724403Y-2161804D01*
G01X4724403Y-2597616D01*
G01X4685843Y-2636176D01*
G01X4622803Y-1857004D02*
G01X4660819Y-1857004D01*
G01X4685843Y-1882028D01*
G01X2979241Y-3023225D02*
G01X2979241Y-3937625D01*
G01X3690441Y-4648825D01*
G01X3690441Y-5868025D01*
G01X3588841Y-5969625D01*
G01X3588841Y-6001841D01*
G01X3937000Y-6350000D01*
G01X3588841Y-6001841D02*
G01X3434259Y-6001841D01*
G01X2933700Y-6502400D01*
G01X3937000Y-6350000D02*
G01X5310200Y-6350000D01*
G01X5462600Y-6197600D01*
G54D37*
G01X6477000Y-4064000D02*
G01X5803323Y-3390323D01*
G01X4571543Y-3390323D01*
G01X5803323Y-3390323D02*
G01X5803323Y-3060123D01*
G01X6463723Y-2399723D01*
G01X6666923Y-2399723D01*
G01X7682923Y-1383723D01*
G01X9004178Y-1383723D01*
G01X9017000Y-1370901D01*
G01X6477000Y-3810000D02*
G01X6604000Y-3937000D01*
G01X6604000Y-4114800D01*
G01X6527800Y-4191000D01*
G01X6400800Y-4191000D01*
G01X5537200Y-5054600D01*
G01X5537200Y-5232400D01*
G01X5664200Y-6196000D02*
G01X5662600Y-6197600D01*
G01X5664200Y-6096000D02*
G01X5638800Y-6070600D01*
G01X5154600Y-6070600D01*
G01X5040300Y-6184900D01*
G01X4483100Y-4051300D02*
G01X4483100Y-4024300D01*
G01X4408500Y-3949700D01*
G01X4154500Y-4203700D01*
G01X3875100Y-4203700D01*
G01X3646500Y-4432300D01*
G01X6045200Y-3733800D02*
G01X6146800Y-3835400D01*
G01X6146800Y-4318000D01*
G01X5257800Y-5207000D01*
G01X4902200Y-5664200D02*
G01X4902200Y-5792749D01*
G01X4838700Y-5856249D01*
G01X4711700Y-5856249D01*
G01X6477000Y-3048000D02*
G01X6654800Y-3225800D01*
G01X6654800Y-4343400D01*
G01X6553200Y-4445000D01*
G01X6426200Y-4445000D01*
G01X5486400Y-5384800D01*
G01X5207000Y-5384800D01*
G01X4965700Y-5626100D01*
G01X4965700Y-5856249D01*
G01X5765800Y-3505200D02*
G01X5181600Y-4089400D01*
G01X5181600Y-5283200D01*
G01X4749800Y-5715000D01*
G01X4699000Y-5715000D01*
G01X4584700Y-5829300D01*
G01X4584700Y-5856249D01*
G01X6477000Y-2540000D02*
G01X6477000Y-2590800D01*
G01X6985000Y-3098800D01*
G01X6705600Y-3378200D01*
G01X6705600Y-4521200D01*
G01X6527800Y-4699000D01*
G01X6426200Y-4699000D01*
G01X5791200Y-5334000D01*
G01X5791200Y-5571214D01*
G01X5668616Y-5693799D01*
G01X6851700Y-3479800D02*
G01X7212584Y-3479800D01*
G01X7543800Y-3811016D01*
G01X579034Y-3713566D02*
G01X579034Y-4165600D01*
G01X4521200Y-2159000D02*
G01X4521200Y-2221459D01*
G01X4558843Y-2259102D01*
G01X4634802Y-4692396D02*
G01X4634802Y-4743196D01*
G01X4634802Y-5174996D01*
G54D36*
G01X1714500Y-3062300D02*
G01X1866900Y-3062300D01*
G01X2182800Y-3062300D01*
G01X2184400Y-3060700D02*
G01X2184400Y-1231900D01*
G01X2184400Y-1120407D01*
G54D38*
G01X5283200Y-5500700D02*
G01X5537200Y-5500700D01*
G01X5661715Y-5500700D01*
G54D39*
G01X3182441Y-3023225D02*
G01X2979241Y-3023225D01*
G01X2776041Y-3023225D01*
G01X2729875Y-3023225D01*
G01X4622803Y-1755404D02*
G01X4622803Y-1857004D01*
G01X4622803Y-2060204D01*
G54D37*
G01X5664200Y-5994400D02*
G01X5664200Y-6096000D01*
G01X5664200Y-6196000D01*
G54D35*
G01X3781171Y-723900D02*
G01X3781171Y-892429D01*
G01X3771900Y-901700D01*
G01X4965700Y-5319751D02*
G01X4965700Y-5295900D01*
G01X5012142Y-5249458D01*
G01X5071658Y-5249458D01*
G01X5283200Y-5700700D02*
G01X5308600Y-5726100D01*
G01X5308600Y-5892800D01*
G01X4840300Y-6184900D02*
G01X4660900Y-6184900D01*
G01X7188200Y-2044700D02*
G01X7410399Y-2044700D01*
G01X7638999Y-1816100D01*
G01X7188200Y-2044700D02*
G01X7239000Y-2095500D01*
G01X7239000Y-2178056D01*
G01X1319086Y-6500685D02*
G01X1319086Y-6703885D01*
G01X1320800Y-6705600D01*
G01X1320800Y-6956026D01*
G01X1270000Y-5778500D02*
G01X915090Y-5778500D01*
G54D37*
G01X7543800Y-4351020D02*
G01X7955280Y-4351020D01*
G01X7988300Y-4318000D01*
G01X7988300Y-4064000D02*
G01X8051800Y-4064000D01*
G01X8204200Y-4216400D01*
G01X8204200Y-4553023D01*
G01X8186239Y-4570984D01*
G01X7543800Y-4570984D01*
G01X5283200Y-3797300D02*
G01X4724400Y-3797300D01*
G01X4711700Y-3810000D01*
G01X6070600Y-3937000D02*
G01X5511800Y-3937000D01*
G01X5346700Y-4102100D01*
G01X6477000Y-4318000D02*
G01X6356390Y-4318000D01*
G01X6146573Y-4527817D01*
G01X6718300Y-5054600D02*
G01X6769100Y-5054600D01*
G01X6997700Y-4826000D01*
G01X7288784Y-4826000D01*
G01X7543800Y-4570984D01*
G01X9160300Y-5310636D02*
G01X9042400Y-5428536D01*
G01X9042400Y-5761799D01*
G01X7543801Y-2763520D02*
G01X8078800Y-3298519D01*
G01X8078800Y-3773381D01*
G01X8541418Y-4235999D01*
G01X9016281Y-4235999D01*
G01X9160300Y-4380019D01*
G01X9160300Y-5310636D01*
G54D36*
G01X8001000Y-5943600D02*
G01X7589520Y-5943600D01*
G01X7581900Y-5951220D01*
G54D37*
G01X4951499Y-3319223D02*
G01X4877516Y-3319223D01*
G01X4558843Y-3000550D01*
G01X9067800Y-5236400D02*
G01X9067800Y-4903137D01*
G01X7581901Y-2983484D02*
G01X7543801Y-2983484D01*
G01X9042400Y-5261800D02*
G01X9067800Y-5236400D01*
G01X9067800Y-4903137D02*
G01X9044364Y-4879701D01*
G01X8993564Y-4879701D01*
G01X8924500Y-4810637D01*
G01X8043200Y-3788127D02*
G01X8043200Y-3444783D01*
G01X7581901Y-2983484D01*
G01X8924500Y-4810637D02*
G01X8924500Y-4774716D01*
G01X8166100Y-4016316D01*
G01X8166100Y-3911027D01*
G01X8043200Y-3788127D01*
G01X6985000Y-3098800D02*
G01X7086600Y-3098800D01*
G01X7416800Y-2768600D01*
G01X7416800Y-2717800D01*
G01X7480300Y-2654300D01*
G01X7594600Y-2654300D01*
G01X8204200Y-3263900D01*
G01X8204200Y-3390900D01*
G01X8216900Y-3403600D01*
G01X8271701Y-3403600D01*
G01X8966200Y-4098099D01*
G54D39*
G01X4685843Y-1882028D02*
G01X5499100Y-1068771D01*
G01X5499100Y-800100D01*
G01X5786468Y-512732D01*
G01X7398126Y-512732D01*
G01X7520394Y-635000D01*
G04 Track End*

M02*

