G04 Layer: BottomLayer*
G04 EasyEDA Pro v2.2.45.4, 2026-01-10 08:56:26*
G04 Gerber Generator version 0.3*
G04 Scale: 100 percent, Rotated: No, Reflected: No*
G04 Dimensions in millimeters*
G04 Leading zeros omitted, absolute positions, 4 integers and 5 decimals*
G04 Generated by one-click*
%FSLAX45Y45*%
%MOMM*%
%ADD10C,0.2032*%
%ADD11C,1.4*%
%ADD12R,1.6X1.6*%
%ADD13C,1.6*%
%ADD14C,1.8*%
%ADD15R,1.8089X1.8*%
%ADD16R,1.8X1.8*%
%ADD17R,1.5748X1.8*%
%ADD18R,2.0X2.0*%
%ADD19C,2.0*%
%ADD20O,2.0X1.524*%
%ADD21R,1.7X1.7*%
%ADD22C,1.7*%
%ADD23C,2.49999*%
%ADD24C,0.61*%
%ADD25C,4.445*%
%ADD26C,0.254*%
%ADD27C,0.508*%
G75*


G04 Copper Start*
G36*
G01X40894Y-330200D02*
G01X42911Y-296859D01*
G01X48932Y-264004D01*
G01X58869Y-232114D01*
G01X72578Y-201655D01*
G01X89858Y-173070D01*
G01X110457Y-146776D01*
G01X134076Y-123157D01*
G01X160370Y-102558D01*
G01X188955Y-85278D01*
G01X219414Y-71569D01*
G01X251304Y-61632D01*
G01X284159Y-55611D01*
G01X317500Y-53594D01*
G01X9359900Y-53594D01*
G01X9393241Y-55611D01*
G01X9426096Y-61632D01*
G01X9457986Y-71569D01*
G01X9488445Y-85278D01*
G01X9517030Y-102558D01*
G01X9543324Y-123157D01*
G01X9566943Y-146776D01*
G01X9587542Y-173070D01*
G01X9604822Y-201655D01*
G01X9618531Y-232114D01*
G01X9628468Y-264004D01*
G01X9634489Y-296859D01*
G01X9636506Y-330200D01*
G01X9636506Y-7023100D01*
G01X9634489Y-7056441D01*
G01X9628468Y-7089296D01*
G01X9618531Y-7121186D01*
G01X9604822Y-7151645D01*
G01X9587542Y-7180230D01*
G01X9566943Y-7206524D01*
G01X9543324Y-7230143D01*
G01X9517030Y-7250742D01*
G01X9488445Y-7268022D01*
G01X9457986Y-7281731D01*
G01X9426096Y-7291668D01*
G01X9393241Y-7297689D01*
G01X9359900Y-7299706D01*
G01X317500Y-7299706D01*
G01X284159Y-7297689D01*
G01X251304Y-7291668D01*
G01X219414Y-7281731D01*
G01X188955Y-7268022D01*
G01X160370Y-7250742D01*
G01X134076Y-7230143D01*
G01X110457Y-7206524D01*
G01X89858Y-7180230D01*
G01X72578Y-7151645D01*
G01X58869Y-7121186D01*
G01X48932Y-7089296D01*
G01X42911Y-7056441D01*
G01X40894Y-7023100D01*
G01X40894Y-7010400D01*
G01X155956Y-7010400D01*
G01X157875Y-7042119D01*
G01X163602Y-7073374D01*
G01X173056Y-7103712D01*
G01X186098Y-7132689D01*
G01X202537Y-7159883D01*
G01X222134Y-7184897D01*
G01X244603Y-7207366D01*
G01X269617Y-7226963D01*
G01X296811Y-7243402D01*
G01X325788Y-7256444D01*
G01X356126Y-7265898D01*
G01X387381Y-7271625D01*
G01X419100Y-7273544D01*
G01X450819Y-7271625D01*
G01X482074Y-7265898D01*
G01X512412Y-7256444D01*
G01X541389Y-7243402D01*
G01X568583Y-7226963D01*
G01X593597Y-7207366D01*
G01X616066Y-7184897D01*
G01X635663Y-7159883D01*
G01X652102Y-7132689D01*
G01X665144Y-7103712D01*
G01X674598Y-7073374D01*
G01X680325Y-7042119D01*
G01X682244Y-7010400D01*
G01X682244Y-7010400D01*
G01X8995156Y-7010400D01*
G01X8997075Y-7042119D01*
G01X9002802Y-7073374D01*
G01X9012256Y-7103712D01*
G01X9025298Y-7132689D01*
G01X9041737Y-7159883D01*
G01X9061334Y-7184897D01*
G01X9083803Y-7207366D01*
G01X9108817Y-7226963D01*
G01X9136011Y-7243402D01*
G01X9164988Y-7256444D01*
G01X9195326Y-7265898D01*
G01X9226581Y-7271625D01*
G01X9258300Y-7273544D01*
G01X9290019Y-7271625D01*
G01X9321274Y-7265898D01*
G01X9351612Y-7256444D01*
G01X9380589Y-7243402D01*
G01X9407783Y-7226963D01*
G01X9432797Y-7207366D01*
G01X9455266Y-7184897D01*
G01X9474863Y-7159883D01*
G01X9491302Y-7132689D01*
G01X9504344Y-7103712D01*
G01X9513798Y-7073374D01*
G01X9519525Y-7042119D01*
G01X9521444Y-7010400D01*
G01X9519525Y-6978681D01*
G01X9513798Y-6947426D01*
G01X9504344Y-6917088D01*
G01X9491302Y-6888111D01*
G01X9474863Y-6860917D01*
G01X9455266Y-6835903D01*
G01X9432797Y-6813434D01*
G01X9407783Y-6793837D01*
G01X9380589Y-6777398D01*
G01X9351612Y-6764356D01*
G01X9321274Y-6754902D01*
G01X9290019Y-6749175D01*
G01X9258300Y-6747256D01*
G01X9226581Y-6749175D01*
G01X9195326Y-6754902D01*
G01X9164988Y-6764356D01*
G01X9136011Y-6777398D01*
G01X9108817Y-6793837D01*
G01X9083803Y-6813434D01*
G01X9061334Y-6835903D01*
G01X9041737Y-6860917D01*
G01X9025298Y-6888111D01*
G01X9012256Y-6917088D01*
G01X9002802Y-6947426D01*
G01X8997075Y-6978681D01*
G01X8995156Y-7010400D01*
G01X8995156Y-7010400D01*
G01X682244Y-7010400D01*
G01X680325Y-6978681D01*
G01X674598Y-6947426D01*
G01X665144Y-6917088D01*
G01X652102Y-6888111D01*
G01X635663Y-6860917D01*
G01X616066Y-6835903D01*
G01X593597Y-6813434D01*
G01X568583Y-6793837D01*
G01X541389Y-6777398D01*
G01X512412Y-6764356D01*
G01X482074Y-6754902D01*
G01X450819Y-6749175D01*
G01X419100Y-6747256D01*
G01X387381Y-6749175D01*
G01X356126Y-6754902D01*
G01X325788Y-6764356D01*
G01X296811Y-6777398D01*
G01X269617Y-6793837D01*
G01X244603Y-6813434D01*
G01X222134Y-6835903D01*
G01X202537Y-6860917D01*
G01X186098Y-6888111D01*
G01X173056Y-6917088D01*
G01X163602Y-6947426D01*
G01X157875Y-6978681D01*
G01X155956Y-7010400D01*
G01X155956Y-7010400D01*
G01X40894Y-7010400D01*
G01X40894Y-4537800D01*
G01X509106Y-4537800D01*
G01X509106Y-4707800D01*
G01X511108Y-4720437D01*
G01X516916Y-4731837D01*
G01X525963Y-4740884D01*
G01X537363Y-4746692D01*
G01X550000Y-4748694D01*
G01X720000Y-4748694D01*
G01X732637Y-4746692D01*
G01X744037Y-4740884D01*
G01X753084Y-4731837D01*
G01X758892Y-4720437D01*
G01X760894Y-4707800D01*
G01X760894Y-4572700D01*
G01X1596999Y-3736594D01*
G01X3840943Y-3736594D01*
G01X3830297Y-3753169D01*
G01X3822484Y-3771253D01*
G01X3817711Y-3790366D01*
G01X3816106Y-3810000D01*
G01X3817711Y-3829634D01*
G01X3822484Y-3848747D01*
G01X3830297Y-3866831D01*
G01X3840943Y-3883406D01*
G01X1574800Y-3883406D01*
G01X1560929Y-3885232D01*
G01X1548003Y-3890586D01*
G01X1536903Y-3899103D01*
G01X931654Y-4504352D01*
G01X911141Y-4498868D01*
G01X889997Y-4496910D01*
G01X868826Y-4498533D01*
G01X848228Y-4503691D01*
G01X828790Y-4512238D01*
G01X811065Y-4523930D01*
G01X795557Y-4538434D01*
G01X782707Y-4555339D01*
G01X772881Y-4574162D01*
G01X766358Y-4594369D01*
G01X763325Y-4615385D01*
G01X763866Y-4636612D01*
G01X767967Y-4657446D01*
G01X775512Y-4677295D01*
G01X786285Y-4695593D01*
G01X799980Y-4711820D01*
G01X816207Y-4725515D01*
G01X834505Y-4736288D01*
G01X854354Y-4743833D01*
G01X875188Y-4747934D01*
G01X896415Y-4748475D01*
G01X917431Y-4745442D01*
G01X937638Y-4738919D01*
G01X956461Y-4729093D01*
G01X973366Y-4716243D01*
G01X987870Y-4700735D01*
G01X999562Y-4683010D01*
G01X1008109Y-4663572D01*
G01X1013267Y-4642974D01*
G01X1014813Y-4622800D01*
G01X1017106Y-4622800D01*
G01X1019019Y-4644661D01*
G01X1024698Y-4665858D01*
G01X1033973Y-4685747D01*
G01X1046560Y-4703723D01*
G01X1062077Y-4719240D01*
G01X1080053Y-4731827D01*
G01X1099942Y-4741102D01*
G01X1121139Y-4746781D01*
G01X1143000Y-4748694D01*
G01X1164861Y-4746781D01*
G01X1186058Y-4741102D01*
G01X1205947Y-4731827D01*
G01X1223923Y-4719240D01*
G01X1239440Y-4703723D01*
G01X1252027Y-4685747D01*
G01X1261302Y-4665858D01*
G01X1266981Y-4644661D01*
G01X1268894Y-4622800D01*
G01X1271106Y-4622800D01*
G01X1273019Y-4644661D01*
G01X1278698Y-4665858D01*
G01X1287973Y-4685747D01*
G01X1300560Y-4703723D01*
G01X1316077Y-4719240D01*
G01X1334053Y-4731827D01*
G01X1353942Y-4741102D01*
G01X1375139Y-4746781D01*
G01X1397000Y-4748694D01*
G01X1418861Y-4746781D01*
G01X1440058Y-4741102D01*
G01X1459947Y-4731827D01*
G01X1477923Y-4719240D01*
G01X1493440Y-4703723D01*
G01X1506027Y-4685747D01*
G01X1515302Y-4665858D01*
G01X1520981Y-4644661D01*
G01X1522894Y-4622800D01*
G01X1520981Y-4600939D01*
G01X1515302Y-4579742D01*
G01X1506027Y-4559853D01*
G01X1493440Y-4541877D01*
G01X1477923Y-4526360D01*
G01X1459947Y-4513773D01*
G01X1440058Y-4504498D01*
G01X1418861Y-4498819D01*
G01X1397000Y-4496906D01*
G01X1375139Y-4498819D01*
G01X1353942Y-4504498D01*
G01X1334053Y-4513773D01*
G01X1316077Y-4526360D01*
G01X1300560Y-4541877D01*
G01X1287973Y-4559853D01*
G01X1278698Y-4579742D01*
G01X1273019Y-4600939D01*
G01X1271106Y-4622800D01*
G01X1271106Y-4622800D01*
G01X1268894Y-4622800D01*
G01X1266981Y-4600939D01*
G01X1261302Y-4579742D01*
G01X1252027Y-4559853D01*
G01X1239440Y-4541877D01*
G01X1223923Y-4526360D01*
G01X1205947Y-4513773D01*
G01X1186058Y-4504498D01*
G01X1164861Y-4498819D01*
G01X1143000Y-4496906D01*
G01X1121139Y-4498819D01*
G01X1099942Y-4504498D01*
G01X1080053Y-4513773D01*
G01X1062077Y-4526360D01*
G01X1046560Y-4541877D01*
G01X1033973Y-4559853D01*
G01X1024698Y-4579742D01*
G01X1019019Y-4600939D01*
G01X1017106Y-4622800D01*
G01X1017106Y-4622800D01*
G01X1014813Y-4622800D01*
G01X1014890Y-4621803D01*
G01X1012932Y-4600659D01*
G01X1007448Y-4580146D01*
G01X1596999Y-3990594D01*
G01X3840943Y-3990594D01*
G01X3830224Y-4007307D01*
G01X3822384Y-4025549D01*
G01X3817636Y-4044828D01*
G01X3816108Y-4064624D01*
G01X3817840Y-4084404D01*
G01X3822787Y-4103633D01*
G01X3830815Y-4121793D01*
G01X3841707Y-4138394D01*
G01X3855169Y-4152989D01*
G01X3870838Y-4165183D01*
G01X3888292Y-4174648D01*
G01X3907060Y-4181128D01*
G01X3926636Y-4184449D01*
G01X3946491Y-4184521D01*
G01X3966090Y-4181342D01*
G01X3984904Y-4174998D01*
G01X4483303Y-4673397D01*
G01X4494403Y-4681914D01*
G01X4507329Y-4687268D01*
G01X4521200Y-4689094D01*
G01X4588217Y-4689094D01*
G01X4587634Y-4689602D01*
G01X4301401Y-4689602D01*
G01X4037698Y-4425899D01*
G01X4026366Y-4417249D01*
G01X4013155Y-4411892D01*
G01X4028335Y-4397204D01*
G01X4040726Y-4380099D01*
G01X4049951Y-4361097D01*
G01X4055728Y-4340780D01*
G01X4057881Y-4319768D01*
G01X4056344Y-4298702D01*
G01X4051163Y-4278224D01*
G01X4042498Y-4258961D01*
G01X4030612Y-4241501D01*
G01X4015868Y-4226375D01*
G01X3998717Y-4214047D01*
G01X3979682Y-4204891D01*
G01X3959344Y-4199189D01*
G01X3938324Y-4197113D01*
G01X3917263Y-4198728D01*
G01X3896805Y-4203984D01*
G01X3877574Y-4212720D01*
G01X3860157Y-4224670D01*
G01X3845086Y-4239469D01*
G01X3832820Y-4256665D01*
G01X3823735Y-4275734D01*
G01X3818108Y-4296093D01*
G01X3816109Y-4317120D01*
G01X3817801Y-4338175D01*
G01X3823132Y-4358613D01*
G01X3831939Y-4377812D01*
G01X3843953Y-4395185D01*
G01X3858807Y-4410202D01*
G01X3793401Y-4410202D01*
G01X3707498Y-4324299D01*
G01X3696399Y-4315782D01*
G01X3683473Y-4310428D01*
G01X3669602Y-4308602D01*
G01X2432304Y-4308602D01*
G01X2418433Y-4310428D01*
G01X2405507Y-4315782D01*
G01X2394407Y-4324299D01*
G01X1027189Y-5691518D01*
G01X1018672Y-5702617D01*
G01X1013318Y-5715543D01*
G01X1011492Y-5729414D01*
G01X1011492Y-6381267D01*
G01X994166Y-6390669D01*
G01X978450Y-6402566D01*
G01X964698Y-6416688D01*
G01X953223Y-6432716D01*
G01X944284Y-6450285D01*
G01X938086Y-6468997D01*
G01X930759Y-6447662D01*
G01X919878Y-6427902D01*
G01X905765Y-6410304D01*
G01X888841Y-6395390D01*
G01X869608Y-6383603D01*
G01X848636Y-6375294D01*
G01X826549Y-6370708D01*
G01X804003Y-6369983D01*
G01X781667Y-6373140D01*
G01X760205Y-6380085D01*
G01X740254Y-6390612D01*
G01X722407Y-6404408D01*
G01X707194Y-6421064D01*
G01X695066Y-6440084D01*
G01X686383Y-6460904D01*
G01X681405Y-6482905D01*
G01X680278Y-6505435D01*
G01X683036Y-6527823D01*
G01X689597Y-6549406D01*
G01X699766Y-6569542D01*
G01X713241Y-6587632D01*
G01X729623Y-6603140D01*
G01X748423Y-6615606D01*
G01X769085Y-6624658D01*
G01X790994Y-6630028D01*
G01X813500Y-6631557D01*
G01X835935Y-6629199D01*
G01X857631Y-6623024D01*
G01X1103389Y-6868782D01*
G01X1114489Y-6877299D01*
G01X1127414Y-6882653D01*
G01X1141286Y-6884479D01*
G01X4000500Y-6884479D01*
G01X4014371Y-6882653D01*
G01X4027297Y-6877299D01*
G01X4038397Y-6868782D01*
G01X4241597Y-6665582D01*
G01X4250114Y-6654482D01*
G01X4255468Y-6641557D01*
G01X4257294Y-6627685D01*
G01X4257294Y-6002350D01*
G01X4690844Y-5568800D01*
G01X4704416Y-5566608D01*
G01X4717317Y-5561855D01*
G01X4729067Y-5554718D01*
G01X4739232Y-5545460D01*
G01X4747433Y-5534427D01*
G01X4772406Y-5559399D01*
G01X4772406Y-5689600D01*
G01X4774232Y-5703471D01*
G01X4779586Y-5716397D01*
G01X4788103Y-5727497D01*
G01X6007303Y-6946697D01*
G01X6018403Y-6955214D01*
G01X6031329Y-6960568D01*
G01X6045200Y-6962394D01*
G01X7099300Y-6962394D01*
G01X7113171Y-6960568D01*
G01X7126097Y-6955214D01*
G01X7137197Y-6946697D01*
G01X7183646Y-6900248D01*
G01X7204159Y-6905732D01*
G01X7225303Y-6907690D01*
G01X7246474Y-6906067D01*
G01X7267072Y-6900909D01*
G01X7286510Y-6892362D01*
G01X7304235Y-6880670D01*
G01X7319743Y-6866166D01*
G01X7332593Y-6849261D01*
G01X7342419Y-6830438D01*
G01X7348942Y-6810231D01*
G01X7351975Y-6789215D01*
G01X7351434Y-6767988D01*
G01X7347333Y-6747154D01*
G01X7339788Y-6727305D01*
G01X7329015Y-6709007D01*
G01X7315320Y-6692780D01*
G01X7299093Y-6679085D01*
G01X7280795Y-6668312D01*
G01X7260946Y-6660767D01*
G01X7240112Y-6656666D01*
G01X7218885Y-6656125D01*
G01X7197869Y-6659158D01*
G01X7177662Y-6665681D01*
G01X7158839Y-6675507D01*
G01X7141934Y-6688357D01*
G01X7127430Y-6703865D01*
G01X7115738Y-6721590D01*
G01X7107191Y-6741028D01*
G01X7102033Y-6761626D01*
G01X7100410Y-6782797D01*
G01X7102368Y-6803941D01*
G01X7107852Y-6824454D01*
G01X7098194Y-6834113D01*
G01X7098194Y-6696800D01*
G01X7096192Y-6684163D01*
G01X7090384Y-6672763D01*
G01X7081337Y-6663716D01*
G01X7069937Y-6657908D01*
G01X7057300Y-6655906D01*
G01X6887300Y-6655906D01*
G01X6874663Y-6657908D01*
G01X6863263Y-6663716D01*
G01X6854216Y-6672763D01*
G01X6848408Y-6684163D01*
G01X6846406Y-6696800D01*
G01X6846406Y-6855206D01*
G01X6067399Y-6855206D01*
G01X4938103Y-5725910D01*
G01X4949435Y-5717734D01*
G01X4958958Y-5707509D01*
G01X4966307Y-5695624D01*
G01X4971200Y-5682535D01*
G01X4973449Y-5668744D01*
G01X5295697Y-5346497D01*
G01X5304214Y-5335397D01*
G01X5309568Y-5322471D01*
G01X5311394Y-5308600D01*
G01X5311394Y-5254168D01*
G01X5320711Y-5240755D01*
G01X5326735Y-5225575D01*
G01X5329153Y-5209424D01*
G01X5327837Y-5193146D01*
G01X5322856Y-5177592D01*
G01X5314471Y-5163578D01*
G01X5303121Y-5151836D01*
G01X5289399Y-5142980D01*
G01X5274024Y-5137474D01*
G01X5257800Y-5135606D01*
G01X5241576Y-5137474D01*
G01X5226201Y-5142980D01*
G01X5212479Y-5151836D01*
G01X5201129Y-5163578D01*
G01X5192744Y-5177592D01*
G01X5187763Y-5193146D01*
G01X5186447Y-5209424D01*
G01X5188865Y-5225575D01*
G01X5194889Y-5240755D01*
G01X5204206Y-5254168D01*
G01X5204206Y-5286401D01*
G01X4897656Y-5592951D01*
G01X4888511Y-5594131D01*
G01X4879594Y-5596479D01*
G01X4879594Y-5537200D01*
G01X4877768Y-5523329D01*
G01X4872414Y-5510403D01*
G01X4863897Y-5499303D01*
G01X4152697Y-4788103D01*
G01X4141597Y-4779586D01*
G01X4128671Y-4774232D01*
G01X4114800Y-4772406D01*
G01X4045365Y-4772406D01*
G01X4034104Y-4753986D01*
G01X4019747Y-4737862D01*
G01X4002751Y-4724550D01*
G01X3983657Y-4714472D01*
G01X3963076Y-4707952D01*
G01X3941663Y-4705196D01*
G01X3920102Y-4706293D01*
G01X3899079Y-4711207D01*
G01X3879266Y-4719783D01*
G01X3861294Y-4731746D01*
G01X3845736Y-4746714D01*
G01X3833089Y-4764212D01*
G01X3823756Y-4783679D01*
G01X3818034Y-4804497D01*
G01X3816106Y-4826000D01*
G01X3818034Y-4847503D01*
G01X3823756Y-4868321D01*
G01X3833089Y-4887788D01*
G01X3845736Y-4905286D01*
G01X3861294Y-4920254D01*
G01X3879266Y-4932217D01*
G01X3899079Y-4940793D01*
G01X3920102Y-4945707D01*
G01X3941663Y-4946804D01*
G01X3963076Y-4944048D01*
G01X3983657Y-4937528D01*
G01X4002751Y-4927450D01*
G01X4019747Y-4914138D01*
G01X4034104Y-4898014D01*
G01X4045365Y-4879594D01*
G01X4092601Y-4879594D01*
G01X4649424Y-5436417D01*
G01X4638390Y-5444619D01*
G01X4629133Y-5454783D01*
G01X4621996Y-5466534D01*
G01X4617243Y-5479434D01*
G01X4615051Y-5493007D01*
G01X4165803Y-5942254D01*
G01X4157286Y-5953354D01*
G01X4151932Y-5966279D01*
G01X4150106Y-5980151D01*
G01X4150106Y-6144180D01*
G01X4134262Y-6140827D01*
G01X4118070Y-6141132D01*
G01X4102364Y-6145078D01*
G01X4087950Y-6152462D01*
G01X4075572Y-6162904D01*
G01X4065866Y-6175868D01*
G01X4059331Y-6190686D01*
G01X4056303Y-6206595D01*
G01X4056939Y-6222777D01*
G01X4061206Y-6238400D01*
G01X4061206Y-6576540D01*
G01X3947640Y-6690106D01*
G01X2707160Y-6690106D01*
G01X2645911Y-6628858D01*
G01X2666326Y-6632609D01*
G01X2687076Y-6633086D01*
G01X2707641Y-6630277D01*
G01X2727503Y-6624253D01*
G01X2746163Y-6615164D01*
G01X2763152Y-6603241D01*
G01X2778043Y-6588782D01*
G01X2790461Y-6572151D01*
G01X2800094Y-6553766D01*
G01X2806700Y-6534089D01*
G01X2813914Y-6555168D01*
G01X2824598Y-6574719D01*
G01X2838443Y-6592174D01*
G01X2855048Y-6607028D01*
G01X2873931Y-6618851D01*
G01X2894546Y-6627301D01*
G01X2916296Y-6632132D01*
G01X2938549Y-6633204D01*
G01X2960662Y-6630487D01*
G01X2981994Y-6624059D01*
G01X3001927Y-6614106D01*
G01X3019883Y-6600917D01*
G01X3035342Y-6584874D01*
G01X3047857Y-6566442D01*
G01X3057064Y-6546154D01*
G01X3062698Y-6524599D01*
G01X3064594Y-6502400D01*
G01X3062698Y-6480201D01*
G01X3057064Y-6458646D01*
G01X3047857Y-6438358D01*
G01X3035342Y-6419926D01*
G01X3019883Y-6403883D01*
G01X3001927Y-6390694D01*
G01X2981994Y-6380741D01*
G01X2960662Y-6374313D01*
G01X2938549Y-6371596D01*
G01X2916296Y-6372668D01*
G01X2894546Y-6377499D01*
G01X2873931Y-6385949D01*
G01X2855048Y-6397772D01*
G01X2838443Y-6412626D01*
G01X2824598Y-6430081D01*
G01X2813914Y-6449632D01*
G01X2806700Y-6470711D01*
G01X2799562Y-6449804D01*
G01X2789009Y-6430395D01*
G01X2775342Y-6413037D01*
G01X2758951Y-6398225D01*
G01X2740302Y-6386380D01*
G01X2719927Y-6377841D01*
G01X2698405Y-6372850D01*
G01X2676351Y-6371549D01*
G01X2654393Y-6373976D01*
G01X2633155Y-6380061D01*
G01X2603093Y-6350000D01*
G01X3816106Y-6350000D01*
G01X3817943Y-6370993D01*
G01X3823397Y-6391348D01*
G01X3832303Y-6410447D01*
G01X3844390Y-6427709D01*
G01X3859291Y-6442610D01*
G01X3876553Y-6454697D01*
G01X3895652Y-6463603D01*
G01X3916007Y-6469057D01*
G01X3937000Y-6470894D01*
G01X3957993Y-6469057D01*
G01X3978348Y-6463603D01*
G01X3997447Y-6454697D01*
G01X4014709Y-6442610D01*
G01X4029610Y-6427709D01*
G01X4041697Y-6410447D01*
G01X4050603Y-6391348D01*
G01X4056057Y-6370993D01*
G01X4057894Y-6350000D01*
G01X4056057Y-6329007D01*
G01X4050603Y-6308652D01*
G01X4041697Y-6289553D01*
G01X4029610Y-6272291D01*
G01X4014709Y-6257390D01*
G01X3997447Y-6245303D01*
G01X3978348Y-6236397D01*
G01X3957993Y-6230943D01*
G01X3937000Y-6229106D01*
G01X3937000Y-6229106D01*
G01X3916007Y-6230943D01*
G01X3895652Y-6236397D01*
G01X3876553Y-6245303D01*
G01X3859291Y-6257390D01*
G01X3844390Y-6272291D01*
G01X3832303Y-6289553D01*
G01X3823397Y-6308652D01*
G01X3817943Y-6329007D01*
G01X3816106Y-6350000D01*
G01X2603093Y-6350000D01*
G01X2403094Y-6150001D01*
G01X2403094Y-6139219D01*
G01X2421887Y-6128857D01*
G01X2438734Y-6115563D01*
G01X2453182Y-6099695D01*
G01X2464843Y-6081680D01*
G01X2473404Y-6062001D01*
G01X2478635Y-6041188D01*
G01X2480394Y-6019800D01*
G01X2478635Y-5998412D01*
G01X2473404Y-5977599D01*
G01X2464843Y-5957920D01*
G01X2453182Y-5939905D01*
G01X2438734Y-5924037D01*
G01X2421887Y-5910743D01*
G01X2403094Y-5900381D01*
G01X2403094Y-5885219D01*
G01X2421887Y-5874857D01*
G01X2438734Y-5861563D01*
G01X2453182Y-5845695D01*
G01X2464843Y-5827680D01*
G01X2473404Y-5808001D01*
G01X2478635Y-5787188D01*
G01X2480394Y-5765800D01*
G01X2478635Y-5744412D01*
G01X2473404Y-5723599D01*
G01X2464843Y-5703920D01*
G01X2453182Y-5685905D01*
G01X2438734Y-5670037D01*
G01X2421887Y-5656743D01*
G01X2403094Y-5646381D01*
G01X2403094Y-5631219D01*
G01X2421887Y-5620857D01*
G01X2438734Y-5607563D01*
G01X2453182Y-5591695D01*
G01X2464843Y-5573680D01*
G01X2473404Y-5554001D01*
G01X2478635Y-5533188D01*
G01X2480394Y-5511800D01*
G01X2478635Y-5490412D01*
G01X2473404Y-5469599D01*
G01X2464843Y-5449920D01*
G01X2453182Y-5431905D01*
G01X2438734Y-5416037D01*
G01X2421887Y-5402743D01*
G01X2403094Y-5392381D01*
G01X2403094Y-5377219D01*
G01X2421887Y-5366857D01*
G01X2438734Y-5353563D01*
G01X2453182Y-5337695D01*
G01X2464843Y-5319680D01*
G01X2473404Y-5300001D01*
G01X2478635Y-5279188D01*
G01X2480394Y-5257800D01*
G01X2478635Y-5236412D01*
G01X2473404Y-5215599D01*
G01X2464843Y-5195920D01*
G01X2453182Y-5177905D01*
G01X2438734Y-5162037D01*
G01X2421887Y-5148743D01*
G01X2403094Y-5138381D01*
G01X2403094Y-5123219D01*
G01X2421887Y-5112857D01*
G01X2438734Y-5099563D01*
G01X2453182Y-5083695D01*
G01X2464843Y-5065680D01*
G01X2473404Y-5046001D01*
G01X2478635Y-5025188D01*
G01X2480394Y-5003800D01*
G01X2478635Y-4982412D01*
G01X2473404Y-4961599D01*
G01X2464843Y-4941920D01*
G01X2453182Y-4923905D01*
G01X2438734Y-4908037D01*
G01X2421887Y-4894743D01*
G01X2403094Y-4884381D01*
G01X2403094Y-4880694D01*
G01X2439500Y-4880694D01*
G01X2452137Y-4878692D01*
G01X2463537Y-4872884D01*
G01X2472584Y-4863837D01*
G01X2478392Y-4852437D01*
G01X2480394Y-4839800D01*
G01X2480394Y-4659800D01*
G01X2478392Y-4647163D01*
G01X2472584Y-4635763D01*
G01X2463537Y-4626716D01*
G01X2452137Y-4620908D01*
G01X2439500Y-4618906D01*
G01X2314887Y-4618906D01*
G01X2447899Y-4485894D01*
G01X3599332Y-4485894D01*
G01X3611544Y-4494551D01*
G01X3625293Y-4500471D01*
G01X3639973Y-4503395D01*
G01X3654941Y-4503193D01*
G01X3669538Y-4499875D01*
G01X3683121Y-4493586D01*
G01X3695095Y-4484603D01*
G01X3704933Y-4473321D01*
G01X3733305Y-4501693D01*
G01X3744405Y-4510210D01*
G01X3757330Y-4515564D01*
G01X3771202Y-4517390D01*
G01X3829143Y-4517390D01*
G01X3821859Y-4535151D01*
G01X3817478Y-4553842D01*
G01X3816110Y-4572990D01*
G01X3817791Y-4592113D01*
G01X3822478Y-4610729D01*
G01X3737001Y-4696206D01*
G01X3153494Y-4696206D01*
G01X3153494Y-4659800D01*
G01X3151492Y-4647163D01*
G01X3145684Y-4635763D01*
G01X3136637Y-4626716D01*
G01X3125237Y-4620908D01*
G01X3112600Y-4618906D01*
G01X2932600Y-4618906D01*
G01X2919963Y-4620908D01*
G01X2908563Y-4626716D01*
G01X2899516Y-4635763D01*
G01X2893708Y-4647163D01*
G01X2891706Y-4659800D01*
G01X2891706Y-4839800D01*
G01X2893708Y-4852437D01*
G01X2899516Y-4863837D01*
G01X2908563Y-4872884D01*
G01X2919963Y-4878692D01*
G01X2932600Y-4880694D01*
G01X2978125Y-4880694D01*
G01X2957935Y-4889995D01*
G01X2939611Y-4902577D01*
G01X2923680Y-4918079D01*
G01X2910602Y-4936053D01*
G01X2900754Y-4955981D01*
G01X2894419Y-4977288D01*
G01X2891782Y-4999359D01*
G01X2892916Y-5021559D01*
G01X2897791Y-5043246D01*
G01X2906266Y-5063796D01*
G01X2918095Y-5082615D01*
G01X2932938Y-5099162D01*
G01X2950367Y-5112958D01*
G01X2969879Y-5123607D01*
G01X2990911Y-5130800D01*
G01X2970387Y-5137771D01*
G01X2951295Y-5148033D01*
G01X2934159Y-5161305D01*
G01X2919447Y-5177223D01*
G01X2907564Y-5195351D01*
G01X2898836Y-5215191D01*
G01X2893501Y-5236199D01*
G01X2891706Y-5257800D01*
G01X2893501Y-5279401D01*
G01X2898836Y-5300409D01*
G01X2907564Y-5320249D01*
G01X2919447Y-5338377D01*
G01X2934159Y-5354295D01*
G01X2951295Y-5367567D01*
G01X2970387Y-5377829D01*
G01X2990911Y-5384800D01*
G01X2970387Y-5391771D01*
G01X2951295Y-5402033D01*
G01X2934159Y-5415305D01*
G01X2919447Y-5431223D01*
G01X2907564Y-5449351D01*
G01X2898836Y-5469191D01*
G01X2893501Y-5490199D01*
G01X2891706Y-5511800D01*
G01X2893501Y-5533401D01*
G01X2898836Y-5554409D01*
G01X2907564Y-5574249D01*
G01X2919447Y-5592377D01*
G01X2934159Y-5608295D01*
G01X2951295Y-5621567D01*
G01X2970387Y-5631829D01*
G01X2990911Y-5638800D01*
G01X2970387Y-5645771D01*
G01X2951295Y-5656033D01*
G01X2934159Y-5669305D01*
G01X2919447Y-5685223D01*
G01X2907564Y-5703351D01*
G01X2898836Y-5723191D01*
G01X2893501Y-5744199D01*
G01X2891706Y-5765800D01*
G01X2893501Y-5787401D01*
G01X2898836Y-5808409D01*
G01X2907564Y-5828249D01*
G01X2919447Y-5846377D01*
G01X2934159Y-5862295D01*
G01X2951295Y-5875567D01*
G01X2970387Y-5885829D01*
G01X2990911Y-5892800D01*
G01X2970646Y-5899658D01*
G01X2951769Y-5909726D01*
G01X2934785Y-5922735D01*
G01X2920146Y-5938336D01*
G01X2908244Y-5956114D01*
G01X2899397Y-5975593D01*
G01X2893842Y-5996253D01*
G01X2891726Y-6017542D01*
G01X2893106Y-6038891D01*
G01X2897945Y-6059730D01*
G01X2906115Y-6079503D01*
G01X2917396Y-6097680D01*
G01X2931488Y-6113778D01*
G01X2948014Y-6127364D01*
G01X2966532Y-6138078D01*
G01X2986548Y-6145631D01*
G01X3007527Y-6149823D01*
G01X3028909Y-6150542D01*
G01X3050122Y-6147768D01*
G01X3070600Y-6141575D01*
G01X3079450Y-6145979D01*
G01X3088957Y-6148682D01*
G01X3098800Y-6149594D01*
G01X3828635Y-6149594D01*
G01X3839896Y-6168014D01*
G01X3854253Y-6184138D01*
G01X3871249Y-6197450D01*
G01X3890343Y-6207528D01*
G01X3910924Y-6214048D01*
G01X3932337Y-6216804D01*
G01X3953898Y-6215707D01*
G01X3974921Y-6210793D01*
G01X3994734Y-6202217D01*
G01X4012706Y-6190254D01*
G01X4028264Y-6175286D01*
G01X4040911Y-6157788D01*
G01X4050244Y-6138321D01*
G01X4055966Y-6117503D01*
G01X4057894Y-6096000D01*
G01X4055966Y-6074497D01*
G01X4050244Y-6053679D01*
G01X4040911Y-6034212D01*
G01X4028264Y-6016714D01*
G01X4012706Y-6001746D01*
G01X3994734Y-5989783D01*
G01X3974921Y-5981207D01*
G01X3953898Y-5976293D01*
G01X3932337Y-5975196D01*
G01X3910924Y-5977952D01*
G01X3890343Y-5984472D01*
G01X3871249Y-5994550D01*
G01X3854253Y-6007862D01*
G01X3839896Y-6023986D01*
G01X3828635Y-6042406D01*
G01X3151527Y-6042406D01*
G01X3153491Y-6020707D01*
G01X3151828Y-5998982D01*
G01X3146584Y-5977834D01*
G01X3137905Y-5957849D01*
G01X3126031Y-5939581D01*
G01X3111292Y-5923535D01*
G01X3094095Y-5910156D01*
G01X3074917Y-5899816D01*
G01X3054289Y-5892800D01*
G01X3073001Y-5886601D01*
G01X3090570Y-5877663D01*
G01X3106597Y-5866188D01*
G01X3120720Y-5852436D01*
G01X3132617Y-5836719D01*
G01X3142019Y-5819394D01*
G01X3818239Y-5819394D01*
G01X3816118Y-5840322D01*
G01X3817657Y-5861302D01*
G01X3822809Y-5881696D01*
G01X3831419Y-5900889D01*
G01X3843225Y-5918299D01*
G01X3857871Y-5933399D01*
G01X3874912Y-5945732D01*
G01X3893833Y-5954924D01*
G01X3914060Y-5960698D01*
G01X3934983Y-5962877D01*
G01X3955966Y-5961397D01*
G01X3976375Y-5956302D01*
G01X3995593Y-5947746D01*
G01X4013036Y-5935989D01*
G01X4028177Y-5921386D01*
G01X4040557Y-5904379D01*
G01X4049803Y-5885484D01*
G01X4055633Y-5865273D01*
G01X4057871Y-5844357D01*
G01X4056450Y-5823369D01*
G01X4051412Y-5802946D01*
G01X4042910Y-5783705D01*
G01X4031202Y-5766229D01*
G01X4016642Y-5751047D01*
G01X3999670Y-5738618D01*
G01X3980801Y-5729320D01*
G01X3960606Y-5723433D01*
G01X3939696Y-5721136D01*
G01X3918705Y-5722498D01*
G01X3898267Y-5727479D01*
G01X3887248Y-5719186D01*
G01X3874477Y-5713980D01*
G01X3860800Y-5712206D01*
G01X3142019Y-5712206D01*
G01X3132617Y-5694881D01*
G01X3120720Y-5679164D01*
G01X3106597Y-5665412D01*
G01X3090570Y-5653937D01*
G01X3073001Y-5644999D01*
G01X3054289Y-5638800D01*
G01X3073001Y-5632601D01*
G01X3090570Y-5623663D01*
G01X3106597Y-5612188D01*
G01X3120720Y-5598436D01*
G01X3132617Y-5582719D01*
G01X3142019Y-5565394D01*
G01X3818239Y-5565394D01*
G01X3816118Y-5586322D01*
G01X3817657Y-5607302D01*
G01X3822809Y-5627696D01*
G01X3831419Y-5646889D01*
G01X3843225Y-5664299D01*
G01X3857871Y-5679399D01*
G01X3874912Y-5691732D01*
G01X3893833Y-5700924D01*
G01X3914060Y-5706698D01*
G01X3934983Y-5708877D01*
G01X3955966Y-5707397D01*
G01X3976375Y-5702302D01*
G01X3995593Y-5693746D01*
G01X4013036Y-5681989D01*
G01X4028177Y-5667386D01*
G01X4040557Y-5650379D01*
G01X4049803Y-5631484D01*
G01X4055633Y-5611273D01*
G01X4057871Y-5590357D01*
G01X4056450Y-5569369D01*
G01X4051412Y-5548946D01*
G01X4042910Y-5529705D01*
G01X4031202Y-5512229D01*
G01X4016642Y-5497047D01*
G01X3999670Y-5484618D01*
G01X3980801Y-5475320D01*
G01X3960606Y-5469433D01*
G01X3939696Y-5467136D01*
G01X3918705Y-5468498D01*
G01X3898267Y-5473479D01*
G01X3887248Y-5465186D01*
G01X3874477Y-5459980D01*
G01X3860800Y-5458206D01*
G01X3142019Y-5458206D01*
G01X3132617Y-5440881D01*
G01X3120720Y-5425164D01*
G01X3106597Y-5411412D01*
G01X3090570Y-5399937D01*
G01X3073001Y-5390999D01*
G01X3054289Y-5384800D01*
G01X3070600Y-5379575D01*
G01X3079450Y-5383979D01*
G01X3088957Y-5386682D01*
G01X3098800Y-5387594D01*
G01X3828635Y-5387594D01*
G01X3839896Y-5406014D01*
G01X3854253Y-5422138D01*
G01X3871249Y-5435450D01*
G01X3890343Y-5445528D01*
G01X3910924Y-5452048D01*
G01X3932337Y-5454804D01*
G01X3953898Y-5453707D01*
G01X3974921Y-5448793D01*
G01X3994734Y-5440217D01*
G01X4012706Y-5428254D01*
G01X4028264Y-5413286D01*
G01X4040911Y-5395788D01*
G01X4050244Y-5376321D01*
G01X4055966Y-5355503D01*
G01X4057894Y-5334000D01*
G01X4055966Y-5312497D01*
G01X4050244Y-5291679D01*
G01X4040911Y-5272212D01*
G01X4028264Y-5254714D01*
G01X4012706Y-5239746D01*
G01X3994734Y-5227783D01*
G01X3974921Y-5219207D01*
G01X3953898Y-5214293D01*
G01X3932337Y-5213196D01*
G01X3910924Y-5215952D01*
G01X3890343Y-5222472D01*
G01X3871249Y-5232550D01*
G01X3854253Y-5245862D01*
G01X3839896Y-5261986D01*
G01X3828635Y-5280406D01*
G01X3151527Y-5280406D01*
G01X3153491Y-5258707D01*
G01X3151828Y-5236982D01*
G01X3146584Y-5215834D01*
G01X3137905Y-5195849D01*
G01X3126031Y-5177581D01*
G01X3111292Y-5161535D01*
G01X3094095Y-5148156D01*
G01X3074917Y-5137816D01*
G01X3054289Y-5130800D01*
G01X3070600Y-5125575D01*
G01X3079450Y-5129979D01*
G01X3088957Y-5132682D01*
G01X3098800Y-5133594D01*
G01X3828635Y-5133594D01*
G01X3839896Y-5152014D01*
G01X3854253Y-5168138D01*
G01X3871249Y-5181450D01*
G01X3890343Y-5191528D01*
G01X3910924Y-5198048D01*
G01X3932337Y-5200804D01*
G01X3953898Y-5199707D01*
G01X3974921Y-5194793D01*
G01X3994734Y-5186217D01*
G01X4012706Y-5174254D01*
G01X4028264Y-5159286D01*
G01X4040911Y-5141788D01*
G01X4050244Y-5122321D01*
G01X4055966Y-5101503D01*
G01X4057894Y-5080000D01*
G01X4055966Y-5058497D01*
G01X4050244Y-5037679D01*
G01X4040911Y-5018212D01*
G01X4028264Y-5000714D01*
G01X4012706Y-4985746D01*
G01X3994734Y-4973783D01*
G01X3974921Y-4965207D01*
G01X3953898Y-4960293D01*
G01X3932337Y-4959196D01*
G01X3910924Y-4961952D01*
G01X3890343Y-4968472D01*
G01X3871249Y-4978550D01*
G01X3854253Y-4991862D01*
G01X3839896Y-5007986D01*
G01X3828635Y-5026406D01*
G01X3151527Y-5026406D01*
G01X3153494Y-5003651D01*
G01X3151475Y-4980901D01*
G01X3145533Y-4958848D01*
G01X3135848Y-4938164D01*
G01X3122715Y-4919478D01*
G01X3106534Y-4903359D01*
G01X3087797Y-4890299D01*
G01X3067075Y-4880694D01*
G01X3112600Y-4880694D01*
G01X3125237Y-4878692D01*
G01X3136637Y-4872884D01*
G01X3145684Y-4863837D01*
G01X3151492Y-4852437D01*
G01X3153494Y-4839800D01*
G01X3153494Y-4803394D01*
G01X3759200Y-4803394D01*
G01X3773071Y-4801568D01*
G01X3785997Y-4796214D01*
G01X3797097Y-4787697D01*
G01X3898271Y-4686522D01*
G01X3918230Y-4691428D01*
G01X3938732Y-4692881D01*
G01X3959183Y-4690841D01*
G01X3978994Y-4685366D01*
G01X3997590Y-4676614D01*
G01X4014436Y-4664839D01*
G01X4029043Y-4650380D01*
G01X4040990Y-4633656D01*
G01X4049931Y-4615150D01*
G01X4055608Y-4595396D01*
G01X4241305Y-4781093D01*
G01X4252405Y-4789610D01*
G01X4265330Y-4794964D01*
G01X4279202Y-4796790D01*
G01X4587634Y-4796790D01*
G01X4600791Y-4805968D01*
G01X4615665Y-4811978D01*
G01X4631505Y-4814514D01*
G01X4647512Y-4813450D01*
G01X4662877Y-4808838D01*
G01X4676824Y-4800912D01*
G01X4688650Y-4790073D01*
G01X4697757Y-4776866D01*
G01X4703686Y-4761960D01*
G01X4706136Y-4746106D01*
G01X4704985Y-4730105D01*
G01X4700290Y-4714765D01*
G01X4692289Y-4700861D01*
G01X4681386Y-4689094D01*
G01X5032401Y-4689094D01*
G01X5509786Y-5166479D01*
G01X5495057Y-5174771D01*
G01X5482691Y-5186293D01*
G01X5473380Y-5200399D01*
G01X5467645Y-5216298D01*
G01X5465809Y-5233100D01*
G01X5467975Y-5249863D01*
G01X5474020Y-5265647D01*
G01X5483606Y-5279568D01*
G01X5483606Y-5867400D01*
G01X5485432Y-5881271D01*
G01X5490786Y-5894197D01*
G01X5499303Y-5905297D01*
G01X5592951Y-5998944D01*
G01X5595847Y-6015016D01*
G01X5602321Y-6030010D01*
G01X5612032Y-6043140D01*
G01X5624473Y-6053720D01*
G01X5638993Y-6061196D01*
G01X5654831Y-6065177D01*
G01X5671160Y-6065454D01*
G01X5687125Y-6062013D01*
G01X5701890Y-6055035D01*
G01X5714683Y-6044883D01*
G01X5724835Y-6032090D01*
G01X5731813Y-6017325D01*
G01X5735254Y-6001360D01*
G01X5734977Y-5985031D01*
G01X5730996Y-5969193D01*
G01X5723520Y-5954673D01*
G01X5712940Y-5942232D01*
G01X5699810Y-5932521D01*
G01X5684816Y-5926047D01*
G01X5668744Y-5923151D01*
G01X5590794Y-5845201D01*
G01X5590794Y-5279568D01*
G01X5597768Y-5270197D01*
G01X5603121Y-5259814D01*
G01X6337503Y-5994197D01*
G01X6348603Y-6002714D01*
G01X6361529Y-6008068D01*
G01X6375400Y-6009894D01*
G01X6392141Y-6009894D01*
G01X6377971Y-6026656D01*
G01X6367065Y-6045704D01*
G01X6359783Y-6066410D01*
G01X6356365Y-6088091D01*
G01X6356923Y-6110033D01*
G01X6361440Y-6131513D01*
G01X6369765Y-6151822D01*
G01X6381626Y-6170290D01*
G01X6396630Y-6186310D01*
G01X6414283Y-6199353D01*
G01X6434004Y-6208990D01*
G01X6455142Y-6214901D01*
G01X6477000Y-6216894D01*
G01X6498858Y-6214901D01*
G01X6519996Y-6208990D01*
G01X6539717Y-6199353D01*
G01X6557370Y-6186310D01*
G01X6572374Y-6170290D01*
G01X6584235Y-6151822D01*
G01X6592560Y-6131513D01*
G01X6597077Y-6110033D01*
G01X6597635Y-6088091D01*
G01X6594217Y-6066410D01*
G01X6586935Y-6045704D01*
G01X6576029Y-6026656D01*
G01X6561859Y-6009894D01*
G01X6645301Y-6009894D01*
G01X7365510Y-6730103D01*
G01X7358457Y-6750120D01*
G01X7354867Y-6771036D01*
G01X7354841Y-6792258D01*
G01X7358381Y-6813184D01*
G01X7365385Y-6833217D01*
G01X7375654Y-6851789D01*
G01X7388897Y-6868372D01*
G01X7404738Y-6882496D01*
G01X7422726Y-6893757D01*
G01X7442349Y-6901838D01*
G01X7463052Y-6906507D01*
G01X7484244Y-6907632D01*
G01X7505325Y-6905182D01*
G01X7525694Y-6899225D01*
G01X7544773Y-6889932D01*
G01X7562020Y-6877565D01*
G01X7576945Y-6862478D01*
G01X7589124Y-6845098D01*
G01X7598210Y-6825919D01*
G01X7603946Y-6805486D01*
G01X7606167Y-6784381D01*
G01X7604812Y-6763201D01*
G01X7599919Y-6742551D01*
G01X7591627Y-6723016D01*
G01X7580171Y-6705151D01*
G01X7565877Y-6689464D01*
G01X7549151Y-6676402D01*
G01X7530469Y-6666334D01*
G01X7510361Y-6659548D01*
G01X7489398Y-6656235D01*
G01X7468178Y-6656491D01*
G01X7447301Y-6660308D01*
G01X7078965Y-6291972D01*
G01X7100284Y-6289164D01*
G01X7120768Y-6282623D01*
G01X7139770Y-6272557D01*
G01X7156687Y-6259284D01*
G01X7170986Y-6243223D01*
G01X7182213Y-6224884D01*
G01X7190013Y-6204845D01*
G01X7194140Y-6183742D01*
G01X7194463Y-6162241D01*
G01X7190971Y-6141023D01*
G01X7183776Y-6120760D01*
G01X7173105Y-6102092D01*
G01X7159295Y-6085609D01*
G01X7142783Y-6071834D01*
G01X7124092Y-6061202D01*
G01X7142554Y-6050729D01*
G01X7158899Y-6037188D01*
G01X7172624Y-6020998D01*
G01X7183305Y-6002657D01*
G01X7190615Y-5982730D01*
G01X7194327Y-5961833D01*
G01X7194327Y-5951220D01*
G01X7461006Y-5951220D01*
G01X7462613Y-5970867D01*
G01X7467392Y-5989991D01*
G01X7475215Y-6008085D01*
G01X7485874Y-6024667D01*
G01X7499087Y-6039296D01*
G01X7514501Y-6051583D01*
G01X7531708Y-6061202D01*
G01X7513199Y-6071708D01*
G01X7496819Y-6085297D01*
G01X7483076Y-6101548D01*
G01X7472396Y-6119956D01*
G01X7465110Y-6139953D01*
G01X7461443Y-6160917D01*
G01X7461509Y-6182200D01*
G01X7465306Y-6203141D01*
G01X7472717Y-6223091D01*
G01X7483511Y-6241433D01*
G01X7497355Y-6257598D01*
G01X7513819Y-6271085D01*
G01X7532392Y-6281476D01*
G01X7552500Y-6288449D01*
G01X7573519Y-6291787D01*
G01X7594798Y-6291388D01*
G01X7615677Y-6287263D01*
G01X7635510Y-6279541D01*
G01X7653681Y-6268461D01*
G01X7669627Y-6254366D01*
G01X7682854Y-6237694D01*
G01X7692953Y-6218960D01*
G01X7699610Y-6198745D01*
G01X7702619Y-6177676D01*
G01X7701887Y-6156406D01*
G01X7697436Y-6135594D01*
G01X7689405Y-6115885D01*
G01X7678042Y-6097890D01*
G01X7737897Y-6038035D01*
G01X7746191Y-6027317D01*
G01X7751532Y-6014861D01*
G01X7860106Y-5906287D01*
G01X7860106Y-6043600D01*
G01X7862108Y-6056237D01*
G01X7867916Y-6067637D01*
G01X7876963Y-6076684D01*
G01X7888363Y-6082492D01*
G01X7901000Y-6084494D01*
G01X8101000Y-6084494D01*
G01X8113637Y-6082492D01*
G01X8125037Y-6076684D01*
G01X8134084Y-6067637D01*
G01X8139892Y-6056237D01*
G01X8141894Y-6043600D01*
G01X8141894Y-5843600D01*
G01X8139892Y-5830963D01*
G01X8134084Y-5819563D01*
G01X8125037Y-5810516D01*
G01X8113637Y-5804708D01*
G01X8101000Y-5802706D01*
G01X8085012Y-5802706D01*
G01X8100106Y-5789745D01*
G01X8113224Y-5774787D01*
G01X8121707Y-5761799D01*
G01X8911506Y-5761799D01*
G01X8913495Y-5784529D01*
G01X8919400Y-5806568D01*
G01X8929043Y-5827246D01*
G01X8942130Y-5845936D01*
G01X8958263Y-5862070D01*
G01X8976953Y-5875157D01*
G01X8997632Y-5884799D01*
G01X9019671Y-5890705D01*
G01X9042400Y-5892693D01*
G01X9065129Y-5890705D01*
G01X9087168Y-5884799D01*
G01X9107847Y-5875157D01*
G01X9126537Y-5862070D01*
G01X9142670Y-5845936D01*
G01X9155757Y-5827246D01*
G01X9165400Y-5806568D01*
G01X9171305Y-5784529D01*
G01X9173294Y-5761799D01*
G01X9171305Y-5739070D01*
G01X9165400Y-5717031D01*
G01X9155757Y-5696353D01*
G01X9142670Y-5677663D01*
G01X9126537Y-5661529D01*
G01X9107847Y-5648442D01*
G01X9087168Y-5638800D01*
G01X9065129Y-5632894D01*
G01X9042400Y-5630906D01*
G01X9042400Y-5630906D01*
G01X9019671Y-5632894D01*
G01X8997632Y-5638800D01*
G01X8976953Y-5648442D01*
G01X8958263Y-5661529D01*
G01X8942130Y-5677663D01*
G01X8929043Y-5696353D01*
G01X8919400Y-5717031D01*
G01X8913495Y-5739070D01*
G01X8911506Y-5761799D01*
G01X8121707Y-5761799D01*
G01X8124105Y-5758130D01*
G01X8132530Y-5740106D01*
G01X8143217Y-5734915D01*
G01X8152498Y-5727497D01*
G01X8618194Y-5261800D01*
G01X8911506Y-5261800D01*
G01X8913495Y-5284530D01*
G01X8919400Y-5306569D01*
G01X8929043Y-5327247D01*
G01X8942130Y-5345937D01*
G01X8958263Y-5362071D01*
G01X8976953Y-5375158D01*
G01X8997632Y-5384800D01*
G01X9019671Y-5390706D01*
G01X9042400Y-5392694D01*
G01X9065129Y-5390706D01*
G01X9087168Y-5384800D01*
G01X9107847Y-5375158D01*
G01X9126537Y-5362071D01*
G01X9142670Y-5345937D01*
G01X9155757Y-5327247D01*
G01X9165400Y-5306569D01*
G01X9171305Y-5284530D01*
G01X9173294Y-5261800D01*
G01X9171305Y-5239071D01*
G01X9165400Y-5217032D01*
G01X9155757Y-5196354D01*
G01X9142670Y-5177664D01*
G01X9126537Y-5161530D01*
G01X9107847Y-5148443D01*
G01X9087168Y-5138801D01*
G01X9065129Y-5132895D01*
G01X9042400Y-5130907D01*
G01X9042400Y-5130907D01*
G01X9019671Y-5132895D01*
G01X8997632Y-5138801D01*
G01X8976953Y-5148443D01*
G01X8958263Y-5161530D01*
G01X8942130Y-5177664D01*
G01X8929043Y-5196354D01*
G01X8919400Y-5217032D01*
G01X8913495Y-5239071D01*
G01X8911506Y-5261800D01*
G01X8618194Y-5261800D01*
G01X8995855Y-4884140D01*
G01X9017221Y-4890251D01*
G01X9039313Y-4892659D01*
G01X9061495Y-4891295D01*
G01X9083125Y-4886199D01*
G01X9103582Y-4877516D01*
G01X9122276Y-4865499D01*
G01X9138666Y-4850492D01*
G01X9152282Y-4832928D01*
G01X9162731Y-4813315D01*
G01X9169711Y-4792216D01*
G01X9173021Y-4770241D01*
G01X9172567Y-4748023D01*
G01X9168360Y-4726202D01*
G01X9160522Y-4705406D01*
G01X9149279Y-4686237D01*
G01X9134956Y-4669246D01*
G01X9117965Y-4654922D01*
G01X9098795Y-4643680D01*
G01X9078000Y-4635842D01*
G01X9056179Y-4631635D01*
G01X9033960Y-4631180D01*
G01X9011985Y-4634490D01*
G01X8990887Y-4641470D01*
G01X8971273Y-4651919D01*
G01X8953710Y-4665535D01*
G01X8938703Y-4681926D01*
G01X8926685Y-4700619D01*
G01X8918003Y-4721076D01*
G01X8912906Y-4742707D01*
G01X8911543Y-4764888D01*
G01X8913951Y-4786980D01*
G01X8920061Y-4808347D01*
G01X8117721Y-5610687D01*
G01X8103323Y-5592745D01*
G01X8086198Y-5577384D01*
G01X8066801Y-5565015D01*
G01X8045650Y-5555968D01*
G01X8023308Y-5550483D01*
G01X8000372Y-5548708D01*
G01X7977452Y-5550688D01*
G01X7955161Y-5556372D01*
G01X7934091Y-5565607D01*
G01X7934091Y-5565607D01*
G01X7914805Y-5578148D01*
G01X7897817Y-5593661D01*
G01X7883580Y-5611731D01*
G01X7872473Y-5631877D01*
G01X7864793Y-5653562D01*
G01X7860744Y-5676208D01*
G01X7860434Y-5699211D01*
G01X7863872Y-5721957D01*
G01X7870966Y-5743841D01*
G01X7697840Y-5916967D01*
G01X7690316Y-5897729D01*
G01X7679627Y-5880052D01*
G01X7666084Y-5864454D01*
G01X7650084Y-5851389D01*
G01X7632092Y-5841238D01*
G01X7651061Y-5830413D01*
G01X7667772Y-5816352D01*
G01X7681680Y-5799515D01*
G01X7692333Y-5780449D01*
G01X7699381Y-5759778D01*
G01X7702596Y-5738177D01*
G01X7701871Y-5716349D01*
G01X7697232Y-5695008D01*
G01X7688828Y-5674850D01*
G01X7676935Y-5656533D01*
G01X7661941Y-5640654D01*
G01X7644335Y-5627732D01*
G01X7624691Y-5618188D01*
G01X7603650Y-5612335D01*
G01X7581900Y-5610362D01*
G01X7560150Y-5612335D01*
G01X7539109Y-5618188D01*
G01X7519465Y-5627732D01*
G01X7501859Y-5640654D01*
G01X7486865Y-5656533D01*
G01X7474972Y-5674850D01*
G01X7466568Y-5695008D01*
G01X7461929Y-5716349D01*
G01X7461204Y-5738177D01*
G01X7464419Y-5759778D01*
G01X7471467Y-5780449D01*
G01X7482120Y-5799515D01*
G01X7496028Y-5816352D01*
G01X7512739Y-5830413D01*
G01X7531708Y-5841238D01*
G01X7514501Y-5850857D01*
G01X7499087Y-5863144D01*
G01X7485874Y-5877773D01*
G01X7475215Y-5894355D01*
G01X7467392Y-5912449D01*
G01X7462613Y-5931573D01*
G01X7461006Y-5951220D01*
G01X7194327Y-5951220D01*
G01X7194327Y-5940607D01*
G01X7190615Y-5919710D01*
G01X7183305Y-5899783D01*
G01X7172624Y-5881442D01*
G01X7158899Y-5865252D01*
G01X7142554Y-5851711D01*
G01X7124092Y-5841238D01*
G01X7143061Y-5830413D01*
G01X7159772Y-5816352D01*
G01X7173680Y-5799515D01*
G01X7184333Y-5780449D01*
G01X7191381Y-5759778D01*
G01X7194596Y-5738177D01*
G01X7193871Y-5716349D01*
G01X7189232Y-5695008D01*
G01X7180828Y-5674850D01*
G01X7168935Y-5656533D01*
G01X7153941Y-5640654D01*
G01X7136335Y-5627732D01*
G01X7116691Y-5618188D01*
G01X7095650Y-5612335D01*
G01X7073900Y-5610362D01*
G01X7052150Y-5612335D01*
G01X7031109Y-5618188D01*
G01X7011465Y-5627732D01*
G01X6993859Y-5640654D01*
G01X6978865Y-5656533D01*
G01X6966972Y-5674850D01*
G01X6958568Y-5695008D01*
G01X6953929Y-5716349D01*
G01X6953204Y-5738177D01*
G01X6956419Y-5759778D01*
G01X6963467Y-5780449D01*
G01X6974120Y-5799515D01*
G01X6988028Y-5816352D01*
G01X7004739Y-5830413D01*
G01X7023708Y-5841238D01*
G01X7005246Y-5851711D01*
G01X6988901Y-5865252D01*
G01X6975176Y-5881442D01*
G01X6964495Y-5899783D01*
G01X6957185Y-5919710D01*
G01X6953473Y-5940607D01*
G01X6953473Y-5961833D01*
G01X6957185Y-5982730D01*
G01X6964495Y-6002657D01*
G01X6975176Y-6020998D01*
G01X6988901Y-6037188D01*
G01X7005246Y-6050729D01*
G01X7023708Y-6061202D01*
G01X7007103Y-6070419D01*
G01X6992148Y-6082123D01*
G01X6979209Y-6096025D01*
G01X6968607Y-6111781D01*
G01X6960604Y-6129003D01*
G01X6955396Y-6147266D01*
G01X6953112Y-6166119D01*
G01X6705397Y-5918403D01*
G01X6694297Y-5909886D01*
G01X6681371Y-5904532D01*
G01X6667500Y-5902706D01*
G01X6581547Y-5902706D01*
G01X6590506Y-5883614D01*
G01X6596011Y-5863255D01*
G01X6597894Y-5842249D01*
G01X6596097Y-5821236D01*
G01X6590677Y-5800854D01*
G01X6581796Y-5781725D01*
G01X6569727Y-5764430D01*
G01X6554836Y-5749496D01*
G01X6537575Y-5737377D01*
G01X6518472Y-5728442D01*
G01X6498106Y-5722963D01*
G01X6477098Y-5721106D01*
G01X6456087Y-5722929D01*
G01X6435713Y-5728375D01*
G01X6416594Y-5737279D01*
G01X6399315Y-5749370D01*
G01X6384399Y-5764280D01*
G01X6372302Y-5781555D01*
G01X6363390Y-5800670D01*
G01X6357937Y-5821043D01*
G01X6356106Y-5842053D01*
G01X6357955Y-5863062D01*
G01X6082893Y-5588000D01*
G01X6356106Y-5588000D01*
G01X6357943Y-5608993D01*
G01X6363397Y-5629348D01*
G01X6372303Y-5648447D01*
G01X6384390Y-5665709D01*
G01X6399291Y-5680610D01*
G01X6416553Y-5692697D01*
G01X6435652Y-5701603D01*
G01X6456007Y-5707057D01*
G01X6477000Y-5708894D01*
G01X6497993Y-5707057D01*
G01X6518348Y-5701603D01*
G01X6537447Y-5692697D01*
G01X6554709Y-5680610D01*
G01X6569610Y-5665709D01*
G01X6581697Y-5648447D01*
G01X6590603Y-5629348D01*
G01X6596057Y-5608993D01*
G01X6597894Y-5588000D01*
G01X6596057Y-5567007D01*
G01X6590603Y-5546652D01*
G01X6581697Y-5527553D01*
G01X6569610Y-5510291D01*
G01X6554709Y-5495390D01*
G01X6537447Y-5483303D01*
G01X6518348Y-5474397D01*
G01X6497993Y-5468943D01*
G01X6477000Y-5467106D01*
G01X6477000Y-5467106D01*
G01X6456007Y-5468943D01*
G01X6435652Y-5474397D01*
G01X6416553Y-5483303D01*
G01X6399291Y-5495390D01*
G01X6384390Y-5510291D01*
G01X6372303Y-5527553D01*
G01X6363397Y-5546652D01*
G01X6357943Y-5567007D01*
G01X6356106Y-5588000D01*
G01X6082893Y-5588000D01*
G01X5828893Y-5334000D01*
G01X6356106Y-5334000D01*
G01X6357943Y-5354993D01*
G01X6363397Y-5375348D01*
G01X6372303Y-5394447D01*
G01X6384390Y-5411709D01*
G01X6399291Y-5426610D01*
G01X6416553Y-5438697D01*
G01X6435652Y-5447603D01*
G01X6456007Y-5453057D01*
G01X6477000Y-5454894D01*
G01X6497993Y-5453057D01*
G01X6518348Y-5447603D01*
G01X6537447Y-5438697D01*
G01X6554709Y-5426610D01*
G01X6569610Y-5411709D01*
G01X6581697Y-5394447D01*
G01X6590603Y-5375348D01*
G01X6596057Y-5354993D01*
G01X6597894Y-5334000D01*
G01X6596057Y-5313007D01*
G01X6590603Y-5292652D01*
G01X6581697Y-5273553D01*
G01X6569610Y-5256291D01*
G01X6554709Y-5241390D01*
G01X6537447Y-5229303D01*
G01X6518348Y-5220397D01*
G01X6497993Y-5214943D01*
G01X6477000Y-5213106D01*
G01X6477000Y-5213106D01*
G01X6456007Y-5214943D01*
G01X6435652Y-5220397D01*
G01X6416553Y-5229303D01*
G01X6399291Y-5241390D01*
G01X6384390Y-5256291D01*
G01X6372303Y-5273553D01*
G01X6363397Y-5292652D01*
G01X6357943Y-5313007D01*
G01X6356106Y-5334000D01*
G01X5828893Y-5334000D01*
G01X5092497Y-4597603D01*
G01X5081397Y-4589086D01*
G01X5068471Y-4583732D01*
G01X5054600Y-4581906D01*
G01X4543399Y-4581906D01*
G01X4054390Y-4092896D01*
G01X4054549Y-4092242D01*
G01X4267403Y-4305097D01*
G01X4278503Y-4313614D01*
G01X4291429Y-4318968D01*
G01X4305300Y-4320794D01*
G01X5299532Y-4320794D01*
G01X5312945Y-4330111D01*
G01X5328125Y-4336135D01*
G01X5344276Y-4338553D01*
G01X5360554Y-4337237D01*
G01X5376108Y-4332256D01*
G01X5390122Y-4323871D01*
G01X5401864Y-4312521D01*
G01X5410720Y-4298799D01*
G01X5416226Y-4283424D01*
G01X5418094Y-4267200D01*
G01X5416226Y-4250976D01*
G01X5410720Y-4235601D01*
G01X5401864Y-4221879D01*
G01X5390122Y-4210529D01*
G01X5376108Y-4202144D01*
G01X5360554Y-4197163D01*
G01X5344276Y-4195847D01*
G01X5328125Y-4198265D01*
G01X5312945Y-4204289D01*
G01X5299532Y-4213606D01*
G01X4327499Y-4213606D01*
G01X4158233Y-4044340D01*
G01X4412046Y-4044340D01*
G01X4412323Y-4060669D01*
G01X4416304Y-4076507D01*
G01X4423780Y-4091027D01*
G01X4434360Y-4103468D01*
G01X4447490Y-4113179D01*
G01X4462484Y-4119653D01*
G01X4478556Y-4122549D01*
G01X4496003Y-4139997D01*
G01X4507103Y-4148514D01*
G01X4520029Y-4153868D01*
G01X4533900Y-4155694D01*
G01X5299532Y-4155694D01*
G01X5299532Y-4155694D01*
G01X5312945Y-4165011D01*
G01X5328125Y-4171035D01*
G01X5344276Y-4173453D01*
G01X5360554Y-4172137D01*
G01X5376108Y-4167156D01*
G01X5390122Y-4158771D01*
G01X5401864Y-4147421D01*
G01X5410720Y-4133699D01*
G01X5416226Y-4118324D01*
G01X5418094Y-4102100D01*
G01X5416226Y-4085876D01*
G01X5410720Y-4070501D01*
G01X5401864Y-4056779D01*
G01X5390122Y-4045429D01*
G01X5376108Y-4037044D01*
G01X5360554Y-4032063D01*
G01X5344276Y-4030747D01*
G01X5328125Y-4033165D01*
G01X5312945Y-4039189D01*
G01X5299532Y-4048506D01*
G01X4556099Y-4048506D01*
G01X4554349Y-4046756D01*
G01X4551453Y-4030684D01*
G01X4544979Y-4015690D01*
G01X4535268Y-4002560D01*
G01X4522827Y-3991980D01*
G01X4508307Y-3984504D01*
G01X4492469Y-3980523D01*
G01X4476140Y-3980246D01*
G01X4460175Y-3983687D01*
G01X4445410Y-3990665D01*
G01X4432617Y-4000817D01*
G01X4422465Y-4013610D01*
G01X4415487Y-4028375D01*
G01X4412046Y-4044340D01*
G01X4158233Y-4044340D01*
G01X4015680Y-3901787D01*
G01X4029943Y-3887311D01*
G01X4041579Y-3870650D01*
G01X4050261Y-3852276D01*
G01X4055742Y-3832708D01*
G01X4057868Y-3812497D01*
G01X4056579Y-3792216D01*
G01X4051910Y-3772438D01*
G01X4043995Y-3753721D01*
G01X4033057Y-3736594D01*
G01X4562501Y-3736594D01*
G01X4640451Y-3814544D01*
G01X4643347Y-3830616D01*
G01X4649821Y-3845610D01*
G01X4659532Y-3858740D01*
G01X4671973Y-3869320D01*
G01X4686493Y-3876796D01*
G01X4702331Y-3880777D01*
G01X4718660Y-3881054D01*
G01X4734625Y-3877613D01*
G01X4749390Y-3870635D01*
G01X4762183Y-3860483D01*
G01X4772335Y-3847690D01*
G01X4779313Y-3832925D01*
G01X4782754Y-3816960D01*
G01X4782477Y-3800631D01*
G01X4778496Y-3784793D01*
G01X4771020Y-3770273D01*
G01X4760440Y-3757832D01*
G01X4747310Y-3748121D01*
G01X4732316Y-3741647D01*
G01X4716244Y-3738751D01*
G01X4622597Y-3645103D01*
G01X4611497Y-3636586D01*
G01X4598571Y-3631232D01*
G01X4584700Y-3629406D01*
G01X4033057Y-3629406D01*
G01X4044148Y-3611987D01*
G01X4052114Y-3592934D01*
G01X4056720Y-3572804D01*
G01X4057834Y-3552183D01*
G01X4055421Y-3531674D01*
G01X4049553Y-3511875D01*
G01X4040402Y-3493363D01*
G01X4028233Y-3476678D01*
G01X4013402Y-3462309D01*
G01X3996342Y-3450672D01*
G01X3977550Y-3442110D01*
G01X3957575Y-3436870D01*
G01X3937000Y-3435106D01*
G01X3916425Y-3436870D01*
G01X3896450Y-3442110D01*
G01X3877658Y-3450672D01*
G01X3860598Y-3462309D01*
G01X3845767Y-3476678D01*
G01X3833598Y-3493363D01*
G01X3824447Y-3511875D01*
G01X3818579Y-3531674D01*
G01X3816166Y-3552183D01*
G01X3817280Y-3572804D01*
G01X3821886Y-3592934D01*
G01X3829852Y-3611987D01*
G01X3840943Y-3629406D01*
G01X1574800Y-3629406D01*
G01X1574800Y-3629406D01*
G01X1560929Y-3631232D01*
G01X1548003Y-3636586D01*
G01X1536903Y-3645103D01*
G01X685100Y-4496906D01*
G01X550000Y-4496906D01*
G01X537363Y-4498908D01*
G01X525963Y-4504716D01*
G01X516916Y-4513763D01*
G01X511108Y-4525163D01*
G01X509106Y-4537800D01*
G01X40894Y-4537800D01*
G01X40894Y-3604275D01*
G01X456449Y-3604275D01*
G01X460286Y-3625469D01*
G01X467940Y-3645602D01*
G01X479152Y-3663991D01*
G01X493543Y-3680017D01*
G01X510626Y-3693135D01*
G01X507816Y-3708547D01*
G01X508436Y-3724200D01*
G01X512455Y-3739342D01*
G01X519680Y-3753243D01*
G01X529762Y-3765233D01*
G01X542217Y-3774735D01*
G01X556444Y-3781293D01*
G01X571759Y-3784589D01*
G01X571759Y-3784589D01*
G01X587425Y-3784466D01*
G01X602686Y-3780929D01*
G01X616809Y-3774148D01*
G01X629112Y-3764451D01*
G01X639005Y-3752303D01*
G01X646010Y-3738291D01*
G01X649790Y-3723088D01*
G01X650163Y-3707427D01*
G01X669790Y-3700407D01*
G01X687860Y-3690019D01*
G01X703803Y-3676591D01*
G01X717112Y-3660550D01*
G01X727367Y-3642403D01*
G01X734241Y-3622725D01*
G01X737517Y-3602140D01*
G01X737133Y-3583296D01*
G01X1218506Y-3583296D01*
G01X1218506Y-3604904D01*
G01X1222476Y-3626144D01*
G01X1230282Y-3646293D01*
G01X1241657Y-3664665D01*
G01X1256214Y-3680634D01*
G01X1273458Y-3693655D01*
G01X1292801Y-3703287D01*
G01X1313584Y-3709200D01*
G01X1335100Y-3711194D01*
G01X1335100Y-3711194D01*
G01X1382700Y-3711194D01*
G01X1404216Y-3709200D01*
G01X1424999Y-3703287D01*
G01X1444342Y-3693655D01*
G01X1461586Y-3680634D01*
G01X1476143Y-3664665D01*
G01X1487518Y-3646293D01*
G01X1495324Y-3626144D01*
G01X1499294Y-3604904D01*
G01X1499294Y-3583296D01*
G01X1495324Y-3562056D01*
G01X1487518Y-3541907D01*
G01X1476143Y-3523535D01*
G01X1461586Y-3507566D01*
G01X1444342Y-3494545D01*
G01X1424999Y-3484913D01*
G01X1404216Y-3479000D01*
G01X1382700Y-3477006D01*
G01X1335100Y-3477006D01*
G01X1313584Y-3479000D01*
G01X1292801Y-3484913D01*
G01X1273458Y-3494545D01*
G01X1256214Y-3507566D01*
G01X1241657Y-3523535D01*
G01X1230282Y-3541907D01*
G01X1222476Y-3562056D01*
G01X1218506Y-3583296D01*
G01X737133Y-3583296D01*
G01X737092Y-3581301D01*
G01X732979Y-3560867D01*
G01X725307Y-3541486D01*
G01X937497Y-3329296D01*
G01X1218506Y-3329296D01*
G01X1218506Y-3350904D01*
G01X1222476Y-3372144D01*
G01X1230282Y-3392293D01*
G01X1241657Y-3410665D01*
G01X1256214Y-3426634D01*
G01X1273458Y-3439655D01*
G01X1292801Y-3449287D01*
G01X1313584Y-3455200D01*
G01X1335100Y-3457194D01*
G01X1335100Y-3457194D01*
G01X1382700Y-3457194D01*
G01X1404216Y-3455200D01*
G01X1424999Y-3449287D01*
G01X1444342Y-3439655D01*
G01X1461586Y-3426634D01*
G01X1476143Y-3410665D01*
G01X1487518Y-3392293D01*
G01X1495324Y-3372144D01*
G01X1499294Y-3350904D01*
G01X1499294Y-3329296D01*
G01X1495324Y-3308056D01*
G01X1492978Y-3302000D01*
G01X3816106Y-3302000D01*
G01X3817943Y-3322993D01*
G01X3823397Y-3343348D01*
G01X3832303Y-3362447D01*
G01X3844390Y-3379709D01*
G01X3859291Y-3394610D01*
G01X3876553Y-3406697D01*
G01X3895652Y-3415603D01*
G01X3916007Y-3421057D01*
G01X3937000Y-3422894D01*
G01X3957993Y-3421057D01*
G01X3978348Y-3415603D01*
G01X3997447Y-3406697D01*
G01X4014709Y-3394610D01*
G01X4029610Y-3379709D01*
G01X4041697Y-3362447D01*
G01X4050603Y-3343348D01*
G01X4056057Y-3322993D01*
G01X4057894Y-3302000D01*
G01X4056057Y-3281007D01*
G01X4050603Y-3260652D01*
G01X4041697Y-3241553D01*
G01X4029610Y-3224291D01*
G01X4014709Y-3209390D01*
G01X3997447Y-3197303D01*
G01X3978348Y-3188397D01*
G01X3957993Y-3182943D01*
G01X3937000Y-3181106D01*
G01X3937000Y-3181106D01*
G01X3916007Y-3182943D01*
G01X3895652Y-3188397D01*
G01X3876553Y-3197303D01*
G01X3859291Y-3209390D01*
G01X3844390Y-3224291D01*
G01X3832303Y-3241553D01*
G01X3823397Y-3260652D01*
G01X3817943Y-3281007D01*
G01X3816106Y-3302000D01*
G01X1492978Y-3302000D01*
G01X1487518Y-3287907D01*
G01X1476143Y-3269535D01*
G01X1461586Y-3253566D01*
G01X1444342Y-3240545D01*
G01X1424999Y-3230913D01*
G01X1404216Y-3225000D01*
G01X1382700Y-3223006D01*
G01X1335100Y-3223006D01*
G01X1313584Y-3225000D01*
G01X1292801Y-3230913D01*
G01X1273458Y-3240545D01*
G01X1256214Y-3253566D01*
G01X1241657Y-3269535D01*
G01X1230282Y-3287907D01*
G01X1222476Y-3308056D01*
G01X1218506Y-3329296D01*
G01X937497Y-3329296D01*
G01X1206093Y-3060700D01*
G01X2063506Y-3060700D01*
G01X2065343Y-3081693D01*
G01X2070797Y-3102048D01*
G01X2079703Y-3121147D01*
G01X2091790Y-3138409D01*
G01X2106691Y-3153310D01*
G01X2123953Y-3165397D01*
G01X2143052Y-3174303D01*
G01X2163407Y-3179757D01*
G01X2184400Y-3181594D01*
G01X2205393Y-3179757D01*
G01X2225748Y-3174303D01*
G01X2244847Y-3165397D01*
G01X2262109Y-3153310D01*
G01X2277010Y-3138409D01*
G01X2289097Y-3121147D01*
G01X2298003Y-3102048D01*
G01X2303457Y-3081693D01*
G01X2305294Y-3060700D01*
G01X2305294Y-3060700D01*
G01X2571506Y-3060700D01*
G01X2573343Y-3081693D01*
G01X2578797Y-3102048D01*
G01X2587703Y-3121147D01*
G01X2599790Y-3138409D01*
G01X2614691Y-3153310D01*
G01X2631953Y-3165397D01*
G01X2651052Y-3174303D01*
G01X2671407Y-3179757D01*
G01X2692400Y-3181594D01*
G01X2713393Y-3179757D01*
G01X2733748Y-3174303D01*
G01X2752847Y-3165397D01*
G01X2770109Y-3153310D01*
G01X2785010Y-3138409D01*
G01X2797097Y-3121147D01*
G01X2806003Y-3102048D01*
G01X2811457Y-3081693D01*
G01X2813294Y-3060700D01*
G01X2813294Y-3060700D01*
G01X2812183Y-3048000D01*
G01X3816106Y-3048000D01*
G01X3817943Y-3068993D01*
G01X3823397Y-3089348D01*
G01X3832303Y-3108447D01*
G01X3844390Y-3125709D01*
G01X3859291Y-3140610D01*
G01X3876553Y-3152697D01*
G01X3895652Y-3161603D01*
G01X3916007Y-3167057D01*
G01X3937000Y-3168894D01*
G01X3957993Y-3167057D01*
G01X3978348Y-3161603D01*
G01X3997447Y-3152697D01*
G01X4014709Y-3140610D01*
G01X4029610Y-3125709D01*
G01X4041697Y-3108447D01*
G01X4050603Y-3089348D01*
G01X4056057Y-3068993D01*
G01X4057894Y-3048000D01*
G01X4056057Y-3027007D01*
G01X4050603Y-3006652D01*
G01X4041697Y-2987553D01*
G01X4029610Y-2970291D01*
G01X4014709Y-2955390D01*
G01X3997447Y-2943303D01*
G01X3978348Y-2934397D01*
G01X3957993Y-2928943D01*
G01X3937000Y-2927106D01*
G01X3937000Y-2927106D01*
G01X3916007Y-2928943D01*
G01X3895652Y-2934397D01*
G01X3876553Y-2943303D01*
G01X3859291Y-2955390D01*
G01X3844390Y-2970291D01*
G01X3832303Y-2987553D01*
G01X3823397Y-3006652D01*
G01X3817943Y-3027007D01*
G01X3816106Y-3048000D01*
G01X2812183Y-3048000D01*
G01X2811457Y-3039707D01*
G01X2806003Y-3019352D01*
G01X2797097Y-3000253D01*
G01X2785010Y-2982991D01*
G01X2770109Y-2968090D01*
G01X2752847Y-2956003D01*
G01X2733748Y-2947097D01*
G01X2713393Y-2941643D01*
G01X2692400Y-2939806D01*
G01X2671407Y-2941643D01*
G01X2651052Y-2947097D01*
G01X2631953Y-2956003D01*
G01X2614691Y-2968090D01*
G01X2599790Y-2982991D01*
G01X2587703Y-3000253D01*
G01X2578797Y-3019352D01*
G01X2573343Y-3039707D01*
G01X2571506Y-3060700D01*
G01X2305294Y-3060700D01*
G01X2303457Y-3039707D01*
G01X2298003Y-3019352D01*
G01X2289097Y-3000253D01*
G01X2277010Y-2982991D01*
G01X2262109Y-2968090D01*
G01X2244847Y-2956003D01*
G01X2225748Y-2947097D01*
G01X2205393Y-2941643D01*
G01X2184400Y-2939806D01*
G01X2163407Y-2941643D01*
G01X2143052Y-2947097D01*
G01X2123953Y-2956003D01*
G01X2106691Y-2968090D01*
G01X2091790Y-2982991D01*
G01X2079703Y-3000253D01*
G01X2070797Y-3019352D01*
G01X2065343Y-3039707D01*
G01X2063506Y-3060700D01*
G01X1206093Y-3060700D01*
G01X1419199Y-2847594D01*
G01X3828635Y-2847594D01*
G01X3839033Y-2864836D01*
G01X3852148Y-2880113D01*
G01X3867617Y-2893002D01*
G01X3885011Y-2903144D01*
G01X3903846Y-2910259D01*
G01X3923602Y-2914149D01*
G01X3943729Y-2914706D01*
G01X3963669Y-2911916D01*
G01X3982869Y-2905854D01*
G01X4000798Y-2896690D01*
G01X4016956Y-2884677D01*
G01X4030897Y-2870149D01*
G01X4042233Y-2853509D01*
G01X4050650Y-2835218D01*
G01X4055915Y-2815784D01*
G01X4057881Y-2795746D01*
G01X4056494Y-2775659D01*
G01X4051793Y-2756081D01*
G01X4043908Y-2737555D01*
G01X4033057Y-2720594D01*
G01X4391101Y-2720594D01*
G01X4923891Y-3253383D01*
G01X4911143Y-3260329D01*
G01X4900063Y-3269710D01*
G01X4891111Y-3281139D01*
G01X4884655Y-3294142D01*
G01X4880964Y-3308182D01*
G01X4880188Y-3322679D01*
G01X4882362Y-3337033D01*
G01X4887394Y-3350650D01*
G01X4895077Y-3362968D01*
G01X4905092Y-3373478D01*
G01X4917027Y-3381744D01*
G01X4930387Y-3387424D01*
G01X5270083Y-3727121D01*
G01X5255963Y-3731306D01*
G01X5243001Y-3738298D01*
G01X5231750Y-3747802D01*
G01X5222689Y-3759412D01*
G01X5216202Y-3772634D01*
G01X5212567Y-3786906D01*
G01X5211937Y-3801620D01*
G01X5214339Y-3816150D01*
G01X5219672Y-3829878D01*
G01X5227708Y-3842220D01*
G01X5238106Y-3852650D01*
G01X5250422Y-3860725D01*
G01X5264133Y-3866101D01*
G01X5278656Y-3868549D01*
G01X6058103Y-4647997D01*
G01X6069203Y-4656514D01*
G01X6082129Y-4661868D01*
G01X6096000Y-4663694D01*
G01X6251582Y-4663694D01*
G01X6331203Y-4743410D01*
G01X6322686Y-4754509D01*
G01X6317332Y-4767435D01*
G01X6315506Y-4781306D01*
G01X6315506Y-4870694D01*
G01X6317332Y-4884565D01*
G01X6322686Y-4897491D01*
G01X6331203Y-4908590D01*
G01X6394410Y-4971797D01*
G01X6400468Y-4977012D01*
G01X6407234Y-4981268D01*
G01X6390902Y-4995133D01*
G01X6377273Y-5011664D01*
G01X6366776Y-5030340D01*
G01X6359741Y-5050577D01*
G01X6356389Y-5071737D01*
G01X6356824Y-5093157D01*
G01X6361034Y-5114164D01*
G01X6368885Y-5134098D01*
G01X6380132Y-5152332D01*
G01X6394421Y-5168296D01*
G01X6411304Y-5181486D01*
G01X6430250Y-5191489D01*
G01X6450664Y-5197990D01*
G01X6471905Y-5200786D01*
G01X6493306Y-5199789D01*
G01X6514195Y-5195030D01*
G01X6533916Y-5186658D01*
G01X6551849Y-5174936D01*
G01X6567432Y-5160233D01*
G01X6580175Y-5143011D01*
G01X6589677Y-5123809D01*
G01X6595641Y-5103231D01*
G01X6597879Y-5081924D01*
G01X6596320Y-5060557D01*
G01X6591014Y-5039800D01*
G01X6582128Y-5020305D01*
G01X6569940Y-5002686D01*
G01X6554833Y-4987494D01*
G01X6575401Y-4987494D01*
G01X6647051Y-5059144D01*
G01X6650019Y-5075451D01*
G01X6656667Y-5090635D01*
G01X6666638Y-5103876D01*
G01X6679393Y-5114461D01*
G01X6694245Y-5121819D01*
G01X6710393Y-5125555D01*
G01X6726968Y-5125466D01*
G01X6743076Y-5121557D01*
G01X6757848Y-5114039D01*
G01X6770489Y-5103318D01*
G01X6780316Y-5089970D01*
G01X6786801Y-5074717D01*
G01X6789594Y-5058378D01*
G01X6788544Y-5041836D01*
G01X6795956Y-5049249D01*
G01X6792146Y-5069083D01*
G01X6791996Y-5089280D01*
G01X6795512Y-5109169D01*
G01X6802577Y-5128091D01*
G01X6812957Y-5145417D01*
G01X6826307Y-5160573D01*
G01X6842185Y-5173056D01*
G01X6860064Y-5182453D01*
G01X6879350Y-5188450D01*
G01X6899404Y-5190851D01*
G01X6919561Y-5189574D01*
G01X6939152Y-5184662D01*
G01X6957528Y-5176278D01*
G01X6974077Y-5164701D01*
G01X6988253Y-5150314D01*
G01X6999584Y-5133594D01*
G01X7228485Y-5133594D01*
G01X7467378Y-5372487D01*
G01X7462315Y-5393474D01*
G01X7461066Y-5415028D01*
G01X7463671Y-5436459D01*
G01X7470046Y-5457086D01*
G01X7479989Y-5476250D01*
G01X7493181Y-5493340D01*
G01X7509203Y-5507810D01*
G01X7527544Y-5519201D01*
G01X7547617Y-5527147D01*
G01X7568784Y-5531396D01*
G01X7590370Y-5531813D01*
G01X7611685Y-5528383D01*
G01X7632051Y-5521217D01*
G01X7650817Y-5510543D01*
G01X7667385Y-5496701D01*
G01X7681227Y-5480133D01*
G01X7691901Y-5461367D01*
G01X7699067Y-5441001D01*
G01X7702497Y-5419686D01*
G01X7702080Y-5398100D01*
G01X7697831Y-5376933D01*
G01X7689885Y-5356860D01*
G01X7678494Y-5338519D01*
G01X7664024Y-5322497D01*
G01X7646934Y-5309305D01*
G01X7627770Y-5299362D01*
G01X7607143Y-5292987D01*
G01X7585712Y-5290382D01*
G01X7564158Y-5291631D01*
G01X7543171Y-5296694D01*
G01X7288581Y-5042103D01*
G01X7277481Y-5033586D01*
G01X7264555Y-5028232D01*
G01X7250684Y-5026406D01*
G01X6999584Y-5026406D01*
G01X6989226Y-5010891D01*
G01X6976415Y-4997331D01*
G01X6961511Y-4986111D01*
G01X6944938Y-4977547D01*
G01X6927164Y-4971883D01*
G01X6908692Y-4969279D01*
G01X6890044Y-4969808D01*
G01X6871749Y-4973455D01*
G01X6559397Y-4661103D01*
G01X6559065Y-4660773D01*
G01X6573488Y-4644837D01*
G01X6584862Y-4626599D01*
G01X6592826Y-4606635D01*
G01X6597129Y-4585576D01*
G01X6597635Y-4564087D01*
G01X6594327Y-4542849D01*
G01X6587310Y-4522532D01*
G01X6576806Y-4503780D01*
G01X6563148Y-4487183D01*
G01X6546766Y-4473268D01*
G01X6553532Y-4469012D01*
G01X6559590Y-4463797D01*
G01X6622797Y-4400590D01*
G01X6631314Y-4389491D01*
G01X6636668Y-4376565D01*
G01X6638494Y-4362694D01*
G01X6638494Y-4295506D01*
G01X6641450Y-4292550D01*
G01X6929986Y-4292550D01*
G01X6921111Y-4312788D01*
G01X6916067Y-4334304D01*
G01X6915025Y-4356379D01*
G01X6918018Y-4378274D01*
G01X6924947Y-4399259D01*
G01X6935580Y-4418632D01*
G01X6949562Y-4435745D01*
G01X6966426Y-4450028D01*
G01X6985608Y-4461002D01*
G01X6966639Y-4471827D01*
G01X6949928Y-4485888D01*
G01X6936020Y-4502725D01*
G01X6925367Y-4521791D01*
G01X6918319Y-4542462D01*
G01X6915104Y-4564063D01*
G01X6915829Y-4585891D01*
G01X6920468Y-4607232D01*
G01X6928872Y-4627390D01*
G01X6940765Y-4645707D01*
G01X6955759Y-4661586D01*
G01X6973365Y-4674508D01*
G01X6993009Y-4684052D01*
G01X7014050Y-4689905D01*
G01X7035800Y-4691878D01*
G01X7057550Y-4689905D01*
G01X7078591Y-4684052D01*
G01X7098235Y-4674508D01*
G01X7115841Y-4661586D01*
G01X7130835Y-4645707D01*
G01X7142728Y-4627390D01*
G01X7151132Y-4607232D01*
G01X7155771Y-4585891D01*
G01X7156496Y-4564063D01*
G01X7153281Y-4542462D01*
G01X7146233Y-4521791D01*
G01X7135580Y-4502725D01*
G01X7121672Y-4485888D01*
G01X7104961Y-4471827D01*
G01X7085992Y-4461002D01*
G01X7103956Y-4450871D01*
G01X7119935Y-4437833D01*
G01X7133467Y-4422270D01*
G01X7144156Y-4404633D01*
G01X7151692Y-4385436D01*
G01X7155855Y-4365237D01*
G01X7156525Y-4344625D01*
G01X7153681Y-4324199D01*
G01X7147407Y-4304553D01*
G01X7137885Y-4286259D01*
G01X7125393Y-4269850D01*
G01X7150649Y-4244594D01*
G01X7361581Y-4244594D01*
G01X7429278Y-4312291D01*
G01X7424507Y-4331412D01*
G01X7422906Y-4351055D01*
G01X7424518Y-4370696D01*
G01X7429300Y-4389815D01*
G01X7437124Y-4407902D01*
G01X7447783Y-4424478D01*
G01X7460994Y-4439102D01*
G01X7476405Y-4451386D01*
G01X7493608Y-4461002D01*
G01X7474639Y-4471827D01*
G01X7457928Y-4485888D01*
G01X7444020Y-4502725D01*
G01X7433367Y-4521791D01*
G01X7426319Y-4542462D01*
G01X7423104Y-4564063D01*
G01X7423829Y-4585891D01*
G01X7428468Y-4607232D01*
G01X7436872Y-4627390D01*
G01X7448765Y-4645707D01*
G01X7463759Y-4661586D01*
G01X7481365Y-4674508D01*
G01X7501009Y-4684052D01*
G01X7522050Y-4689905D01*
G01X7543800Y-4691878D01*
G01X7565550Y-4689905D01*
G01X7586591Y-4684052D01*
G01X7606235Y-4674508D01*
G01X7623841Y-4661586D01*
G01X7638835Y-4645707D01*
G01X7650728Y-4627390D01*
G01X7659132Y-4607232D01*
G01X7663771Y-4585891D01*
G01X7664496Y-4564063D01*
G01X7661281Y-4542462D01*
G01X7654233Y-4521791D01*
G01X7643580Y-4502725D01*
G01X7629672Y-4485888D01*
G01X7612961Y-4471827D01*
G01X7593992Y-4461002D01*
G01X7611199Y-4451383D01*
G01X7626613Y-4439096D01*
G01X7639826Y-4424467D01*
G01X7650485Y-4407885D01*
G01X7658308Y-4389791D01*
G01X7663087Y-4370667D01*
G01X7664694Y-4351020D01*
G01X7663087Y-4331373D01*
G01X7658308Y-4312249D01*
G01X7650485Y-4294155D01*
G01X7639826Y-4277573D01*
G01X7626613Y-4262944D01*
G01X7611199Y-4250657D01*
G01X7593992Y-4241038D01*
G01X7612191Y-4230745D01*
G01X7627700Y-4218000D01*
G01X7860106Y-4218000D01*
G01X7860106Y-4418000D01*
G01X7862108Y-4430637D01*
G01X7867916Y-4442037D01*
G01X7876963Y-4451084D01*
G01X7888363Y-4456892D01*
G01X7901000Y-4458894D01*
G01X8101000Y-4458894D01*
G01X8113637Y-4456892D01*
G01X8125037Y-4451084D01*
G01X8134084Y-4442037D01*
G01X8139892Y-4430637D01*
G01X8141894Y-4418000D01*
G01X8141894Y-4218000D01*
G01X8139892Y-4205363D01*
G01X8134084Y-4193963D01*
G01X8125037Y-4184916D01*
G01X8113637Y-4179108D01*
G01X8101000Y-4177106D01*
G01X8085012Y-4177106D01*
G01X8102630Y-4161583D01*
G01X8117425Y-4143350D01*
G01X8128986Y-4122912D01*
G01X8136992Y-4100839D01*
G01X8139625Y-4086465D01*
G01X8825787Y-4086465D01*
G01X8825787Y-4109734D01*
G01X8829618Y-4132687D01*
G01X8837173Y-4154696D01*
G01X8848248Y-4175161D01*
G01X8862541Y-4193524D01*
G01X8879661Y-4209285D01*
G01X8899142Y-4222012D01*
G01X8920452Y-4231359D01*
G01X8943010Y-4237072D01*
G01X8966200Y-4238993D01*
G01X8966200Y-4238993D01*
G01X8989390Y-4237072D01*
G01X9011948Y-4231359D01*
G01X9033258Y-4222012D01*
G01X9052739Y-4209285D01*
G01X9069859Y-4193524D01*
G01X9084152Y-4175161D01*
G01X9095227Y-4154696D01*
G01X9102782Y-4132687D01*
G01X9106613Y-4109734D01*
G01X9106613Y-4086465D01*
G01X9102782Y-4063512D01*
G01X9095227Y-4041503D01*
G01X9084152Y-4021038D01*
G01X9069859Y-4002675D01*
G01X9052739Y-3986914D01*
G01X9033258Y-3974187D01*
G01X9011948Y-3964840D01*
G01X8989390Y-3959127D01*
G01X8966200Y-3957206D01*
G01X8943010Y-3959127D01*
G01X8920452Y-3964840D01*
G01X8899142Y-3974187D01*
G01X8879661Y-3986914D01*
G01X8862541Y-4002675D01*
G01X8848248Y-4021038D01*
G01X8837173Y-4041503D01*
G01X8829618Y-4063512D01*
G01X8825787Y-4086465D01*
G01X8139625Y-4086465D01*
G01X8141222Y-4077742D01*
G01X8141557Y-4054264D01*
G01X8137988Y-4031056D01*
G01X8130615Y-4008763D01*
G01X8119641Y-3988004D01*
G01X8105373Y-3969356D01*
G01X8088205Y-3953337D01*
G01X8068616Y-3940391D01*
G01X8047148Y-3930878D01*
G01X8024399Y-3925063D01*
G01X8001000Y-3923106D01*
G01X7977601Y-3925063D01*
G01X7954852Y-3930878D01*
G01X7933384Y-3940391D01*
G01X7913795Y-3953337D01*
G01X7896627Y-3969356D01*
G01X7882359Y-3988004D01*
G01X7871385Y-4008763D01*
G01X7864012Y-4031056D01*
G01X7860443Y-4054264D01*
G01X7860778Y-4077742D01*
G01X7865008Y-4100839D01*
G01X7873014Y-4122912D01*
G01X7884575Y-4143350D01*
G01X7899370Y-4161583D01*
G01X7916988Y-4177106D01*
G01X7901000Y-4177106D01*
G01X7901000Y-4177106D01*
G01X7888363Y-4179108D01*
G01X7876963Y-4184916D01*
G01X7867916Y-4193963D01*
G01X7862108Y-4205363D01*
G01X7860106Y-4218000D01*
G01X7627700Y-4218000D01*
G01X7628345Y-4217471D01*
G01X7641969Y-4201612D01*
G01X7652658Y-4183643D01*
G01X7660090Y-4164101D01*
G01X7664044Y-4143570D01*
G01X7664402Y-4122665D01*
G01X7661153Y-4102011D01*
G01X7654394Y-4082226D01*
G01X7644327Y-4063902D01*
G01X7631253Y-4047586D01*
G01X7615564Y-4033766D01*
G01X7597728Y-4022857D01*
G01X7578279Y-4015183D01*
G01X7557799Y-4010975D01*
G01X7536900Y-4010359D01*
G01X7516208Y-4013353D01*
G01X7496341Y-4019867D01*
G01X7477893Y-4029707D01*
G01X7461417Y-4042578D01*
G01X7447404Y-4058096D01*
G01X7436275Y-4075795D01*
G01X7428362Y-4095148D01*
G01X7423902Y-4115574D01*
G01X7423027Y-4136464D01*
G01X7425765Y-4157192D01*
G01X7421677Y-4153103D01*
G01X7410577Y-4144586D01*
G01X7397651Y-4139232D01*
G01X7383780Y-4137406D01*
G01X7156527Y-4137406D01*
G01X7155667Y-4115330D01*
G01X7150803Y-4093779D01*
G01X7142099Y-4073473D01*
G01X7129845Y-4055090D01*
G01X7114451Y-4039244D01*
G01X7096429Y-4026464D01*
G01X7076383Y-4017177D01*
G01X7054982Y-4011694D01*
G01X7032940Y-4010196D01*
G01X7010993Y-4012735D01*
G01X6989875Y-4019225D01*
G01X6970291Y-4029449D01*
G01X6952894Y-4043068D01*
G01X6938266Y-4059624D01*
G01X6926896Y-4078566D01*
G01X6919162Y-4099261D01*
G01X6915324Y-4121018D01*
G01X6915509Y-4143110D01*
G01X6919711Y-4164799D01*
G01X6927790Y-4185362D01*
G01X6685431Y-4185362D01*
G01X6880199Y-3990594D01*
G01X7086600Y-3990594D01*
G01X7100471Y-3988768D01*
G01X7113397Y-3983414D01*
G01X7124497Y-3974897D01*
G01X7288377Y-3811016D01*
G01X7422906Y-3811016D01*
G01X7424743Y-3832009D01*
G01X7430197Y-3852364D01*
G01X7439103Y-3871463D01*
G01X7451190Y-3888725D01*
G01X7466091Y-3903626D01*
G01X7483353Y-3915713D01*
G01X7502452Y-3924619D01*
G01X7522807Y-3930073D01*
G01X7543800Y-3931910D01*
G01X7564793Y-3930073D01*
G01X7585148Y-3924619D01*
G01X7604247Y-3915713D01*
G01X7621509Y-3903626D01*
G01X7636410Y-3888725D01*
G01X7648497Y-3871463D01*
G01X7657403Y-3852364D01*
G01X7662857Y-3832009D01*
G01X7664694Y-3811016D01*
G01X7662857Y-3790023D01*
G01X7657403Y-3769668D01*
G01X7648497Y-3750569D01*
G01X7636410Y-3733307D01*
G01X7621509Y-3718406D01*
G01X7604247Y-3706319D01*
G01X7585148Y-3697413D01*
G01X7564793Y-3691959D01*
G01X7543800Y-3690122D01*
G01X7543800Y-3690122D01*
G01X7522807Y-3691959D01*
G01X7502452Y-3697413D01*
G01X7483353Y-3706319D01*
G01X7466091Y-3718406D01*
G01X7451190Y-3733307D01*
G01X7439103Y-3750569D01*
G01X7430197Y-3769668D01*
G01X7424743Y-3790023D01*
G01X7422906Y-3811016D01*
G01X7288377Y-3811016D01*
G01X7438999Y-3660394D01*
G01X7781100Y-3660394D01*
G01X7794971Y-3658568D01*
G01X7807897Y-3653214D01*
G01X7818996Y-3644697D01*
G01X8077028Y-3386665D01*
G01X8076146Y-3409885D01*
G01X8079094Y-3432935D01*
G01X8085789Y-3455186D01*
G01X8096051Y-3476034D01*
G01X8109600Y-3494912D01*
G01X8126068Y-3511306D01*
G01X8145006Y-3524771D01*
G01X8165900Y-3534939D01*
G01X8188181Y-3541536D01*
G01X8211243Y-3544380D01*
G01X8234459Y-3543395D01*
G01X8257197Y-3538608D01*
G01X8278840Y-3530149D01*
G01X8298797Y-3518247D01*
G01X8316527Y-3503227D01*
G01X8331547Y-3485497D01*
G01X8343449Y-3465540D01*
G01X8351908Y-3443897D01*
G01X8356695Y-3421159D01*
G01X8357680Y-3397943D01*
G01X8354836Y-3374881D01*
G01X8348239Y-3352600D01*
G01X8338071Y-3331706D01*
G01X8324606Y-3312768D01*
G01X8308212Y-3296300D01*
G01X8289334Y-3282751D01*
G01X8268486Y-3272489D01*
G01X8246235Y-3265794D01*
G01X8223185Y-3262846D01*
G01X8199965Y-3263728D01*
G01X8970455Y-2493238D01*
G01X8991821Y-2499349D01*
G01X9013913Y-2501757D01*
G01X9036095Y-2500393D01*
G01X9057725Y-2495297D01*
G01X9078182Y-2486614D01*
G01X9096876Y-2474597D01*
G01X9113266Y-2459590D01*
G01X9126882Y-2442026D01*
G01X9137331Y-2422413D01*
G01X9144311Y-2401314D01*
G01X9147621Y-2379339D01*
G01X9147167Y-2357121D01*
G01X9142960Y-2335300D01*
G01X9135122Y-2314504D01*
G01X9123879Y-2295335D01*
G01X9109556Y-2278344D01*
G01X9092565Y-2264020D01*
G01X9073395Y-2252778D01*
G01X9052600Y-2244940D01*
G01X9030779Y-2240733D01*
G01X9008560Y-2240278D01*
G01X8986585Y-2243588D01*
G01X8965487Y-2250568D01*
G01X8945873Y-2261017D01*
G01X8928310Y-2274633D01*
G01X8913303Y-2291024D01*
G01X8901285Y-2309717D01*
G01X8892603Y-2330174D01*
G01X8887506Y-2351805D01*
G01X8886143Y-2373986D01*
G01X8888551Y-2396078D01*
G01X8894661Y-2417445D01*
G01X7758900Y-3553206D01*
G01X7416800Y-3553206D01*
G01X7402929Y-3555032D01*
G01X7390003Y-3560386D01*
G01X7378903Y-3568903D01*
G01X7064401Y-3883406D01*
G01X6858000Y-3883406D01*
G01X6844129Y-3885232D01*
G01X6831203Y-3890586D01*
G01X6820103Y-3899103D01*
G01X6515729Y-4203478D01*
G01X6495167Y-4198479D01*
G01X6474048Y-4197142D01*
G01X6453019Y-4199508D01*
G01X6432725Y-4205505D01*
G01X6413788Y-4214949D01*
G01X6396788Y-4227549D01*
G01X6382245Y-4242922D01*
G01X6370605Y-4260594D01*
G01X6362225Y-4280025D01*
G01X6235303Y-4153103D01*
G01X6224203Y-4144586D01*
G01X6211278Y-4139232D01*
G01X6197406Y-4137406D01*
G01X6079668Y-4137406D01*
G01X6065880Y-4127890D01*
G01X6050254Y-4121849D01*
G01X6033651Y-4119615D01*
G01X6016984Y-4121312D01*
G01X6001172Y-4126846D01*
G01X5987085Y-4135913D01*
G01X5975498Y-4148013D01*
G01X5891485Y-4064000D01*
G01X6356106Y-4064000D01*
G01X6357943Y-4084993D01*
G01X6363397Y-4105348D01*
G01X6372303Y-4124447D01*
G01X6384390Y-4141709D01*
G01X6399291Y-4156610D01*
G01X6416553Y-4168697D01*
G01X6435652Y-4177603D01*
G01X6456007Y-4183057D01*
G01X6477000Y-4184894D01*
G01X6497993Y-4183057D01*
G01X6518348Y-4177603D01*
G01X6537447Y-4168697D01*
G01X6554709Y-4156610D01*
G01X6569610Y-4141709D01*
G01X6581697Y-4124447D01*
G01X6590603Y-4105348D01*
G01X6596057Y-4084993D01*
G01X6597894Y-4064000D01*
G01X6596057Y-4043007D01*
G01X6590603Y-4022652D01*
G01X6581697Y-4003553D01*
G01X6569610Y-3986291D01*
G01X6554709Y-3971390D01*
G01X6537447Y-3959303D01*
G01X6518348Y-3950397D01*
G01X6497993Y-3944943D01*
G01X6477000Y-3943106D01*
G01X6477000Y-3943106D01*
G01X6456007Y-3944943D01*
G01X6435652Y-3950397D01*
G01X6416553Y-3959303D01*
G01X6399291Y-3971390D01*
G01X6384390Y-3986291D01*
G01X6372303Y-4003553D01*
G01X6363397Y-4022652D01*
G01X6357943Y-4043007D01*
G01X6356106Y-4064000D01*
G01X5891485Y-4064000D01*
G01X5771445Y-3943960D01*
G01X5999546Y-3943960D01*
G01X6002987Y-3959925D01*
G01X6009965Y-3974690D01*
G01X6020117Y-3987483D01*
G01X6032910Y-3997635D01*
G01X6047675Y-4004613D01*
G01X6063640Y-4008054D01*
G01X6079969Y-4007777D01*
G01X6095807Y-4003796D01*
G01X6110327Y-3996320D01*
G01X6122768Y-3985740D01*
G01X6132479Y-3972610D01*
G01X6138953Y-3957616D01*
G01X6141849Y-3941544D01*
G01X6420510Y-3662884D01*
G01X6440368Y-3671210D01*
G01X6461388Y-3675882D01*
G01X6482904Y-3676750D01*
G01X6504233Y-3673787D01*
G01X6524697Y-3667087D01*
G01X6543648Y-3656863D01*
G01X6560485Y-3643439D01*
G01X6574673Y-3627241D01*
G01X6585763Y-3608783D01*
G01X6593402Y-3588650D01*
G01X6597347Y-3567481D01*
G01X6597475Y-3545948D01*
G01X6593781Y-3524734D01*
G01X6586382Y-3504512D01*
G01X6575512Y-3485924D01*
G01X6561517Y-3469558D01*
G01X6544841Y-3455935D01*
G01X6526012Y-3445487D01*
G01X6505629Y-3438545D01*
G01X6484337Y-3435329D01*
G01X6462813Y-3435942D01*
G01X6441738Y-3440363D01*
G01X6421782Y-3448453D01*
G01X6403578Y-3459955D01*
G01X6387704Y-3474504D01*
G01X6374662Y-3491639D01*
G01X6364867Y-3510816D01*
G01X6358630Y-3531426D01*
G01X6356148Y-3552816D01*
G01X6357500Y-3574306D01*
G01X6066056Y-3865751D01*
G01X6066056Y-3865751D01*
G01X6049984Y-3868647D01*
G01X6034990Y-3875121D01*
G01X6021860Y-3884832D01*
G01X6011280Y-3897273D01*
G01X6003804Y-3911793D01*
G01X5999823Y-3927631D01*
G01X5999546Y-3943960D01*
G01X5771445Y-3943960D01*
G01X5045789Y-3218304D01*
G01X5037962Y-3211837D01*
G01X5029056Y-3206962D01*
G01X4451197Y-2629103D01*
G01X4440098Y-2620586D01*
G01X4427172Y-2615232D01*
G01X4413301Y-2613406D01*
G01X4033057Y-2613406D01*
G01X4039690Y-2603798D01*
G01X4045365Y-2593594D01*
G01X4670500Y-2593594D01*
G01X5696203Y-3619297D01*
G01X5707303Y-3627814D01*
G01X5720228Y-3633168D01*
G01X5734100Y-3634994D01*
G01X5772190Y-3634994D01*
G01X5786062Y-3633168D01*
G01X5798987Y-3627814D01*
G01X5810087Y-3619297D01*
G01X6200790Y-3228594D01*
G01X6380943Y-3228594D01*
G01X6370298Y-3245166D01*
G01X6362486Y-3263247D01*
G01X6357713Y-3282356D01*
G01X6356106Y-3301987D01*
G01X6357709Y-3321619D01*
G01X6362478Y-3340729D01*
G01X6040656Y-3662551D01*
G01X6024584Y-3665447D01*
G01X6009590Y-3671921D01*
G01X5996460Y-3681632D01*
G01X5985880Y-3694073D01*
G01X5978404Y-3708593D01*
G01X5974423Y-3724431D01*
G01X5974146Y-3740760D01*
G01X5977587Y-3756725D01*
G01X5984565Y-3771490D01*
G01X5994717Y-3784283D01*
G01X6007510Y-3794435D01*
G01X6022275Y-3801413D01*
G01X6038240Y-3804854D01*
G01X6054569Y-3804577D01*
G01X6070407Y-3800596D01*
G01X6084927Y-3793120D01*
G01X6097368Y-3782540D01*
G01X6107079Y-3769410D01*
G01X6113553Y-3754416D01*
G01X6116449Y-3738344D01*
G01X6438271Y-3416522D01*
G01X6458516Y-3421472D01*
G01X6479310Y-3422872D01*
G01X6500035Y-3420679D01*
G01X6520076Y-3414959D01*
G01X6538836Y-3405883D01*
G01X6555759Y-3393719D01*
G01X6570342Y-3378829D01*
G01X6582150Y-3361656D01*
G01X6590833Y-3342710D01*
G01X6596134Y-3322554D01*
G01X6597894Y-3301787D01*
G01X6745155Y-3449049D01*
G01X6741366Y-3468662D01*
G01X6741158Y-3488636D01*
G01X6744537Y-3508324D01*
G01X6751393Y-3527086D01*
G01X6761503Y-3544314D01*
G01X6774541Y-3559449D01*
G01X6790082Y-3571999D01*
G01X6807622Y-3581558D01*
G01X6826592Y-3587814D01*
G01X6658001Y-3756406D01*
G01X6585365Y-3756406D01*
G01X6574104Y-3737986D01*
G01X6559747Y-3721862D01*
G01X6542751Y-3708550D01*
G01X6523657Y-3698472D01*
G01X6503076Y-3691952D01*
G01X6481663Y-3689196D01*
G01X6460102Y-3690293D01*
G01X6439079Y-3695207D01*
G01X6419266Y-3703783D01*
G01X6401294Y-3715746D01*
G01X6385736Y-3730714D01*
G01X6373089Y-3748212D01*
G01X6363756Y-3767679D01*
G01X6358034Y-3788497D01*
G01X6356106Y-3810000D01*
G01X6358034Y-3831503D01*
G01X6363756Y-3852321D01*
G01X6373089Y-3871788D01*
G01X6385736Y-3889286D01*
G01X6401294Y-3904254D01*
G01X6419266Y-3916217D01*
G01X6439079Y-3924793D01*
G01X6460102Y-3929707D01*
G01X6481663Y-3930804D01*
G01X6503076Y-3928048D01*
G01X6523657Y-3921528D01*
G01X6542751Y-3911450D01*
G01X6559747Y-3898138D01*
G01X6574104Y-3882014D01*
G01X6585365Y-3863594D01*
G01X6680200Y-3863594D01*
G01X6694071Y-3861768D01*
G01X6706997Y-3856414D01*
G01X6718097Y-3847897D01*
G01X7454697Y-3111297D01*
G01X7462199Y-3101882D01*
G01X7467411Y-3091031D01*
G01X7470069Y-3079291D01*
G01X7488727Y-3091104D01*
G01X7509223Y-3099327D01*
G01X7530872Y-3103684D01*
G01X7552953Y-3104031D01*
G01X7574728Y-3100355D01*
G01X7595472Y-3092779D01*
G01X7614491Y-3081557D01*
G01X7631152Y-3067062D01*
G01X7644897Y-3049778D01*
G01X7748016Y-3049778D01*
G01X7761887Y-3047952D01*
G01X7774813Y-3042598D01*
G01X7785913Y-3034081D01*
G01X7929809Y-2890185D01*
G01X7951203Y-2900400D01*
G01X7974007Y-2906884D01*
G01X7997576Y-2909452D01*
G01X8021242Y-2908032D01*
G01X8044334Y-2902664D01*
G01X8066200Y-2893500D01*
G01X8086219Y-2880800D01*
G01X8103826Y-2864922D01*
G01X8118520Y-2846317D01*
G01X8129888Y-2825512D01*
G01X8137606Y-2803095D01*
G01X8141456Y-2779702D01*
G01X8141329Y-2755994D01*
G01X8137228Y-2732643D01*
G01X8129271Y-2710310D01*
G01X8117681Y-2689628D01*
G01X8102788Y-2671182D01*
G01X8085012Y-2655494D01*
G01X8101000Y-2655494D01*
G01X8113637Y-2653492D01*
G01X8125037Y-2647684D01*
G01X8134084Y-2638637D01*
G01X8139892Y-2627237D01*
G01X8141894Y-2614600D01*
G01X8141894Y-2414600D01*
G01X8139892Y-2401963D01*
G01X8134084Y-2390563D01*
G01X8125037Y-2381516D01*
G01X8113637Y-2375708D01*
G01X8101000Y-2373706D01*
G01X7901000Y-2373706D01*
G01X7888363Y-2375708D01*
G01X7876963Y-2381516D01*
G01X7867916Y-2390563D01*
G01X7862108Y-2401963D01*
G01X7860106Y-2414600D01*
G01X7860106Y-2567000D01*
G01X7691781Y-2735326D01*
G01X7661362Y-2735326D01*
G01X7654344Y-2714574D01*
G01X7643696Y-2695429D01*
G01X7629768Y-2678520D01*
G01X7613017Y-2664401D01*
G01X7593994Y-2653538D01*
G01X7612134Y-2643285D01*
G01X7628245Y-2630069D01*
G01X7641847Y-2614284D01*
G01X7652536Y-2596396D01*
G01X7659995Y-2576939D01*
G01X7664001Y-2556491D01*
G01X7664437Y-2535658D01*
G01X7661289Y-2515059D01*
G01X7654650Y-2495307D01*
G01X7644718Y-2476989D01*
G01X7631788Y-2460648D01*
G01X7616244Y-2446771D01*
G01X7598548Y-2435768D01*
G01X7579225Y-2427968D01*
G01X8064297Y-1942897D01*
G01X8072814Y-1931797D01*
G01X8078168Y-1918871D01*
G01X8079994Y-1905000D01*
G01X8079994Y-1370901D01*
G01X8886106Y-1370901D01*
G01X8888095Y-1393631D01*
G01X8894000Y-1415670D01*
G01X8903643Y-1436348D01*
G01X8916730Y-1455038D01*
G01X8932863Y-1471172D01*
G01X8951553Y-1484259D01*
G01X8972232Y-1493901D01*
G01X8994271Y-1499807D01*
G01X9017000Y-1501795D01*
G01X9039729Y-1499807D01*
G01X9061768Y-1493901D01*
G01X9082447Y-1484259D01*
G01X9101137Y-1471172D01*
G01X9117270Y-1455038D01*
G01X9130357Y-1436348D01*
G01X9140000Y-1415670D01*
G01X9145905Y-1393631D01*
G01X9147894Y-1370901D01*
G01X9145905Y-1348172D01*
G01X9140000Y-1326133D01*
G01X9130357Y-1305455D01*
G01X9117270Y-1286765D01*
G01X9101137Y-1270631D01*
G01X9082447Y-1257544D01*
G01X9061768Y-1247902D01*
G01X9039729Y-1241996D01*
G01X9017000Y-1240008D01*
G01X9017000Y-1240008D01*
G01X8994271Y-1241996D01*
G01X8972232Y-1247902D01*
G01X8951553Y-1257544D01*
G01X8932863Y-1270631D01*
G01X8916730Y-1286765D01*
G01X8903643Y-1305455D01*
G01X8894000Y-1326133D01*
G01X8888095Y-1348172D01*
G01X8886106Y-1370901D01*
G01X8079994Y-1370901D01*
G01X8079994Y-789817D01*
G01X8103359Y-778657D01*
G01X8124703Y-763997D01*
G01X8143505Y-746194D01*
G01X8159308Y-725683D01*
G01X8171727Y-702962D01*
G01X8180459Y-678585D01*
G01X8185291Y-653146D01*
G01X8186106Y-627266D01*
G01X8182884Y-601574D01*
G01X8175703Y-576696D01*
G01X8164739Y-553238D01*
G01X8150258Y-531773D01*
G01X8132613Y-512822D01*
G01X8112234Y-496848D01*
G01X8089618Y-484240D01*
G01X8065315Y-475304D01*
G01X8039918Y-470259D01*
G01X8014045Y-469228D01*
G01X7988327Y-472235D01*
G01X7963390Y-479207D01*
G01X7939841Y-489975D01*
G01X7918256Y-504276D01*
G01X7899158Y-521762D01*
G01X7883014Y-542007D01*
G01X7870217Y-564517D01*
G01X7861078Y-588744D01*
G01X7855821Y-614098D01*
G01X7854573Y-639961D01*
G01X7857365Y-665704D01*
G01X7864129Y-690698D01*
G01X7874699Y-714336D01*
G01X7888820Y-736041D01*
G01X7906145Y-755284D01*
G01X7926254Y-771596D01*
G01X7948656Y-784581D01*
G01X7972806Y-793922D01*
G01X7972806Y-1882801D01*
G01X7661151Y-2194456D01*
G01X7654764Y-2175530D01*
G01X7645348Y-2157914D01*
G01X7633159Y-2142088D01*
G01X7618532Y-2128486D01*
G01X7601864Y-2117478D01*
G01X7583611Y-2109365D01*
G01X7564271Y-2104368D01*
G01X7544372Y-2102624D01*
G01X7524458Y-2104180D01*
G01X7505072Y-2108994D01*
G01X7174282Y-1778203D01*
G01X7163182Y-1769686D01*
G01X7150256Y-1764332D01*
G01X7136385Y-1762506D01*
G01X6936084Y-1762506D01*
G01X6925481Y-1746683D01*
G01X6912326Y-1732909D01*
G01X6897009Y-1721588D01*
G01X6879980Y-1713056D01*
G01X6861742Y-1707563D01*
G01X6842834Y-1705272D01*
G01X6823812Y-1706251D01*
G01X6805238Y-1710471D01*
G01X6787661Y-1717806D01*
G01X6771598Y-1728042D01*
G01X6757523Y-1740875D01*
G01X6745852Y-1755927D01*
G01X6736929Y-1772754D01*
G01X6731017Y-1790861D01*
G01X6728291Y-1809711D01*
G01X6728831Y-1828750D01*
G01X6732621Y-1847416D01*
G01X6739549Y-1865159D01*
G01X6595689Y-2009018D01*
G01X6590084Y-1989254D01*
G01X6581214Y-1970724D01*
G01X6569334Y-1953963D01*
G01X6554788Y-1939456D01*
G01X6537995Y-1927622D01*
G01X6519442Y-1918801D01*
G01X6499662Y-1913249D01*
G01X6479228Y-1911127D01*
G01X6458730Y-1912495D01*
G01X6438760Y-1917313D01*
G01X6419893Y-1925444D01*
G01X6402676Y-1936652D01*
G01X6387605Y-1950613D01*
G01X6375116Y-1966924D01*
G01X6365568Y-1985114D01*
G01X6359238Y-2004659D01*
G01X6356309Y-2024993D01*
G01X6356866Y-2045529D01*
G01X6360891Y-2065674D01*
G01X6368269Y-2084848D01*
G01X6378787Y-2102495D01*
G01X6392141Y-2118106D01*
G01X4654601Y-2118106D01*
G01X4640730Y-2119932D01*
G01X4627804Y-2125286D01*
G01X4616704Y-2133803D01*
G01X4592586Y-2157922D01*
G01X4590742Y-2142845D01*
G01X4585752Y-2128501D01*
G01X4577839Y-2115536D01*
G01X4567363Y-2104539D01*
G01X4554798Y-2096006D01*
G01X4540713Y-2090324D01*
G01X4525744Y-2087751D01*
G01X4510798Y-2072805D01*
G01X4524497Y-2065939D01*
G01X4536416Y-2056308D01*
G01X4546005Y-2044355D01*
G01X4552822Y-2030632D01*
G01X4556554Y-2015769D01*
G01X4557028Y-2000453D01*
G01X4554223Y-1985389D01*
G01X4548268Y-1971270D01*
G01X4539437Y-1958746D01*
G01X4539437Y-1778000D01*
G01X6356106Y-1778000D01*
G01X6357943Y-1798993D01*
G01X6363397Y-1819348D01*
G01X6372303Y-1838447D01*
G01X6384390Y-1855709D01*
G01X6399291Y-1870610D01*
G01X6416553Y-1882697D01*
G01X6435652Y-1891603D01*
G01X6456007Y-1897057D01*
G01X6477000Y-1898894D01*
G01X6497993Y-1897057D01*
G01X6518348Y-1891603D01*
G01X6537447Y-1882697D01*
G01X6554709Y-1870610D01*
G01X6569610Y-1855709D01*
G01X6581697Y-1838447D01*
G01X6590603Y-1819348D01*
G01X6596057Y-1798993D01*
G01X6597894Y-1778000D01*
G01X6596057Y-1757007D01*
G01X6590603Y-1736652D01*
G01X6581697Y-1717553D01*
G01X6569610Y-1700291D01*
G01X6554709Y-1685390D01*
G01X6537447Y-1673303D01*
G01X6518348Y-1664397D01*
G01X6497993Y-1658943D01*
G01X6477000Y-1657106D01*
G01X6477000Y-1657106D01*
G01X6456007Y-1658943D01*
G01X6435652Y-1664397D01*
G01X6416553Y-1673303D01*
G01X6399291Y-1685390D01*
G01X6384390Y-1700291D01*
G01X6372303Y-1717553D01*
G01X6363397Y-1736652D01*
G01X6357943Y-1757007D01*
G01X6356106Y-1778000D01*
G01X4539437Y-1778000D01*
G01X4539437Y-1524000D01*
G01X6356106Y-1524000D01*
G01X6357943Y-1544993D01*
G01X6363397Y-1565348D01*
G01X6372303Y-1584447D01*
G01X6384390Y-1601709D01*
G01X6399291Y-1616610D01*
G01X6416553Y-1628697D01*
G01X6435652Y-1637603D01*
G01X6456007Y-1643057D01*
G01X6477000Y-1644894D01*
G01X6497993Y-1643057D01*
G01X6518348Y-1637603D01*
G01X6537447Y-1628697D01*
G01X6554709Y-1616610D01*
G01X6569610Y-1601709D01*
G01X6581697Y-1584447D01*
G01X6590603Y-1565348D01*
G01X6596057Y-1544993D01*
G01X6597894Y-1524000D01*
G01X6596057Y-1503007D01*
G01X6590603Y-1482652D01*
G01X6581697Y-1463553D01*
G01X6569610Y-1446291D01*
G01X6554709Y-1431390D01*
G01X6537447Y-1419303D01*
G01X6518348Y-1410397D01*
G01X6497993Y-1404943D01*
G01X6477000Y-1403106D01*
G01X6477000Y-1403106D01*
G01X6456007Y-1404943D01*
G01X6435652Y-1410397D01*
G01X6416553Y-1419303D01*
G01X6399291Y-1431390D01*
G01X6384390Y-1446291D01*
G01X6372303Y-1463553D01*
G01X6363397Y-1482652D01*
G01X6357943Y-1503007D01*
G01X6356106Y-1524000D01*
G01X4539437Y-1524000D01*
G01X4539437Y-1494282D01*
G01X4548754Y-1480869D01*
G01X4554778Y-1465689D01*
G01X4557196Y-1449538D01*
G01X4555880Y-1433260D01*
G01X4550899Y-1417707D01*
G01X4542514Y-1403692D01*
G01X4531164Y-1391950D01*
G01X4517443Y-1383094D01*
G01X4502067Y-1377588D01*
G01X4485843Y-1375720D01*
G01X4469619Y-1377588D01*
G01X4454244Y-1383094D01*
G01X4440522Y-1391950D01*
G01X4429172Y-1403692D01*
G01X4420787Y-1417707D01*
G01X4415806Y-1433260D01*
G01X4414490Y-1449538D01*
G01X4416908Y-1465689D01*
G01X4422933Y-1480869D01*
G01X4432249Y-1494282D01*
G01X4432249Y-1958746D01*
G01X4424586Y-1969245D01*
G01X4418953Y-1980959D01*
G01X4381731Y-1943738D01*
G01X4393943Y-1934774D01*
G01X4403988Y-1923435D01*
G01X4411415Y-1910232D01*
G01X4415889Y-1895760D01*
G01X4417209Y-1880669D01*
G01X4415316Y-1865639D01*
G01X4410294Y-1851348D01*
G01X4402370Y-1838437D01*
G01X4391900Y-1827489D01*
G01X4379356Y-1818996D01*
G01X4365302Y-1813341D01*
G01X4350372Y-1810779D01*
G01X4165397Y-1625803D01*
G01X4154297Y-1617286D01*
G01X4141371Y-1611932D01*
G01X4127500Y-1610106D01*
G01X4021859Y-1610106D01*
G01X4035786Y-1593690D01*
G01X4046580Y-1575064D01*
G01X4053900Y-1554819D01*
G01X4057512Y-1533596D01*
G01X4057304Y-1512069D01*
G01X4053280Y-1490921D01*
G01X4045570Y-1470821D01*
G01X4034416Y-1452408D01*
G01X4020174Y-1436265D01*
G01X4003294Y-1422904D01*
G01X4003294Y-1390894D01*
G01X4017000Y-1390894D01*
G01X4029637Y-1388892D01*
G01X4041037Y-1383084D01*
G01X4050084Y-1374037D01*
G01X4055892Y-1362637D01*
G01X4057894Y-1350000D01*
G01X4057894Y-1190000D01*
G01X4055892Y-1177363D01*
G01X4050084Y-1165963D01*
G01X4041037Y-1156916D01*
G01X4029637Y-1151108D01*
G01X4017000Y-1149106D01*
G01X3857000Y-1149106D01*
G01X3844363Y-1151108D01*
G01X3832963Y-1156916D01*
G01X3823916Y-1165963D01*
G01X3818108Y-1177363D01*
G01X3816106Y-1190000D01*
G01X3816106Y-1327313D01*
G01X3277794Y-789000D01*
G01X3277794Y-635000D01*
G01X7354500Y-635000D01*
G01X7356353Y-659725D01*
G01X7361870Y-683898D01*
G01X7370929Y-706979D01*
G01X7383326Y-728451D01*
G01X7398785Y-747836D01*
G01X7416961Y-764701D01*
G01X7437447Y-778668D01*
G01X7459786Y-789426D01*
G01X7483479Y-796734D01*
G01X7507997Y-800430D01*
G01X7532791Y-800430D01*
G01X7557309Y-796734D01*
G01X7581002Y-789426D01*
G01X7603341Y-778668D01*
G01X7623827Y-764701D01*
G01X7642003Y-747836D01*
G01X7657462Y-728451D01*
G01X7669859Y-706979D01*
G01X7678917Y-683898D01*
G01X7684435Y-659725D01*
G01X7686288Y-635000D01*
G01X7684435Y-610275D01*
G01X7678917Y-586102D01*
G01X7669859Y-563021D01*
G01X7657462Y-541549D01*
G01X7642003Y-522164D01*
G01X7623827Y-505299D01*
G01X7603341Y-491332D01*
G01X7581002Y-480574D01*
G01X7557309Y-473266D01*
G01X7532791Y-469570D01*
G01X7507997Y-469570D01*
G01X7483479Y-473266D01*
G01X7459786Y-480574D01*
G01X7437447Y-491332D01*
G01X7416961Y-505299D01*
G01X7398785Y-522164D01*
G01X7383326Y-541549D01*
G01X7370929Y-563021D01*
G01X7361870Y-586102D01*
G01X7356353Y-610275D01*
G01X7354500Y-635000D01*
G01X7354500Y-635000D01*
G01X3277794Y-635000D01*
G01X3277794Y-623900D01*
G01X3275792Y-611263D01*
G01X3269984Y-599863D01*
G01X3260937Y-590816D01*
G01X3249537Y-585008D01*
G01X3236900Y-583006D01*
G01X3036900Y-583006D01*
G01X3024263Y-585008D01*
G01X3012863Y-590816D01*
G01X3003816Y-599863D01*
G01X2998008Y-611263D01*
G01X2996006Y-623900D01*
G01X2996006Y-823900D01*
G01X2998008Y-836537D01*
G01X3003816Y-847937D01*
G01X3012863Y-856984D01*
G01X3024263Y-862792D01*
G01X3036900Y-864794D01*
G01X3202000Y-864794D01*
G01X3743706Y-1406499D01*
G01X3743706Y-1562100D01*
G01X3745532Y-1575971D01*
G01X3750886Y-1588897D01*
G01X3759403Y-1599997D01*
G01X3851719Y-1692312D01*
G01X3838856Y-1707409D01*
G01X3828635Y-1724406D01*
G01X3641699Y-1724406D01*
G01X3353994Y-1436700D01*
G01X3353994Y-1271600D01*
G01X3351992Y-1258963D01*
G01X3346184Y-1247563D01*
G01X3337137Y-1238516D01*
G01X3325737Y-1232708D01*
G01X3313100Y-1230706D01*
G01X3113100Y-1230706D01*
G01X3100463Y-1232708D01*
G01X3089063Y-1238516D01*
G01X3080016Y-1247563D01*
G01X3074208Y-1258963D01*
G01X3072206Y-1271600D01*
G01X3072206Y-1471600D01*
G01X3074208Y-1484237D01*
G01X3080016Y-1495637D01*
G01X3089063Y-1504684D01*
G01X3100463Y-1510492D01*
G01X3113100Y-1512494D01*
G01X3278200Y-1512494D01*
G01X3581603Y-1815897D01*
G01X3592703Y-1824414D01*
G01X3605629Y-1829768D01*
G01X3619500Y-1831594D01*
G01X3828635Y-1831594D01*
G01X3839335Y-1849253D01*
G01X3852885Y-1864833D01*
G01X3868888Y-1877880D01*
G01X3886878Y-1888014D01*
G01X3906330Y-1894939D01*
G01X3926676Y-1898452D01*
G01X3947324Y-1898452D01*
G01X3967670Y-1894939D01*
G01X3987122Y-1888014D01*
G01X4005112Y-1877880D01*
G01X4021115Y-1864833D01*
G01X4034665Y-1849253D01*
G01X4045365Y-1831594D01*
G01X4118001Y-1831594D01*
G01X4449951Y-2163544D01*
G01X4452524Y-2178513D01*
G01X4458206Y-2192598D01*
G01X4466739Y-2205163D01*
G01X4477736Y-2215639D01*
G01X4490701Y-2223552D01*
G01X4505045Y-2228542D01*
G01X4520122Y-2230386D01*
G01X4518101Y-2232406D01*
G01X4045365Y-2232406D01*
G01X4033793Y-2213567D01*
G01X4018983Y-2197151D01*
G01X4001431Y-2183706D01*
G01X3981724Y-2173683D01*
G01X3960521Y-2167416D01*
G01X3938532Y-2165116D01*
G01X3916491Y-2166858D01*
G01X3895136Y-2172586D01*
G01X3875182Y-2182107D01*
G01X3857295Y-2195102D01*
G01X3857295Y-2187499D01*
G01X3898271Y-2146522D01*
G01X3919258Y-2151585D01*
G01X3940812Y-2152834D01*
G01X3962243Y-2150229D01*
G01X3982870Y-2143854D01*
G01X4002034Y-2133911D01*
G01X4019124Y-2120719D01*
G01X4033594Y-2104697D01*
G01X4044985Y-2086356D01*
G01X4052931Y-2066283D01*
G01X4057180Y-2045116D01*
G01X4057597Y-2023530D01*
G01X4054167Y-2002215D01*
G01X4047001Y-1981849D01*
G01X4036327Y-1963083D01*
G01X4022485Y-1946515D01*
G01X4005917Y-1932673D01*
G01X3987151Y-1921999D01*
G01X3966785Y-1914833D01*
G01X3945470Y-1911403D01*
G01X3923884Y-1911820D01*
G01X3902717Y-1916069D01*
G01X3882644Y-1924015D01*
G01X3864303Y-1935406D01*
G01X3848281Y-1949876D01*
G01X3835089Y-1966966D01*
G01X3825146Y-1986130D01*
G01X3818771Y-2006757D01*
G01X3816166Y-2028188D01*
G01X3817415Y-2049742D01*
G01X3822478Y-2070729D01*
G01X3765804Y-2127403D01*
G01X3757287Y-2138502D01*
G01X3751933Y-2151428D01*
G01X3750107Y-2165299D01*
G01X3750107Y-2565400D01*
G01X3751933Y-2579271D01*
G01X3757287Y-2592197D01*
G01X3765804Y-2603297D01*
G01X3861827Y-2699320D01*
G01X3848785Y-2711335D01*
G01X3837641Y-2725130D01*
G01X3828635Y-2740406D01*
G01X1397000Y-2740406D01*
G01X1383129Y-2742232D01*
G01X1370203Y-2747586D01*
G01X1359103Y-2756103D01*
G01X637053Y-3478154D01*
G01X620700Y-3477006D01*
G01X573100Y-3477006D01*
G01X551653Y-3478987D01*
G01X530932Y-3484863D01*
G01X511637Y-3494434D01*
G01X494422Y-3507378D01*
G01X479869Y-3523256D01*
G01X468470Y-3541530D01*
G01X460612Y-3561584D01*
G01X456559Y-3582737D01*
G01X456449Y-3604275D01*
G01X40894Y-3604275D01*
G01X40894Y-1958604D01*
G01X2266709Y-1958604D01*
G01X2268545Y-1979597D01*
G01X2273999Y-1999952D01*
G01X2282905Y-2019051D01*
G01X2294992Y-2036313D01*
G01X2309893Y-2051214D01*
G01X2327156Y-2063301D01*
G01X2346254Y-2072207D01*
G01X2366610Y-2077661D01*
G01X2387603Y-2079498D01*
G01X2408596Y-2077661D01*
G01X2428951Y-2072207D01*
G01X2448049Y-2063301D01*
G01X2465312Y-2051214D01*
G01X2480213Y-2036313D01*
G01X2492300Y-2019051D01*
G01X2501206Y-1999952D01*
G01X2506660Y-1979597D01*
G01X2508496Y-1958604D01*
G01X2506660Y-1937611D01*
G01X2501206Y-1917256D01*
G01X2492300Y-1898157D01*
G01X2480213Y-1880895D01*
G01X2465312Y-1865994D01*
G01X2448049Y-1853907D01*
G01X2428951Y-1845001D01*
G01X2408596Y-1839547D01*
G01X2387603Y-1837710D01*
G01X2366610Y-1839547D01*
G01X2346254Y-1845001D01*
G01X2327156Y-1853907D01*
G01X2309893Y-1865994D01*
G01X2294992Y-1880895D01*
G01X2282905Y-1898157D01*
G01X2273999Y-1917256D01*
G01X2268545Y-1937611D01*
G01X2266709Y-1958604D01*
G01X2266709Y-1958604D01*
G01X40894Y-1958604D01*
G01X40894Y-1501535D01*
G01X799387Y-1501535D01*
G01X803218Y-1524488D01*
G01X810773Y-1546497D01*
G01X821848Y-1566962D01*
G01X836141Y-1585325D01*
G01X853261Y-1601086D01*
G01X872742Y-1613813D01*
G01X894052Y-1623160D01*
G01X916610Y-1628873D01*
G01X939800Y-1630794D01*
G01X962990Y-1628873D01*
G01X985548Y-1623160D01*
G01X1006858Y-1613813D01*
G01X1026339Y-1601086D01*
G01X1043459Y-1585325D01*
G01X1057752Y-1566962D01*
G01X1068827Y-1546497D01*
G01X1076382Y-1524488D01*
G01X1080213Y-1501535D01*
G01X1080213Y-1478266D01*
G01X1076382Y-1455313D01*
G01X1068827Y-1433304D01*
G01X1057752Y-1412839D01*
G01X1043459Y-1394476D01*
G01X1026339Y-1378715D01*
G01X1006858Y-1365988D01*
G01X985548Y-1356641D01*
G01X962990Y-1350928D01*
G01X939800Y-1349007D01*
G01X939800Y-1349007D01*
G01X916610Y-1350928D01*
G01X894052Y-1356641D01*
G01X872742Y-1365988D01*
G01X853261Y-1378715D01*
G01X836141Y-1394476D01*
G01X821848Y-1412839D01*
G01X810773Y-1433304D01*
G01X803218Y-1455313D01*
G01X799387Y-1478266D01*
G01X799387Y-1501535D01*
G01X40894Y-1501535D01*
G01X40894Y-955304D01*
G01X2228609Y-955304D01*
G01X2230445Y-976297D01*
G01X2235899Y-996652D01*
G01X2244805Y-1015751D01*
G01X2256892Y-1033013D01*
G01X2271793Y-1047914D01*
G01X2289056Y-1060001D01*
G01X2308154Y-1068907D01*
G01X2328510Y-1074361D01*
G01X2349503Y-1076198D01*
G01X2370496Y-1074361D01*
G01X2390851Y-1068907D01*
G01X2409949Y-1060001D01*
G01X2427212Y-1047914D01*
G01X2442113Y-1033013D01*
G01X2454200Y-1015751D01*
G01X2463106Y-996652D01*
G01X2468560Y-976297D01*
G01X2470396Y-955304D01*
G01X2468560Y-934311D01*
G01X2463106Y-913956D01*
G01X2454200Y-894857D01*
G01X2442113Y-877595D01*
G01X2427212Y-862694D01*
G01X2409949Y-850607D01*
G01X2390851Y-841701D01*
G01X2370496Y-836247D01*
G01X2349503Y-834410D01*
G01X2328510Y-836247D01*
G01X2308154Y-841701D01*
G01X2289056Y-850607D01*
G01X2271793Y-862694D01*
G01X2256892Y-877595D01*
G01X2244805Y-894857D01*
G01X2235899Y-913956D01*
G01X2230445Y-934311D01*
G01X2228609Y-955304D01*
G01X2228609Y-955304D01*
G01X40894Y-955304D01*
G01X40894Y-355600D01*
G01X155956Y-355600D01*
G01X157875Y-387319D01*
G01X163602Y-418574D01*
G01X173056Y-448912D01*
G01X186098Y-477889D01*
G01X202537Y-505083D01*
G01X222134Y-530097D01*
G01X244603Y-552566D01*
G01X269617Y-572163D01*
G01X296811Y-588602D01*
G01X325788Y-601644D01*
G01X356126Y-611098D01*
G01X387381Y-616825D01*
G01X419100Y-618744D01*
G01X450819Y-616825D01*
G01X482074Y-611098D01*
G01X512412Y-601644D01*
G01X541389Y-588602D01*
G01X568583Y-572163D01*
G01X593597Y-552566D01*
G01X616066Y-530097D01*
G01X635663Y-505083D01*
G01X652102Y-477889D01*
G01X665144Y-448912D01*
G01X674598Y-418574D01*
G01X680325Y-387319D01*
G01X682244Y-355600D01*
G01X682244Y-355600D01*
G01X8995156Y-355600D01*
G01X8997075Y-387319D01*
G01X9002802Y-418574D01*
G01X9012256Y-448912D01*
G01X9025298Y-477889D01*
G01X9041737Y-505083D01*
G01X9061334Y-530097D01*
G01X9083803Y-552566D01*
G01X9108817Y-572163D01*
G01X9136011Y-588602D01*
G01X9164988Y-601644D01*
G01X9195326Y-611098D01*
G01X9226581Y-616825D01*
G01X9258300Y-618744D01*
G01X9290019Y-616825D01*
G01X9321274Y-611098D01*
G01X9351612Y-601644D01*
G01X9380589Y-588602D01*
G01X9407783Y-572163D01*
G01X9432797Y-552566D01*
G01X9455266Y-530097D01*
G01X9474863Y-505083D01*
G01X9491302Y-477889D01*
G01X9504344Y-448912D01*
G01X9513798Y-418574D01*
G01X9519525Y-387319D01*
G01X9521444Y-355600D01*
G01X9519525Y-323881D01*
G01X9513798Y-292626D01*
G01X9504344Y-262288D01*
G01X9491302Y-233311D01*
G01X9474863Y-206117D01*
G01X9455266Y-181103D01*
G01X9432797Y-158634D01*
G01X9407783Y-139037D01*
G01X9380589Y-122598D01*
G01X9351612Y-109556D01*
G01X9321274Y-100102D01*
G01X9290019Y-94375D01*
G01X9258300Y-92456D01*
G01X9226581Y-94375D01*
G01X9195326Y-100102D01*
G01X9164988Y-109556D01*
G01X9136011Y-122598D01*
G01X9108817Y-139037D01*
G01X9083803Y-158634D01*
G01X9061334Y-181103D01*
G01X9041737Y-206117D01*
G01X9025298Y-233311D01*
G01X9012256Y-262288D01*
G01X9002802Y-292626D01*
G01X8997075Y-323881D01*
G01X8995156Y-355600D01*
G01X8995156Y-355600D01*
G01X682244Y-355600D01*
G01X680325Y-323881D01*
G01X674598Y-292626D01*
G01X665144Y-262288D01*
G01X652102Y-233311D01*
G01X635663Y-206117D01*
G01X616066Y-181103D01*
G01X593597Y-158634D01*
G01X568583Y-139037D01*
G01X541389Y-122598D01*
G01X512412Y-109556D01*
G01X482074Y-100102D01*
G01X450819Y-94375D01*
G01X419100Y-92456D01*
G01X387381Y-94375D01*
G01X356126Y-100102D01*
G01X325788Y-109556D01*
G01X296811Y-122598D01*
G01X269617Y-139037D01*
G01X244603Y-158634D01*
G01X222134Y-181103D01*
G01X202537Y-206117D01*
G01X186098Y-233311D01*
G01X173056Y-262288D01*
G01X163602Y-292626D01*
G01X157875Y-323881D01*
G01X155956Y-355600D01*
G01X155956Y-355600D01*
G01X40894Y-355600D01*
G01X40894Y-330200D01*
G37*
G36*
G01X6936084Y-1869694D02*
G01X7114186Y-1869694D01*
G01X7429279Y-2184787D01*
G01X7424465Y-2204173D01*
G01X7422909Y-2224087D01*
G01X7424653Y-2243986D01*
G01X7429650Y-2263325D01*
G01X7437763Y-2281578D01*
G01X7448771Y-2298246D01*
G01X7462374Y-2312874D01*
G01X7478199Y-2325062D01*
G01X7495815Y-2334478D01*
G01X7514741Y-2340865D01*
G01X7378903Y-2476703D01*
G01X7370386Y-2487803D01*
G01X7365032Y-2500729D01*
G01X7363206Y-2514600D01*
G01X7363206Y-3051201D01*
G01X6959714Y-3454693D01*
G01X6953457Y-3435722D01*
G01X6943899Y-3418182D01*
G01X6931348Y-3402641D01*
G01X6916214Y-3389604D01*
G01X6898986Y-3379493D01*
G01X6880224Y-3372637D01*
G01X6860536Y-3369259D01*
G01X6840561Y-3369467D01*
G01X6820948Y-3373255D01*
G01X6584796Y-3137103D01*
G01X6577462Y-3130975D01*
G01X6569157Y-3126246D01*
G01X6581250Y-3109214D01*
G01X6590232Y-3090355D01*
G01X6595832Y-3070231D01*
G01X6597885Y-3049443D01*
G01X6596329Y-3028612D01*
G01X6591210Y-3008360D01*
G01X6582682Y-2989292D01*
G01X6570998Y-2971976D01*
G01X6556508Y-2956930D01*
G01X6539644Y-2944603D01*
G01X6520910Y-2935363D01*
G01X6500865Y-2929485D01*
G01X6480108Y-2927146D01*
G01X6459258Y-2928415D01*
G01X6438937Y-2933254D01*
G01X6419753Y-2941520D01*
G01X6402278Y-2952964D01*
G01X6387034Y-2967245D01*
G01X6374475Y-2983937D01*
G01X6364978Y-3002542D01*
G01X6358825Y-3022504D01*
G01X6356200Y-3043228D01*
G01X6357182Y-3064093D01*
G01X6361741Y-3084479D01*
G01X6369741Y-3103775D01*
G01X6380943Y-3121406D01*
G01X6225387Y-3121406D01*
G01X6438271Y-2908522D01*
G01X6459258Y-2913585D01*
G01X6480812Y-2914834D01*
G01X6502243Y-2912229D01*
G01X6522870Y-2905854D01*
G01X6542034Y-2895911D01*
G01X6559124Y-2882719D01*
G01X6573594Y-2866697D01*
G01X6584985Y-2848356D01*
G01X6592931Y-2828283D01*
G01X6597180Y-2807116D01*
G01X6597597Y-2785530D01*
G01X6594167Y-2764215D01*
G01X6587001Y-2743849D01*
G01X6576327Y-2725083D01*
G01X6562485Y-2708515D01*
G01X6545917Y-2694673D01*
G01X6527151Y-2683999D01*
G01X6506785Y-2676833D01*
G01X6485470Y-2673403D01*
G01X6463884Y-2673820D01*
G01X6442717Y-2678069D01*
G01X6422644Y-2686015D01*
G01X6404303Y-2697406D01*
G01X6388281Y-2711876D01*
G01X6375089Y-2728966D01*
G01X6365146Y-2748130D01*
G01X6358771Y-2768757D01*
G01X6356166Y-2790188D01*
G01X6357415Y-2811742D01*
G01X6362478Y-2832729D01*
G01X5761256Y-3433951D01*
G01X5748974Y-3435817D01*
G01X5737202Y-3439784D01*
G01X5726296Y-3445731D01*
G01X5716585Y-3453479D01*
G01X5708365Y-3462793D01*
G01X5701884Y-3473391D01*
G01X4768493Y-2540000D01*
G01X6356106Y-2540000D01*
G01X6357943Y-2560993D01*
G01X6363397Y-2581348D01*
G01X6372303Y-2600447D01*
G01X6384390Y-2617709D01*
G01X6399291Y-2632610D01*
G01X6416553Y-2644697D01*
G01X6435652Y-2653603D01*
G01X6456007Y-2659057D01*
G01X6477000Y-2660894D01*
G01X6497993Y-2659057D01*
G01X6518348Y-2653603D01*
G01X6537447Y-2644697D01*
G01X6554709Y-2632610D01*
G01X6569610Y-2617709D01*
G01X6581697Y-2600447D01*
G01X6590603Y-2581348D01*
G01X6596057Y-2560993D01*
G01X6596977Y-2550477D01*
G01X6915106Y-2550477D01*
G01X6918320Y-2572078D01*
G01X6925369Y-2592749D01*
G01X6936021Y-2611815D01*
G01X6949930Y-2628652D01*
G01X6966641Y-2642713D01*
G01X6985609Y-2653538D01*
G01X6967148Y-2664011D01*
G01X6950803Y-2677552D01*
G01X6937078Y-2693742D01*
G01X6926396Y-2712083D01*
G01X6919086Y-2732010D01*
G01X6915374Y-2752907D01*
G01X6915374Y-2774133D01*
G01X6919086Y-2795030D01*
G01X6926396Y-2814957D01*
G01X6937078Y-2833298D01*
G01X6950803Y-2849488D01*
G01X6967148Y-2863029D01*
G01X6985609Y-2873502D01*
G01X6966641Y-2884327D01*
G01X6949930Y-2898388D01*
G01X6936021Y-2915225D01*
G01X6925369Y-2934291D01*
G01X6918320Y-2954962D01*
G01X6915106Y-2976563D01*
G01X6915830Y-2998391D01*
G01X6920470Y-3019732D01*
G01X6928873Y-3039890D01*
G01X6940766Y-3058207D01*
G01X6955760Y-3074086D01*
G01X6973367Y-3087008D01*
G01X6993011Y-3096552D01*
G01X7014051Y-3102405D01*
G01X7035801Y-3104378D01*
G01X7057552Y-3102405D01*
G01X7078592Y-3096552D01*
G01X7098236Y-3087008D01*
G01X7115842Y-3074086D01*
G01X7130837Y-3058207D01*
G01X7142730Y-3039890D01*
G01X7151133Y-3019732D01*
G01X7155773Y-2998391D01*
G01X7156497Y-2976563D01*
G01X7153282Y-2954962D01*
G01X7146234Y-2934291D01*
G01X7135581Y-2915225D01*
G01X7121673Y-2898388D01*
G01X7104962Y-2884327D01*
G01X7085994Y-2873502D01*
G01X7104455Y-2863029D01*
G01X7120800Y-2849488D01*
G01X7134525Y-2833298D01*
G01X7145207Y-2814957D01*
G01X7152516Y-2795030D01*
G01X7156228Y-2774133D01*
G01X7156228Y-2752907D01*
G01X7152516Y-2732010D01*
G01X7145207Y-2712083D01*
G01X7134525Y-2693742D01*
G01X7120800Y-2677552D01*
G01X7104455Y-2664011D01*
G01X7085994Y-2653538D01*
G01X7085994Y-2653538D01*
G01X7104962Y-2642713D01*
G01X7121673Y-2628652D01*
G01X7135581Y-2611815D01*
G01X7146234Y-2592749D01*
G01X7153282Y-2572078D01*
G01X7156497Y-2550477D01*
G01X7155773Y-2528649D01*
G01X7151133Y-2507308D01*
G01X7142730Y-2487150D01*
G01X7130837Y-2468833D01*
G01X7115842Y-2452954D01*
G01X7098236Y-2440032D01*
G01X7078592Y-2430488D01*
G01X7057552Y-2424635D01*
G01X7035801Y-2422662D01*
G01X7014051Y-2424635D01*
G01X6993011Y-2430488D01*
G01X6973367Y-2440032D01*
G01X6955760Y-2452954D01*
G01X6940766Y-2468833D01*
G01X6928873Y-2487150D01*
G01X6920470Y-2507308D01*
G01X6915830Y-2528649D01*
G01X6915106Y-2550477D01*
G01X6596977Y-2550477D01*
G01X6597894Y-2540000D01*
G01X6596057Y-2519007D01*
G01X6590603Y-2498652D01*
G01X6581697Y-2479553D01*
G01X6569610Y-2462291D01*
G01X6554709Y-2447390D01*
G01X6537447Y-2435303D01*
G01X6518348Y-2426397D01*
G01X6497993Y-2420943D01*
G01X6477000Y-2419106D01*
G01X6477000Y-2419106D01*
G01X6456007Y-2420943D01*
G01X6435652Y-2426397D01*
G01X6416553Y-2435303D01*
G01X6399291Y-2447390D01*
G01X6384390Y-2462291D01*
G01X6372303Y-2479553D01*
G01X6363397Y-2498652D01*
G01X6357943Y-2519007D01*
G01X6356106Y-2540000D01*
G01X4768493Y-2540000D01*
G01X4730596Y-2502103D01*
G01X4719497Y-2493586D01*
G01X4706571Y-2488232D01*
G01X4692700Y-2486406D01*
G01X4045365Y-2486406D01*
G01X4033793Y-2467567D01*
G01X4018983Y-2451151D01*
G01X4001431Y-2437706D01*
G01X3981724Y-2427683D01*
G01X3960521Y-2421416D01*
G01X3938532Y-2419116D01*
G01X3916491Y-2420858D01*
G01X3895136Y-2426586D01*
G01X3875182Y-2436107D01*
G01X3857295Y-2449102D01*
G01X3857295Y-2376898D01*
G01X3875182Y-2389893D01*
G01X3895136Y-2399414D01*
G01X3916491Y-2405142D01*
G01X3938532Y-2406884D01*
G01X3960521Y-2404584D01*
G01X3981724Y-2398317D01*
G01X4001431Y-2388294D01*
G01X4018983Y-2374849D01*
G01X4033793Y-2358433D01*
G01X4045365Y-2339594D01*
G01X4540301Y-2339594D01*
G01X4554172Y-2337768D01*
G01X4567098Y-2332414D01*
G01X4578197Y-2323897D01*
G01X4676800Y-2225294D01*
G01X6372453Y-2225294D01*
G01X6363573Y-2244172D01*
G01X6358070Y-2264295D01*
G01X6356110Y-2285065D01*
G01X6357749Y-2305863D01*
G01X6362939Y-2326069D01*
G01X6371527Y-2345082D01*
G01X6383254Y-2362335D01*
G01X6397774Y-2377316D01*
G01X6414653Y-2389577D01*
G01X6433388Y-2398753D01*
G01X6453423Y-2404572D01*
G01X6474159Y-2406860D01*
G01X6494980Y-2405549D01*
G01X6515265Y-2400678D01*
G01X6534411Y-2392392D01*
G01X6551848Y-2380938D01*
G01X6567055Y-2366656D01*
G01X6579581Y-2349973D01*
G01X6589052Y-2331384D01*
G01X6595186Y-2311444D01*
G01X6597801Y-2290747D01*
G01X6596818Y-2269908D01*
G01X6592267Y-2249548D01*
G01X6584284Y-2230274D01*
G01X6573106Y-2212659D01*
G01X6559066Y-2197228D01*
G01X6829692Y-1926602D01*
G01X6847896Y-1926637D01*
G01X6865861Y-1923692D01*
G01X6883102Y-1917847D01*
G01X6899155Y-1909261D01*
G01X6913586Y-1898164D01*
G01X6926007Y-1884855D01*
G01X6936084Y-1869694D01*
G37*
G36*
G01X1519492Y-5350802D02*
G01X1519492Y-6381267D01*
G01X1500678Y-6391643D01*
G01X1483815Y-6404957D01*
G01X1469358Y-6420850D01*
G01X1457695Y-6438894D01*
G01X1449141Y-6458603D01*
G01X1443926Y-6479446D01*
G01X1442192Y-6500861D01*
G01X1443984Y-6522272D01*
G01X1449254Y-6543100D01*
G01X1457861Y-6562786D01*
G01X1469572Y-6580799D01*
G01X1484072Y-6596654D01*
G01X1500971Y-6609922D01*
G01X1519812Y-6620248D01*
G01X1540089Y-6627352D01*
G01X1561255Y-6631044D01*
G01X1582739Y-6631223D01*
G01X1603964Y-6627885D01*
G01X1624356Y-6621120D01*
G01X1643367Y-6611110D01*
G01X1660485Y-6598126D01*
G01X1675247Y-6582515D01*
G01X1687258Y-6564701D01*
G01X1696192Y-6545161D01*
G01X1696192Y-6590685D01*
G01X1698193Y-6603322D01*
G01X1704002Y-6614722D01*
G01X1713049Y-6623769D01*
G01X1724449Y-6629578D01*
G01X1737086Y-6631579D01*
G01X1917085Y-6631579D01*
G01X1929722Y-6629578D01*
G01X1941122Y-6623769D01*
G01X1950169Y-6614722D01*
G01X1955978Y-6603322D01*
G01X1957979Y-6590685D01*
G01X1957979Y-6410686D01*
G01X1955978Y-6398049D01*
G01X1950169Y-6386649D01*
G01X1941122Y-6377602D01*
G01X1929722Y-6371793D01*
G01X1917085Y-6369792D01*
G01X1737086Y-6369792D01*
G01X1724449Y-6371793D01*
G01X1713049Y-6377602D01*
G01X1704002Y-6386649D01*
G01X1698193Y-6398049D01*
G01X1696192Y-6410686D01*
G01X1696192Y-6456210D01*
G01X1687505Y-6437113D01*
G01X1675878Y-6419650D01*
G01X1661611Y-6404268D01*
G01X1645070Y-6391363D01*
G01X1626680Y-6381267D01*
G01X1626680Y-5307114D01*
G01X2218606Y-4715187D01*
G01X2218606Y-4839800D01*
G01X2220608Y-4852437D01*
G01X2226416Y-4863837D01*
G01X2235463Y-4872884D01*
G01X2246863Y-4878692D01*
G01X2259500Y-4880694D01*
G01X2295906Y-4880694D01*
G01X2295906Y-4884381D01*
G01X2277113Y-4894743D01*
G01X2260266Y-4908037D01*
G01X2245818Y-4923905D01*
G01X2234157Y-4941920D01*
G01X2225596Y-4961599D01*
G01X2220365Y-4982412D01*
G01X2218606Y-5003800D01*
G01X2220365Y-5025188D01*
G01X2225596Y-5046001D01*
G01X2234157Y-5065680D01*
G01X2245818Y-5083695D01*
G01X2260266Y-5099563D01*
G01X2277113Y-5112857D01*
G01X2295906Y-5123219D01*
G01X2295906Y-5138381D01*
G01X2277113Y-5148743D01*
G01X2260266Y-5162037D01*
G01X2245818Y-5177905D01*
G01X2234157Y-5195920D01*
G01X2225596Y-5215599D01*
G01X2220365Y-5236412D01*
G01X2218606Y-5257800D01*
G01X2220365Y-5279188D01*
G01X2225596Y-5300001D01*
G01X2234157Y-5319680D01*
G01X2245818Y-5337695D01*
G01X2260266Y-5353563D01*
G01X2277113Y-5366857D01*
G01X2295906Y-5377219D01*
G01X2295906Y-5392381D01*
G01X2277113Y-5402743D01*
G01X2260266Y-5416037D01*
G01X2245818Y-5431905D01*
G01X2234157Y-5449920D01*
G01X2225596Y-5469599D01*
G01X2220365Y-5490412D01*
G01X2218606Y-5511800D01*
G01X2220365Y-5533188D01*
G01X2225596Y-5554001D01*
G01X2234157Y-5573680D01*
G01X2245818Y-5591695D01*
G01X2260266Y-5607563D01*
G01X2277113Y-5620857D01*
G01X2295906Y-5631219D01*
G01X2295906Y-5646381D01*
G01X2277113Y-5656743D01*
G01X2260266Y-5670037D01*
G01X2245818Y-5685905D01*
G01X2234157Y-5703920D01*
G01X2225596Y-5723599D01*
G01X2220365Y-5744412D01*
G01X2218606Y-5765800D01*
G01X2220365Y-5787188D01*
G01X2225596Y-5808001D01*
G01X2234157Y-5827680D01*
G01X2245818Y-5845695D01*
G01X2260266Y-5861563D01*
G01X2277113Y-5874857D01*
G01X2295906Y-5885219D01*
G01X2295906Y-5900381D01*
G01X2277113Y-5910743D01*
G01X2260266Y-5924037D01*
G01X2245818Y-5939905D01*
G01X2234157Y-5957920D01*
G01X2225596Y-5977599D01*
G01X2220365Y-5998412D01*
G01X2218606Y-6019800D01*
G01X2220365Y-6041188D01*
G01X2225596Y-6062001D01*
G01X2234157Y-6081680D01*
G01X2245818Y-6099695D01*
G01X2260266Y-6115563D01*
G01X2277113Y-6128857D01*
G01X2295906Y-6139219D01*
G01X2295906Y-6172200D01*
G01X2297732Y-6186071D01*
G01X2303086Y-6198997D01*
G01X2311603Y-6210097D01*
G01X2473013Y-6371506D01*
G01X2388560Y-6371506D01*
G01X1830915Y-5813861D01*
G01X1823327Y-5800406D01*
G01X1813022Y-5788899D01*
G01X1800483Y-5779877D01*
G01X1786298Y-5773764D01*
G01X1771129Y-5770844D01*
G01X1755688Y-5771256D01*
G01X1740697Y-5774979D01*
G01X1726857Y-5781840D01*
G01X1714817Y-5791517D01*
G01X1705140Y-5803557D01*
G01X1698279Y-5817397D01*
G01X1694556Y-5832388D01*
G01X1694144Y-5847829D01*
G01X1697064Y-5862998D01*
G01X1703177Y-5877183D01*
G01X1712199Y-5889722D01*
G01X1723706Y-5900027D01*
G01X1737161Y-5907615D01*
G01X2306066Y-6476520D01*
G01X2306066Y-6592400D01*
G01X2308067Y-6605037D01*
G01X2313876Y-6616437D01*
G01X2322923Y-6625484D01*
G01X2334323Y-6631292D01*
G01X2346960Y-6633294D01*
G01X2462840Y-6633294D01*
G01X2606838Y-6777291D01*
G01X1163485Y-6777291D01*
G01X1001026Y-6614833D01*
G01X1020221Y-6623651D01*
G01X1040585Y-6629266D01*
G01X1061587Y-6631533D01*
G01X1082680Y-6630391D01*
G01X1103315Y-6625872D01*
G01X1122954Y-6618093D01*
G01X1141086Y-6607255D01*
G01X1157239Y-6593642D01*
G01X1170991Y-6577608D01*
G01X1181986Y-6559571D01*
G01X1189936Y-6540000D01*
G01X1194634Y-6519406D01*
G01X1195958Y-6498323D01*
G01X1193874Y-6477303D01*
G01X1188435Y-6456891D01*
G01X1179785Y-6437619D01*
G01X1168146Y-6419991D01*
G01X1153824Y-6404464D01*
G01X1137191Y-6391443D01*
G01X1118680Y-6381267D01*
G01X1118680Y-5751614D01*
G01X1519492Y-5350802D01*
G37*
G54D10*
G01X40894Y-330200D02*
G02X317500Y-53594I276606J0D01*
G01X9359900Y-53594D01*
G02X9636506Y-330200I0J-276606D01*
G01X9636506Y-7023100D01*
G02X9359900Y-7299706I-276606J0D01*
G01X317500Y-7299706D01*
G02X40894Y-7023100I0J276606D01*
G01X40894Y-330200D01*
G01X155956Y-355600D02*
G03X682244Y-355600I263144J0D01*
G03X155956Y-355600I-263144J0D01*
G01X155956Y-7010400D02*
G03X682244Y-7010400I263144J0D01*
G03X155956Y-7010400I-263144J0D01*
G01X571759Y-3784589D02*
G03X650163Y-3707427I7274J71023D01*
G03X725307Y-3541486I-29463J113327D01*
G01X1419199Y-2847594D01*
G01X3828635Y-2847594D01*
G03X4000798Y-2896690I108365J53594D01*
G03X4033057Y-2720594I-63798J102690D01*
G01X4391101Y-2720594D01*
G01X4923891Y-3253383D01*
G03X4880188Y-3322679I27608J-65840D01*
G03X4930387Y-3387424I71310J3456D01*
G01X5270083Y-3727121D01*
G03X5211937Y-3801620I13117J-70179D01*
G03X5278656Y-3868549I71263J4320D01*
G01X6058103Y-4647997D01*
G03X6096000Y-4663694I37897J37897D01*
G01X6251582Y-4663694D01*
G01X6331203Y-4743410D01*
G03X6315506Y-4781306I37897J-37897D01*
G01X6315506Y-4870694D01*
G03X6331203Y-4908590I53594J0D01*
G01X6394410Y-4971797D01*
G03X6407234Y-4981268I37897J37897D01*
G03X6471905Y-5200786I69766J-98732D01*
G03X6554833Y-4987494I5095J120786D01*
G01X6575401Y-4987494D01*
G01X6647051Y-5059144D01*
G03X6726968Y-5125466I71249J4544D01*
G03X6788544Y-5041836I-8668J70866D01*
G01X6795956Y-5049249D01*
G03X6860064Y-5182453I106545J-30751D01*
G03X6999584Y-5133594I42437J102453D01*
G01X7228485Y-5133594D01*
G01X7467378Y-5372487D01*
G03X7667385Y-5496701I114522J-38729D01*
G03X7543171Y-5296694I-85485J85485D01*
G01X7288581Y-5042103D01*
G03X7250684Y-5026406I-37897J-37897D01*
G01X6999584Y-5026406D01*
G03X6871749Y-4973455I-97083J-53594D01*
G01X6559397Y-4661103D01*
G01X6559065Y-4660773D01*
G03X6546766Y-4473268I-82065J88773D01*
G03X6559590Y-4463797I-25072J47368D01*
G01X6622797Y-4400590D01*
G03X6638494Y-4362694I-37897J37897D01*
G01X6638494Y-4295506D01*
G01X6641450Y-4292550D01*
G01X6929986Y-4292550D01*
G03X6985608Y-4461002I105814J-58470D01*
G03X7035800Y-4691878I50192J-109982D01*
G03X7085992Y-4461002I0J120894D01*
G03X7125393Y-4269850I-50192J109982D01*
G01X7150649Y-4244594D01*
G01X7361581Y-4244594D01*
G01X7429278Y-4312291D01*
G03X7493608Y-4461002I114522J-38729D01*
G03X7543800Y-4691878I50192J-109982D01*
G03X7593992Y-4461002I0J120894D01*
G03X7664694Y-4351020I-50192J109982D01*
G03X7593992Y-4241038I-120894J0D01*
G03X7597728Y-4022857I-50192J109982D01*
G03X7425765Y-4157192I-53928J-108199D01*
G01X7421677Y-4153103D01*
G03X7383780Y-4137406I-37897J-37897D01*
G01X7156527Y-4137406D01*
G03X7010993Y-4012735I-120727J6350D01*
G03X6927790Y-4185362I24807J-118321D01*
G01X6685431Y-4185362D01*
G01X6880199Y-3990594D01*
G01X7086600Y-3990594D01*
G03X7124497Y-3974897I0J53594D01*
G01X7438999Y-3660394D01*
G01X7781100Y-3660394D01*
G03X7818996Y-3644697I0J53594D01*
G01X8077028Y-3386665D01*
G03X8316527Y-3503227I139872J-16935D01*
G03X8199965Y-3263728I-99627J99627D01*
G01X8970455Y-2493238D01*
G03X9109556Y-2278344I46545J122339D01*
G03X8894661Y-2417445I-92556J-92556D01*
G01X7758900Y-3553206D01*
G01X7416800Y-3553206D01*
G03X7378903Y-3568903I0J-53594D01*
G01X7064401Y-3883406D01*
G01X6858000Y-3883406D01*
G03X6820103Y-3899103I0J-53594D01*
G01X6515729Y-4203478D01*
G03X6362225Y-4280025I-38729J-114522D01*
G01X6235303Y-4153103D01*
G03X6197406Y-4137406I-37897J-37897D01*
G01X6079668Y-4137406D01*
G03X5975498Y-4148013I-47168J-53594D01*
G01X5045789Y-3218304D01*
G03X5029056Y-3206962I-37897J-37897D01*
G01X4451197Y-2629103D01*
G03X4413301Y-2613406I-37897J-37897D01*
G01X4033057Y-2613406D01*
G03X4045365Y-2593594I-96057J73406D01*
G01X4670500Y-2593594D01*
G01X5696203Y-3619297D01*
G03X5734100Y-3634994I37897J37897D01*
G01X5772190Y-3634994D01*
G03X5810087Y-3619297I0J53594D01*
G01X6200790Y-3228594D01*
G01X6380943Y-3228594D01*
G03X6362478Y-3340729I96057J-73406D01*
G01X6040656Y-3662551D01*
G03X5994717Y-3784283I4544J-71249D01*
G03X6116449Y-3738344I50483J50483D01*
G01X6438271Y-3416522D01*
G03X6597894Y-3301787I38729J114522D01*
G01X6745155Y-3449049D01*
G03X6826592Y-3587814I106545J-30751D01*
G01X6658001Y-3756406D01*
G01X6585365Y-3756406D01*
G03X6356106Y-3810000I-108365J-53594D01*
G03X6585365Y-3863594I120894J0D01*
G01X6680200Y-3863594D01*
G03X6718097Y-3847897I0J53594D01*
G01X7454697Y-3111297D01*
G03X7470069Y-3079291I-37897J37897D01*
G03X7644897Y-3049778I73732J95807D01*
G01X7748016Y-3049778D01*
G03X7785913Y-3034081I0J53594D01*
G01X7929809Y-2890185D01*
G03X8118520Y-2846317I71191J121585D01*
G03X8085012Y-2655494I-117520J77717D01*
G01X8101000Y-2655494D01*
G03X8141894Y-2614600I0J40894D01*
G01X8141894Y-2414600D01*
G03X8101000Y-2373706I-40894J0D01*
G01X7901000Y-2373706D01*
G03X7860106Y-2414600I0J-40894D01*
G01X7860106Y-2567000D01*
G01X7691781Y-2735326D01*
G01X7661362Y-2735326D01*
G03X7593994Y-2653538I-117560J-28194D01*
G03X7664437Y-2535658I-50192J109982D01*
G03X7579225Y-2427968I-120636J-7898D01*
G01X8064297Y-1942897D01*
G03X8079994Y-1905000I-37897J37897D01*
G01X8079994Y-789817D01*
G03X8014045Y-469228I-59601J154817D01*
G03X7972806Y-793922I6348J-165772D01*
G01X7972806Y-1882801D01*
G01X7661151Y-2194456D01*
G03X7505072Y-2108994I-117349J-29060D01*
G01X7174282Y-1778203D01*
G03X7136385Y-1762506I-37897J-37897D01*
G01X6936084Y-1762506D01*
G03X6787661Y-1717806I-97083J-53594D01*
G03X6739549Y-1865159I51340J-98294D01*
G01X6595689Y-2009018D01*
G03X6419893Y-1925444I-118689J-22982D01*
G03X6392141Y-2118106I57107J-106556D01*
G01X4654601Y-2118106D01*
G03X4616704Y-2133803I0J-53594D01*
G01X4592586Y-2157922D01*
G03X4525744Y-2087751I-71386J-1078D01*
G01X4510798Y-2072805D01*
G03X4539437Y-1958746I-24955J66891D01*
G01X4539437Y-1494282D01*
G03X4485843Y-1375720I-53594J47168D01*
G03X4432249Y-1494282I0J-71394D01*
G01X4432249Y-1958746D01*
G03X4418953Y-1980959I53594J-47168D01*
G01X4381731Y-1943738D01*
G03X4415316Y-1865639I-35903J61710D01*
G03X4350372Y-1810779I-69488J-16389D01*
G01X4165397Y-1625803D01*
G03X4127500Y-1610106I-37897J-37897D01*
G01X4021859Y-1610106D01*
G03X4057304Y-1512069I-84859J86106D01*
G03X4003294Y-1422904I-120304J-11931D01*
G01X4003294Y-1390894D01*
G01X4017000Y-1390894D01*
G03X4057894Y-1350000I0J40894D01*
G01X4057894Y-1190000D01*
G03X4017000Y-1149106I-40894J0D01*
G01X3857000Y-1149106D01*
G03X3816106Y-1190000I0J-40894D01*
G01X3816106Y-1327313D01*
G01X3277794Y-789000D01*
G01X3277794Y-623900D01*
G03X3236900Y-583006I-40894J0D01*
G01X3036900Y-583006D01*
G03X2996006Y-623900I0J-40894D01*
G01X2996006Y-823900D01*
G03X3036900Y-864794I40894J0D01*
G01X3202000Y-864794D01*
G01X3743706Y-1406499D01*
G01X3743706Y-1562100D01*
G03X3759403Y-1599997I53594J0D01*
G01X3851719Y-1692312D01*
G03X3828635Y-1724406I85281J-85688D01*
G01X3641699Y-1724406D01*
G01X3353994Y-1436700D01*
G01X3353994Y-1271600D01*
G03X3313100Y-1230706I-40894J0D01*
G01X3113100Y-1230706D01*
G03X3072206Y-1271600I0J-40894D01*
G01X3072206Y-1471600D01*
G03X3113100Y-1512494I40894J0D01*
G01X3278200Y-1512494D01*
G01X3581603Y-1815897D01*
G03X3619500Y-1831594I37897J37897D01*
G01X3828635Y-1831594D01*
G03X4045365Y-1831594I108365J53594D01*
G01X4118001Y-1831594D01*
G01X4449951Y-2163544D01*
G03X4520122Y-2230386I71249J4544D01*
G01X4518101Y-2232406D01*
G01X4045365Y-2232406D01*
G03X3857295Y-2195102I-108365J-53594D01*
G01X3857295Y-2187499D01*
G01X3898271Y-2146522D01*
G03X4022485Y-1946515I38729J114522D01*
G03X3822478Y-2070729I-85485J-85485D01*
G01X3765804Y-2127403D01*
G03X3750107Y-2165299I37897J-37897D01*
G01X3750107Y-2565400D01*
G03X3765804Y-2603297I53594J0D01*
G01X3861827Y-2699320D01*
G03X3828635Y-2740406I75173J-94680D01*
G01X1397000Y-2740406D01*
G03X1359103Y-2756103I0J-53594D01*
G01X637053Y-3478154D01*
G03X620700Y-3477006I-16353J-115946D01*
G01X573100Y-3477006D01*
G03X510626Y-3693135I0J-117094D01*
G03X571759Y-3784589I68408J-20431D01*
G01X1574800Y-3629406D02*
G03X1536903Y-3645103I0J-53594D01*
G01X685100Y-4496906D01*
G01X550000Y-4496906D01*
G03X509106Y-4537800I0J-40894D01*
G01X509106Y-4707800D01*
G03X550000Y-4748694I40894J0D01*
G01X720000Y-4748694D01*
G03X760894Y-4707800I0J40894D01*
G01X760894Y-4572700D01*
G01X1596999Y-3736594D01*
G01X3840943Y-3736594D01*
G03X3840943Y-3883406I96057J-73406D01*
G01X1574800Y-3883406D01*
G03X1536903Y-3899103I0J-53594D01*
G01X931654Y-4504352D01*
G03X799980Y-4711820I-42654J-118448D01*
G03X1007448Y-4580146I89020J89020D01*
G01X1596999Y-3990594D01*
G01X3840943Y-3990594D01*
G03X3841707Y-4138394I96057J-73406D01*
G03X3984904Y-4174998I95293J74394D01*
G01X4483303Y-4673397D01*
G03X4521200Y-4689094I37897J37897D01*
G01X4588217Y-4689094D01*
G01X4587634Y-4689602D01*
G01X4301401Y-4689602D01*
G01X4037698Y-4425899D01*
G03X4013155Y-4411892I-37897J-37897D01*
G03X3938324Y-4197113I-76155J93892D01*
G03X3858807Y-4410202I-1324J-120887D01*
G01X3793401Y-4410202D01*
G01X3707498Y-4324299D01*
G03X3669602Y-4308602I-37897J-37897D01*
G01X2432304Y-4308602D01*
G03X2394407Y-4324299I0J-53594D01*
G01X1027189Y-5691518D01*
G03X1011492Y-5729414I37897J-37897D01*
G01X1011492Y-6381267D01*
G03X938086Y-6468997I53594J-119419D01*
G03X695066Y-6440084I-127000J-31689D01*
G03X857631Y-6623024I116020J-60602D01*
G01X1103389Y-6868782D01*
G03X1141286Y-6884479I37897J37897D01*
G01X4000500Y-6884479D01*
G03X4038397Y-6868782I0J53594D01*
G01X4241597Y-6665582D01*
G03X4257294Y-6627685I-37897J37897D01*
G01X4257294Y-6002350D01*
G01X4690844Y-5568800D01*
G03X4747433Y-5534427I-4544J71249D01*
G01X4772406Y-5559399D01*
G01X4772406Y-5689600D01*
G03X4788103Y-5727497I53594J0D01*
G01X6007303Y-6946697D01*
G03X6045200Y-6962394I37897J37897D01*
G01X7099300Y-6962394D01*
G03X7137197Y-6946697I0J53594D01*
G01X7183646Y-6900248D01*
G03X7315320Y-6692780I42654J118448D01*
G03X7107852Y-6824454I-89020J-89020D01*
G01X7098194Y-6834113D01*
G01X7098194Y-6696800D01*
G03X7057300Y-6655906I-40894J0D01*
G01X6887300Y-6655906D01*
G03X6846406Y-6696800I0J-40894D01*
G01X6846406Y-6855206D01*
G01X6067399Y-6855206D01*
G01X4938103Y-5725910D01*
G03X4973449Y-5668744I-35903J61710D01*
G01X5295697Y-5346497D01*
G03X5311394Y-5308600I-37897J37897D01*
G01X5311394Y-5254168D01*
G03X5257800Y-5135606I-53594J47168D01*
G03X5204206Y-5254168I0J-71394D01*
G01X5204206Y-5286401D01*
G01X4897656Y-5592951D01*
G03X4879594Y-5596479I4544J-71249D01*
G01X4879594Y-5537200D01*
G03X4863897Y-5499303I-53594J0D01*
G01X4152697Y-4788103D01*
G03X4114800Y-4772406I-37897J-37897D01*
G01X4045365Y-4772406D01*
G03X3816106Y-4826000I-108365J-53594D01*
G03X4045365Y-4879594I120894J0D01*
G01X4092601Y-4879594D01*
G01X4649424Y-5436417D01*
G03X4615051Y-5493007I36876J-61133D01*
G01X4165803Y-5942254D01*
G03X4150106Y-5980151I37897J-37897D01*
G01X4150106Y-6144180D01*
G03X4075572Y-6162904I-22606J-67721D01*
G03X4061206Y-6238400I51928J-48996D01*
G01X4061206Y-6576540D01*
G01X3947640Y-6690106D01*
G01X2707160Y-6690106D01*
G01X2645911Y-6628858D01*
G03X2806700Y-6534089I33789J126458D01*
G03X3064594Y-6502400I127000J31689D01*
G03X2806700Y-6470711I-130894J0D01*
G03X2740302Y-6386380I-127000J-31689D01*
G03X2633155Y-6380061I-60602J-116020D01*
G01X2403094Y-6150001D01*
G01X2403094Y-6139219D01*
G03X2403094Y-5900381I-53594J119419D01*
G01X2403094Y-5885219D01*
G03X2403094Y-5646381I-53594J119419D01*
G01X2403094Y-5631219D01*
G03X2403094Y-5392381I-53594J119419D01*
G01X2403094Y-5377219D01*
G03X2403094Y-5138381I-53594J119419D01*
G01X2403094Y-5123219D01*
G03X2403094Y-4884381I-53594J119419D01*
G01X2403094Y-4880694D01*
G01X2439500Y-4880694D01*
G03X2480394Y-4839800I0J40894D01*
G01X2480394Y-4659800D01*
G03X2439500Y-4618906I-40894J0D01*
G01X2314887Y-4618906D01*
G01X2447899Y-4485894D01*
G01X3599332Y-4485894D01*
G03X3654941Y-4503193I47168J53594D01*
G03X3704933Y-4473321I-8441J70893D01*
G01X3733305Y-4501693D01*
G03X3771202Y-4517390I37897J37897D01*
G01X3829143Y-4517390D01*
G03X3822478Y-4610729I107857J-54610D01*
G01X3737001Y-4696206D01*
G01X3153494Y-4696206D01*
G01X3153494Y-4659800D01*
G03X3112600Y-4618906I-40894J0D01*
G01X2932600Y-4618906D01*
G03X2891706Y-4659800I0J-40894D01*
G01X2891706Y-4839800D01*
G03X2932600Y-4880694I40894J0D01*
G01X2978125Y-4880694D01*
G03X2990911Y-5130800I44475J-123106D01*
G03X2891706Y-5257800I31689J-127000D01*
G03X2990911Y-5384800I130894J0D01*
G03X2891706Y-5511800I31689J-127000D01*
G03X2990911Y-5638800I130894J0D01*
G03X2891706Y-5765800I31689J-127000D01*
G03X2990911Y-5892800I130894J0D01*
G03X2897945Y-6059730I31689J-127000D01*
G03X3070600Y-6141575I124655J39930D01*
G03X3098800Y-6149594I28200J45575D01*
G01X3828635Y-6149594D01*
G03X4057894Y-6096000I108365J53594D01*
G03X3828635Y-6042406I-120894J0D01*
G01X3151527Y-6042406D01*
G03X3054289Y-5892800I-128927J22606D01*
G03X3142019Y-5819394I-31689J127000D01*
G01X3818239Y-5819394D01*
G03X4028177Y-5921386I118761J-22606D01*
G03X3898267Y-5727479I-91177J79386D01*
G03X3860800Y-5712206I-37467J-38321D01*
G01X3142019Y-5712206D01*
G03X3054289Y-5638800I-119419J-53594D01*
G03X3142019Y-5565394I-31689J127000D01*
G01X3818239Y-5565394D01*
G03X4028177Y-5667386I118761J-22606D01*
G03X3898267Y-5473479I-91177J79386D01*
G03X3860800Y-5458206I-37467J-38321D01*
G01X3142019Y-5458206D01*
G03X3054289Y-5384800I-119419J-53594D01*
G03X3070600Y-5379575I-31689J127000D01*
G03X3098800Y-5387594I28200J45575D01*
G01X3828635Y-5387594D01*
G03X4057894Y-5334000I108365J53594D01*
G03X3828635Y-5280406I-120894J0D01*
G01X3151527Y-5280406D01*
G03X3054289Y-5130800I-128927J22606D01*
G03X3070600Y-5125575I-31689J127000D01*
G03X3098800Y-5133594I28200J45575D01*
G01X3828635Y-5133594D01*
G03X4057894Y-5080000I108365J53594D01*
G03X3828635Y-5026406I-120894J0D01*
G01X3151527Y-5026406D01*
G03X3067075Y-4880694I-128927J22606D01*
G01X3112600Y-4880694D01*
G03X3153494Y-4839800I0J40894D01*
G01X3153494Y-4803394D01*
G01X3759200Y-4803394D01*
G03X3797097Y-4787697I0J53594D01*
G01X3898271Y-4686522D01*
G03X3997590Y-4676614I38729J114522D01*
G03X4055608Y-4595396I-60590J104614D01*
G01X4241305Y-4781093D01*
G03X4279202Y-4796790I37897J37897D01*
G01X4587634Y-4796790D01*
G03X4688650Y-4790073I47168J53594D01*
G03X4681386Y-4689094I-53849J46877D01*
G01X5032401Y-4689094D01*
G01X5509786Y-5166479D01*
G03X5483606Y-5279568I27414J-65921D01*
G01X5483606Y-5867400D01*
G03X5499303Y-5905297I53594J0D01*
G01X5592951Y-5998944D01*
G03X5714683Y-6044883I71249J4544D01*
G03X5668744Y-5923151I-50483J50483D01*
G01X5590794Y-5845201D01*
G01X5590794Y-5279568D01*
G03X5603121Y-5259814I-53594J47168D01*
G01X6337503Y-5994197D01*
G03X6375400Y-6009894I37897J37897D01*
G01X6392141Y-6009894D01*
G03X6477000Y-6216894I84859J-86106D01*
G03X6561859Y-6009894I0J120894D01*
G01X6645301Y-6009894D01*
G01X7365510Y-6730103D01*
G03X7562020Y-6877565I114790J-51697D01*
G03X7447301Y-6660308I-81720J95765D01*
G01X7078965Y-6291972D01*
G03X7124092Y-6061202I-5065J120788D01*
G03X7124092Y-5841238I-50192J109982D01*
G03X7073900Y-5610362I-50192J109982D01*
G03X7023708Y-5841238I0J-120894D01*
G03X7023708Y-6061202I50192J-109982D01*
G03X6953112Y-6166119I50192J-109982D01*
G01X6705397Y-5918403D01*
G03X6667500Y-5902706I-37897J-37897D01*
G01X6581547Y-5902706D01*
G03X6498106Y-5722963I-104547J60706D01*
G03X6357955Y-5863062I-21106J-119037D01*
G01X5092497Y-4597603D01*
G03X5054600Y-4581906I-37897J-37897D01*
G01X4543399Y-4581906D01*
G01X4054390Y-4092896D01*
G01X4054549Y-4092242D01*
G01X4267403Y-4305097D01*
G03X4305300Y-4320794I37897J37897D01*
G01X5299532Y-4320794D01*
G03X5418094Y-4267200I47168J53594D01*
G03X5299532Y-4213606I-71394J0D01*
G01X4327499Y-4213606D01*
G01X4015680Y-3901787D01*
G03X4033057Y-3736594I-78680J91787D01*
G01X4562501Y-3736594D01*
G01X4640451Y-3814544D01*
G03X4762183Y-3860483I71249J4544D01*
G03X4716244Y-3738751I-50483J50483D01*
G01X4622597Y-3645103D01*
G03X4584700Y-3629406I-37897J-37897D01*
G01X4033057Y-3629406D01*
G03X3937000Y-3435106I-96057J73406D01*
G03X3840943Y-3629406I0J-120894D01*
G01X1574800Y-3629406D01*
G01X939800Y-1349007D02*
G03X939800Y-1630794I0J-140894D01*
G03X939800Y-1349007I0J140894D01*
G01X1017106Y-4622800D02*
G03X1268894Y-4622800I125894J0D01*
G03X1017106Y-4622800I-125894J0D01*
G01X1335100Y-3711194D02*
G01X1382700Y-3711194D01*
G03X1382700Y-3477006I0J117094D01*
G01X1335100Y-3477006D01*
G03X1335100Y-3711194I0J-117094D01*
G01X1335100Y-3457194D02*
G01X1382700Y-3457194D01*
G03X1382700Y-3223006I0J117094D01*
G01X1335100Y-3223006D01*
G03X1335100Y-3457194I0J-117094D01*
G01X1271106Y-4622800D02*
G03X1522894Y-4622800I125894J0D01*
G03X1271106Y-4622800I-125894J0D01*
G01X2305294Y-3060700D02*
G03X2063506Y-3060700I-120894J0D01*
G03X2305294Y-3060700I120894J0D01*
G01X2228609Y-955304D02*
G03X2470396Y-955304I120894J0D01*
G03X2228609Y-955304I-120894J0D01*
G01X2266709Y-1958604D02*
G03X2508496Y-1958604I120894J0D01*
G03X2266709Y-1958604I-120894J0D01*
G01X2813294Y-3060700D02*
G03X2571506Y-3060700I-120894J0D01*
G03X2813294Y-3060700I120894J0D01*
G01X3937000Y-6229106D02*
G03X3937000Y-6470894I0J-120894D01*
G03X3937000Y-6229106I0J120894D01*
G01X3937000Y-2927106D02*
G03X3937000Y-3168894I0J-120894D01*
G03X3937000Y-2927106I0J120894D01*
G01X3937000Y-3181106D02*
G03X3937000Y-3422894I0J-120894D01*
G03X3937000Y-3181106I0J120894D01*
G01X5299532Y-4155694D02*
G03X5418094Y-4102100I47168J53594D01*
G03X5299532Y-4048506I-71394J0D01*
G01X4556099Y-4048506D01*
G01X4554349Y-4046756D01*
G03X4432617Y-4000817I-71249J-4544D01*
G03X4478556Y-4122549I50483J-50483D01*
G01X4496003Y-4139997D01*
G03X4533900Y-4155694I37897J37897D01*
G01X5299532Y-4155694D01*
G01X6066056Y-3865751D02*
G03X6020117Y-3987483I4544J-71249D01*
G03X6141849Y-3941544I50483J50483D01*
G01X6420510Y-3662884D01*
G03X6575512Y-3485924I56490J106884D01*
G03X6357500Y-3574306I-98512J-70076D01*
G01X6066056Y-3865751D01*
G01X6477000Y-1403106D02*
G03X6477000Y-1644894I0J-120894D01*
G03X6477000Y-1403106I0J120894D01*
G01X6477000Y-1657106D02*
G03X6477000Y-1898894I0J-120894D01*
G03X6477000Y-1657106I0J120894D01*
G01X6477000Y-3943106D02*
G03X6477000Y-4184894I0J-120894D01*
G03X6477000Y-3943106I0J120894D01*
G01X6477000Y-5213106D02*
G03X6477000Y-5454894I0J-120894D01*
G03X6477000Y-5213106I0J120894D01*
G01X6477000Y-5467106D02*
G03X6477000Y-5708894I0J-120894D01*
G03X6477000Y-5467106I0J120894D01*
G01X7354500Y-635000D02*
G03X7686288Y-635000I165894J0D01*
G03X7354500Y-635000I-165894J0D01*
G01X7543800Y-3690122D02*
G03X7543800Y-3931910I0J-120894D01*
G03X7543800Y-3690122I0J120894D01*
G01X7934091Y-5565607D02*
G03X7870966Y-5743841I66909J-123993D01*
G01X7697840Y-5916967D01*
G03X7632092Y-5841238I-115940J-34253D01*
G03X7581900Y-5610362I-50192J109982D01*
G03X7531708Y-5841238I0J-120894D01*
G03X7461006Y-5951220I50192J-109982D01*
G03X7531708Y-6061202I120894J0D01*
G03X7552500Y-6288449I50192J-109982D01*
G03X7678042Y-6097890I29400J117265D01*
G01X7737897Y-6038035D01*
G03X7751532Y-6014861I-37897J37897D01*
G01X7860106Y-5906287D01*
G01X7860106Y-6043600D01*
G03X7901000Y-6084494I40894J0D01*
G01X8101000Y-6084494D01*
G03X8141894Y-6043600I0J40894D01*
G01X8141894Y-5843600D01*
G03X8101000Y-5802706I-40894J0D01*
G01X8085012Y-5802706D01*
G03X8132530Y-5740106I-84012J113106D01*
G03X8152498Y-5727497I-17929J50506D01*
G01X8995855Y-4884140D01*
G03X9134956Y-4669246I46545J122339D01*
G03X8920061Y-4808347I-92556J-92556D01*
G01X8117721Y-5610687D01*
G03X7934091Y-5565607I-116721J-78913D01*
G01X7901000Y-4177106D02*
G03X7860106Y-4218000I0J-40894D01*
G01X7860106Y-4418000D01*
G03X7901000Y-4458894I40894J0D01*
G01X8101000Y-4458894D01*
G03X8141894Y-4418000I0J40894D01*
G01X8141894Y-4218000D01*
G03X8101000Y-4177106I-40894J0D01*
G01X8085012Y-4177106D01*
G03X8001000Y-3923106I-84012J113106D01*
G03X7916988Y-4177106I0J-140894D01*
G01X7901000Y-4177106D01*
G01X8966200Y-4238993D02*
G03X8966200Y-3957206I0J140894D01*
G03X8966200Y-4238993I0J-140894D01*
G01X9017000Y-1240008D02*
G03X9017000Y-1501795I0J-130894D01*
G03X9017000Y-1240008I0J130894D01*
G01X9042400Y-5130907D02*
G03X9042400Y-5392694I0J-130894D01*
G03X9042400Y-5130907I0J130894D01*
G01X9042400Y-5630906D02*
G03X9042400Y-5892693I0J-130894D01*
G03X9042400Y-5630906I0J130894D01*
G01X8995156Y-355600D02*
G03X9521444Y-355600I263144J0D01*
G03X8995156Y-355600I-263144J0D01*
G01X8995156Y-7010400D02*
G03X9521444Y-7010400I263144J0D01*
G03X8995156Y-7010400I-263144J0D01*
G01X6936084Y-1869694D02*
G01X7114186Y-1869694D01*
G01X7429279Y-2184787D01*
G03X7514741Y-2340865I114522J-38729D01*
G01X7378903Y-2476703D01*
G03X7363206Y-2514600I37897J-37897D01*
G01X7363206Y-3051201D01*
G01X6959714Y-3454693D01*
G03X6820948Y-3373255I-108014J-25107D01*
G01X6584796Y-3137103D01*
G03X6569157Y-3126246I-37897J-37897D01*
G03X6480108Y-2927146I-92157J78246D01*
G03X6380943Y-3121406I-3108J-120854D01*
G01X6225387Y-3121406D01*
G01X6438271Y-2908522D01*
G03X6562485Y-2708515I38729J114522D01*
G03X6362478Y-2832729I-85485J-85485D01*
G01X5761256Y-3433951D01*
G03X5726296Y-3445731I4544J-71249D01*
G03X5701884Y-3473391I39504J-59469D01*
G01X4730596Y-2502103D01*
G03X4692700Y-2486406I-37897J-37897D01*
G01X4045365Y-2486406D01*
G03X3960521Y-2421416I-108365J-53594D01*
G03X3857295Y-2449102I-23521J-118584D01*
G01X3857295Y-2376898D01*
G03X4045365Y-2339594I79705J90898D01*
G01X4540301Y-2339594D01*
G03X4578197Y-2323897I0J53594D01*
G01X4676800Y-2225294D01*
G01X6372453Y-2225294D01*
G03X6494980Y-2405549I104547J-60706D01*
G03X6559066Y-2197228I-17980J119549D01*
G01X6829692Y-1926602D01*
G03X6936084Y-1869694I9309J110502D01*
G01X6477000Y-2419106D02*
G03X6477000Y-2660894I0J-120894D01*
G03X6477000Y-2419106I0J120894D01*
G01X7085994Y-2653538D02*
G03X7035801Y-2422662I-50192J109982D01*
G03X6985609Y-2653538I0J-120894D01*
G03X6985609Y-2873502I50192J-109982D01*
G03X7035801Y-3104378I50192J-109982D01*
G03X7085994Y-2873502I0J120894D01*
G03X7085994Y-2653538I-50192J109982D01*
G01X1519492Y-5350802D02*
G01X1519492Y-6381267D01*
G03X1484072Y-6596654I53594J-119419D01*
G03X1696192Y-6545161I89013J95968D01*
G01X1696192Y-6590685D01*
G03X1737086Y-6631579I40894J0D01*
G01X1917085Y-6631579D01*
G03X1957979Y-6590685I0J40894D01*
G01X1957979Y-6410686D01*
G03X1917085Y-6369792I-40894J0D01*
G01X1737086Y-6369792D01*
G03X1696192Y-6410686I0J-40894D01*
G01X1696192Y-6456210D01*
G03X1626680Y-6381267I-123106J-44475D01*
G01X1626680Y-5307114D01*
G01X2218606Y-4715187D01*
G01X2218606Y-4839800D01*
G03X2259500Y-4880694I40894J0D01*
G01X2295906Y-4880694D01*
G01X2295906Y-4884381D01*
G03X2295906Y-5123219I53594J-119419D01*
G01X2295906Y-5138381D01*
G03X2295906Y-5377219I53594J-119419D01*
G01X2295906Y-5392381D01*
G03X2295906Y-5631219I53594J-119419D01*
G01X2295906Y-5646381D01*
G03X2295906Y-5885219I53594J-119419D01*
G01X2295906Y-5900381D01*
G03X2295906Y-6139219I53594J-119419D01*
G01X2295906Y-6172200D01*
G03X2311603Y-6210097I53594J0D01*
G01X2473013Y-6371506D01*
G01X2388560Y-6371506D01*
G01X1830915Y-5813861D01*
G03X1714817Y-5791517I-65615J-28139D01*
G03X1737161Y-5907615I50483J-50483D01*
G01X2306066Y-6476520D01*
G01X2306066Y-6592400D01*
G03X2346960Y-6633294I40894J0D01*
G01X2462840Y-6633294D01*
G01X2606838Y-6777291D01*
G01X1163485Y-6777291D01*
G01X1001026Y-6614833D01*
G03X1181986Y-6559571I64059J114147D01*
G03X1118680Y-6381267I-116900J58886D01*
G01X1118680Y-5751614D01*
G01X1519492Y-5350802D01*
G04 Copper End*

G04 Pad Start*
G54D11*
G01X6902501Y-5080000D03*
G01X7702499Y-5080000D03*
G01X6851700Y-3479800D03*
G01X7651698Y-3479800D03*
G54D12*
G01X3937000Y-1270000D03*
G54D13*
G01X3937000Y-1524000D03*
G01X3937000Y-1778000D03*
G01X3937000Y-2032000D03*
G01X3937000Y-2286000D03*
G01X3937000Y-2540000D03*
G01X3937000Y-2794000D03*
G01X3937000Y-3048000D03*
G01X3937000Y-3302000D03*
G01X3937000Y-3556000D03*
G01X3937000Y-3810000D03*
G01X3937000Y-4064000D03*
G01X3937000Y-4318000D03*
G01X3937000Y-4572000D03*
G01X3937000Y-4826000D03*
G01X3937000Y-5080000D03*
G01X3937000Y-5334000D03*
G01X3937000Y-5588000D03*
G01X3937000Y-5842000D03*
G01X3937000Y-6096000D03*
G01X3937000Y-6350000D03*
G01X3937000Y-6604000D03*
G54D12*
G01X6477000Y-1270000D03*
G54D13*
G01X6477000Y-1524000D03*
G01X6477000Y-1778000D03*
G01X6477000Y-2032000D03*
G01X6477000Y-2286000D03*
G01X6477000Y-2540000D03*
G01X6477000Y-2794000D03*
G01X6477000Y-3048000D03*
G01X6477000Y-3302000D03*
G01X6477000Y-3556000D03*
G01X6477000Y-3810000D03*
G01X6477000Y-4064000D03*
G01X6477000Y-4318000D03*
G01X6477000Y-4572000D03*
G01X6477000Y-4826000D03*
G01X6477000Y-5080000D03*
G01X6477000Y-5334000D03*
G01X6477000Y-5588000D03*
G01X6477000Y-5842000D03*
G01X6477000Y-6096000D03*
G01X6477000Y-6350000D03*
G01X6477000Y-6604000D03*
G54D14*
G01X2349500Y-6019800D03*
G01X2349500Y-5765800D03*
G01X2349500Y-5511800D03*
G01X2349500Y-5257800D03*
G01X2349500Y-5003800D03*
G54D16*
G01X2349500Y-4749800D03*
G54D14*
G01X3022600Y-6019800D03*
G01X3022600Y-5765800D03*
G01X3022600Y-5511800D03*
G01X3022600Y-5257800D03*
G01X3022600Y-5003800D03*
G54D16*
G01X3022600Y-4749800D03*
G54D14*
G01X2692400Y-6019800D03*
G01X2692400Y-5765800D03*
G01X2692400Y-5511800D03*
G01X2692400Y-5257800D03*
G01X2692400Y-5003800D03*
G54D16*
G01X2692400Y-4749800D03*
G54D14*
G01X2933700Y-6502400D03*
G01X2679700Y-6502400D03*
G54D17*
G01X2425700Y-6502400D03*
G54D18*
G01X3136900Y-723900D03*
G54D19*
G01X3390900Y-723900D03*
G54D18*
G01X3213100Y-1371600D03*
G54D19*
G01X3467100Y-1371600D03*
G54D18*
G01X8216900Y-3657600D03*
G54D19*
G01X8216900Y-3403600D03*
G54D13*
G01X2692400Y-3060700D03*
G01X2438400Y-3060700D03*
G01X2184400Y-3060700D03*
G54D20*
G01X1358900Y-3594100D03*
G01X1358900Y-3340100D03*
G01X596900Y-3594100D03*
G01X596900Y-3340100D03*
G54D13*
G01X7073900Y-5411216D03*
G01X7073900Y-5731256D03*
G01X7073900Y-5951220D03*
G01X7073900Y-6171184D03*
G01X7581900Y-6171184D03*
G01X7581900Y-5951220D03*
G01X7581900Y-5731256D03*
G01X7581900Y-5411216D03*
G01X7035800Y-3811016D03*
G01X7035800Y-4131056D03*
G01X7035800Y-4351020D03*
G01X7035800Y-4570984D03*
G01X7543800Y-4570984D03*
G01X7543800Y-4351020D03*
G01X7543800Y-4131056D03*
G01X7543800Y-3811016D03*
G01X7035801Y-2223516D03*
G01X7035801Y-2543556D03*
G01X7035801Y-2763520D03*
G01X7035801Y-2983484D03*
G01X7543801Y-2983484D03*
G01X7543801Y-2763520D03*
G01X7543801Y-2543556D03*
G01X7543801Y-2223516D03*
G54D14*
G01X557086Y-6500685D03*
G01X811086Y-6500685D03*
G01X1065086Y-6500685D03*
G01X1319086Y-6500685D03*
G01X1573086Y-6500685D03*
G54D16*
G01X1827086Y-6500685D03*
G54D13*
G01X2349503Y-955304D03*
G01X2349503Y-1305316D03*
G01X2387603Y-1958604D03*
G01X2387603Y-2308616D03*
G54D14*
G01X9017000Y-2870898D03*
G01X9017000Y-2370899D03*
G01X9017000Y-1870900D03*
G01X9017000Y-1370901D03*
G01X9042400Y-6261798D03*
G01X9042400Y-5761799D03*
G01X9042400Y-5261800D03*
G01X9042400Y-4761801D03*
G54D21*
G01X6972300Y-6781800D03*
G54D22*
G01X7226300Y-6781800D03*
G01X7480300Y-6781800D03*
G01X7734300Y-6781800D03*
G54D21*
G01X635000Y-4622800D03*
G54D22*
G01X889000Y-4622800D03*
G01X1143000Y-4622800D03*
G01X1397000Y-4622800D03*
G54D11*
G01X6839001Y-1816100D03*
G01X7638999Y-1816100D03*
G54D18*
G01X8001000Y-5943600D03*
G54D19*
G01X8001000Y-5689600D03*
G54D18*
G01X8001000Y-4318000D03*
G54D19*
G01X8001000Y-4064000D03*
G54D18*
G01X8001000Y-2514600D03*
G54D19*
G01X8001000Y-2768600D03*
G01X8966200Y-4098099D03*
G01X8966200Y-3598100D03*
G01X939800Y-1489900D03*
G01X939800Y-1989899D03*
G54D23*
G01X7520394Y-635000D03*
G01X8020393Y-635000D03*
G01X8532393Y-635000D03*
G04 Pad End*

G04 Via Start*
G54D24*
G01X4927600Y-4889500D03*
G01X5308600Y-5892800D03*
G01X4660900Y-6184900D03*
G01X5071658Y-5249458D03*
G01X1714500Y-3454400D03*
G01X3352800Y-3263900D03*
G01X4933950Y-4812050D03*
G01X4933950Y-4718050D03*
G01X4845050Y-4838282D03*
G01X4839950Y-4756150D03*
G01X4756150Y-4707163D03*
G01X4756150Y-4794250D03*
G01X4756150Y-4883150D03*
G54D25*
G01X419100Y-7010400D03*
G01X9258300Y-7010400D03*
G01X9258300Y-355600D03*
G01X419100Y-355600D03*
G54D24*
G01X4485843Y-1447114D03*
G01X4485843Y-2005914D03*
G01X4345828Y-1882028D03*
G01X5283200Y-3797300D03*
G01X4711700Y-3810000D03*
G01X6032500Y-4191000D03*
G01X5346700Y-4267200D03*
G01X4634802Y-4743196D03*
G01X4686300Y-5497551D03*
G01X4127500Y-6211900D03*
G01X1765300Y-5842000D03*
G01X6146573Y-4527817D03*
G01X4951499Y-3319223D03*
G01X5537200Y-5232400D03*
G01X5664200Y-5994400D03*
G01X6070600Y-3937000D03*
G01X5346700Y-4102100D03*
G01X4483100Y-4051300D03*
G01X3646500Y-4432300D03*
G01X6045200Y-3733800D03*
G01X5257800Y-5207000D03*
G01X4902200Y-5664200D03*
G01X5765800Y-3505200D03*
G01X579034Y-3713566D03*
G01X4521200Y-2159000D03*
G01X3771900Y-901700D03*
G01X7239000Y-2178056D03*
G01X7188200Y-2044700D03*
G01X1320800Y-6705600D03*
G01X1320800Y-6956026D03*
G01X1270000Y-5778500D03*
G01X915090Y-5778500D03*
G01X6718300Y-5054600D03*
G04 Via End*

G04 Track Start*
G54D26*
G01X4485843Y-1447114D02*
G01X4485843Y-2005914D01*
G01X3136900Y-723900D02*
G01X3797300Y-1384300D01*
G01X3797300Y-1562100D01*
G01X3898900Y-1663700D01*
G01X4127500Y-1663700D01*
G01X4345828Y-1882028D01*
G01X2349500Y-6032500D02*
G01X2349500Y-5778500D01*
G01X2349500Y-5524500D01*
G01X2349500Y-5270500D01*
G01X2349500Y-5016500D01*
G01X2349500Y-4762500D01*
G01X2349500Y-6032500D02*
G01X2349500Y-6172200D01*
G01X2679700Y-6502400D01*
G01X8114602Y-5689600D02*
G01X9042400Y-4761801D01*
G01X4711700Y-3810000D02*
G01X4584700Y-3683000D01*
G01X1574800Y-3683000D01*
G01X635000Y-4622800D01*
G01X5346700Y-4267200D02*
G01X4305300Y-4267200D01*
G01X3975100Y-3937000D01*
G01X1574800Y-3937000D01*
G01X889000Y-4622800D01*
G01X4634802Y-4743196D02*
G01X4279202Y-4743196D01*
G01X3999802Y-4463796D01*
G01X3771202Y-4463796D01*
G01X3669602Y-4362196D01*
G01X4686300Y-5497551D02*
G01X4203700Y-5980151D01*
G01X4203700Y-6627685D01*
G01X4000500Y-6830885D01*
G01X1141286Y-6830885D01*
G01X811086Y-6500685D01*
G54D27*
G01X3937000Y-1270000D02*
G01X3937000Y-1524000D01*
G01X4127500Y-6211900D02*
G01X4127500Y-6604000D01*
G01X3975100Y-6756400D01*
G01X2679700Y-6756400D01*
G01X2425700Y-6502400D01*
G01X1765300Y-5842000D01*
G54D26*
G01X6477000Y-4318000D02*
G01X6858000Y-3937000D01*
G01X7086600Y-3937000D01*
G01X7416800Y-3606800D01*
G01X7781100Y-3606800D01*
G01X9017000Y-2370899D01*
G01X5537200Y-5232400D02*
G01X5537200Y-5867400D01*
G01X5664200Y-5994400D01*
G01X6477000Y-3810000D02*
G01X6680200Y-3810000D01*
G01X7416800Y-3073400D01*
G01X7416800Y-2514600D01*
G01X8026400Y-1905000D01*
G01X8026400Y-635000D01*
G01X6477000Y-3556000D02*
G01X6451600Y-3556000D01*
G01X6070600Y-3937000D01*
G01X6477000Y-3302000D02*
G01X6045200Y-3733800D01*
G01X5257800Y-5207000D02*
G01X5257800Y-5308600D01*
G01X4902200Y-5664200D01*
G01X6902501Y-5080000D02*
G01X7250684Y-5080000D01*
G01X7581900Y-5411216D01*
G01X6902501Y-5080000D02*
G01X6521501Y-4699000D01*
G01X6445301Y-4699000D01*
G01X4413301Y-2667000D02*
G01X3905301Y-2667000D01*
G01X3803701Y-2565400D01*
G01X3803701Y-2165299D01*
G01X3937000Y-2032000D01*
G01X6477000Y-2794000D02*
G01X5765800Y-3505200D01*
G01X6839001Y-1816100D02*
G01X7136385Y-1816100D01*
G01X7543801Y-2223516D01*
G01X6839001Y-1816100D02*
G01X6839001Y-1841500D01*
G01X6508801Y-2171700D01*
G01X4654601Y-2171700D01*
G01X4540301Y-2286000D01*
G01X3937000Y-2286000D01*
G01X6851700Y-3479800D02*
G01X6546900Y-3175000D01*
G01X5734100Y-3581400D02*
G01X4692700Y-2540000D01*
G01X3937000Y-2540000D01*
G01X3937000Y-2794000D02*
G01X1397000Y-2794000D01*
G01X596900Y-3594100D01*
G01X596900Y-3695700D01*
G01X579034Y-3713566D01*
G01X3937000Y-1778000D02*
G01X4140200Y-1778000D01*
G01X4521200Y-2159000D01*
G01X3937000Y-1778000D02*
G01X3619500Y-1778000D01*
G01X3213100Y-1371600D01*
G01X3937000Y-4826000D02*
G01X4114800Y-4826000D01*
G01X4826000Y-5537200D01*
G01X4826000Y-5689600D01*
G01X6045200Y-6908800D01*
G01X7099300Y-6908800D01*
G01X7226300Y-6781800D01*
G01X3022600Y-4749800D02*
G01X3759200Y-4749800D01*
G01X3937000Y-4572000D01*
G01X3937000Y-5080000D02*
G01X3098800Y-5080000D01*
G01X3022600Y-5003800D01*
G01X3937000Y-5334000D02*
G01X3098800Y-5334000D01*
G01X3022600Y-5257800D01*
G01X3937000Y-5588000D02*
G01X3860800Y-5511800D01*
G01X3022600Y-5511800D01*
G01X3937000Y-5842000D02*
G01X3860800Y-5765800D01*
G01X3022600Y-5765800D01*
G01X3937000Y-6096000D02*
G01X3098800Y-6096000D01*
G01X3022600Y-6019800D01*
G01X3949700Y-4064000D02*
G01X4521200Y-4635500D01*
G01X5054600Y-4635500D01*
G01X6375400Y-5956300D01*
G01X6667500Y-5956300D01*
G01X7480300Y-6769100D01*
G01X3937000Y-4064000D02*
G01X3949700Y-4064000D01*
G01X7480300Y-6769100D02*
G01X7480300Y-6781800D01*
G01X7383780Y-4191000D02*
G01X7543800Y-4351020D01*
G01X6032500Y-4191000D02*
G01X6197406Y-4191000D01*
G01X6432306Y-4425900D01*
G01X6521694Y-4425900D01*
G01X6584900Y-4362694D01*
G01X6584900Y-4273306D01*
G01X6619250Y-4238956D01*
G01X7080494Y-4238956D01*
G01X7128450Y-4191000D01*
G01X7383780Y-4191000D01*
G01X6546900Y-3175000D02*
G01X6178590Y-3175000D01*
G01X5772190Y-3581400D01*
G01X5734100Y-3581400D01*
G01X5346700Y-4102100D02*
G01X4533900Y-4102100D01*
G01X4483100Y-4051300D01*
G01X6718300Y-5054600D02*
G01X6597600Y-4933900D01*
G01X6432306Y-4933900D01*
G01X6369100Y-4870694D01*
G01X6369100Y-4781306D01*
G01X6407053Y-4743353D01*
G01X6445301Y-4699000D02*
G01X6243400Y-4497099D01*
G01X6243400Y-4491708D01*
G01X5007892Y-3256200D02*
G01X5002501Y-3256200D01*
G01X4413301Y-2667000D01*
G01X6407053Y-4743353D02*
G01X6273800Y-4610100D01*
G01X6096000Y-4610100D01*
G01X5283200Y-3797300D01*
G01X7581900Y-6171184D02*
G01X7581900Y-6108700D01*
G01X7700000Y-6000139D02*
G01X7700000Y-5990600D01*
G01X7630819Y-6069320D02*
G01X7700000Y-6000139D01*
G01X7621280Y-6069320D02*
G01X7630819Y-6069320D01*
G01X7581900Y-6108700D02*
G01X7621280Y-6069320D01*
G01X6243400Y-4491708D02*
G01X5007892Y-3256200D01*
G01X6146573Y-4527817D02*
G01X4951499Y-3332743D01*
G01X4951499Y-3319223D01*
G01X3669602Y-4362196D02*
G01X2432304Y-4362196D01*
G01X1065086Y-5729414D01*
G01X1065086Y-6500685D01*
G01X3646500Y-4432300D02*
G01X2425700Y-4432300D01*
G01X1573086Y-5284914D01*
G01X1573086Y-6500685D01*
G01X7700000Y-5990600D02*
G01X8001000Y-5689600D01*
G01X8114602Y-5689600D01*
G01X7569201Y-2788920D02*
G01X7713980Y-2788920D01*
G01X7988300Y-2514600D01*
G01X8001000Y-2514600D01*
G01X7543803Y-2763520D02*
G01X7569201Y-2788920D01*
G01X8001000Y-2768600D02*
G01X7975600Y-2768600D01*
G01X7748016Y-2996184D01*
G01X7556501Y-2996184D01*
G01X7543801Y-2983484D01*
G04 Track End*

M02*

