G04 Layer: TopSolderMaskLayer*
G04 EasyEDA Pro v2.2.45.4, 2026-01-10 08:56:26*
G04 Gerber Generator version 0.3*
G04 Scale: 100 percent, Rotated: No, Reflected: No*
G04 Dimensions in millimeters*
G04 Leading zeros omitted, absolute positions, 4 integers and 5 decimals*
G04 Generated by one-click*
%FSLAX45Y45*%
%MOMM*%
%AMRoundRect*1,1,$1,$2,$3*1,1,$1,$4,$5*1,1,$1,0-$2,0-$3*1,1,$1,0-$4,0-$5*20,1,$1,$2,$3,$4,$5,0*20,1,$1,$4,$5,0-$2,0-$3,0*20,1,$1,0-$2,0-$3,0-$4,0-$5,0*20,1,$1,0-$4,0-$5,$2,$3,0*4,1,4,$2,$3,$4,$5,0-$2,0-$3,0-$4,0-$5,$2,$3,0*%
%ADD10RoundRect,0.09495X-0.67833X-0.70833X-0.67833X0.70833*%
%ADD11RoundRect,0.09265X-0.47948X0.57948X0.47948X0.57948*%
%ADD12C,1.5*%
%ADD13RoundRect,0.09131X-0.50514X0.40514X0.50514X0.40514*%
%ADD14RoundRect,0.09419X-0.59875X0.8677X0.59875X0.8677*%
%ADD15RoundRect,0.09588X-0.80286X-0.80286X-0.80286X0.80286*%
%ADD16C,1.7035*%
%ADD17C,1.7016*%
%ADD18C,1.9016*%
%ADD19RoundRect,0.09645X-0.90257X-0.90257X-0.90257X0.90257*%
%ADD20RoundRect,0.09579X-0.7903X0.9029X0.7903X0.9029*%
%ADD21RoundRect,0.09691X-1.00234X1.00234X1.00234X1.00234*%
%ADD22C,2.1016*%
%ADD23RoundRect,0.09302X-0.50429X0.70406X0.50429X0.70406*%
%ADD24RoundRect,0.09387X-0.57013X0.69237X0.57013X0.69237*%
%ADD25RoundRect,0.09387X-0.69237X-0.57013X-0.69237X0.57013*%
%ADD26RoundRect,0.09691X-1.00234X-1.00234X-1.00234X1.00234*%
%ADD27O,2.1016X1.6256*%
%ADD28O,0.7316X1.9666*%
%ADD29RoundRect,0.09645X-0.90257X0.90257X0.90257X0.90257*%
%ADD30RoundRect,0.09618X-0.85271X0.85271X0.85271X0.85271*%
%ADD31C,1.8016*%
%ADD32RoundRect,0.09207X-0.48476X-0.44477X-0.48476X0.44477*%
%ADD33C,2.6016*%
G75*


G04 Pad Start*
G54D10*
G01X1714500Y-3062300D03*
G01X1714500Y-3262300D03*
G01X3182441Y-3023225D03*
G01X3182441Y-3223224D03*
G54D11*
G01X1456360Y-927100D03*
G01X1794840Y-927100D03*
G54D12*
G01X6902501Y-5080000D03*
G01X7702499Y-5080000D03*
G01X6851700Y-3479800D03*
G01X7651698Y-3479800D03*
G54D13*
G01X4685602Y-4514596D03*
G01X4915599Y-4419600D03*
G01X4685602Y-4324604D03*
G54D14*
G01X922299Y-927100D03*
G01X1211301Y-927100D03*
G54D15*
G01X3937000Y-1270000D03*
G54D17*
G01X3937000Y-1524000D03*
G01X3937000Y-1778000D03*
G01X3937000Y-2032000D03*
G01X3937000Y-2286000D03*
G01X3937000Y-2540000D03*
G01X3937000Y-2794000D03*
G01X3937000Y-3048000D03*
G01X3937000Y-3302000D03*
G01X3937000Y-3556000D03*
G01X3937000Y-3810000D03*
G01X3937000Y-4064000D03*
G01X3937000Y-4318000D03*
G01X3937000Y-4572000D03*
G01X3937000Y-4826000D03*
G01X3937000Y-5080000D03*
G01X3937000Y-5334000D03*
G01X3937000Y-5588000D03*
G01X3937000Y-5842000D03*
G01X3937000Y-6096000D03*
G01X3937000Y-6350000D03*
G01X3937000Y-6604000D03*
G54D15*
G01X6477000Y-1270000D03*
G54D17*
G01X6477000Y-1524000D03*
G01X6477000Y-1778000D03*
G01X6477000Y-2032000D03*
G01X6477000Y-2286000D03*
G01X6477000Y-2540000D03*
G01X6477000Y-2794000D03*
G01X6477000Y-3048000D03*
G01X6477000Y-3302000D03*
G01X6477000Y-3556000D03*
G01X6477000Y-3810000D03*
G01X6477000Y-4064000D03*
G01X6477000Y-4318000D03*
G01X6477000Y-4572000D03*
G01X6477000Y-4826000D03*
G01X6477000Y-5080000D03*
G01X6477000Y-5334000D03*
G01X6477000Y-5588000D03*
G01X6477000Y-5842000D03*
G01X6477000Y-6096000D03*
G01X6477000Y-6350000D03*
G01X6477000Y-6604000D03*
G54D18*
G01X2349500Y-6019800D03*
G01X2349500Y-5765800D03*
G01X2349500Y-5511800D03*
G01X2349500Y-5257800D03*
G01X2349500Y-5003800D03*
G54D19*
G01X2349500Y-4749800D03*
G54D18*
G01X3022600Y-6019800D03*
G01X3022600Y-5765800D03*
G01X3022600Y-5511800D03*
G01X3022600Y-5257800D03*
G01X3022600Y-5003800D03*
G54D19*
G01X3022600Y-4749800D03*
G54D18*
G01X2692400Y-6019800D03*
G01X2692400Y-5765800D03*
G01X2692400Y-5511800D03*
G01X2692400Y-5257800D03*
G01X2692400Y-5003800D03*
G54D19*
G01X2692400Y-4749800D03*
G54D18*
G01X2933700Y-6502400D03*
G01X2679700Y-6502400D03*
G54D20*
G01X2425700Y-6502400D03*
G54D21*
G01X3136900Y-723900D03*
G54D22*
G01X3390900Y-723900D03*
G54D23*
G01X3781171Y-723900D03*
G01X3991229Y-723900D03*
G54D24*
G01X4685843Y-1882028D03*
G01X4485843Y-1882028D03*
G01X4358843Y-2259102D03*
G01X4558843Y-2259102D03*
G01X4685843Y-2636176D03*
G01X4485843Y-2636176D03*
G54D25*
G01X5668616Y-5693799D03*
G01X5668616Y-5493799D03*
G54D24*
G01X5662600Y-6197600D03*
G01X5462600Y-6197600D03*
G01X4558843Y-3000550D03*
G01X4358843Y-3000550D03*
G01X4571543Y-3390323D03*
G01X4371543Y-3390323D03*
G01X5040300Y-6184900D03*
G01X4840300Y-6184900D03*
G01X779033Y-4165600D03*
G01X579034Y-4165600D03*
G01X1452966Y-4165600D03*
G01X1252967Y-4165600D03*
G01X4608500Y-3949700D03*
G01X4408500Y-3949700D03*
G01X4865700Y-3962400D03*
G01X5065700Y-3962400D03*
G54D21*
G01X3213100Y-1371600D03*
G54D22*
G01X3467100Y-1371600D03*
G54D26*
G01X8216900Y-3657600D03*
G54D22*
G01X8216900Y-3403600D03*
G54D17*
G01X2692400Y-3060700D03*
G01X2438400Y-3060700D03*
G01X2184400Y-3060700D03*
G54D27*
G01X1358900Y-3594100D03*
G01X1358900Y-3340100D03*
G01X596900Y-3594100D03*
G01X596900Y-3340100D03*
G54D28*
G01X4584700Y-5856249D03*
G01X4711700Y-5856249D03*
G01X4838700Y-5856249D03*
G01X4965700Y-5856249D03*
G01X4584700Y-5319751D03*
G01X4711700Y-5319751D03*
G01X4838700Y-5319751D03*
G01X4965700Y-5319751D03*
G54D10*
G01X5283200Y-5500700D03*
G01X5283200Y-5700700D03*
G54D17*
G01X7073900Y-5411216D03*
G01X7073900Y-5731256D03*
G01X7073900Y-5951220D03*
G01X7073900Y-6171184D03*
G01X7581900Y-6171184D03*
G01X7581900Y-5951220D03*
G01X7581900Y-5731256D03*
G01X7581900Y-5411216D03*
G01X7035800Y-3811016D03*
G01X7035800Y-4131056D03*
G01X7035800Y-4351020D03*
G01X7035800Y-4570984D03*
G01X7543800Y-4570984D03*
G01X7543800Y-4351020D03*
G01X7543800Y-4131056D03*
G01X7543800Y-3811016D03*
G01X7035801Y-2223516D03*
G01X7035801Y-2543556D03*
G01X7035801Y-2763520D03*
G01X7035801Y-2983484D03*
G01X7543801Y-2983484D03*
G01X7543801Y-2763520D03*
G01X7543801Y-2543556D03*
G01X7543801Y-2223516D03*
G54D18*
G01X557086Y-6500685D03*
G01X811086Y-6500685D03*
G01X1065086Y-6500685D03*
G01X1319086Y-6500685D03*
G01X1573086Y-6500685D03*
G54D29*
G01X1827086Y-6500685D03*
G54D17*
G01X2349503Y-955304D03*
G01X2349503Y-1305316D03*
G01X2387603Y-1958604D03*
G01X2387603Y-2308616D03*
G54D18*
G01X9017000Y-2870898D03*
G01X9017000Y-2370899D03*
G01X9017000Y-1870900D03*
G01X9017000Y-1370901D03*
G01X9042400Y-6261798D03*
G01X9042400Y-5761799D03*
G01X9042400Y-5261800D03*
G01X9042400Y-4761801D03*
G54D30*
G01X6972300Y-6781800D03*
G54D31*
G01X7226300Y-6781800D03*
G01X7480300Y-6781800D03*
G01X7734300Y-6781800D03*
G54D30*
G01X635000Y-4622800D03*
G54D31*
G01X889000Y-4622800D03*
G01X1143000Y-4622800D03*
G01X1397000Y-4622800D03*
G54D32*
G01X1765300Y-4720311D03*
G01X1765300Y-4398289D03*
G54D12*
G01X6839001Y-1816100D03*
G01X7638999Y-1816100D03*
G54D26*
G01X8001000Y-5943600D03*
G54D22*
G01X8001000Y-5689600D03*
G54D26*
G01X8001000Y-4318000D03*
G54D22*
G01X8001000Y-4064000D03*
G54D26*
G01X8001000Y-2514600D03*
G54D22*
G01X8001000Y-2768600D03*
G01X8966200Y-4098099D03*
G01X8966200Y-3598100D03*
G01X939800Y-1489900D03*
G01X939800Y-1989899D03*
G54D33*
G01X7520394Y-635000D03*
G01X8020393Y-635000D03*
G01X8532393Y-635000D03*
G04 Pad End*

M02*

