G04 Layer: TopSilkscreenLayer*
G04 EasyEDA Pro v2.2.45.4, 2026-01-10 08:56:26*
G04 Gerber Generator version 0.3*
G04 Scale: 100 percent, Rotated: No, Reflected: No*
G04 Dimensions in millimeters*
G04 Leading zeros omitted, absolute positions, 4 integers and 5 decimals*
G04 Generated by one-click*
%FSLAX45Y45*%
%MOMM*%
%ADD10C,0.2032*%
%ADD11C,0.1524*%
%ADD12C,0.152*%
%ADD13C,0.254*%
%ADD14C,0.2*%
%ADD15C,0.0762*%
%ADD16C,0.203*%
%ADD17C,0.1*%
%ADD18C,0.3066*%
%ADD19C,0.3*%
G75*


G04 Text Start*
G54D10*
G01X6665722Y-6174740D02*
G01X6735572Y-6174740D01*
G01X6665722Y-6138418D02*
G01X6735572Y-6138418D01*
G01X6665722Y-6138418D02*
G01X6735572Y-6091682D01*
G01X6665722Y-6091682D02*
G01X6735572Y-6091682D01*
G01X6665722Y-6055360D02*
G01X6735572Y-6028690D01*
G01X6665722Y-6002020D02*
G01X6735572Y-6028690D01*
G01X6665722Y-5965698D02*
G01X6735572Y-5965698D01*
G01X6665722Y-5965698D02*
G01X6665722Y-5922264D01*
G01X6698996Y-5965698D02*
G01X6698996Y-5939028D01*
G01X6735572Y-5965698D02*
G01X6735572Y-5922264D01*
G01X6665722Y-5885942D02*
G01X6735572Y-5885942D01*
G01X6665722Y-5885942D02*
G01X6665722Y-5855970D01*
G01X6669024Y-5845810D01*
G01X6672326Y-5842508D01*
G01X6678930Y-5839206D01*
G01X6685534Y-5839206D01*
G01X6692392Y-5842508D01*
G01X6695694Y-5845810D01*
G01X6698996Y-5855970D01*
G01X6698996Y-5885942D01*
G01X6698996Y-5862574D02*
G01X6735572Y-5839206D01*
G01X6665722Y-5779516D02*
G01X6735572Y-5779516D01*
G01X6665722Y-5802884D02*
G01X6665722Y-5756148D01*
G01X6665722Y-5719826D02*
G01X6735572Y-5719826D01*
G01X6665722Y-5719826D02*
G01X6665722Y-5676392D01*
G01X6698996Y-5719826D02*
G01X6698996Y-5693156D01*
G01X6735572Y-5719826D02*
G01X6735572Y-5676392D01*
G01X6665722Y-5640070D02*
G01X6735572Y-5640070D01*
G01X6665722Y-5640070D02*
G01X6665722Y-5610098D01*
G01X6669024Y-5599938D01*
G01X6672326Y-5596636D01*
G01X6678930Y-5593334D01*
G01X6685534Y-5593334D01*
G01X6692392Y-5596636D01*
G01X6695694Y-5599938D01*
G01X6698996Y-5610098D01*
G01X6698996Y-5640070D01*
G01X6698996Y-5616702D02*
G01X6735572Y-5593334D01*
G01X6792722Y-6174740D02*
G01X6862572Y-6174740D01*
G01X6792722Y-6174740D02*
G01X6792722Y-6144768D01*
G01X6796024Y-6134608D01*
G01X6799326Y-6131306D01*
G01X6805930Y-6128004D01*
G01X6815836Y-6128004D01*
G01X6822694Y-6131306D01*
G01X6825996Y-6134608D01*
G01X6829298Y-6144768D01*
G01X6829298Y-6174740D01*
G01X6792722Y-6091682D02*
G01X6862572Y-6074918D01*
G01X6792722Y-6058408D02*
G01X6862572Y-6074918D01*
G01X6792722Y-6058408D02*
G01X6862572Y-6041644D01*
G01X6792722Y-6024880D02*
G01X6862572Y-6041644D01*
G01X6792722Y-5988558D02*
G01X6862572Y-5988558D01*
G01X6792722Y-5988558D02*
G01X6792722Y-5958586D01*
G01X6796024Y-5948426D01*
G01X6799326Y-5945124D01*
G01X6805930Y-5941822D01*
G01X6812534Y-5941822D01*
G01X6819392Y-5945124D01*
G01X6822694Y-5948426D01*
G01X6825996Y-5958586D01*
G01X6825996Y-5988558D01*
G01X6825996Y-5965190D02*
G01X6862572Y-5941822D01*
G01X6792722Y-5830824D02*
G01X6862572Y-5830824D01*
G01X6792722Y-5830824D02*
G01X6792722Y-5800852D01*
G01X6796024Y-5790692D01*
G01X6799326Y-5787390D01*
G01X6805930Y-5784088D01*
G01X6812534Y-5784088D01*
G01X6819392Y-5787390D01*
G01X6822694Y-5790692D01*
G01X6825996Y-5800852D01*
G01X6825996Y-5830824D01*
G01X6825996Y-5807456D02*
G01X6862572Y-5784088D01*
G01X6792722Y-5747766D02*
G01X6862572Y-5747766D01*
G01X6862572Y-5747766D02*
G01X6862572Y-5707634D01*
G01X6792722Y-5671312D02*
G01X6825996Y-5644642D01*
G01X6862572Y-5644642D01*
G01X6792722Y-5617972D02*
G01X6825996Y-5644642D01*
G01X6653022Y-4485640D02*
G01X6722872Y-4485640D01*
G01X6653022Y-4449318D02*
G01X6722872Y-4449318D01*
G01X6653022Y-4449318D02*
G01X6722872Y-4402582D01*
G01X6653022Y-4402582D02*
G01X6722872Y-4402582D01*
G01X6653022Y-4366260D02*
G01X6722872Y-4339590D01*
G01X6653022Y-4312920D02*
G01X6722872Y-4339590D01*
G01X6653022Y-4276598D02*
G01X6722872Y-4276598D01*
G01X6653022Y-4276598D02*
G01X6653022Y-4233164D01*
G01X6686296Y-4276598D02*
G01X6686296Y-4249928D01*
G01X6722872Y-4276598D02*
G01X6722872Y-4233164D01*
G01X6653022Y-4196842D02*
G01X6722872Y-4196842D01*
G01X6653022Y-4196842D02*
G01X6653022Y-4166870D01*
G01X6656324Y-4156710D01*
G01X6659626Y-4153408D01*
G01X6666230Y-4150106D01*
G01X6672834Y-4150106D01*
G01X6679692Y-4153408D01*
G01X6682994Y-4156710D01*
G01X6686296Y-4166870D01*
G01X6686296Y-4196842D01*
G01X6686296Y-4173474D02*
G01X6722872Y-4150106D01*
G01X6653022Y-4090416D02*
G01X6722872Y-4090416D01*
G01X6653022Y-4113784D02*
G01X6653022Y-4067048D01*
G01X6653022Y-4030726D02*
G01X6722872Y-4030726D01*
G01X6653022Y-4030726D02*
G01X6653022Y-3987292D01*
G01X6686296Y-4030726D02*
G01X6686296Y-4004056D01*
G01X6722872Y-4030726D02*
G01X6722872Y-3987292D01*
G01X6653022Y-3950970D02*
G01X6722872Y-3950970D01*
G01X6653022Y-3950970D02*
G01X6653022Y-3920998D01*
G01X6656324Y-3910838D01*
G01X6659626Y-3907536D01*
G01X6666230Y-3904234D01*
G01X6672834Y-3904234D01*
G01X6679692Y-3907536D01*
G01X6682994Y-3910838D01*
G01X6686296Y-3920998D01*
G01X6686296Y-3950970D01*
G01X6686296Y-3927602D02*
G01X6722872Y-3904234D01*
G01X6780022Y-4485640D02*
G01X6849872Y-4485640D01*
G01X6780022Y-4485640D02*
G01X6780022Y-4455668D01*
G01X6783324Y-4445508D01*
G01X6786626Y-4442206D01*
G01X6793230Y-4438904D01*
G01X6803136Y-4438904D01*
G01X6809994Y-4442206D01*
G01X6813296Y-4445508D01*
G01X6816598Y-4455668D01*
G01X6816598Y-4485640D01*
G01X6780022Y-4402582D02*
G01X6849872Y-4385818D01*
G01X6780022Y-4369308D02*
G01X6849872Y-4385818D01*
G01X6780022Y-4369308D02*
G01X6849872Y-4352544D01*
G01X6780022Y-4335780D02*
G01X6849872Y-4352544D01*
G01X6780022Y-4299458D02*
G01X6849872Y-4299458D01*
G01X6780022Y-4299458D02*
G01X6780022Y-4269486D01*
G01X6783324Y-4259326D01*
G01X6786626Y-4256024D01*
G01X6793230Y-4252722D01*
G01X6799834Y-4252722D01*
G01X6806692Y-4256024D01*
G01X6809994Y-4259326D01*
G01X6813296Y-4269486D01*
G01X6813296Y-4299458D01*
G01X6813296Y-4276090D02*
G01X6849872Y-4252722D01*
G01X6780022Y-4118356D02*
G01X6849872Y-4118356D01*
G01X6780022Y-4141724D02*
G01X6780022Y-4094988D01*
G01X6796532Y-4008628D02*
G01X6789928Y-4011930D01*
G01X6783324Y-4018534D01*
G01X6780022Y-4025392D01*
G01X6780022Y-4038600D01*
G01X6783324Y-4045204D01*
G01X6789928Y-4052062D01*
G01X6796532Y-4055364D01*
G01X6806692Y-4058666D01*
G01X6823202Y-4058666D01*
G01X6833362Y-4055364D01*
G01X6839966Y-4052062D01*
G01X6846570Y-4045204D01*
G01X6849872Y-4038600D01*
G01X6849872Y-4025392D01*
G01X6846570Y-4018534D01*
G01X6839966Y-4011930D01*
G01X6833362Y-4008628D01*
G01X6823202Y-4008628D01*
G01X6823202Y-4025392D02*
G01X6823202Y-4008628D01*
G01X6780022Y-3972306D02*
G01X6849872Y-3972306D01*
G01X6849872Y-3972306D02*
G01X6849872Y-3932174D01*
G01X6780022Y-2954274D02*
G01X6783324Y-2960878D01*
G01X6789928Y-2967736D01*
G01X6796532Y-2971038D01*
G01X6806692Y-2974340D01*
G01X6823202Y-2974340D01*
G01X6833362Y-2971038D01*
G01X6839966Y-2967736D01*
G01X6846570Y-2960878D01*
G01X6849872Y-2954274D01*
G01X6849872Y-2941066D01*
G01X6846570Y-2934208D01*
G01X6839966Y-2927604D01*
G01X6833362Y-2924302D01*
G01X6823202Y-2921000D01*
G01X6806692Y-2921000D01*
G01X6796532Y-2924302D01*
G01X6789928Y-2927604D01*
G01X6783324Y-2934208D01*
G01X6780022Y-2941066D01*
G01X6780022Y-2954274D01*
G01X6780022Y-2884678D02*
G01X6849872Y-2884678D01*
G01X6780022Y-2884678D02*
G01X6780022Y-2854706D01*
G01X6783324Y-2844546D01*
G01X6786626Y-2841244D01*
G01X6793230Y-2837942D01*
G01X6803136Y-2837942D01*
G01X6809994Y-2841244D01*
G01X6813296Y-2844546D01*
G01X6816598Y-2854706D01*
G01X6816598Y-2884678D01*
G01X6780022Y-2801620D02*
G01X6849872Y-2801620D01*
G01X6780022Y-2801620D02*
G01X6780022Y-2758186D01*
G01X6813296Y-2801620D02*
G01X6813296Y-2774950D01*
G01X6849872Y-2801620D02*
G01X6849872Y-2758186D01*
G01X6780022Y-2721864D02*
G01X6849872Y-2721864D01*
G01X6780022Y-2721864D02*
G01X6849872Y-2675128D01*
G01X6780022Y-2675128D02*
G01X6849872Y-2675128D01*
G01X6780022Y-2638806D02*
G01X6849872Y-2638806D01*
G01X6780022Y-2638806D02*
G01X6780022Y-2595372D01*
G01X6813296Y-2638806D02*
G01X6813296Y-2612136D01*
G01X6849872Y-2638806D02*
G01X6849872Y-2595372D01*
G01X6780022Y-2559050D02*
G01X6849872Y-2559050D01*
G01X6780022Y-2559050D02*
G01X6780022Y-2529078D01*
G01X6783324Y-2518918D01*
G01X6786626Y-2515616D01*
G01X6793230Y-2512314D01*
G01X6799834Y-2512314D01*
G01X6806692Y-2515616D01*
G01X6809994Y-2518918D01*
G01X6813296Y-2529078D01*
G01X6813296Y-2559050D01*
G01X6813296Y-2535682D02*
G01X6849872Y-2512314D01*
G01X9512300Y-6315202D02*
G01X9505696Y-6318504D01*
G01X9499092Y-6325108D01*
G01X9495790Y-6331966D01*
G01X9495790Y-6345174D01*
G01X9499092Y-6351778D01*
G01X9505696Y-6358636D01*
G01X9512300Y-6361938D01*
G01X9522460Y-6365240D01*
G01X9538970Y-6365240D01*
G01X9549130Y-6361938D01*
G01X9555734Y-6358636D01*
G01X9562338Y-6351778D01*
G01X9565640Y-6345174D01*
G01X9565640Y-6331966D01*
G01X9562338Y-6325108D01*
G01X9555734Y-6318504D01*
G01X9549130Y-6315202D01*
G01X9538970Y-6315202D01*
G01X9538970Y-6331966D02*
G01X9538970Y-6315202D01*
G01X9495790Y-6278880D02*
G01X9565640Y-6278880D01*
G01X9495790Y-6278880D02*
G01X9565640Y-6232144D01*
G01X9495790Y-6232144D02*
G01X9565640Y-6232144D01*
G01X9495790Y-6195822D02*
G01X9565640Y-6195822D01*
G01X9495790Y-6195822D02*
G01X9495790Y-6172454D01*
G01X9499092Y-6162548D01*
G01X9505696Y-6155690D01*
G01X9512300Y-6152388D01*
G01X9522460Y-6149086D01*
G01X9538970Y-6149086D01*
G01X9549130Y-6152388D01*
G01X9555734Y-6155690D01*
G01X9562338Y-6162548D01*
G01X9565640Y-6172454D01*
G01X9565640Y-6195822D01*
G01X9508998Y-4853940D02*
G01X9505696Y-4847336D01*
G01X9495790Y-4837176D01*
G01X9565640Y-4837176D01*
G01X9512300Y-4797552D02*
G01X9508998Y-4797552D01*
G01X9502394Y-4794250D01*
G01X9499092Y-4790948D01*
G01X9495790Y-4784090D01*
G01X9495790Y-4770882D01*
G01X9499092Y-4764278D01*
G01X9502394Y-4760722D01*
G01X9508998Y-4757420D01*
G01X9515602Y-4757420D01*
G01X9522460Y-4760722D01*
G01X9532366Y-4767580D01*
G01X9565640Y-4800854D01*
G01X9565640Y-4754118D01*
G01X9518904Y-4717796D02*
G01X9565640Y-4697730D01*
G01X9518904Y-4677664D02*
G01X9565640Y-4697730D01*
G01X9458960Y-5882640D02*
G01X9565640Y-5882640D01*
G01X9458960Y-5879338D02*
G01X9565640Y-5879338D01*
G01X9458960Y-5882640D02*
G01X9458960Y-5859272D01*
G01X9565640Y-5882640D02*
G01X9565640Y-5859272D01*
G01X9472422Y-5748274D02*
G01X9542272Y-5748274D01*
G01X9472422Y-5748274D02*
G01X9472422Y-5718302D01*
G01X9475724Y-5708142D01*
G01X9479026Y-5704840D01*
G01X9485630Y-5701538D01*
G01X9492234Y-5701538D01*
G01X9499092Y-5704840D01*
G01X9502394Y-5708142D01*
G01X9505696Y-5718302D01*
G01X9505696Y-5748274D02*
G01X9505696Y-5718302D01*
G01X9508998Y-5708142D01*
G01X9512300Y-5704840D01*
G01X9518904Y-5701538D01*
G01X9529064Y-5701538D01*
G01X9535668Y-5704840D01*
G01X9538970Y-5708142D01*
G01X9542272Y-5718302D01*
G01X9542272Y-5748274D01*
G01X9472422Y-5665216D02*
G01X9522206Y-5665216D01*
G01X9532366Y-5661914D01*
G01X9538970Y-5655310D01*
G01X9542272Y-5645150D01*
G01X9542272Y-5638546D01*
G01X9538970Y-5628640D01*
G01X9532366Y-5621782D01*
G01X9522206Y-5618480D01*
G01X9472422Y-5618480D01*
G01X9472422Y-5558790D02*
G01X9542272Y-5558790D01*
G01X9472422Y-5582158D02*
G01X9472422Y-5535422D01*
G01X9472422Y-5475732D02*
G01X9542272Y-5475732D01*
G01X9472422Y-5499100D02*
G01X9472422Y-5452364D01*
G01X9472422Y-5395976D02*
G01X9475724Y-5402580D01*
G01X9482328Y-5409438D01*
G01X9488932Y-5412740D01*
G01X9499092Y-5416042D01*
G01X9515602Y-5416042D01*
G01X9525762Y-5412740D01*
G01X9532366Y-5409438D01*
G01X9538970Y-5402580D01*
G01X9542272Y-5395976D01*
G01X9542272Y-5382768D01*
G01X9538970Y-5375910D01*
G01X9532366Y-5369306D01*
G01X9525762Y-5366004D01*
G01X9515602Y-5362702D01*
G01X9499092Y-5362702D01*
G01X9488932Y-5366004D01*
G01X9482328Y-5369306D01*
G01X9475724Y-5375910D01*
G01X9472422Y-5382768D01*
G01X9472422Y-5395976D01*
G01X9472422Y-5326380D02*
G01X9542272Y-5326380D01*
G01X9472422Y-5326380D02*
G01X9542272Y-5279644D01*
G01X9472422Y-5279644D02*
G01X9542272Y-5279644D01*
G01X9458960Y-5148580D02*
G01X9565640Y-5148580D01*
G01X9458960Y-5145278D02*
G01X9565640Y-5145278D01*
G01X9458960Y-5168646D02*
G01X9458960Y-5145278D01*
G01X9565640Y-5168646D02*
G01X9565640Y-5145278D01*
G01X9458960Y-2885440D02*
G01X9565640Y-2885440D01*
G01X9458960Y-2882138D02*
G01X9565640Y-2882138D01*
G01X9458960Y-2885440D02*
G01X9458960Y-2862072D01*
G01X9565640Y-2885440D02*
G01X9565640Y-2862072D01*
G01X9472422Y-2731008D02*
G01X9475724Y-2737612D01*
G01X9482328Y-2744470D01*
G01X9488932Y-2747772D01*
G01X9499092Y-2751074D01*
G01X9515602Y-2751074D01*
G01X9525762Y-2747772D01*
G01X9532366Y-2744470D01*
G01X9538970Y-2737612D01*
G01X9542272Y-2731008D01*
G01X9542272Y-2717800D01*
G01X9538970Y-2710942D01*
G01X9532366Y-2704338D01*
G01X9525762Y-2701036D01*
G01X9515602Y-2697734D01*
G01X9499092Y-2697734D01*
G01X9488932Y-2701036D01*
G01X9482328Y-2704338D01*
G01X9475724Y-2710942D01*
G01X9472422Y-2717800D01*
G01X9472422Y-2731008D01*
G01X9472422Y-2661412D02*
G01X9542272Y-2661412D01*
G01X9472422Y-2661412D02*
G01X9472422Y-2631440D01*
G01X9475724Y-2621280D01*
G01X9479026Y-2617978D01*
G01X9485630Y-2614676D01*
G01X9495536Y-2614676D01*
G01X9502394Y-2617978D01*
G01X9505696Y-2621280D01*
G01X9508998Y-2631440D01*
G01X9508998Y-2661412D01*
G01X9472422Y-2578354D02*
G01X9542272Y-2578354D01*
G01X9472422Y-2578354D02*
G01X9472422Y-2534920D01*
G01X9505696Y-2578354D02*
G01X9505696Y-2551684D01*
G01X9542272Y-2578354D02*
G01X9542272Y-2534920D01*
G01X9472422Y-2498598D02*
G01X9542272Y-2498598D01*
G01X9472422Y-2498598D02*
G01X9542272Y-2451862D01*
G01X9472422Y-2451862D02*
G01X9542272Y-2451862D01*
G01X9458960Y-2320798D02*
G01X9565640Y-2320798D01*
G01X9458960Y-2317496D02*
G01X9565640Y-2317496D01*
G01X9458960Y-2340864D02*
G01X9458960Y-2317496D01*
G01X9565640Y-2340864D02*
G01X9565640Y-2317496D01*
G01X9458960Y-2021840D02*
G01X9565640Y-2021840D01*
G01X9458960Y-2018538D02*
G01X9565640Y-2018538D01*
G01X9458960Y-2021840D02*
G01X9458960Y-1998472D01*
G01X9565640Y-2021840D02*
G01X9565640Y-1998472D01*
G01X9488932Y-1837436D02*
G01X9482328Y-1840738D01*
G01X9475724Y-1847342D01*
G01X9472422Y-1854200D01*
G01X9472422Y-1867408D01*
G01X9475724Y-1874012D01*
G01X9482328Y-1880870D01*
G01X9488932Y-1884172D01*
G01X9499092Y-1887474D01*
G01X9515602Y-1887474D01*
G01X9525762Y-1884172D01*
G01X9532366Y-1880870D01*
G01X9538970Y-1874012D01*
G01X9542272Y-1867408D01*
G01X9542272Y-1854200D01*
G01X9538970Y-1847342D01*
G01X9532366Y-1840738D01*
G01X9525762Y-1837436D01*
G01X9472422Y-1801114D02*
G01X9542272Y-1801114D01*
G01X9542272Y-1801114D02*
G01X9542272Y-1760982D01*
G01X9472422Y-1704594D02*
G01X9475724Y-1711198D01*
G01X9482328Y-1718056D01*
G01X9488932Y-1721358D01*
G01X9499092Y-1724660D01*
G01X9515602Y-1724660D01*
G01X9525762Y-1721358D01*
G01X9532366Y-1718056D01*
G01X9538970Y-1711198D01*
G01X9542272Y-1704594D01*
G01X9542272Y-1691386D01*
G01X9538970Y-1684528D01*
G01X9532366Y-1677924D01*
G01X9525762Y-1674622D01*
G01X9515602Y-1671320D01*
G01X9499092Y-1671320D01*
G01X9488932Y-1674622D01*
G01X9482328Y-1677924D01*
G01X9475724Y-1684528D01*
G01X9472422Y-1691386D01*
G01X9472422Y-1704594D01*
G01X9482328Y-1588262D02*
G01X9475724Y-1594866D01*
G01X9472422Y-1605026D01*
G01X9472422Y-1618234D01*
G01X9475724Y-1628394D01*
G01X9482328Y-1634998D01*
G01X9488932Y-1634998D01*
G01X9495536Y-1631696D01*
G01X9499092Y-1628394D01*
G01X9502394Y-1621536D01*
G01X9508998Y-1601724D01*
G01X9512300Y-1594866D01*
G01X9515602Y-1591564D01*
G01X9522206Y-1588262D01*
G01X9532366Y-1588262D01*
G01X9538970Y-1594866D01*
G01X9542272Y-1605026D01*
G01X9542272Y-1618234D01*
G01X9538970Y-1628394D01*
G01X9532366Y-1634998D01*
G01X9472422Y-1551940D02*
G01X9542272Y-1551940D01*
G01X9472422Y-1551940D02*
G01X9472422Y-1508506D01*
G01X9505696Y-1551940D02*
G01X9505696Y-1525270D01*
G01X9542272Y-1551940D02*
G01X9542272Y-1508506D01*
G01X9472422Y-1472184D02*
G01X9542272Y-1472184D01*
G01X9472422Y-1472184D02*
G01X9472422Y-1448816D01*
G01X9475724Y-1438910D01*
G01X9482328Y-1432052D01*
G01X9488932Y-1428750D01*
G01X9499092Y-1425448D01*
G01X9515602Y-1425448D01*
G01X9525762Y-1428750D01*
G01X9532366Y-1432052D01*
G01X9538970Y-1438910D01*
G01X9542272Y-1448816D01*
G01X9542272Y-1472184D01*
G01X9458960Y-1294384D02*
G01X9565640Y-1294384D01*
G01X9458960Y-1291082D02*
G01X9565640Y-1291082D01*
G01X9458960Y-1314450D02*
G01X9458960Y-1291082D01*
G01X9565640Y-1314450D02*
G01X9565640Y-1291082D01*
G01X1459230Y-1551940D02*
G01X1455928Y-1545336D01*
G01X1446022Y-1535176D01*
G01X1515872Y-1535176D01*
G01X1462532Y-1495552D02*
G01X1459230Y-1495552D01*
G01X1452626Y-1492250D01*
G01X1449324Y-1488948D01*
G01X1446022Y-1482090D01*
G01X1446022Y-1468882D01*
G01X1449324Y-1462278D01*
G01X1452626Y-1458722D01*
G01X1459230Y-1455420D01*
G01X1465834Y-1455420D01*
G01X1472692Y-1458722D01*
G01X1482598Y-1465580D01*
G01X1515872Y-1498854D01*
G01X1515872Y-1452118D01*
G01X1469136Y-1415796D02*
G01X1515872Y-1395730D01*
G01X1469136Y-1375664D02*
G01X1515872Y-1395730D01*
G01X1475232Y-2136902D02*
G01X1468628Y-2140204D01*
G01X1462024Y-2146808D01*
G01X1458722Y-2153666D01*
G01X1458722Y-2166874D01*
G01X1462024Y-2173478D01*
G01X1468628Y-2180336D01*
G01X1475232Y-2183638D01*
G01X1485392Y-2186940D01*
G01X1501902Y-2186940D01*
G01X1512062Y-2183638D01*
G01X1518666Y-2180336D01*
G01X1525270Y-2173478D01*
G01X1528572Y-2166874D01*
G01X1528572Y-2153666D01*
G01X1525270Y-2146808D01*
G01X1518666Y-2140204D01*
G01X1512062Y-2136902D01*
G01X1501902Y-2136902D01*
G01X1501902Y-2153666D02*
G01X1501902Y-2136902D01*
G01X1458722Y-2100580D02*
G01X1528572Y-2100580D01*
G01X1458722Y-2100580D02*
G01X1528572Y-2053844D01*
G01X1458722Y-2053844D02*
G01X1528572Y-2053844D01*
G01X1458722Y-2017522D02*
G01X1528572Y-2017522D01*
G01X1458722Y-2017522D02*
G01X1458722Y-1994154D01*
G01X1462024Y-1984248D01*
G01X1468628Y-1977390D01*
G01X1475232Y-1974088D01*
G01X1485392Y-1970786D01*
G01X1501902Y-1970786D01*
G01X1512062Y-1974088D01*
G01X1518666Y-1977390D01*
G01X1525270Y-1984248D01*
G01X1528572Y-1994154D01*
G01X1528572Y-2017522D01*
G01X595122Y-5473700D02*
G01X664972Y-5473700D01*
G01X595122Y-5497068D02*
G01X595122Y-5450332D01*
G01X595122Y-5414010D02*
G01X664972Y-5414010D01*
G01X595122Y-5414010D02*
G01X595122Y-5384038D01*
G01X598424Y-5373878D01*
G01X601726Y-5370576D01*
G01X608330Y-5367274D01*
G01X614934Y-5367274D01*
G01X621792Y-5370576D01*
G01X625094Y-5373878D01*
G01X628396Y-5384038D01*
G01X628396Y-5414010D01*
G01X628396Y-5390642D02*
G01X664972Y-5367274D01*
G01X595122Y-5330952D02*
G01X664972Y-5330952D01*
G01X611632Y-5244592D02*
G01X605028Y-5247894D01*
G01X598424Y-5254498D01*
G01X595122Y-5261356D01*
G01X595122Y-5274564D01*
G01X598424Y-5281168D01*
G01X605028Y-5288026D01*
G01X611632Y-5291328D01*
G01X621792Y-5294630D01*
G01X638302Y-5294630D01*
G01X648462Y-5291328D01*
G01X655066Y-5288026D01*
G01X661670Y-5281168D01*
G01X664972Y-5274564D01*
G01X664972Y-5261356D01*
G01X661670Y-5254498D01*
G01X655066Y-5247894D01*
G01X648462Y-5244592D01*
G01X638302Y-5244592D01*
G01X638302Y-5261356D02*
G01X638302Y-5244592D01*
G01X611632Y-5158232D02*
G01X605028Y-5161534D01*
G01X598424Y-5168138D01*
G01X595122Y-5174996D01*
G01X595122Y-5188204D01*
G01X598424Y-5194808D01*
G01X605028Y-5201666D01*
G01X611632Y-5204968D01*
G01X621792Y-5208270D01*
G01X638302Y-5208270D01*
G01X648462Y-5204968D01*
G01X655066Y-5201666D01*
G01X661670Y-5194808D01*
G01X664972Y-5188204D01*
G01X664972Y-5174996D01*
G01X661670Y-5168138D01*
G01X655066Y-5161534D01*
G01X648462Y-5158232D01*
G01X638302Y-5158232D01*
G01X638302Y-5174996D02*
G01X638302Y-5158232D01*
G01X595122Y-5121910D02*
G01X664972Y-5121910D01*
G01X595122Y-5121910D02*
G01X595122Y-5078476D01*
G01X628396Y-5121910D02*
G01X628396Y-5095240D01*
G01X664972Y-5121910D02*
G01X664972Y-5078476D01*
G01X595122Y-5042154D02*
G01X664972Y-5042154D01*
G01X595122Y-5042154D02*
G01X595122Y-5012182D01*
G01X598424Y-5002022D01*
G01X601726Y-4998720D01*
G01X608330Y-4995418D01*
G01X614934Y-4995418D01*
G01X621792Y-4998720D01*
G01X625094Y-5002022D01*
G01X628396Y-5012182D01*
G01X628396Y-5042154D01*
G01X628396Y-5018786D02*
G01X664972Y-4995418D01*
G01X608330Y-4884420D02*
G01X605028Y-4877816D01*
G01X595122Y-4867656D01*
G01X664972Y-4867656D01*
G01X849122Y-5503672D02*
G01X918972Y-5503672D01*
G01X849122Y-5527040D02*
G01X849122Y-5480304D01*
G01X849122Y-5443982D02*
G01X918972Y-5443982D01*
G01X849122Y-5443982D02*
G01X849122Y-5414010D01*
G01X852424Y-5403850D01*
G01X855726Y-5400548D01*
G01X862330Y-5397246D01*
G01X868934Y-5397246D01*
G01X875792Y-5400548D01*
G01X879094Y-5403850D01*
G01X882396Y-5414010D01*
G01X882396Y-5443982D01*
G01X882396Y-5420614D02*
G01X918972Y-5397246D01*
G01X849122Y-5360924D02*
G01X918972Y-5360924D01*
G01X865632Y-5274564D02*
G01X859028Y-5277866D01*
G01X852424Y-5284470D01*
G01X849122Y-5291328D01*
G01X849122Y-5304536D01*
G01X852424Y-5311140D01*
G01X859028Y-5317998D01*
G01X865632Y-5321300D01*
G01X875792Y-5324602D01*
G01X892302Y-5324602D01*
G01X902462Y-5321300D01*
G01X909066Y-5317998D01*
G01X915670Y-5311140D01*
G01X918972Y-5304536D01*
G01X918972Y-5291328D01*
G01X915670Y-5284470D01*
G01X909066Y-5277866D01*
G01X902462Y-5274564D01*
G01X892302Y-5274564D01*
G01X892302Y-5291328D02*
G01X892302Y-5274564D01*
G01X865632Y-5188204D02*
G01X859028Y-5191506D01*
G01X852424Y-5198110D01*
G01X849122Y-5204968D01*
G01X849122Y-5218176D01*
G01X852424Y-5224780D01*
G01X859028Y-5231638D01*
G01X865632Y-5234940D01*
G01X875792Y-5238242D01*
G01X892302Y-5238242D01*
G01X902462Y-5234940D01*
G01X909066Y-5231638D01*
G01X915670Y-5224780D01*
G01X918972Y-5218176D01*
G01X918972Y-5204968D01*
G01X915670Y-5198110D01*
G01X909066Y-5191506D01*
G01X902462Y-5188204D01*
G01X892302Y-5188204D01*
G01X892302Y-5204968D02*
G01X892302Y-5188204D01*
G01X849122Y-5151882D02*
G01X918972Y-5151882D01*
G01X849122Y-5151882D02*
G01X849122Y-5108448D01*
G01X882396Y-5151882D02*
G01X882396Y-5125212D01*
G01X918972Y-5151882D02*
G01X918972Y-5108448D01*
G01X849122Y-5072126D02*
G01X918972Y-5072126D01*
G01X849122Y-5072126D02*
G01X849122Y-5042154D01*
G01X852424Y-5031994D01*
G01X855726Y-5028692D01*
G01X862330Y-5025390D01*
G01X868934Y-5025390D01*
G01X875792Y-5028692D01*
G01X879094Y-5031994D01*
G01X882396Y-5042154D01*
G01X882396Y-5072126D01*
G01X882396Y-5048758D02*
G01X918972Y-5025390D01*
G01X865632Y-4911090D02*
G01X862330Y-4911090D01*
G01X855726Y-4907788D01*
G01X852424Y-4904486D01*
G01X849122Y-4897628D01*
G01X849122Y-4884420D01*
G01X852424Y-4877816D01*
G01X855726Y-4874260D01*
G01X862330Y-4870958D01*
G01X868934Y-4870958D01*
G01X875792Y-4874260D01*
G01X885698Y-4881118D01*
G01X918972Y-4914392D01*
G01X918972Y-4867656D01*
G01X1125728Y-5539994D02*
G01X1119124Y-5546598D01*
G01X1115822Y-5556758D01*
G01X1115822Y-5569966D01*
G01X1119124Y-5580126D01*
G01X1125728Y-5586730D01*
G01X1132332Y-5586730D01*
G01X1138936Y-5583428D01*
G01X1142492Y-5580126D01*
G01X1145794Y-5573268D01*
G01X1152398Y-5553456D01*
G01X1155700Y-5546598D01*
G01X1159002Y-5543296D01*
G01X1165606Y-5539994D01*
G01X1175766Y-5539994D01*
G01X1182370Y-5546598D01*
G01X1185672Y-5556758D01*
G01X1185672Y-5569966D01*
G01X1182370Y-5580126D01*
G01X1175766Y-5586730D01*
G01X1115822Y-5503672D02*
G01X1185672Y-5503672D01*
G01X1132332Y-5417312D02*
G01X1125728Y-5420614D01*
G01X1119124Y-5427218D01*
G01X1115822Y-5434076D01*
G01X1115822Y-5447284D01*
G01X1119124Y-5453888D01*
G01X1125728Y-5460746D01*
G01X1132332Y-5464048D01*
G01X1142492Y-5467350D01*
G01X1159002Y-5467350D01*
G01X1169162Y-5464048D01*
G01X1175766Y-5460746D01*
G01X1182370Y-5453888D01*
G01X1185672Y-5447284D01*
G01X1185672Y-5434076D01*
G01X1182370Y-5427218D01*
G01X1175766Y-5420614D01*
G01X1169162Y-5417312D01*
G01X1159002Y-5417312D01*
G01X1159002Y-5434076D02*
G01X1159002Y-5417312D01*
G01X1115822Y-5380990D02*
G01X1185672Y-5380990D01*
G01X1115822Y-5380990D02*
G01X1185672Y-5334254D01*
G01X1115822Y-5334254D02*
G01X1185672Y-5334254D01*
G01X1115822Y-5271262D02*
G01X1185672Y-5297932D01*
G01X1115822Y-5271262D02*
G01X1185672Y-5244592D01*
G01X1162304Y-5288026D02*
G01X1162304Y-5254498D01*
G01X1115822Y-5208270D02*
G01X1185672Y-5208270D01*
G01X1185672Y-5208270D02*
G01X1185672Y-5168138D01*
G01X1129030Y-5057140D02*
G01X1125728Y-5050536D01*
G01X1115822Y-5040376D01*
G01X1185672Y-5040376D01*
G01X1132332Y-5000752D02*
G01X1129030Y-5000752D01*
G01X1122426Y-4997450D01*
G01X1119124Y-4994148D01*
G01X1115822Y-4987290D01*
G01X1115822Y-4974082D01*
G01X1119124Y-4967478D01*
G01X1122426Y-4963922D01*
G01X1129030Y-4960620D01*
G01X1135634Y-4960620D01*
G01X1142492Y-4963922D01*
G01X1152398Y-4970780D01*
G01X1185672Y-5004054D01*
G01X1185672Y-4957318D01*
G01X1115822Y-4920996D02*
G01X1185672Y-4894326D01*
G01X1115822Y-4867656D02*
G01X1185672Y-4894326D01*
G01X1354328Y-5566664D02*
G01X1347724Y-5573268D01*
G01X1344422Y-5583428D01*
G01X1344422Y-5596636D01*
G01X1347724Y-5606796D01*
G01X1354328Y-5613400D01*
G01X1360932Y-5613400D01*
G01X1367536Y-5610098D01*
G01X1371092Y-5606796D01*
G01X1374394Y-5599938D01*
G01X1380998Y-5580126D01*
G01X1384300Y-5573268D01*
G01X1387602Y-5569966D01*
G01X1394206Y-5566664D01*
G01X1404366Y-5566664D01*
G01X1410970Y-5573268D01*
G01X1414272Y-5583428D01*
G01X1414272Y-5596636D01*
G01X1410970Y-5606796D01*
G01X1404366Y-5613400D01*
G01X1344422Y-5530342D02*
G01X1414272Y-5530342D01*
G01X1360932Y-5443982D02*
G01X1354328Y-5447284D01*
G01X1347724Y-5453888D01*
G01X1344422Y-5460746D01*
G01X1344422Y-5473954D01*
G01X1347724Y-5480558D01*
G01X1354328Y-5487416D01*
G01X1360932Y-5490718D01*
G01X1371092Y-5494020D01*
G01X1387602Y-5494020D01*
G01X1397762Y-5490718D01*
G01X1404366Y-5487416D01*
G01X1410970Y-5480558D01*
G01X1414272Y-5473954D01*
G01X1414272Y-5460746D01*
G01X1410970Y-5453888D01*
G01X1404366Y-5447284D01*
G01X1397762Y-5443982D01*
G01X1387602Y-5443982D01*
G01X1387602Y-5460746D02*
G01X1387602Y-5443982D01*
G01X1344422Y-5407660D02*
G01X1414272Y-5407660D01*
G01X1344422Y-5407660D02*
G01X1414272Y-5360924D01*
G01X1344422Y-5360924D02*
G01X1414272Y-5360924D01*
G01X1344422Y-5297932D02*
G01X1414272Y-5324602D01*
G01X1344422Y-5297932D02*
G01X1414272Y-5271262D01*
G01X1390904Y-5314696D02*
G01X1390904Y-5281168D01*
G01X1344422Y-5234940D02*
G01X1414272Y-5234940D01*
G01X1414272Y-5234940D02*
G01X1414272Y-5194808D01*
G01X1360932Y-5033772D02*
G01X1354328Y-5037074D01*
G01X1347724Y-5043678D01*
G01X1344422Y-5050536D01*
G01X1344422Y-5063744D01*
G01X1347724Y-5070348D01*
G01X1354328Y-5077206D01*
G01X1360932Y-5080508D01*
G01X1371092Y-5083810D01*
G01X1387602Y-5083810D01*
G01X1397762Y-5080508D01*
G01X1404366Y-5077206D01*
G01X1410970Y-5070348D01*
G01X1414272Y-5063744D01*
G01X1414272Y-5050536D01*
G01X1410970Y-5043678D01*
G01X1404366Y-5037074D01*
G01X1397762Y-5033772D01*
G01X1387602Y-5033772D01*
G01X1387602Y-5050536D02*
G01X1387602Y-5033772D01*
G01X1344422Y-4997450D02*
G01X1414272Y-4997450D01*
G01X1344422Y-4997450D02*
G01X1414272Y-4950714D01*
G01X1344422Y-4950714D02*
G01X1414272Y-4950714D01*
G01X1344422Y-4914392D02*
G01X1414272Y-4914392D01*
G01X1344422Y-4914392D02*
G01X1344422Y-4891024D01*
G01X1347724Y-4881118D01*
G01X1354328Y-4874260D01*
G01X1360932Y-4870958D01*
G01X1371092Y-4867656D01*
G01X1387602Y-4867656D01*
G01X1397762Y-4870958D01*
G01X1404366Y-4874260D01*
G01X1410970Y-4881118D01*
G01X1414272Y-4891024D01*
G01X1414272Y-4914392D01*
G01X2364740Y-6725920D02*
G01X2392680Y-6725920D01*
G01X2377440Y-6746240D01*
G01X2385060Y-6746240D01*
G01X2390140Y-6748780D01*
G01X2392680Y-6751320D01*
G01X2395220Y-6758940D01*
G01X2395220Y-6764020D01*
G01X2392680Y-6771640D01*
G01X2387600Y-6776720D01*
G01X2379980Y-6779260D01*
G01X2372360Y-6779260D01*
G01X2364740Y-6776720D01*
G01X2362200Y-6774180D01*
G01X2359660Y-6769100D01*
G01X2427732Y-6743700D02*
G01X2442972Y-6779260D01*
G01X2458212Y-6743700D02*
G01X2442972Y-6779260D01*
G01X2495804Y-6725920D02*
G01X2523744Y-6725920D01*
G01X2508504Y-6746240D01*
G01X2516124Y-6746240D01*
G01X2521204Y-6748780D01*
G01X2523744Y-6751320D01*
G01X2526284Y-6758940D01*
G01X2526284Y-6764020D01*
G01X2523744Y-6771640D01*
G01X2518664Y-6776720D01*
G01X2511044Y-6779260D01*
G01X2503424Y-6779260D01*
G01X2495804Y-6776720D01*
G01X2493264Y-6774180D01*
G01X2490724Y-6769100D01*
G01X2987040Y-6725920D02*
G01X2961640Y-6725920D01*
G01X2959100Y-6748780D01*
G01X2961640Y-6746240D01*
G01X2969260Y-6743700D01*
G01X2976880Y-6743700D01*
G01X2984500Y-6746240D01*
G01X2989580Y-6751320D01*
G01X2992120Y-6758940D01*
G01X2992120Y-6764020D01*
G01X2989580Y-6771640D01*
G01X2984500Y-6776720D01*
G01X2976880Y-6779260D01*
G01X2969260Y-6779260D01*
G01X2961640Y-6776720D01*
G01X2959100Y-6774180D01*
G01X2956560Y-6769100D01*
G01X3024632Y-6743700D02*
G01X3039872Y-6779260D01*
G01X3055112Y-6743700D02*
G01X3039872Y-6779260D01*
G01X6861556Y-6992620D02*
G01X6889496Y-6992620D01*
G01X6874256Y-7012940D01*
G01X6881876Y-7012940D01*
G01X6886956Y-7015480D01*
G01X6889496Y-7018020D01*
G01X6892036Y-7025640D01*
G01X6892036Y-7030720D01*
G01X6889496Y-7038340D01*
G01X6884416Y-7043420D01*
G01X6876796Y-7045960D01*
G01X6869176Y-7045960D01*
G01X6861556Y-7043420D01*
G01X6859016Y-7040880D01*
G01X6856476Y-7035800D01*
G01X6924548Y-7010400D02*
G01X6939788Y-7045960D01*
G01X6955028Y-7010400D02*
G01X6939788Y-7045960D01*
G01X6992620Y-6992620D02*
G01X7020560Y-6992620D01*
G01X7005320Y-7012940D01*
G01X7012940Y-7012940D01*
G01X7018020Y-7015480D01*
G01X7020560Y-7018020D01*
G01X7023100Y-7025640D01*
G01X7023100Y-7030720D01*
G01X7020560Y-7038340D01*
G01X7015480Y-7043420D01*
G01X7007860Y-7045960D01*
G01X7000240Y-7045960D01*
G01X6992620Y-7043420D01*
G01X6990080Y-7040880D01*
G01X6987540Y-7035800D01*
G01X7706360Y-7005320D02*
G01X7703820Y-7000240D01*
G01X7698740Y-6995160D01*
G01X7693660Y-6992620D01*
G01X7683500Y-6992620D01*
G01X7678420Y-6995160D01*
G01X7673340Y-7000240D01*
G01X7670800Y-7005320D01*
G01X7668260Y-7012940D01*
G01X7668260Y-7025640D01*
G01X7670800Y-7033260D01*
G01X7673340Y-7038340D01*
G01X7678420Y-7043420D01*
G01X7683500Y-7045960D01*
G01X7693660Y-7045960D01*
G01X7698740Y-7043420D01*
G01X7703820Y-7038340D01*
G01X7706360Y-7033260D01*
G01X7706360Y-7025640D01*
G01X7693660Y-7025640D02*
G01X7706360Y-7025640D01*
G01X7738872Y-6992620D02*
G01X7738872Y-7045960D01*
G01X7738872Y-6992620D02*
G01X7774432Y-7045960D01*
G01X7774432Y-6992620D02*
G01X7774432Y-7045960D01*
G01X7806944Y-6992620D02*
G01X7806944Y-7045960D01*
G01X7806944Y-6992620D02*
G01X7824724Y-6992620D01*
G01X7832344Y-6995160D01*
G01X7837424Y-7000240D01*
G01X7839964Y-7005320D01*
G01X7842504Y-7012940D01*
G01X7842504Y-7025640D01*
G01X7839964Y-7033260D01*
G01X7837424Y-7038340D01*
G01X7832344Y-7043420D01*
G01X7824724Y-7045960D01*
G01X7806944Y-7045960D01*
G01X7171436Y-7000240D02*
G01X7166356Y-6995160D01*
G01X7158736Y-6992620D01*
G01X7148576Y-6992620D01*
G01X7140956Y-6995160D01*
G01X7135876Y-7000240D01*
G01X7135876Y-7005320D01*
G01X7138416Y-7010400D01*
G01X7140956Y-7012940D01*
G01X7146036Y-7015480D01*
G01X7161276Y-7020560D01*
G01X7166356Y-7023100D01*
G01X7168896Y-7025640D01*
G01X7171436Y-7030720D01*
G01X7171436Y-7038340D01*
G01X7166356Y-7043420D01*
G01X7158736Y-7045960D01*
G01X7148576Y-7045960D01*
G01X7140956Y-7043420D01*
G01X7135876Y-7038340D01*
G01X7242048Y-7005320D02*
G01X7239508Y-7000240D01*
G01X7234428Y-6995160D01*
G01X7229348Y-6992620D01*
G01X7219188Y-6992620D01*
G01X7214108Y-6995160D01*
G01X7209028Y-7000240D01*
G01X7206488Y-7005320D01*
G01X7203948Y-7012940D01*
G01X7203948Y-7025640D01*
G01X7206488Y-7033260D01*
G01X7209028Y-7038340D01*
G01X7214108Y-7043420D01*
G01X7219188Y-7045960D01*
G01X7229348Y-7045960D01*
G01X7234428Y-7043420D01*
G01X7239508Y-7038340D01*
G01X7242048Y-7033260D01*
G01X7274560Y-6992620D02*
G01X7274560Y-7045960D01*
G01X7274560Y-7045960D02*
G01X7305040Y-7045960D01*
G01X7425436Y-7000240D02*
G01X7420356Y-6995160D01*
G01X7412736Y-6992620D01*
G01X7402576Y-6992620D01*
G01X7394956Y-6995160D01*
G01X7389876Y-7000240D01*
G01X7389876Y-7005320D01*
G01X7392416Y-7010400D01*
G01X7394956Y-7012940D01*
G01X7400036Y-7015480D01*
G01X7415276Y-7020560D01*
G01X7420356Y-7023100D01*
G01X7422896Y-7025640D01*
G01X7425436Y-7030720D01*
G01X7425436Y-7038340D01*
G01X7420356Y-7043420D01*
G01X7412736Y-7045960D01*
G01X7402576Y-7045960D01*
G01X7394956Y-7043420D01*
G01X7389876Y-7038340D01*
G01X7457948Y-6992620D02*
G01X7457948Y-7045960D01*
G01X7457948Y-6992620D02*
G01X7475728Y-6992620D01*
G01X7483348Y-6995160D01*
G01X7488428Y-7000240D01*
G01X7490968Y-7005320D01*
G01X7493508Y-7012940D01*
G01X7493508Y-7025640D01*
G01X7490968Y-7033260D01*
G01X7488428Y-7038340D01*
G01X7483348Y-7043420D01*
G01X7475728Y-7045960D01*
G01X7457948Y-7045960D01*
G01X7546340Y-6992620D02*
G01X7526020Y-7045960D01*
G01X7546340Y-6992620D02*
G01X7566660Y-7045960D01*
G01X7533640Y-7028180D02*
G01X7559040Y-7028180D01*
G01X2715260Y-6713220D02*
G01X2735580Y-6766560D01*
G01X2755900Y-6713220D02*
G01X2735580Y-6766560D01*
G01X2334260Y-6217920D02*
G01X2354580Y-6271260D01*
G01X2374900Y-6217920D02*
G01X2354580Y-6271260D01*
G01X2651760Y-6230620D02*
G01X2649220Y-6225540D01*
G01X2644140Y-6220460D01*
G01X2639060Y-6217920D01*
G01X2628900Y-6217920D01*
G01X2623820Y-6220460D01*
G01X2618740Y-6225540D01*
G01X2616200Y-6230620D01*
G01X2613660Y-6238240D01*
G01X2613660Y-6250940D01*
G01X2616200Y-6258560D01*
G01X2618740Y-6263640D01*
G01X2623820Y-6268720D01*
G01X2628900Y-6271260D01*
G01X2639060Y-6271260D01*
G01X2644140Y-6268720D01*
G01X2649220Y-6263640D01*
G01X2651760Y-6258560D01*
G01X2651760Y-6250940D01*
G01X2639060Y-6250940D02*
G01X2651760Y-6250940D01*
G01X2684272Y-6217920D02*
G01X2684272Y-6271260D01*
G01X2684272Y-6217920D02*
G01X2719832Y-6271260D01*
G01X2719832Y-6217920D02*
G01X2719832Y-6271260D01*
G01X2752344Y-6217920D02*
G01X2752344Y-6271260D01*
G01X2752344Y-6217920D02*
G01X2770124Y-6217920D01*
G01X2777744Y-6220460D01*
G01X2782824Y-6225540D01*
G01X2785364Y-6230620D01*
G01X2787904Y-6238240D01*
G01X2787904Y-6250940D01*
G01X2785364Y-6258560D01*
G01X2782824Y-6263640D01*
G01X2777744Y-6268720D01*
G01X2770124Y-6271260D01*
G01X2752344Y-6271260D01*
G01X2981960Y-6217920D02*
G01X2981960Y-6271260D01*
G01X3029712Y-6217920D02*
G01X3024632Y-6220460D01*
G01X3019552Y-6225540D01*
G01X3017012Y-6230620D01*
G01X3014472Y-6238240D01*
G01X3014472Y-6250940D01*
G01X3017012Y-6258560D01*
G01X3019552Y-6263640D01*
G01X3024632Y-6268720D01*
G01X3029712Y-6271260D01*
G01X3039872Y-6271260D01*
G01X3044952Y-6268720D01*
G01X3050032Y-6263640D01*
G01X3052572Y-6258560D01*
G01X3055112Y-6250940D01*
G01X3055112Y-6238240D01*
G01X3052572Y-6230620D01*
G01X3050032Y-6225540D01*
G01X3044952Y-6220460D01*
G01X3039872Y-6217920D01*
G01X3029712Y-6217920D01*
G01X3218688Y-6024880D02*
G01X3223768Y-6022340D01*
G01X3231388Y-6014720D01*
G01X3231388Y-6068060D01*
G01X3289300Y-6014720D02*
G01X3263900Y-6050280D01*
G01X3302000Y-6050280D01*
G01X3289300Y-6014720D02*
G01X3289300Y-6068060D01*
G01X3218688Y-5770880D02*
G01X3223768Y-5768340D01*
G01X3231388Y-5760720D01*
G01X3231388Y-5814060D01*
G01X3268980Y-5760720D02*
G01X3296920Y-5760720D01*
G01X3281680Y-5781040D01*
G01X3289300Y-5781040D01*
G01X3294380Y-5783580D01*
G01X3296920Y-5786120D01*
G01X3299460Y-5793740D01*
G01X3299460Y-5798820D01*
G01X3296920Y-5806440D01*
G01X3291840Y-5811520D01*
G01X3284220Y-5814060D01*
G01X3276600Y-5814060D01*
G01X3268980Y-5811520D01*
G01X3266440Y-5808980D01*
G01X3263900Y-5803900D01*
G01X3218688Y-5008880D02*
G01X3223768Y-5006340D01*
G01X3231388Y-4998720D01*
G01X3231388Y-5052060D01*
G01X3279140Y-4998720D02*
G01X3271520Y-5001260D01*
G01X3266440Y-5008880D01*
G01X3263900Y-5021580D01*
G01X3263900Y-5029200D01*
G01X3266440Y-5041900D01*
G01X3271520Y-5049520D01*
G01X3279140Y-5052060D01*
G01X3284220Y-5052060D01*
G01X3291840Y-5049520D01*
G01X3296920Y-5041900D01*
G01X3299460Y-5029200D01*
G01X3299460Y-5021580D01*
G01X3296920Y-5008880D01*
G01X3291840Y-5001260D01*
G01X3284220Y-4998720D01*
G01X3279140Y-4998720D01*
G01X3218688Y-5262880D02*
G01X3223768Y-5260340D01*
G01X3231388Y-5252720D01*
G01X3231388Y-5306060D01*
G01X3263900Y-5262880D02*
G01X3268980Y-5260340D01*
G01X3276600Y-5252720D01*
G01X3276600Y-5306060D01*
G01X3218688Y-5516880D02*
G01X3223768Y-5514340D01*
G01X3231388Y-5506720D01*
G01X3231388Y-5560060D01*
G01X3266440Y-5519420D02*
G01X3266440Y-5516880D01*
G01X3268980Y-5511800D01*
G01X3271520Y-5509260D01*
G01X3276600Y-5506720D01*
G01X3286760Y-5506720D01*
G01X3291840Y-5509260D01*
G01X3294380Y-5511800D01*
G01X3296920Y-5516880D01*
G01X3296920Y-5521960D01*
G01X3294380Y-5527040D01*
G01X3289300Y-5534660D01*
G01X3263900Y-5560060D01*
G01X3299460Y-5560060D01*
G01X3244088Y-4732020D02*
G01X3218688Y-4767580D01*
G01X3256788Y-4767580D01*
G01X3244088Y-4732020D02*
G01X3244088Y-4785360D01*
G01X3319780Y-4739640D02*
G01X3317240Y-4734560D01*
G01X3309620Y-4732020D01*
G01X3304540Y-4732020D01*
G01X3296920Y-4734560D01*
G01X3291840Y-4742180D01*
G01X3289300Y-4754880D01*
G01X3289300Y-4767580D01*
G01X3291840Y-4777740D01*
G01X3296920Y-4782820D01*
G01X3304540Y-4785360D01*
G01X3307080Y-4785360D01*
G01X3314700Y-4782820D01*
G01X3319780Y-4777740D01*
G01X3322320Y-4770120D01*
G01X3322320Y-4767580D01*
G01X3319780Y-4759960D01*
G01X3314700Y-4754880D01*
G01X3307080Y-4752340D01*
G01X3304540Y-4752340D01*
G01X3296920Y-4754880D01*
G01X3291840Y-4759960D01*
G01X3289300Y-4767580D01*
G01X7572502Y-175768D02*
G01X7575804Y-182372D01*
G01X7582408Y-188976D01*
G01X7589266Y-192278D01*
G01X7602474Y-192278D01*
G01X7609078Y-188976D01*
G01X7615936Y-182372D01*
G01X7619238Y-175768D01*
G01X7622540Y-165608D01*
G01X7622540Y-149098D01*
G01X7619238Y-138938D01*
G01X7615936Y-132334D01*
G01X7609078Y-125730D01*
G01X7602474Y-122428D01*
G01X7589266Y-122428D01*
G01X7582408Y-125730D01*
G01X7575804Y-132334D01*
G01X7572502Y-138938D01*
G01X7572502Y-149098D01*
G01X7589266Y-149098D02*
G01X7572502Y-149098D01*
G01X7536180Y-192278D02*
G01X7536180Y-122428D01*
G01X7536180Y-192278D02*
G01X7489444Y-122428D01*
G01X7489444Y-192278D02*
G01X7489444Y-122428D01*
G01X7453122Y-192278D02*
G01X7453122Y-122428D01*
G01X7453122Y-192278D02*
G01X7429754Y-192278D01*
G01X7419848Y-188976D01*
G01X7412990Y-182372D01*
G01X7409688Y-175768D01*
G01X7406386Y-165608D01*
G01X7406386Y-149098D01*
G01X7409688Y-138938D01*
G01X7412990Y-132334D01*
G01X7419848Y-125730D01*
G01X7429754Y-122428D01*
G01X7453122Y-122428D01*
G01X9476232Y-3660902D02*
G01X9469628Y-3664204D01*
G01X9463024Y-3670808D01*
G01X9459722Y-3677666D01*
G01X9459722Y-3690874D01*
G01X9463024Y-3697478D01*
G01X9469628Y-3704336D01*
G01X9476232Y-3707638D01*
G01X9486392Y-3710940D01*
G01X9502902Y-3710940D01*
G01X9513062Y-3707638D01*
G01X9519666Y-3704336D01*
G01X9526270Y-3697478D01*
G01X9529572Y-3690874D01*
G01X9529572Y-3677666D01*
G01X9526270Y-3670808D01*
G01X9519666Y-3664204D01*
G01X9513062Y-3660902D01*
G01X9502902Y-3660902D01*
G01X9502902Y-3677666D02*
G01X9502902Y-3660902D01*
G01X9459722Y-3624580D02*
G01X9529572Y-3624580D01*
G01X9459722Y-3624580D02*
G01X9529572Y-3577844D01*
G01X9459722Y-3577844D02*
G01X9529572Y-3577844D01*
G01X9459722Y-3541522D02*
G01X9529572Y-3541522D01*
G01X9459722Y-3541522D02*
G01X9459722Y-3518154D01*
G01X9463024Y-3508248D01*
G01X9469628Y-3501390D01*
G01X9476232Y-3498088D01*
G01X9486392Y-3494786D01*
G01X9502902Y-3494786D01*
G01X9513062Y-3498088D01*
G01X9519666Y-3501390D01*
G01X9526270Y-3508248D01*
G01X9529572Y-3518154D01*
G01X9529572Y-3541522D01*
G01X1787208Y-6312725D02*
G01X1857058Y-6312725D01*
G01X1787208Y-6312725D02*
G01X1787208Y-6282753D01*
G01X1790510Y-6272593D01*
G01X1793812Y-6269291D01*
G01X1800416Y-6265989D01*
G01X1807020Y-6265989D01*
G01X1813878Y-6269291D01*
G01X1817180Y-6272593D01*
G01X1820482Y-6282753D01*
G01X1820482Y-6312725D02*
G01X1820482Y-6282753D01*
G01X1823784Y-6272593D01*
G01X1827086Y-6269291D01*
G01X1833690Y-6265989D01*
G01X1843850Y-6265989D01*
G01X1850454Y-6269291D01*
G01X1853756Y-6272593D01*
G01X1857058Y-6282753D01*
G01X1857058Y-6312725D01*
G01X1787208Y-6229667D02*
G01X1857058Y-6229667D01*
G01X1787208Y-6229667D02*
G01X1787208Y-6199695D01*
G01X1790510Y-6189535D01*
G01X1793812Y-6186233D01*
G01X1800416Y-6182931D01*
G01X1807020Y-6182931D01*
G01X1813878Y-6186233D01*
G01X1817180Y-6189535D01*
G01X1820482Y-6199695D01*
G01X1820482Y-6229667D01*
G01X1820482Y-6206299D02*
G01X1857058Y-6182931D01*
G01X1787208Y-6126543D02*
G01X1790510Y-6133147D01*
G01X1797114Y-6140005D01*
G01X1803718Y-6143307D01*
G01X1813878Y-6146609D01*
G01X1830388Y-6146609D01*
G01X1840548Y-6143307D01*
G01X1847152Y-6140005D01*
G01X1853756Y-6133147D01*
G01X1857058Y-6126543D01*
G01X1857058Y-6113335D01*
G01X1853756Y-6106477D01*
G01X1847152Y-6099873D01*
G01X1840548Y-6096571D01*
G01X1830388Y-6093269D01*
G01X1813878Y-6093269D01*
G01X1803718Y-6096571D01*
G01X1797114Y-6099873D01*
G01X1790510Y-6106477D01*
G01X1787208Y-6113335D01*
G01X1787208Y-6126543D01*
G01X1787208Y-6056947D02*
G01X1857058Y-6040183D01*
G01X1787208Y-6023673D02*
G01X1857058Y-6040183D01*
G01X1787208Y-6023673D02*
G01X1857058Y-6006909D01*
G01X1787208Y-5990145D02*
G01X1857058Y-6006909D01*
G01X1787208Y-5953823D02*
G01X1857058Y-5953823D01*
G01X1787208Y-5953823D02*
G01X1857058Y-5907087D01*
G01X1787208Y-5907087D02*
G01X1857058Y-5907087D01*
G01X1545908Y-6312725D02*
G01X1615758Y-6295961D01*
G01X1545908Y-6279451D02*
G01X1615758Y-6295961D01*
G01X1545908Y-6279451D02*
G01X1615758Y-6262687D01*
G01X1545908Y-6245923D02*
G01X1615758Y-6262687D01*
G01X1545908Y-6209601D02*
G01X1615758Y-6209601D01*
G01X1545908Y-6162865D02*
G01X1615758Y-6162865D01*
G01X1579182Y-6209601D02*
G01X1579182Y-6162865D01*
G01X1545908Y-6126543D02*
G01X1615758Y-6126543D01*
G01X1545908Y-6066853D02*
G01X1615758Y-6066853D01*
G01X1545908Y-6090221D02*
G01X1545908Y-6043485D01*
G01X1545908Y-6007163D02*
G01X1615758Y-6007163D01*
G01X1545908Y-6007163D02*
G01X1545908Y-5963729D01*
G01X1579182Y-6007163D02*
G01X1579182Y-5980493D01*
G01X1615758Y-6007163D02*
G01X1615758Y-5963729D01*
G01X1308418Y-6272466D02*
G01X1301814Y-6275768D01*
G01X1295210Y-6282372D01*
G01X1291908Y-6289230D01*
G01X1291908Y-6302438D01*
G01X1295210Y-6309042D01*
G01X1301814Y-6315900D01*
G01X1308418Y-6319202D01*
G01X1318578Y-6322504D01*
G01X1335088Y-6322504D01*
G01X1345248Y-6319202D01*
G01X1351852Y-6315900D01*
G01X1358456Y-6309042D01*
G01X1361758Y-6302438D01*
G01X1361758Y-6289230D01*
G01X1358456Y-6282372D01*
G01X1351852Y-6275768D01*
G01X1345248Y-6272466D01*
G01X1335088Y-6272466D01*
G01X1335088Y-6289230D02*
G01X1335088Y-6272466D01*
G01X1291908Y-6236144D02*
G01X1361758Y-6236144D01*
G01X1291908Y-6236144D02*
G01X1291908Y-6206172D01*
G01X1295210Y-6196012D01*
G01X1298512Y-6192710D01*
G01X1305116Y-6189408D01*
G01X1311720Y-6189408D01*
G01X1318578Y-6192710D01*
G01X1321880Y-6196012D01*
G01X1325182Y-6206172D01*
G01X1325182Y-6236144D01*
G01X1325182Y-6212776D02*
G01X1361758Y-6189408D01*
G01X1291908Y-6153086D02*
G01X1361758Y-6153086D01*
G01X1291908Y-6153086D02*
G01X1291908Y-6109652D01*
G01X1325182Y-6153086D02*
G01X1325182Y-6126416D01*
G01X1361758Y-6153086D02*
G01X1361758Y-6109652D01*
G01X1291908Y-6073330D02*
G01X1361758Y-6073330D01*
G01X1291908Y-6073330D02*
G01X1291908Y-6029896D01*
G01X1325182Y-6073330D02*
G01X1325182Y-6046660D01*
G01X1361758Y-6073330D02*
G01X1361758Y-6029896D01*
G01X1291908Y-5993574D02*
G01X1361758Y-5993574D01*
G01X1291908Y-5993574D02*
G01X1361758Y-5946838D01*
G01X1291908Y-5946838D02*
G01X1361758Y-5946838D01*
G01X1037908Y-6312725D02*
G01X1107758Y-6312725D01*
G01X1037908Y-6312725D02*
G01X1037908Y-6282753D01*
G01X1041210Y-6272593D01*
G01X1044512Y-6269291D01*
G01X1051116Y-6265989D01*
G01X1057720Y-6265989D01*
G01X1064578Y-6269291D01*
G01X1067880Y-6272593D01*
G01X1071182Y-6282753D01*
G01X1071182Y-6312725D02*
G01X1071182Y-6282753D01*
G01X1074484Y-6272593D01*
G01X1077786Y-6269291D01*
G01X1084390Y-6265989D01*
G01X1094550Y-6265989D01*
G01X1101154Y-6269291D01*
G01X1104456Y-6272593D01*
G01X1107758Y-6282753D01*
G01X1107758Y-6312725D01*
G01X1037908Y-6229667D02*
G01X1107758Y-6229667D01*
G01X1107758Y-6229667D02*
G01X1107758Y-6189535D01*
G01X1037908Y-6153213D02*
G01X1087692Y-6153213D01*
G01X1097852Y-6149911D01*
G01X1104456Y-6143307D01*
G01X1107758Y-6133147D01*
G01X1107758Y-6126543D01*
G01X1104456Y-6116637D01*
G01X1097852Y-6109779D01*
G01X1087692Y-6106477D01*
G01X1037908Y-6106477D01*
G01X1037908Y-6070155D02*
G01X1107758Y-6070155D01*
G01X1037908Y-6070155D02*
G01X1037908Y-6026721D01*
G01X1071182Y-6070155D02*
G01X1071182Y-6043485D01*
G01X1107758Y-6070155D02*
G01X1107758Y-6026721D01*
G01X783908Y-6322504D02*
G01X817182Y-6295834D01*
G01X853758Y-6295834D01*
G01X783908Y-6269164D02*
G01X817182Y-6295834D01*
G01X783908Y-6232842D02*
G01X853758Y-6232842D01*
G01X783908Y-6232842D02*
G01X783908Y-6189408D01*
G01X817182Y-6232842D02*
G01X817182Y-6206172D01*
G01X853758Y-6232842D02*
G01X853758Y-6189408D01*
G01X783908Y-6153086D02*
G01X853758Y-6153086D01*
G01X853758Y-6153086D02*
G01X853758Y-6112954D01*
G01X783908Y-6076632D02*
G01X853758Y-6076632D01*
G01X853758Y-6076632D02*
G01X853758Y-6036500D01*
G01X783908Y-5980112D02*
G01X787210Y-5986716D01*
G01X793814Y-5993574D01*
G01X800418Y-5996876D01*
G01X810578Y-6000178D01*
G01X827088Y-6000178D01*
G01X837248Y-5996876D01*
G01X843852Y-5993574D01*
G01X850456Y-5986716D01*
G01X853758Y-5980112D01*
G01X853758Y-5966904D01*
G01X850456Y-5960046D01*
G01X843852Y-5953442D01*
G01X837248Y-5950140D01*
G01X827088Y-5946838D01*
G01X810578Y-5946838D01*
G01X800418Y-5950140D01*
G01X793814Y-5953442D01*
G01X787210Y-5960046D01*
G01X783908Y-5966904D01*
G01X783908Y-5980112D01*
G01X783908Y-5910516D02*
G01X853758Y-5893752D01*
G01X783908Y-5877242D02*
G01X853758Y-5893752D01*
G01X783908Y-5877242D02*
G01X853758Y-5860478D01*
G01X783908Y-5843714D02*
G01X853758Y-5860478D01*
G01X517208Y-6322504D02*
G01X587058Y-6322504D01*
G01X517208Y-6322504D02*
G01X517208Y-6292532D01*
G01X520510Y-6282372D01*
G01X523812Y-6279070D01*
G01X530416Y-6275768D01*
G01X537020Y-6275768D01*
G01X543878Y-6279070D01*
G01X547180Y-6282372D01*
G01X550482Y-6292532D01*
G01X550482Y-6322504D02*
G01X550482Y-6292532D01*
G01X553784Y-6282372D01*
G01X557086Y-6279070D01*
G01X563690Y-6275768D01*
G01X573850Y-6275768D01*
G01X580454Y-6279070D01*
G01X583756Y-6282372D01*
G01X587058Y-6292532D01*
G01X587058Y-6322504D01*
G01X517208Y-6239446D02*
G01X587058Y-6239446D01*
G01X587058Y-6239446D02*
G01X587058Y-6199314D01*
G01X517208Y-6136322D02*
G01X587058Y-6162992D01*
G01X517208Y-6136322D02*
G01X587058Y-6109652D01*
G01X563690Y-6153086D02*
G01X563690Y-6119558D01*
G01X533718Y-6023292D02*
G01X527114Y-6026594D01*
G01X520510Y-6033198D01*
G01X517208Y-6040056D01*
G01X517208Y-6053264D01*
G01X520510Y-6059868D01*
G01X527114Y-6066726D01*
G01X533718Y-6070028D01*
G01X543878Y-6073330D01*
G01X560388Y-6073330D01*
G01X570548Y-6070028D01*
G01X577152Y-6066726D01*
G01X583756Y-6059868D01*
G01X587058Y-6053264D01*
G01X587058Y-6040056D01*
G01X583756Y-6033198D01*
G01X577152Y-6026594D01*
G01X570548Y-6023292D01*
G01X517208Y-5986970D02*
G01X587058Y-5986970D01*
G01X517208Y-5940234D02*
G01X563690Y-5986970D01*
G01X547180Y-5970206D02*
G01X587058Y-5940234D01*
G01X4477869Y-6916420D02*
G01X4477869Y-7049770D01*
G01X4486759Y-7076440D01*
G01X4504539Y-7094220D01*
G01X4531209Y-7103110D01*
G01X4548989Y-7103110D01*
G01X4575659Y-7094220D01*
G01X4593439Y-7076440D01*
G01X4602329Y-7049770D01*
G01X4602329Y-6916420D01*
G01X4789781Y-6943090D02*
G01X4772001Y-6925310D01*
G01X4745331Y-6916420D01*
G01X4709771Y-6916420D01*
G01X4683101Y-6925310D01*
G01X4665321Y-6943090D01*
G01X4665321Y-6960870D01*
G01X4674211Y-6978650D01*
G01X4683101Y-6987540D01*
G01X4700881Y-6996430D01*
G01X4754221Y-7014210D01*
G01X4772001Y-7023100D01*
G01X4780891Y-7031990D01*
G01X4789781Y-7049770D01*
G01X4789781Y-7076440D01*
G01X4772001Y-7094220D01*
G01X4745331Y-7103110D01*
G01X4709771Y-7103110D01*
G01X4683101Y-7094220D01*
G01X4665321Y-7076440D01*
G01X4852773Y-6916420D02*
G01X4852773Y-7103110D01*
G01X4852773Y-6916420D02*
G01X4932783Y-6916420D01*
G01X4959453Y-6925310D01*
G01X4968343Y-6934200D01*
G01X4977233Y-6951980D01*
G01X4977233Y-6969760D01*
G01X4968343Y-6987540D01*
G01X4959453Y-6996430D01*
G01X4932783Y-7005320D01*
G01X4852773Y-7005320D02*
G01X4932783Y-7005320D01*
G01X4959453Y-7014210D01*
G01X4968343Y-7023100D01*
G01X4977233Y-7040880D01*
G01X4977233Y-7067550D01*
G01X4968343Y-7085330D01*
G01X4959453Y-7094220D01*
G01X4932783Y-7103110D01*
G01X4852773Y-7103110D01*
G01X5621020Y-4993640D02*
G01X5807710Y-4993640D01*
G01X5621020Y-4993640D02*
G01X5621020Y-4878070D01*
G01X5709920Y-4993640D02*
G01X5709920Y-4922520D01*
G01X5807710Y-4993640D02*
G01X5807710Y-4878070D01*
G01X5647690Y-4690618D02*
G01X5629910Y-4708398D01*
G01X5621020Y-4735068D01*
G01X5621020Y-4770628D01*
G01X5629910Y-4797298D01*
G01X5647690Y-4815078D01*
G01X5665470Y-4815078D01*
G01X5683250Y-4806188D01*
G01X5692140Y-4797298D01*
G01X5701030Y-4779518D01*
G01X5718810Y-4726178D01*
G01X5727700Y-4708398D01*
G01X5736590Y-4699508D01*
G01X5754370Y-4690618D01*
G01X5781040Y-4690618D01*
G01X5798820Y-4708398D01*
G01X5807710Y-4735068D01*
G01X5807710Y-4770628D01*
G01X5798820Y-4797298D01*
G01X5781040Y-4815078D01*
G01X5621020Y-4627626D02*
G01X5807710Y-4627626D01*
G01X5621020Y-4627626D02*
G01X5621020Y-4547616D01*
G01X5629910Y-4520946D01*
G01X5638800Y-4512056D01*
G01X5656580Y-4503166D01*
G01X5683250Y-4503166D01*
G01X5701030Y-4512056D01*
G01X5709920Y-4520946D01*
G01X5718810Y-4547616D01*
G01X5718810Y-4627626D01*
G01X5621020Y-4422394D02*
G01X5621020Y-4324604D01*
G01X5692140Y-4377944D01*
G01X5692140Y-4351274D01*
G01X5701030Y-4333494D01*
G01X5709920Y-4324604D01*
G01X5736590Y-4315714D01*
G01X5754370Y-4315714D01*
G01X5781040Y-4324604D01*
G01X5798820Y-4342384D01*
G01X5807710Y-4369054D01*
G01X5807710Y-4395724D01*
G01X5798820Y-4422394D01*
G01X5789930Y-4431284D01*
G01X5772150Y-4440174D01*
G01X5665470Y-4243832D02*
G01X5656580Y-4243832D01*
G01X5638800Y-4234942D01*
G01X5629910Y-4226052D01*
G01X5621020Y-4208272D01*
G01X5621020Y-4172712D01*
G01X5629910Y-4154932D01*
G01X5638800Y-4146042D01*
G01X5656580Y-4137152D01*
G01X5674360Y-4137152D01*
G01X5692140Y-4146042D01*
G01X5718810Y-4163822D01*
G01X5807710Y-4252722D01*
G01X5807710Y-4128262D01*
G01X5647690Y-3741674D02*
G01X5629910Y-3759454D01*
G01X5621020Y-3786124D01*
G01X5621020Y-3821684D01*
G01X5629910Y-3848354D01*
G01X5647690Y-3866134D01*
G01X5665470Y-3866134D01*
G01X5683250Y-3857244D01*
G01X5692140Y-3848354D01*
G01X5701030Y-3830574D01*
G01X5718810Y-3777234D01*
G01X5727700Y-3759454D01*
G01X5736590Y-3750564D01*
G01X5754370Y-3741674D01*
G01X5781040Y-3741674D01*
G01X5798820Y-3759454D01*
G01X5807710Y-3786124D01*
G01X5807710Y-3821684D01*
G01X5798820Y-3848354D01*
G01X5781040Y-3866134D01*
G01X5621020Y-3660902D02*
G01X5621020Y-3563112D01*
G01X5692140Y-3616452D01*
G01X5692140Y-3589782D01*
G01X5701030Y-3572002D01*
G01X5709920Y-3563112D01*
G01X5736590Y-3554222D01*
G01X5754370Y-3554222D01*
G01X5781040Y-3563112D01*
G01X5798820Y-3580892D01*
G01X5807710Y-3607562D01*
G01X5807710Y-3634232D01*
G01X5798820Y-3660902D01*
G01X5789930Y-3669792D01*
G01X5772150Y-3678682D01*
G01X5621020Y-3292094D02*
G01X5807710Y-3292094D01*
G01X5621020Y-3292094D02*
G01X5621020Y-3229864D01*
G01X5629910Y-3203194D01*
G01X5647690Y-3185414D01*
G01X5665470Y-3176524D01*
G01X5692140Y-3167634D01*
G01X5736590Y-3167634D01*
G01X5763260Y-3176524D01*
G01X5781040Y-3185414D01*
G01X5798820Y-3203194D01*
G01X5807710Y-3229864D01*
G01X5807710Y-3292094D01*
G01X5621020Y-3104642D02*
G01X5807710Y-3104642D01*
G01X5621020Y-3104642D02*
G01X5621020Y-2989072D01*
G01X5709920Y-3104642D02*
G01X5709920Y-3033522D01*
G01X5807710Y-3104642D02*
G01X5807710Y-2989072D01*
G01X5621020Y-2926080D02*
G01X5807710Y-2854960D01*
G01X5621020Y-2783840D02*
G01X5807710Y-2854960D01*
G01X5621020Y-2720848D02*
G01X5807710Y-2720848D01*
G01X5621020Y-2596388D02*
G01X5745480Y-2720848D01*
G01X5701030Y-2676398D02*
G01X5807710Y-2596388D01*
G01X5621020Y-2533396D02*
G01X5807710Y-2533396D01*
G01X5621020Y-2408174D02*
G01X5807710Y-2408174D01*
G01X5621020Y-2470404D02*
G01X5621020Y-2345944D01*
G01X5656580Y-2083816D02*
G01X5647690Y-2066036D01*
G01X5621020Y-2039366D01*
G01X5807710Y-2039366D01*
G01X8585708Y-192278D02*
G01X8619236Y-192278D01*
G01X8622538Y-162306D01*
G01X8619236Y-165608D01*
G01X8609076Y-169164D01*
G01X8599170Y-169164D01*
G01X8589264Y-165608D01*
G01X8582406Y-159004D01*
G01X8579104Y-149098D01*
G01X8579104Y-142494D01*
G01X8582406Y-132334D01*
G01X8589264Y-125730D01*
G01X8599170Y-122428D01*
G01X8609076Y-122428D01*
G01X8619236Y-125730D01*
G01X8622538Y-129032D01*
G01X8625840Y-135636D01*
G01X8542782Y-192278D02*
G01X8516112Y-122428D01*
G01X8489442Y-192278D02*
G01X8516112Y-122428D01*
G01X8185404Y-182372D02*
G01X8192008Y-188976D01*
G01X8202168Y-192278D01*
G01X8215376Y-192278D01*
G01X8225536Y-188976D01*
G01X8232140Y-182372D01*
G01X8232140Y-175768D01*
G01X8228838Y-169164D01*
G01X8225536Y-165608D01*
G01X8218678Y-162306D01*
G01X8198866Y-155702D01*
G01X8192008Y-152400D01*
G01X8188706Y-149098D01*
G01X8185404Y-142494D01*
G01X8185404Y-132334D01*
G01X8192008Y-125730D01*
G01X8202168Y-122428D01*
G01X8215376Y-122428D01*
G01X8225536Y-125730D01*
G01X8232140Y-132334D01*
G01X8149082Y-192278D02*
G01X8149082Y-122428D01*
G01X8062722Y-175768D02*
G01X8066024Y-182372D01*
G01X8072628Y-188976D01*
G01X8079486Y-192278D01*
G01X8092694Y-192278D01*
G01X8099298Y-188976D01*
G01X8106156Y-182372D01*
G01X8109458Y-175768D01*
G01X8112760Y-165608D01*
G01X8112760Y-149098D01*
G01X8109458Y-138938D01*
G01X8106156Y-132334D01*
G01X8099298Y-125730D01*
G01X8092694Y-122428D01*
G01X8079486Y-122428D01*
G01X8072628Y-125730D01*
G01X8066024Y-132334D01*
G01X8062722Y-138938D01*
G01X8062722Y-149098D01*
G01X8079486Y-149098D02*
G01X8062722Y-149098D01*
G01X8026400Y-192278D02*
G01X8026400Y-122428D01*
G01X8026400Y-192278D02*
G01X7979664Y-122428D01*
G01X7979664Y-192278D02*
G01X7979664Y-122428D01*
G01X7916672Y-192278D02*
G01X7943342Y-122428D01*
G01X7916672Y-192278D02*
G01X7890002Y-122428D01*
G01X7933436Y-145796D02*
G01X7899908Y-145796D01*
G01X7853680Y-192278D02*
G01X7853680Y-122428D01*
G01X7853680Y-122428D02*
G01X7813548Y-122428D01*
G01X450850Y-1303881D02*
G01X264160Y-1303881D01*
G01X450850Y-1303881D02*
G01X450850Y-1383891D01*
G01X441960Y-1410561D01*
G01X433070Y-1419451D01*
G01X415290Y-1428341D01*
G01X388620Y-1428341D01*
G01X370840Y-1419451D01*
G01X361950Y-1410561D01*
G01X353060Y-1383891D01*
G01X353060Y-1303881D01*
G01X388620Y-1535783D02*
G01X379730Y-1518003D01*
G01X361950Y-1500223D01*
G01X335280Y-1491333D01*
G01X317500Y-1491333D01*
G01X290830Y-1500223D01*
G01X273050Y-1518003D01*
G01X264160Y-1535783D01*
G01X264160Y-1562453D01*
G01X273050Y-1580233D01*
G01X290830Y-1598013D01*
G01X317500Y-1606903D01*
G01X335280Y-1606903D01*
G01X361950Y-1598013D01*
G01X379730Y-1580233D01*
G01X388620Y-1562453D01*
G01X388620Y-1535783D01*
G01X388620Y-1669895D02*
G01X264160Y-1705455D01*
G01X388620Y-1741015D02*
G01X264160Y-1705455D01*
G01X388620Y-1741015D02*
G01X264160Y-1776575D01*
G01X388620Y-1812135D02*
G01X264160Y-1776575D01*
G01X335280Y-1875127D02*
G01X335280Y-1981807D01*
G01X353060Y-1981807D01*
G01X370840Y-1972917D01*
G01X379730Y-1964027D01*
G01X388620Y-1946247D01*
G01X388620Y-1919577D01*
G01X379730Y-1901797D01*
G01X361950Y-1884017D01*
G01X335280Y-1875127D01*
G01X317500Y-1875127D01*
G01X290830Y-1884017D01*
G01X273050Y-1901797D01*
G01X264160Y-1919577D01*
G01X264160Y-1946247D01*
G01X273050Y-1964027D01*
G01X290830Y-1981807D01*
G01X388620Y-2044799D02*
G01X264160Y-2044799D01*
G01X335280Y-2044799D02*
G01X361950Y-2053689D01*
G01X379730Y-2071469D01*
G01X388620Y-2089249D01*
G01X388620Y-2115919D01*
G01X9469628Y-4286504D02*
G01X9463024Y-4293108D01*
G01X9459722Y-4303268D01*
G01X9459722Y-4316476D01*
G01X9463024Y-4326636D01*
G01X9469628Y-4333240D01*
G01X9476232Y-4333240D01*
G01X9482836Y-4329938D01*
G01X9486392Y-4326636D01*
G01X9489694Y-4319778D01*
G01X9496298Y-4299966D01*
G01X9499600Y-4293108D01*
G01X9502902Y-4289806D01*
G01X9509506Y-4286504D01*
G01X9519666Y-4286504D01*
G01X9526270Y-4293108D01*
G01X9529572Y-4303268D01*
G01X9529572Y-4316476D01*
G01X9526270Y-4326636D01*
G01X9519666Y-4333240D01*
G01X9459722Y-4250182D02*
G01X9529572Y-4250182D01*
G01X9476232Y-4163822D02*
G01X9469628Y-4167124D01*
G01X9463024Y-4173728D01*
G01X9459722Y-4180586D01*
G01X9459722Y-4193794D01*
G01X9463024Y-4200398D01*
G01X9469628Y-4207256D01*
G01X9476232Y-4210558D01*
G01X9486392Y-4213860D01*
G01X9502902Y-4213860D01*
G01X9513062Y-4210558D01*
G01X9519666Y-4207256D01*
G01X9526270Y-4200398D01*
G01X9529572Y-4193794D01*
G01X9529572Y-4180586D01*
G01X9526270Y-4173728D01*
G01X9519666Y-4167124D01*
G01X9513062Y-4163822D01*
G01X9502902Y-4163822D01*
G01X9502902Y-4180586D02*
G01X9502902Y-4163822D01*
G01X9459722Y-4127500D02*
G01X9529572Y-4127500D01*
G01X9459722Y-4127500D02*
G01X9529572Y-4080764D01*
G01X9459722Y-4080764D02*
G01X9529572Y-4080764D01*
G01X9459722Y-4017772D02*
G01X9529572Y-4044442D01*
G01X9459722Y-4017772D02*
G01X9529572Y-3991102D01*
G01X9506204Y-4034536D02*
G01X9506204Y-4001008D01*
G01X9459722Y-3954780D02*
G01X9529572Y-3954780D01*
G01X9529572Y-3954780D02*
G01X9529572Y-3914648D01*
G01X4874260Y-668020D02*
G01X4918710Y-854710D01*
G01X4963160Y-668020D02*
G01X4918710Y-854710D01*
G01X4963160Y-668020D02*
G01X5007610Y-854710D01*
G01X5052060Y-668020D02*
G01X5007610Y-854710D01*
G01X5115052Y-668020D02*
G01X5123942Y-676910D01*
G01X5132832Y-668020D01*
G01X5123942Y-659130D01*
G01X5115052Y-668020D01*
G01X5123942Y-730250D02*
G01X5123942Y-854710D01*
G01X5195824Y-668020D02*
G01X5195824Y-854710D01*
G01X5195824Y-668020D02*
G01X5311394Y-668020D01*
G01X5195824Y-756920D02*
G01X5266944Y-756920D01*
G01X5374386Y-668020D02*
G01X5383276Y-676910D01*
G01X5392166Y-668020D01*
G01X5383276Y-659130D01*
G01X5374386Y-668020D01*
G01X5383276Y-730250D02*
G01X5383276Y-854710D01*
G01X5439918Y-6916420D02*
G01X5439918Y-7049770D01*
G01X5448808Y-7076440D01*
G01X5466588Y-7094220D01*
G01X5493258Y-7103110D01*
G01X5511038Y-7103110D01*
G01X5537708Y-7094220D01*
G01X5555488Y-7076440D01*
G01X5564378Y-7049770D01*
G01X5564378Y-6916420D01*
G01X5751830Y-6943090D02*
G01X5734050Y-6925310D01*
G01X5707380Y-6916420D01*
G01X5671820Y-6916420D01*
G01X5645150Y-6925310D01*
G01X5627370Y-6943090D01*
G01X5627370Y-6960870D01*
G01X5636260Y-6978650D01*
G01X5645150Y-6987540D01*
G01X5662930Y-6996430D01*
G01X5716270Y-7014210D01*
G01X5734050Y-7023100D01*
G01X5742940Y-7031990D01*
G01X5751830Y-7049770D01*
G01X5751830Y-7076440D01*
G01X5734050Y-7094220D01*
G01X5707380Y-7103110D01*
G01X5671820Y-7103110D01*
G01X5645150Y-7094220D01*
G01X5627370Y-7076440D01*
G01X5814822Y-6916420D02*
G01X5814822Y-7103110D01*
G01X5814822Y-6916420D02*
G01X5894832Y-6916420D01*
G01X5921502Y-6925310D01*
G01X5930392Y-6934200D01*
G01X5939282Y-6951980D01*
G01X5939282Y-6969760D01*
G01X5930392Y-6987540D01*
G01X5921502Y-6996430D01*
G01X5894832Y-7005320D01*
G01X5814822Y-7005320D02*
G01X5894832Y-7005320D01*
G01X5921502Y-7014210D01*
G01X5930392Y-7023100D01*
G01X5939282Y-7040880D01*
G01X5939282Y-7067550D01*
G01X5930392Y-7085330D01*
G01X5921502Y-7094220D01*
G01X5894832Y-7103110D01*
G01X5814822Y-7103110D01*
G54D11*
G01X1525080Y-3312178D02*
G01X1518730Y-3315226D01*
G01X1512634Y-3321576D01*
G01X1509586Y-3327672D01*
G01X1509586Y-3340118D01*
G01X1512634Y-3346214D01*
G01X1518730Y-3352564D01*
G01X1525080Y-3355612D01*
G01X1534224Y-3358660D01*
G01X1549718Y-3358660D01*
G01X1559116Y-3355612D01*
G01X1565212Y-3352564D01*
G01X1571562Y-3346214D01*
G01X1574610Y-3340118D01*
G01X1574610Y-3327672D01*
G01X1571562Y-3321576D01*
G01X1565212Y-3315226D01*
G01X1559116Y-3312178D01*
G01X1525080Y-3278904D02*
G01X1522032Y-3278904D01*
G01X1515682Y-3275856D01*
G01X1512634Y-3272808D01*
G01X1509586Y-3266712D01*
G01X1509586Y-3254266D01*
G01X1512634Y-3247916D01*
G01X1515682Y-3244868D01*
G01X1522032Y-3241820D01*
G01X1528128Y-3241820D01*
G01X1534224Y-3244868D01*
G01X1543622Y-3251218D01*
G01X1574610Y-3281952D01*
G01X1574610Y-3238772D01*
G01X2993020Y-3273102D02*
G01X2986670Y-3276150D01*
G01X2980574Y-3282500D01*
G01X2977526Y-3288596D01*
G01X2977526Y-3301042D01*
G01X2980574Y-3307138D01*
G01X2986670Y-3313488D01*
G01X2993020Y-3316536D01*
G01X3002164Y-3319584D01*
G01X3017658Y-3319584D01*
G01X3027056Y-3316536D01*
G01X3033152Y-3313488D01*
G01X3039502Y-3307138D01*
G01X3042550Y-3301042D01*
G01X3042550Y-3288596D01*
G01X3039502Y-3282500D01*
G01X3033152Y-3276150D01*
G01X3027056Y-3273102D01*
G01X2977526Y-3212142D02*
G01X3020706Y-3242876D01*
G01X3020706Y-3196648D01*
G01X2977526Y-3212142D02*
G01X3042550Y-3212142D01*
G01X1417320Y-718566D02*
G01X1417320Y-783590D01*
G01X1417320Y-718566D02*
G01X1438910Y-718566D01*
G01X1448308Y-721614D01*
G01X1454404Y-727710D01*
G01X1457452Y-734060D01*
G01X1460754Y-743204D01*
G01X1460754Y-758698D01*
G01X1457452Y-768096D01*
G01X1454404Y-774192D01*
G01X1448308Y-780542D01*
G01X1438910Y-783590D01*
G01X1417320Y-783590D01*
G01X1490980Y-731012D02*
G01X1497076Y-727710D01*
G01X1506220Y-718566D01*
G01X1506220Y-783590D01*
G01X6827520Y-4833366D02*
G01X6827520Y-4898390D01*
G01X6827520Y-4833366D02*
G01X6849110Y-4833366D01*
G01X6858508Y-4836414D01*
G01X6864604Y-4842510D01*
G01X6867652Y-4848860D01*
G01X6870954Y-4858004D01*
G01X6870954Y-4873498D01*
G01X6867652Y-4882896D01*
G01X6864604Y-4888992D01*
G01X6858508Y-4895342D01*
G01X6849110Y-4898390D01*
G01X6827520Y-4898390D01*
G01X6904228Y-4848860D02*
G01X6904228Y-4845812D01*
G01X6907276Y-4839462D01*
G01X6910324Y-4836414D01*
G01X6916420Y-4833366D01*
G01X6928866Y-4833366D01*
G01X6935216Y-4836414D01*
G01X6938264Y-4839462D01*
G01X6941312Y-4845812D01*
G01X6941312Y-4851908D01*
G01X6938264Y-4858004D01*
G01X6931914Y-4867402D01*
G01X6901180Y-4898390D01*
G01X6944360Y-4898390D01*
G01X6814819Y-3233166D02*
G01X6814819Y-3298190D01*
G01X6814819Y-3233166D02*
G01X6836409Y-3233166D01*
G01X6845807Y-3236214D01*
G01X6851903Y-3242310D01*
G01X6854951Y-3248660D01*
G01X6858253Y-3257804D01*
G01X6858253Y-3273298D01*
G01X6854951Y-3282696D01*
G01X6851903Y-3288792D01*
G01X6845807Y-3295142D01*
G01X6836409Y-3298190D01*
G01X6814819Y-3298190D01*
G01X6919213Y-3233166D02*
G01X6888479Y-3276346D01*
G01X6934707Y-3276346D01*
G01X6919213Y-3233166D02*
G01X6919213Y-3298190D01*
G01X4922266Y-4627880D02*
G01X4987290Y-4627880D01*
G01X4922266Y-4627880D02*
G01X4922266Y-4606290D01*
G01X4925314Y-4596892D01*
G01X4931410Y-4590796D01*
G01X4937760Y-4587748D01*
G01X4946904Y-4584446D01*
G01X4962398Y-4584446D01*
G01X4971796Y-4587748D01*
G01X4977892Y-4590796D01*
G01X4984242Y-4596892D01*
G01X4987290Y-4606290D01*
G01X4987290Y-4627880D01*
G01X4922266Y-4517136D02*
G01X4922266Y-4548124D01*
G01X4949952Y-4551172D01*
G01X4946904Y-4548124D01*
G01X4943856Y-4538980D01*
G01X4943856Y-4529582D01*
G01X4946904Y-4520184D01*
G01X4953254Y-4514088D01*
G01X4962398Y-4511040D01*
G01X4968748Y-4511040D01*
G01X4977892Y-4514088D01*
G01X4984242Y-4520184D01*
G01X4987290Y-4529582D01*
G01X4987290Y-4538980D01*
G01X4984242Y-4548124D01*
G01X4980940Y-4551172D01*
G01X4974844Y-4554220D01*
G01X839930Y-703285D02*
G01X839930Y-768309D01*
G01X839930Y-703285D02*
G01X880062Y-703285D01*
G01X839930Y-734273D02*
G01X864822Y-734273D01*
G01X910288Y-715731D02*
G01X916384Y-712429D01*
G01X925528Y-703285D01*
G01X925528Y-768309D01*
G01X4181630Y-1125921D02*
G01X4116606Y-1125921D01*
G01X4181630Y-1169355D02*
G01X4116606Y-1169355D01*
G01X4150642Y-1125921D02*
G01X4150642Y-1169355D01*
G01X4169184Y-1199581D02*
G01X4172486Y-1205677D01*
G01X4181630Y-1214821D01*
G01X4116606Y-1214821D01*
G01X6721630Y-1125921D02*
G01X6656606Y-1125921D01*
G01X6721630Y-1169355D02*
G01X6656606Y-1169355D01*
G01X6690642Y-1125921D02*
G01X6690642Y-1169355D01*
G01X6706136Y-1202629D02*
G01X6709184Y-1202629D01*
G01X6715534Y-1205677D01*
G01X6718582Y-1208725D01*
G01X6721630Y-1214821D01*
G01X6721630Y-1227267D01*
G01X6718582Y-1233617D01*
G01X6715534Y-1236665D01*
G01X6709184Y-1239713D01*
G01X6703088Y-1239713D01*
G01X6696992Y-1236665D01*
G01X6687594Y-1230315D01*
G01X6656606Y-1199581D01*
G01X6656606Y-1242761D01*
G01X3007360Y-479806D02*
G01X3007360Y-544830D01*
G01X3007360Y-544830D02*
G01X3044444Y-544830D01*
G01X3074670Y-479806D02*
G01X3074670Y-544830D01*
G01X3074670Y-479806D02*
G01X3114802Y-479806D01*
G01X3074670Y-510794D02*
G01X3099308Y-510794D01*
G01X3074670Y-544830D02*
G01X3114802Y-544830D01*
G01X3145028Y-479806D02*
G01X3145028Y-544830D01*
G01X3145028Y-479806D02*
G01X3166618Y-479806D01*
G01X3175762Y-482854D01*
G01X3182112Y-488950D01*
G01X3185160Y-495300D01*
G01X3188208Y-504444D01*
G01X3188208Y-519938D01*
G01X3185160Y-529336D01*
G01X3182112Y-535432D01*
G01X3175762Y-541782D01*
G01X3166618Y-544830D01*
G01X3145028Y-544830D01*
G01X3218434Y-492252D02*
G01X3224530Y-488950D01*
G01X3233674Y-479806D01*
G01X3233674Y-544830D01*
G01X3658743Y-502793D02*
G01X3658743Y-567817D01*
G01X3658743Y-567817D02*
G01X3695827Y-567817D01*
G01X3726053Y-502793D02*
G01X3726053Y-567817D01*
G01X3726053Y-502793D02*
G01X3766185Y-502793D01*
G01X3726053Y-533781D02*
G01X3750691Y-533781D01*
G01X3726053Y-567817D02*
G01X3766185Y-567817D01*
G01X3796411Y-502793D02*
G01X3796411Y-567817D01*
G01X3796411Y-502793D02*
G01X3818001Y-502793D01*
G01X3827145Y-505841D01*
G01X3833495Y-511937D01*
G01X3836543Y-518287D01*
G01X3839591Y-527431D01*
G01X3839591Y-542925D01*
G01X3836543Y-552323D01*
G01X3833495Y-558419D01*
G01X3827145Y-564769D01*
G01X3818001Y-567817D01*
G01X3796411Y-567817D01*
G01X3875913Y-502793D02*
G01X3909949Y-502793D01*
G01X3891407Y-527431D01*
G01X3900551Y-527431D01*
G01X3906901Y-530479D01*
G01X3909949Y-533781D01*
G01X3912997Y-542925D01*
G01X3912997Y-549275D01*
G01X3909949Y-558419D01*
G01X3903853Y-564769D01*
G01X3894455Y-567817D01*
G01X3885057Y-567817D01*
G01X3875913Y-564769D01*
G01X3872865Y-561467D01*
G01X3869817Y-555371D01*
G01X4409730Y-1675765D02*
G01X4409730Y-1740789D01*
G01X4409730Y-1675765D02*
G01X4437670Y-1675765D01*
G01X4446814Y-1678813D01*
G01X4449862Y-1681861D01*
G01X4453164Y-1688211D01*
G01X4453164Y-1694307D01*
G01X4449862Y-1700403D01*
G01X4446814Y-1703451D01*
G01X4437670Y-1706753D01*
G01X4409730Y-1706753D01*
G01X4431320Y-1706753D02*
G01X4453164Y-1740789D01*
G01X4483390Y-1688211D02*
G01X4489486Y-1684909D01*
G01X4498630Y-1675765D01*
G01X4498630Y-1740789D01*
G01X4274820Y-2039366D02*
G01X4274820Y-2104390D01*
G01X4274820Y-2039366D02*
G01X4302760Y-2039366D01*
G01X4311904Y-2042414D01*
G01X4314952Y-2045462D01*
G01X4318254Y-2051812D01*
G01X4318254Y-2057908D01*
G01X4314952Y-2064004D01*
G01X4311904Y-2067052D01*
G01X4302760Y-2070354D01*
G01X4274820Y-2070354D01*
G01X4296410Y-2070354D02*
G01X4318254Y-2104390D01*
G01X4351528Y-2054860D02*
G01X4351528Y-2051812D01*
G01X4354576Y-2045462D01*
G01X4357624Y-2042414D01*
G01X4363720Y-2039366D01*
G01X4376166Y-2039366D01*
G01X4382516Y-2042414D01*
G01X4385564Y-2045462D01*
G01X4388612Y-2051812D01*
G01X4388612Y-2057908D01*
G01X4385564Y-2064004D01*
G01X4379214Y-2073402D01*
G01X4348480Y-2104390D01*
G01X4391660Y-2104390D01*
G01X4409730Y-2429913D02*
G01X4409730Y-2494937D01*
G01X4409730Y-2429913D02*
G01X4437670Y-2429913D01*
G01X4446814Y-2432961D01*
G01X4449862Y-2436009D01*
G01X4453164Y-2442359D01*
G01X4453164Y-2448455D01*
G01X4449862Y-2454551D01*
G01X4446814Y-2457599D01*
G01X4437670Y-2460901D01*
G01X4409730Y-2460901D01*
G01X4431320Y-2460901D02*
G01X4453164Y-2494937D01*
G01X4489486Y-2429913D02*
G01X4523522Y-2429913D01*
G01X4504980Y-2454551D01*
G01X4514124Y-2454551D01*
G01X4520474Y-2457599D01*
G01X4523522Y-2460901D01*
G01X4526570Y-2470045D01*
G01X4526570Y-2476395D01*
G01X4523522Y-2485539D01*
G01X4517426Y-2491889D01*
G01X4508028Y-2494937D01*
G01X4498630Y-2494937D01*
G01X4489486Y-2491889D01*
G01X4486438Y-2488587D01*
G01X4483390Y-2482491D01*
G01X5608320Y-5277866D02*
G01X5608320Y-5342890D01*
G01X5608320Y-5277866D02*
G01X5636260Y-5277866D01*
G01X5645404Y-5280914D01*
G01X5648452Y-5283962D01*
G01X5651754Y-5290312D01*
G01X5651754Y-5296408D01*
G01X5648452Y-5302504D01*
G01X5645404Y-5305552D01*
G01X5636260Y-5308854D01*
G01X5608320Y-5308854D01*
G01X5629910Y-5308854D02*
G01X5651754Y-5342890D01*
G01X5712714Y-5277866D02*
G01X5681980Y-5321046D01*
G01X5728208Y-5321046D01*
G01X5712714Y-5277866D02*
G01X5712714Y-5342890D01*
G01X5386487Y-5991337D02*
G01X5386487Y-6056361D01*
G01X5386487Y-5991337D02*
G01X5414427Y-5991337D01*
G01X5423571Y-5994385D01*
G01X5426619Y-5997433D01*
G01X5429921Y-6003783D01*
G01X5429921Y-6009879D01*
G01X5426619Y-6015975D01*
G01X5423571Y-6019023D01*
G01X5414427Y-6022325D01*
G01X5386487Y-6022325D01*
G01X5408077Y-6022325D02*
G01X5429921Y-6056361D01*
G01X5497231Y-5991337D02*
G01X5466243Y-5991337D01*
G01X5463195Y-6019023D01*
G01X5466243Y-6015975D01*
G01X5475387Y-6012927D01*
G01X5484785Y-6012927D01*
G01X5494183Y-6015975D01*
G01X5500279Y-6022325D01*
G01X5503327Y-6031469D01*
G01X5503327Y-6037819D01*
G01X5500279Y-6046963D01*
G01X5494183Y-6053313D01*
G01X5484785Y-6056361D01*
G01X5475387Y-6056361D01*
G01X5466243Y-6053313D01*
G01X5463195Y-6050011D01*
G01X5460147Y-6043915D01*
G01X4282730Y-2794286D02*
G01X4282730Y-2859310D01*
G01X4282730Y-2794286D02*
G01X4310670Y-2794286D01*
G01X4319814Y-2797334D01*
G01X4322862Y-2800382D01*
G01X4326164Y-2806732D01*
G01X4326164Y-2812828D01*
G01X4322862Y-2818924D01*
G01X4319814Y-2821972D01*
G01X4310670Y-2825274D01*
G01X4282730Y-2825274D01*
G01X4304320Y-2825274D02*
G01X4326164Y-2859310D01*
G01X4393474Y-2803430D02*
G01X4390426Y-2797334D01*
G01X4381028Y-2794286D01*
G01X4374932Y-2794286D01*
G01X4365534Y-2797334D01*
G01X4359438Y-2806732D01*
G01X4356390Y-2821972D01*
G01X4356390Y-2837466D01*
G01X4359438Y-2849912D01*
G01X4365534Y-2856262D01*
G01X4374932Y-2859310D01*
G01X4377980Y-2859310D01*
G01X4387124Y-2856262D01*
G01X4393474Y-2849912D01*
G01X4396522Y-2840768D01*
G01X4396522Y-2837466D01*
G01X4393474Y-2828322D01*
G01X4387124Y-2821972D01*
G01X4377980Y-2818924D01*
G01X4374932Y-2818924D01*
G01X4365534Y-2821972D01*
G01X4359438Y-2828322D01*
G01X4356390Y-2837466D01*
G01X4295430Y-3184060D02*
G01X4295430Y-3249084D01*
G01X4295430Y-3184060D02*
G01X4323370Y-3184060D01*
G01X4332514Y-3187108D01*
G01X4335562Y-3190156D01*
G01X4338864Y-3196506D01*
G01X4338864Y-3202602D01*
G01X4335562Y-3208698D01*
G01X4332514Y-3211746D01*
G01X4323370Y-3215048D01*
G01X4295430Y-3215048D01*
G01X4317020Y-3215048D02*
G01X4338864Y-3249084D01*
G01X4412270Y-3184060D02*
G01X4381282Y-3249084D01*
G01X4369090Y-3184060D02*
G01X4412270Y-3184060D01*
G01X4764187Y-5978637D02*
G01X4764187Y-6043661D01*
G01X4764187Y-5978637D02*
G01X4792127Y-5978637D01*
G01X4801271Y-5981685D01*
G01X4804319Y-5984733D01*
G01X4807621Y-5991083D01*
G01X4807621Y-5997179D01*
G01X4804319Y-6003275D01*
G01X4801271Y-6006323D01*
G01X4792127Y-6009625D01*
G01X4764187Y-6009625D01*
G01X4785777Y-6009625D02*
G01X4807621Y-6043661D01*
G01X4853087Y-5978637D02*
G01X4843943Y-5981685D01*
G01X4840895Y-5987781D01*
G01X4840895Y-5994131D01*
G01X4843943Y-6000227D01*
G01X4850039Y-6003275D01*
G01X4862485Y-6006323D01*
G01X4871883Y-6009625D01*
G01X4877979Y-6015721D01*
G01X4881027Y-6021817D01*
G01X4881027Y-6031215D01*
G01X4877979Y-6037311D01*
G01X4874931Y-6040613D01*
G01X4865533Y-6043661D01*
G01X4853087Y-6043661D01*
G01X4843943Y-6040613D01*
G01X4840895Y-6037311D01*
G01X4837847Y-6031215D01*
G01X4837847Y-6021817D01*
G01X4840895Y-6015721D01*
G01X4846991Y-6009625D01*
G01X4856389Y-6006323D01*
G01X4868581Y-6003275D01*
G01X4874931Y-6000227D01*
G01X4877979Y-5994131D01*
G01X4877979Y-5987781D01*
G01X4874931Y-5981685D01*
G01X4865533Y-5978637D01*
G01X4853087Y-5978637D01*
G01X502920Y-3959337D02*
G01X502920Y-4024361D01*
G01X502920Y-3959337D02*
G01X530860Y-3959337D01*
G01X540004Y-3962385D01*
G01X543052Y-3965433D01*
G01X546354Y-3971783D01*
G01X546354Y-3977879D01*
G01X543052Y-3983975D01*
G01X540004Y-3987023D01*
G01X530860Y-3990325D01*
G01X502920Y-3990325D01*
G01X524510Y-3990325D02*
G01X546354Y-4024361D01*
G01X616712Y-3980927D02*
G01X613664Y-3990325D01*
G01X607314Y-3996421D01*
G01X598170Y-3999469D01*
G01X595122Y-3999469D01*
G01X585724Y-3996421D01*
G01X579628Y-3990325D01*
G01X576580Y-3980927D01*
G01X576580Y-3977879D01*
G01X579628Y-3968481D01*
G01X585724Y-3962385D01*
G01X595122Y-3959337D01*
G01X598170Y-3959337D01*
G01X607314Y-3962385D01*
G01X613664Y-3968481D01*
G01X616712Y-3980927D01*
G01X616712Y-3996421D01*
G01X613664Y-4011915D01*
G01X607314Y-4021313D01*
G01X598170Y-4024361D01*
G01X591820Y-4024361D01*
G01X582676Y-4021313D01*
G01X579628Y-4014963D01*
G01X1176853Y-3959337D02*
G01X1176853Y-4024361D01*
G01X1176853Y-3959337D02*
G01X1204793Y-3959337D01*
G01X1213937Y-3962385D01*
G01X1216985Y-3965433D01*
G01X1220287Y-3971783D01*
G01X1220287Y-3977879D01*
G01X1216985Y-3983975D01*
G01X1213937Y-3987023D01*
G01X1204793Y-3990325D01*
G01X1176853Y-3990325D01*
G01X1198443Y-3990325D02*
G01X1220287Y-4024361D01*
G01X1250513Y-3971783D02*
G01X1256609Y-3968481D01*
G01X1265753Y-3959337D01*
G01X1265753Y-4024361D01*
G01X1314521Y-3959337D02*
G01X1305123Y-3962385D01*
G01X1299027Y-3971783D01*
G01X1295979Y-3987023D01*
G01X1295979Y-3996421D01*
G01X1299027Y-4011915D01*
G01X1305123Y-4021313D01*
G01X1314521Y-4024361D01*
G01X1320617Y-4024361D01*
G01X1330015Y-4021313D01*
G01X1336111Y-4011915D01*
G01X1339159Y-3996421D01*
G01X1339159Y-3987023D01*
G01X1336111Y-3971783D01*
G01X1330015Y-3962385D01*
G01X1320617Y-3959337D01*
G01X1314521Y-3959337D01*
G01X4332387Y-3743437D02*
G01X4332387Y-3808461D01*
G01X4332387Y-3743437D02*
G01X4360327Y-3743437D01*
G01X4369471Y-3746485D01*
G01X4372519Y-3749533D01*
G01X4375821Y-3755883D01*
G01X4375821Y-3761979D01*
G01X4372519Y-3768075D01*
G01X4369471Y-3771123D01*
G01X4360327Y-3774425D01*
G01X4332387Y-3774425D01*
G01X4353977Y-3774425D02*
G01X4375821Y-3808461D01*
G01X4406047Y-3755883D02*
G01X4412143Y-3752581D01*
G01X4421287Y-3743437D01*
G01X4421287Y-3808461D01*
G01X4457609Y-3743437D02*
G01X4491645Y-3743437D01*
G01X4473103Y-3768075D01*
G01X4482247Y-3768075D01*
G01X4488597Y-3771123D01*
G01X4491645Y-3774425D01*
G01X4494693Y-3783569D01*
G01X4494693Y-3789919D01*
G01X4491645Y-3799063D01*
G01X4485549Y-3805413D01*
G01X4476151Y-3808461D01*
G01X4466753Y-3808461D01*
G01X4457609Y-3805413D01*
G01X4454561Y-3802111D01*
G01X4451513Y-3796015D01*
G01X4706620Y-3753866D02*
G01X4706620Y-3818890D01*
G01X4706620Y-3753866D02*
G01X4734560Y-3753866D01*
G01X4743704Y-3756914D01*
G01X4746752Y-3759962D01*
G01X4750054Y-3766312D01*
G01X4750054Y-3772408D01*
G01X4746752Y-3778504D01*
G01X4743704Y-3781552D01*
G01X4734560Y-3784854D01*
G01X4706620Y-3784854D01*
G01X4728210Y-3784854D02*
G01X4750054Y-3818890D01*
G01X4780280Y-3766312D02*
G01X4786376Y-3763010D01*
G01X4795520Y-3753866D01*
G01X4795520Y-3818890D01*
G01X4856480Y-3753866D02*
G01X4825746Y-3797046D01*
G01X4871974Y-3797046D01*
G01X4856480Y-3753866D02*
G01X4856480Y-3818890D01*
G01X3083560Y-1127506D02*
G01X3083560Y-1192530D01*
G01X3083560Y-1127506D02*
G01X3111500Y-1127506D01*
G01X3120644Y-1130554D01*
G01X3123692Y-1133602D01*
G01X3126994Y-1139952D01*
G01X3126994Y-1146048D01*
G01X3123692Y-1152144D01*
G01X3120644Y-1155192D01*
G01X3111500Y-1158494D01*
G01X3083560Y-1158494D01*
G01X3105150Y-1158494D02*
G01X3126994Y-1192530D01*
G01X3200400Y-1136650D02*
G01X3194304Y-1130554D01*
G01X3184906Y-1127506D01*
G01X3172460Y-1127506D01*
G01X3163316Y-1130554D01*
G01X3157220Y-1136650D01*
G01X3157220Y-1143000D01*
G01X3160268Y-1149096D01*
G01X3163316Y-1152144D01*
G01X3169412Y-1155192D01*
G01X3187954Y-1161542D01*
G01X3194304Y-1164590D01*
G01X3197352Y-1167638D01*
G01X3200400Y-1173988D01*
G01X3200400Y-1183132D01*
G01X3194304Y-1189482D01*
G01X3184906Y-1192530D01*
G01X3172460Y-1192530D01*
G01X3163316Y-1189482D01*
G01X3157220Y-1183132D01*
G01X3252216Y-1127506D02*
G01X3252216Y-1192530D01*
G01X3230626Y-1127506D02*
G01X3273806Y-1127506D01*
G01X3304032Y-1139952D02*
G01X3310128Y-1136650D01*
G01X3319272Y-1127506D01*
G01X3319272Y-1192530D01*
G01X7957566Y-3776980D02*
G01X8022590Y-3776980D01*
G01X7957566Y-3776980D02*
G01X7957566Y-3749040D01*
G01X7960614Y-3739896D01*
G01X7963662Y-3736848D01*
G01X7970012Y-3733546D01*
G01X7979156Y-3733546D01*
G01X7985252Y-3736848D01*
G01X7988554Y-3739896D01*
G01X7991602Y-3749040D01*
G01X7991602Y-3776980D01*
G01X7957566Y-3678682D02*
G01X8022590Y-3703320D01*
G01X7957566Y-3678682D02*
G01X8022590Y-3653790D01*
G01X8000746Y-3694176D02*
G01X8000746Y-3663188D01*
G01X7957566Y-3623564D02*
G01X8022590Y-3623564D01*
G01X7957566Y-3623564D02*
G01X7957566Y-3595878D01*
G01X7960614Y-3586480D01*
G01X7963662Y-3583432D01*
G01X7970012Y-3580384D01*
G01X7976108Y-3580384D01*
G01X7982204Y-3583432D01*
G01X7985252Y-3586480D01*
G01X7988554Y-3595878D01*
G01X7988554Y-3623564D01*
G01X7988554Y-3601974D02*
G01X8022590Y-3580384D01*
G01X7957566Y-3550158D02*
G01X8022590Y-3550158D01*
G01X7957566Y-3506978D02*
G01X8000746Y-3550158D01*
G01X7985252Y-3534918D02*
G01X8022590Y-3506978D01*
G01X1858068Y-2725814D02*
G01X1858068Y-2772296D01*
G01X1861116Y-2781440D01*
G01X1867466Y-2787790D01*
G01X1876610Y-2790838D01*
G01X1882960Y-2790838D01*
G01X1892104Y-2787790D01*
G01X1898200Y-2781440D01*
G01X1901502Y-2772296D01*
G01X1901502Y-2725814D01*
G01X1931728Y-2738260D02*
G01X1937824Y-2734958D01*
G01X1946968Y-2725814D01*
G01X1946968Y-2790838D01*
G01X617220Y-3093466D02*
G01X617220Y-3139948D01*
G01X620268Y-3149092D01*
G01X626618Y-3155442D01*
G01X635762Y-3158490D01*
G01X642112Y-3158490D01*
G01X651256Y-3155442D01*
G01X657352Y-3149092D01*
G01X660654Y-3139948D01*
G01X660654Y-3093466D01*
G01X693928Y-3108960D02*
G01X693928Y-3105912D01*
G01X696976Y-3099562D01*
G01X700024Y-3096514D01*
G01X706120Y-3093466D01*
G01X718566Y-3093466D01*
G01X724916Y-3096514D01*
G01X727964Y-3099562D01*
G01X731012Y-3105912D01*
G01X731012Y-3112008D01*
G01X727964Y-3118104D01*
G01X721614Y-3127502D01*
G01X690880Y-3158490D01*
G01X734060Y-3158490D01*
G01X4490720Y-5112766D02*
G01X4490720Y-5159248D01*
G01X4493768Y-5168392D01*
G01X4500118Y-5174742D01*
G01X4509262Y-5177790D01*
G01X4515612Y-5177790D01*
G01X4524756Y-5174742D01*
G01X4530852Y-5168392D01*
G01X4534154Y-5159248D01*
G01X4534154Y-5112766D01*
G01X4595114Y-5112766D02*
G01X4564380Y-5155946D01*
G01X4610608Y-5155946D01*
G01X4595114Y-5112766D02*
G01X4595114Y-5177790D01*
G01X5261102Y-5293360D02*
G01X5258054Y-5287010D01*
G01X5251704Y-5280914D01*
G01X5245608Y-5277866D01*
G01X5233162Y-5277866D01*
G01X5227066Y-5280914D01*
G01X5220716Y-5287010D01*
G01X5217668Y-5293360D01*
G01X5214620Y-5302504D01*
G01X5214620Y-5317998D01*
G01X5217668Y-5327396D01*
G01X5220716Y-5333492D01*
G01X5227066Y-5339842D01*
G01X5233162Y-5342890D01*
G01X5245608Y-5342890D01*
G01X5251704Y-5339842D01*
G01X5258054Y-5333492D01*
G01X5261102Y-5327396D01*
G01X5328412Y-5277866D02*
G01X5297424Y-5277866D01*
G01X5294376Y-5305552D01*
G01X5297424Y-5302504D01*
G01X5306568Y-5299456D01*
G01X5315966Y-5299456D01*
G01X5325364Y-5302504D01*
G01X5331460Y-5308854D01*
G01X5334508Y-5317998D01*
G01X5334508Y-5324348D01*
G01X5331460Y-5333492D01*
G01X5325364Y-5339842D01*
G01X5315966Y-5342890D01*
G01X5306568Y-5342890D01*
G01X5297424Y-5339842D01*
G01X5294376Y-5336540D01*
G01X5291328Y-5330444D01*
G01X6699822Y-5296568D02*
G01X6699822Y-5361592D01*
G01X6743256Y-5296568D02*
G01X6699822Y-5339748D01*
G01X6715316Y-5324254D02*
G01X6743256Y-5361592D01*
G01X6773482Y-5309014D02*
G01X6779578Y-5305712D01*
G01X6788722Y-5296568D01*
G01X6788722Y-5361592D01*
G01X6661722Y-3696368D02*
G01X6661722Y-3761392D01*
G01X6705156Y-3696368D02*
G01X6661722Y-3739548D01*
G01X6677216Y-3724054D02*
G01X6705156Y-3761392D01*
G01X6741478Y-3696368D02*
G01X6775514Y-3696368D01*
G01X6756972Y-3721006D01*
G01X6766116Y-3721006D01*
G01X6772466Y-3724054D01*
G01X6775514Y-3727356D01*
G01X6778562Y-3736500D01*
G01X6778562Y-3742850D01*
G01X6775514Y-3751994D01*
G01X6769418Y-3758344D01*
G01X6760020Y-3761392D01*
G01X6750622Y-3761392D01*
G01X6741478Y-3758344D01*
G01X6738430Y-3755042D01*
G01X6735382Y-3748946D01*
G01X6661723Y-2108868D02*
G01X6661723Y-2173892D01*
G01X6705157Y-2108868D02*
G01X6661723Y-2152048D01*
G01X6677217Y-2136554D02*
G01X6705157Y-2173892D01*
G01X6738431Y-2124362D02*
G01X6738431Y-2121314D01*
G01X6741479Y-2114964D01*
G01X6744527Y-2111916D01*
G01X6750623Y-2108868D01*
G01X6763069Y-2108868D01*
G01X6769419Y-2111916D01*
G01X6772467Y-2114964D01*
G01X6775515Y-2121314D01*
G01X6775515Y-2127410D01*
G01X6772467Y-2133506D01*
G01X6766117Y-2142904D01*
G01X6735383Y-2173892D01*
G01X6778563Y-2173892D01*
G01X281496Y-6602031D02*
G01X275400Y-6608381D01*
G01X272352Y-6617525D01*
G01X272352Y-6629971D01*
G01X275400Y-6639369D01*
G01X281496Y-6645465D01*
G01X287846Y-6645465D01*
G01X293942Y-6642417D01*
G01X296990Y-6639369D01*
G01X300038Y-6633019D01*
G01X306388Y-6614477D01*
G01X309436Y-6608381D01*
G01X312484Y-6605333D01*
G01X318834Y-6602031D01*
G01X327978Y-6602031D01*
G01X334328Y-6608381D01*
G01X337376Y-6617525D01*
G01X337376Y-6629971D01*
G01X334328Y-6639369D01*
G01X327978Y-6645465D01*
G01X272352Y-6571805D02*
G01X337376Y-6571805D01*
G01X272352Y-6571805D02*
G01X337376Y-6528625D01*
G01X272352Y-6528625D02*
G01X337376Y-6528625D01*
G01X272352Y-6479857D02*
G01X275400Y-6486207D01*
G01X281496Y-6492303D01*
G01X287846Y-6495351D01*
G01X296990Y-6498399D01*
G01X312484Y-6498399D01*
G01X321882Y-6495351D01*
G01X327978Y-6492303D01*
G01X334328Y-6486207D01*
G01X337376Y-6479857D01*
G01X337376Y-6467665D01*
G01X334328Y-6461315D01*
G01X327978Y-6455219D01*
G01X321882Y-6452171D01*
G01X312484Y-6448869D01*
G01X296990Y-6448869D01*
G01X287846Y-6452171D01*
G01X281496Y-6455219D01*
G01X275400Y-6461315D01*
G01X272352Y-6467665D01*
G01X272352Y-6479857D01*
G01X272352Y-6418643D02*
G01X337376Y-6403403D01*
G01X272352Y-6387909D02*
G01X337376Y-6403403D01*
G01X272352Y-6387909D02*
G01X337376Y-6372415D01*
G01X272352Y-6356921D02*
G01X337376Y-6372415D01*
G01X1971802Y-683260D02*
G01X1968754Y-676910D01*
G01X1962404Y-670814D01*
G01X1956308Y-667766D01*
G01X1943862Y-667766D01*
G01X1937766Y-670814D01*
G01X1931416Y-676910D01*
G01X1928368Y-683260D01*
G01X1925320Y-692404D01*
G01X1925320Y-707898D01*
G01X1928368Y-717296D01*
G01X1931416Y-723392D01*
G01X1937766Y-729742D01*
G01X1943862Y-732790D01*
G01X1956308Y-732790D01*
G01X1962404Y-729742D01*
G01X1968754Y-723392D01*
G01X1971802Y-717296D01*
G01X2002028Y-680212D02*
G01X2008124Y-676910D01*
G01X2017268Y-667766D01*
G01X2017268Y-732790D01*
G01X1984502Y-1711960D02*
G01X1981454Y-1705610D01*
G01X1975104Y-1699514D01*
G01X1969008Y-1696466D01*
G01X1956562Y-1696466D01*
G01X1950466Y-1699514D01*
G01X1944116Y-1705610D01*
G01X1941068Y-1711960D01*
G01X1938020Y-1721104D01*
G01X1938020Y-1736598D01*
G01X1941068Y-1745996D01*
G01X1944116Y-1752092D01*
G01X1950466Y-1758442D01*
G01X1956562Y-1761490D01*
G01X1969008Y-1761490D01*
G01X1975104Y-1758442D01*
G01X1981454Y-1752092D01*
G01X1984502Y-1745996D01*
G01X2020824Y-1696466D02*
G01X2054860Y-1696466D01*
G01X2036318Y-1721104D01*
G01X2045462Y-1721104D01*
G01X2051812Y-1724152D01*
G01X2054860Y-1727454D01*
G01X2057908Y-1736598D01*
G01X2057908Y-1742948D01*
G01X2054860Y-1752092D01*
G01X2048764Y-1758442D01*
G01X2039366Y-1761490D01*
G01X2029968Y-1761490D01*
G01X2020824Y-1758442D01*
G01X2017776Y-1755140D01*
G01X2014728Y-1749044D01*
G01X8402066Y-3129280D02*
G01X8467090Y-3129280D01*
G01X8402066Y-3129280D02*
G01X8402066Y-3101340D01*
G01X8405114Y-3092196D01*
G01X8408162Y-3089148D01*
G01X8414512Y-3085846D01*
G01X8420608Y-3085846D01*
G01X8426704Y-3089148D01*
G01X8429752Y-3092196D01*
G01X8433054Y-3101340D01*
G01X8433054Y-3129280D01*
G01X8433054Y-3107690D02*
G01X8467090Y-3085846D01*
G01X8402066Y-3037078D02*
G01X8405114Y-3043428D01*
G01X8411210Y-3049524D01*
G01X8417560Y-3052572D01*
G01X8426704Y-3055620D01*
G01X8442198Y-3055620D01*
G01X8451596Y-3052572D01*
G01X8457692Y-3049524D01*
G01X8464042Y-3043428D01*
G01X8467090Y-3037078D01*
G01X8467090Y-3024886D01*
G01X8464042Y-3018536D01*
G01X8457692Y-3012440D01*
G01X8451596Y-3009392D01*
G01X8442198Y-3006090D01*
G01X8426704Y-3006090D01*
G01X8417560Y-3009392D01*
G01X8411210Y-3012440D01*
G01X8405114Y-3018536D01*
G01X8402066Y-3024886D01*
G01X8402066Y-3037078D01*
G01X8402066Y-2957322D02*
G01X8405114Y-2963672D01*
G01X8411210Y-2969768D01*
G01X8417560Y-2972816D01*
G01X8426704Y-2975864D01*
G01X8442198Y-2975864D01*
G01X8451596Y-2972816D01*
G01X8457692Y-2969768D01*
G01X8464042Y-2963672D01*
G01X8467090Y-2957322D01*
G01X8467090Y-2945130D01*
G01X8464042Y-2938780D01*
G01X8457692Y-2932684D01*
G01X8451596Y-2929636D01*
G01X8442198Y-2926334D01*
G01X8426704Y-2926334D01*
G01X8417560Y-2929636D01*
G01X8411210Y-2932684D01*
G01X8405114Y-2938780D01*
G01X8402066Y-2945130D01*
G01X8402066Y-2957322D01*
G01X8402066Y-2896108D02*
G01X8467090Y-2896108D01*
G01X8402066Y-2896108D02*
G01X8402066Y-2855976D01*
G01X8433054Y-2896108D02*
G01X8433054Y-2871470D01*
G01X8488680Y-2825750D02*
G01X8488680Y-2770124D01*
G01X8402066Y-2739898D02*
G01X8467090Y-2739898D01*
G01X8467090Y-2739898D02*
G01X8467090Y-2702814D01*
G01X8402066Y-2672588D02*
G01X8467090Y-2672588D01*
G01X8402066Y-2642362D02*
G01X8467090Y-2642362D01*
G01X8402066Y-2642362D02*
G01X8467090Y-2617724D01*
G01X8402066Y-2592832D02*
G01X8467090Y-2617724D01*
G01X8402066Y-2592832D02*
G01X8467090Y-2592832D01*
G01X8402066Y-2562606D02*
G01X8467090Y-2562606D01*
G01X8402066Y-2510790D02*
G01X8467090Y-2510790D01*
G01X8402066Y-2532380D02*
G01X8402066Y-2489200D01*
G01X8411210Y-2415794D02*
G01X8405114Y-2421890D01*
G01X8402066Y-2431288D01*
G01X8402066Y-2443734D01*
G01X8405114Y-2452878D01*
G01X8411210Y-2458974D01*
G01X8417560Y-2458974D01*
G01X8423656Y-2455926D01*
G01X8426704Y-2452878D01*
G01X8429752Y-2446782D01*
G01X8436102Y-2428240D01*
G01X8439150Y-2421890D01*
G01X8442198Y-2418842D01*
G01X8448548Y-2415794D01*
G01X8457692Y-2415794D01*
G01X8464042Y-2421890D01*
G01X8467090Y-2431288D01*
G01X8467090Y-2443734D01*
G01X8464042Y-2452878D01*
G01X8457692Y-2458974D01*
G01X8427466Y-6494780D02*
G01X8492490Y-6494780D01*
G01X8427466Y-6494780D02*
G01X8427466Y-6466840D01*
G01X8430514Y-6457696D01*
G01X8433562Y-6454648D01*
G01X8439912Y-6451346D01*
G01X8446008Y-6451346D01*
G01X8452104Y-6454648D01*
G01X8455152Y-6457696D01*
G01X8458454Y-6466840D01*
G01X8458454Y-6494780D01*
G01X8458454Y-6473190D02*
G01X8492490Y-6451346D01*
G01X8427466Y-6402578D02*
G01X8430514Y-6408928D01*
G01X8436610Y-6415024D01*
G01X8442960Y-6418072D01*
G01X8452104Y-6421120D01*
G01X8467598Y-6421120D01*
G01X8476996Y-6418072D01*
G01X8483092Y-6415024D01*
G01X8489442Y-6408928D01*
G01X8492490Y-6402578D01*
G01X8492490Y-6390386D01*
G01X8489442Y-6384036D01*
G01X8483092Y-6377940D01*
G01X8476996Y-6374892D01*
G01X8467598Y-6371590D01*
G01X8452104Y-6371590D01*
G01X8442960Y-6374892D01*
G01X8436610Y-6377940D01*
G01X8430514Y-6384036D01*
G01X8427466Y-6390386D01*
G01X8427466Y-6402578D01*
G01X8427466Y-6322822D02*
G01X8430514Y-6329172D01*
G01X8436610Y-6335268D01*
G01X8442960Y-6338316D01*
G01X8452104Y-6341364D01*
G01X8467598Y-6341364D01*
G01X8476996Y-6338316D01*
G01X8483092Y-6335268D01*
G01X8489442Y-6329172D01*
G01X8492490Y-6322822D01*
G01X8492490Y-6310630D01*
G01X8489442Y-6304280D01*
G01X8483092Y-6298184D01*
G01X8476996Y-6295136D01*
G01X8467598Y-6291834D01*
G01X8452104Y-6291834D01*
G01X8442960Y-6295136D01*
G01X8436610Y-6298184D01*
G01X8430514Y-6304280D01*
G01X8427466Y-6310630D01*
G01X8427466Y-6322822D01*
G01X8427466Y-6261608D02*
G01X8492490Y-6261608D01*
G01X8427466Y-6261608D02*
G01X8427466Y-6221476D01*
G01X8458454Y-6261608D02*
G01X8458454Y-6236970D01*
G01X8514080Y-6191250D02*
G01X8514080Y-6135624D01*
G01X8427466Y-6086856D02*
G01X8430514Y-6093206D01*
G01X8436610Y-6099302D01*
G01X8442960Y-6102350D01*
G01X8452104Y-6105398D01*
G01X8467598Y-6105398D01*
G01X8476996Y-6102350D01*
G01X8483092Y-6099302D01*
G01X8489442Y-6093206D01*
G01X8492490Y-6086856D01*
G01X8492490Y-6074664D01*
G01X8489442Y-6068314D01*
G01X8483092Y-6062218D01*
G01X8476996Y-6059170D01*
G01X8467598Y-6055868D01*
G01X8452104Y-6055868D01*
G01X8442960Y-6059170D01*
G01X8436610Y-6062218D01*
G01X8430514Y-6068314D01*
G01X8427466Y-6074664D01*
G01X8427466Y-6086856D01*
G01X8427466Y-6025642D02*
G01X8492490Y-6025642D01*
G01X8427466Y-6025642D02*
G01X8427466Y-5997956D01*
G01X8430514Y-5988558D01*
G01X8433562Y-5985510D01*
G01X8439912Y-5982462D01*
G01X8449056Y-5982462D01*
G01X8455152Y-5985510D01*
G01X8458454Y-5988558D01*
G01X8461502Y-5997956D01*
G01X8461502Y-6025642D01*
G01X8427466Y-5952236D02*
G01X8492490Y-5952236D01*
G01X8427466Y-5952236D02*
G01X8427466Y-5912104D01*
G01X8458454Y-5952236D02*
G01X8458454Y-5927598D01*
G01X8492490Y-5952236D02*
G01X8492490Y-5912104D01*
G01X8427466Y-5881878D02*
G01X8492490Y-5881878D01*
G01X8427466Y-5881878D02*
G01X8492490Y-5838698D01*
G01X8427466Y-5838698D02*
G01X8492490Y-5838698D01*
G01X8427466Y-5808472D02*
G01X8492490Y-5808472D01*
G01X8427466Y-5808472D02*
G01X8427466Y-5768340D01*
G01X8458454Y-5808472D02*
G01X8458454Y-5783834D01*
G01X8492490Y-5808472D02*
G01X8492490Y-5768340D01*
G01X8427466Y-5738114D02*
G01X8492490Y-5738114D01*
G01X8427466Y-5738114D02*
G01X8427466Y-5710428D01*
G01X8430514Y-5701030D01*
G01X8433562Y-5697982D01*
G01X8439912Y-5694934D01*
G01X8446008Y-5694934D01*
G01X8452104Y-5697982D01*
G01X8455152Y-5701030D01*
G01X8458454Y-5710428D01*
G01X8458454Y-5738114D01*
G01X8458454Y-5716524D02*
G01X8492490Y-5694934D01*
G01X6840220Y-6535166D02*
G01X6840220Y-6600190D01*
G01X6873494Y-6550660D02*
G01X6873494Y-6547612D01*
G01X6876542Y-6541262D01*
G01X6879590Y-6538214D01*
G01X6885686Y-6535166D01*
G01X6898132Y-6535166D01*
G01X6904482Y-6538214D01*
G01X6907530Y-6541262D01*
G01X6910578Y-6547612D01*
G01X6910578Y-6553708D01*
G01X6907530Y-6559804D01*
G01X6901180Y-6569202D01*
G01X6870446Y-6600190D01*
G01X6913626Y-6600190D01*
G01X6990080Y-6550660D02*
G01X6987032Y-6544310D01*
G01X6980936Y-6538214D01*
G01X6974586Y-6535166D01*
G01X6962394Y-6535166D01*
G01X6956044Y-6538214D01*
G01X6949948Y-6544310D01*
G01X6946900Y-6550660D01*
G01X6943852Y-6559804D01*
G01X6943852Y-6575298D01*
G01X6946900Y-6584696D01*
G01X6949948Y-6590792D01*
G01X6956044Y-6597142D01*
G01X6962394Y-6600190D01*
G01X6974586Y-6600190D01*
G01X6980936Y-6597142D01*
G01X6987032Y-6590792D01*
G01X6990080Y-6584696D01*
G01X7020306Y-6572250D02*
G01X7075932Y-6572250D01*
G01X7106158Y-6535166D02*
G01X7106158Y-6600190D01*
G01X7106158Y-6535166D02*
G01X7146290Y-6535166D01*
G01X7106158Y-6566154D02*
G01X7130796Y-6566154D01*
G01X7106158Y-6600190D02*
G01X7146290Y-6600190D01*
G01X7176516Y-6535166D02*
G01X7219696Y-6600190D01*
G01X7219696Y-6535166D02*
G01X7176516Y-6600190D01*
G01X7271512Y-6535166D02*
G01X7271512Y-6600190D01*
G01X7249922Y-6535166D02*
G01X7293102Y-6535166D01*
G01X502920Y-4376166D02*
G01X502920Y-4441190D01*
G01X533146Y-4376166D02*
G01X533146Y-4441190D01*
G01X533146Y-4376166D02*
G01X576326Y-4441190D01*
G01X576326Y-4376166D02*
G01X576326Y-4441190D01*
G01X606552Y-4376166D02*
G01X631190Y-4441190D01*
G01X656082Y-4376166D02*
G01X631190Y-4441190D01*
G01X686308Y-4376166D02*
G01X686308Y-4441190D01*
G01X686308Y-4376166D02*
G01X726440Y-4376166D01*
G01X686308Y-4407154D02*
G01X710946Y-4407154D01*
G01X686308Y-4441190D02*
G01X726440Y-4441190D01*
G01X756666Y-4376166D02*
G01X756666Y-4441190D01*
G01X756666Y-4376166D02*
G01X784352Y-4376166D01*
G01X793750Y-4379214D01*
G01X796798Y-4382262D01*
G01X799846Y-4388612D01*
G01X799846Y-4394708D01*
G01X796798Y-4400804D01*
G01X793750Y-4403852D01*
G01X784352Y-4407154D01*
G01X756666Y-4407154D01*
G01X778256Y-4407154D02*
G01X799846Y-4441190D01*
G01X851662Y-4376166D02*
G01X851662Y-4441190D01*
G01X830072Y-4376166D02*
G01X873252Y-4376166D01*
G01X903478Y-4376166D02*
G01X903478Y-4441190D01*
G01X903478Y-4376166D02*
G01X943610Y-4376166D01*
G01X903478Y-4407154D02*
G01X928116Y-4407154D01*
G01X903478Y-4441190D02*
G01X943610Y-4441190D01*
G01X973836Y-4376166D02*
G01X973836Y-4441190D01*
G01X973836Y-4376166D02*
G01X1001522Y-4376166D01*
G01X1010920Y-4379214D01*
G01X1013968Y-4382262D01*
G01X1017016Y-4388612D01*
G01X1017016Y-4394708D01*
G01X1013968Y-4400804D01*
G01X1010920Y-4403852D01*
G01X1001522Y-4407154D01*
G01X973836Y-4407154D01*
G01X995426Y-4407154D02*
G01X1017016Y-4441190D01*
G01X1518920Y-4325366D02*
G01X1518920Y-4390390D01*
G01X1518920Y-4325366D02*
G01X1540510Y-4325366D01*
G01X1549908Y-4328414D01*
G01X1556004Y-4334510D01*
G01X1559052Y-4340860D01*
G01X1562354Y-4350004D01*
G01X1562354Y-4365498D01*
G01X1559052Y-4374896D01*
G01X1556004Y-4380992D01*
G01X1549908Y-4387342D01*
G01X1540510Y-4390390D01*
G01X1518920Y-4390390D01*
G01X1629664Y-4334510D02*
G01X1626616Y-4328414D01*
G01X1617218Y-4325366D01*
G01X1611122Y-4325366D01*
G01X1601724Y-4328414D01*
G01X1595628Y-4337812D01*
G01X1592580Y-4353052D01*
G01X1592580Y-4368546D01*
G01X1595628Y-4380992D01*
G01X1601724Y-4387342D01*
G01X1611122Y-4390390D01*
G01X1614170Y-4390390D01*
G01X1623314Y-4387342D01*
G01X1629664Y-4380992D01*
G01X1632712Y-4371848D01*
G01X1632712Y-4368546D01*
G01X1629664Y-4359402D01*
G01X1623314Y-4353052D01*
G01X1614170Y-4350004D01*
G01X1611122Y-4350004D01*
G01X1601724Y-4353052D01*
G01X1595628Y-4359402D01*
G01X1592580Y-4368546D01*
G01X6878320Y-1620266D02*
G01X6878320Y-1685290D01*
G01X6878320Y-1620266D02*
G01X6899910Y-1620266D01*
G01X6909308Y-1623314D01*
G01X6915404Y-1629410D01*
G01X6918452Y-1635760D01*
G01X6921754Y-1644904D01*
G01X6921754Y-1660398D01*
G01X6918452Y-1669796D01*
G01X6915404Y-1675892D01*
G01X6909308Y-1682242D01*
G01X6899910Y-1685290D01*
G01X6878320Y-1685290D01*
G01X6958076Y-1620266D02*
G01X6992112Y-1620266D01*
G01X6973570Y-1644904D01*
G01X6982714Y-1644904D01*
G01X6989064Y-1647952D01*
G01X6992112Y-1651254D01*
G01X6995160Y-1660398D01*
G01X6995160Y-1666748D01*
G01X6992112Y-1675892D01*
G01X6986016Y-1682242D01*
G01X6976618Y-1685290D01*
G01X6967220Y-1685290D01*
G01X6958076Y-1682242D01*
G01X6955028Y-1678940D01*
G01X6951980Y-1672844D01*
G01X8186166Y-6037580D02*
G01X8251190Y-6037580D01*
G01X8186166Y-6007354D02*
G01X8251190Y-6007354D01*
G01X8186166Y-6007354D02*
G01X8251190Y-5964174D01*
G01X8186166Y-5964174D02*
G01X8251190Y-5964174D01*
G01X8186166Y-5933948D02*
G01X8251190Y-5909310D01*
G01X8186166Y-5884418D02*
G01X8251190Y-5909310D01*
G01X8272780Y-5854192D02*
G01X8272780Y-5798566D01*
G01X8186166Y-5768340D02*
G01X8251190Y-5768340D01*
G01X8186166Y-5768340D02*
G01X8186166Y-5740654D01*
G01X8189214Y-5731256D01*
G01X8192262Y-5728208D01*
G01X8198612Y-5725160D01*
G01X8204708Y-5725160D01*
G01X8210804Y-5728208D01*
G01X8213852Y-5731256D01*
G01X8217154Y-5740654D01*
G01X8217154Y-5768340D01*
G01X8217154Y-5746750D02*
G01X8251190Y-5725160D01*
G01X8186166Y-5694934D02*
G01X8251190Y-5694934D01*
G01X8251190Y-5694934D02*
G01X8251190Y-5657850D01*
G01X8186166Y-5627624D02*
G01X8217154Y-5602986D01*
G01X8251190Y-5602986D01*
G01X8186166Y-5578094D02*
G01X8217154Y-5602986D01*
G01X8186166Y-4411980D02*
G01X8251190Y-4411980D01*
G01X8186166Y-4381754D02*
G01X8251190Y-4381754D01*
G01X8186166Y-4381754D02*
G01X8251190Y-4338574D01*
G01X8186166Y-4338574D02*
G01X8251190Y-4338574D01*
G01X8186166Y-4308348D02*
G01X8251190Y-4283710D01*
G01X8186166Y-4258818D02*
G01X8251190Y-4283710D01*
G01X8272780Y-4228592D02*
G01X8272780Y-4172966D01*
G01X8186166Y-4121150D02*
G01X8251190Y-4121150D01*
G01X8186166Y-4142740D02*
G01X8186166Y-4099560D01*
G01X8201660Y-4023106D02*
G01X8195310Y-4026154D01*
G01X8189214Y-4032250D01*
G01X8186166Y-4038600D01*
G01X8186166Y-4050792D01*
G01X8189214Y-4057142D01*
G01X8195310Y-4063238D01*
G01X8201660Y-4066286D01*
G01X8210804Y-4069334D01*
G01X8226298Y-4069334D01*
G01X8235696Y-4066286D01*
G01X8241792Y-4063238D01*
G01X8248142Y-4057142D01*
G01X8251190Y-4050792D01*
G01X8251190Y-4038600D01*
G01X8248142Y-4032250D01*
G01X8241792Y-4026154D01*
G01X8235696Y-4023106D01*
G01X8226298Y-4023106D01*
G01X8226298Y-4038600D02*
G01X8226298Y-4023106D01*
G01X8186166Y-3992880D02*
G01X8251190Y-3992880D01*
G01X8251190Y-3992880D02*
G01X8251190Y-3955796D01*
G01X8170926Y-2776982D02*
G01X8173974Y-2783078D01*
G01X8180070Y-2789428D01*
G01X8186420Y-2792476D01*
G01X8195564Y-2795524D01*
G01X8211058Y-2795524D01*
G01X8220456Y-2792476D01*
G01X8226552Y-2789428D01*
G01X8232902Y-2783078D01*
G01X8235950Y-2776982D01*
G01X8235950Y-2764536D01*
G01X8232902Y-2758440D01*
G01X8226552Y-2752090D01*
G01X8220456Y-2749042D01*
G01X8211058Y-2745994D01*
G01X8195564Y-2745994D01*
G01X8186420Y-2749042D01*
G01X8180070Y-2752090D01*
G01X8173974Y-2758440D01*
G01X8170926Y-2764536D01*
G01X8170926Y-2776982D01*
G01X8170926Y-2715768D02*
G01X8235950Y-2715768D01*
G01X8170926Y-2715768D02*
G01X8170926Y-2688082D01*
G01X8173974Y-2678684D01*
G01X8177022Y-2675636D01*
G01X8183372Y-2672588D01*
G01X8192516Y-2672588D01*
G01X8198612Y-2675636D01*
G01X8201914Y-2678684D01*
G01X8204962Y-2688082D01*
G01X8204962Y-2715768D01*
G01X8170926Y-2642362D02*
G01X8235950Y-2642362D01*
G01X8170926Y-2642362D02*
G01X8170926Y-2602230D01*
G01X8201914Y-2642362D02*
G01X8201914Y-2617724D01*
G01X8235950Y-2642362D02*
G01X8235950Y-2602230D01*
G01X8170926Y-2572004D02*
G01X8235950Y-2572004D01*
G01X8170926Y-2572004D02*
G01X8235950Y-2528824D01*
G01X8170926Y-2528824D02*
G01X8235950Y-2528824D01*
G01X8170926Y-2498598D02*
G01X8235950Y-2498598D01*
G01X8170926Y-2498598D02*
G01X8170926Y-2458466D01*
G01X8201914Y-2498598D02*
G01X8201914Y-2473960D01*
G01X8235950Y-2498598D02*
G01X8235950Y-2458466D01*
G01X8170926Y-2428240D02*
G01X8235950Y-2428240D01*
G01X8170926Y-2428240D02*
G01X8170926Y-2400554D01*
G01X8173974Y-2391156D01*
G01X8177022Y-2388108D01*
G01X8183372Y-2385060D01*
G01X8189468Y-2385060D01*
G01X8195564Y-2388108D01*
G01X8198612Y-2391156D01*
G01X8201914Y-2400554D01*
G01X8201914Y-2428240D01*
G01X8201914Y-2406650D02*
G01X8235950Y-2385060D01*
G01X8427466Y-4348480D02*
G01X8492490Y-4348480D01*
G01X8427466Y-4348480D02*
G01X8427466Y-4320540D01*
G01X8430514Y-4311396D01*
G01X8433562Y-4308348D01*
G01X8439912Y-4305046D01*
G01X8449056Y-4305046D01*
G01X8455152Y-4308348D01*
G01X8458454Y-4311396D01*
G01X8461502Y-4320540D01*
G01X8461502Y-4348480D01*
G01X8427466Y-4250182D02*
G01X8492490Y-4274820D01*
G01X8427466Y-4250182D02*
G01X8492490Y-4225290D01*
G01X8470646Y-4265676D02*
G01X8470646Y-4234688D01*
G01X8427466Y-4195064D02*
G01X8492490Y-4195064D01*
G01X8427466Y-4195064D02*
G01X8427466Y-4167378D01*
G01X8430514Y-4157980D01*
G01X8433562Y-4154932D01*
G01X8439912Y-4151884D01*
G01X8446008Y-4151884D01*
G01X8452104Y-4154932D01*
G01X8455152Y-4157980D01*
G01X8458454Y-4167378D01*
G01X8458454Y-4195064D01*
G01X8458454Y-4173474D02*
G01X8492490Y-4151884D01*
G01X8427466Y-4121658D02*
G01X8492490Y-4121658D01*
G01X8427466Y-4078478D02*
G01X8470646Y-4121658D01*
G01X8455152Y-4106418D02*
G01X8492490Y-4078478D01*
G01X8514080Y-4048252D02*
G01X8514080Y-3992626D01*
G01X8436610Y-3919220D02*
G01X8430514Y-3925316D01*
G01X8427466Y-3934714D01*
G01X8427466Y-3947160D01*
G01X8430514Y-3956304D01*
G01X8436610Y-3962400D01*
G01X8442960Y-3962400D01*
G01X8449056Y-3959352D01*
G01X8452104Y-3956304D01*
G01X8455152Y-3950208D01*
G01X8461502Y-3931666D01*
G01X8464550Y-3925316D01*
G01X8467598Y-3922268D01*
G01X8473948Y-3919220D01*
G01X8483092Y-3919220D01*
G01X8489442Y-3925316D01*
G01X8492490Y-3934714D01*
G01X8492490Y-3947160D01*
G01X8489442Y-3956304D01*
G01X8483092Y-3962400D01*
G01X8427466Y-3888994D02*
G01X8492490Y-3888994D01*
G01X8427466Y-3888994D02*
G01X8427466Y-3848862D01*
G01X8458454Y-3888994D02*
G01X8458454Y-3864356D01*
G01X8492490Y-3888994D02*
G01X8492490Y-3848862D01*
G01X8427466Y-3818636D02*
G01X8492490Y-3818636D01*
G01X8427466Y-3818636D02*
G01X8492490Y-3775456D01*
G01X8427466Y-3775456D02*
G01X8492490Y-3775456D01*
G01X8436610Y-3702050D02*
G01X8430514Y-3708146D01*
G01X8427466Y-3717544D01*
G01X8427466Y-3729990D01*
G01X8430514Y-3739134D01*
G01X8436610Y-3745230D01*
G01X8442960Y-3745230D01*
G01X8449056Y-3742182D01*
G01X8452104Y-3739134D01*
G01X8455152Y-3733038D01*
G01X8461502Y-3714496D01*
G01X8464550Y-3708146D01*
G01X8467598Y-3705098D01*
G01X8473948Y-3702050D01*
G01X8483092Y-3702050D01*
G01X8489442Y-3708146D01*
G01X8492490Y-3717544D01*
G01X8492490Y-3729990D01*
G01X8489442Y-3739134D01*
G01X8483092Y-3745230D01*
G01X8427466Y-3653282D02*
G01X8430514Y-3659632D01*
G01X8436610Y-3665728D01*
G01X8442960Y-3668776D01*
G01X8452104Y-3671824D01*
G01X8467598Y-3671824D01*
G01X8476996Y-3668776D01*
G01X8483092Y-3665728D01*
G01X8489442Y-3659632D01*
G01X8492490Y-3653282D01*
G01X8492490Y-3641090D01*
G01X8489442Y-3634740D01*
G01X8483092Y-3628644D01*
G01X8476996Y-3625596D01*
G01X8467598Y-3622294D01*
G01X8452104Y-3622294D01*
G01X8442960Y-3625596D01*
G01X8436610Y-3628644D01*
G01X8430514Y-3634740D01*
G01X8427466Y-3641090D01*
G01X8427466Y-3653282D01*
G01X8427466Y-3592068D02*
G01X8492490Y-3592068D01*
G01X8427466Y-3592068D02*
G01X8427466Y-3564382D01*
G01X8430514Y-3554984D01*
G01X8433562Y-3551936D01*
G01X8439912Y-3548888D01*
G01X8446008Y-3548888D01*
G01X8452104Y-3551936D01*
G01X8455152Y-3554984D01*
G01X8458454Y-3564382D01*
G01X8458454Y-3592068D01*
G01X8458454Y-3570478D02*
G01X8492490Y-3548888D01*
G01X8920734Y-363220D02*
G01X8855710Y-363220D01*
G01X8920734Y-363220D02*
G01X8920734Y-391160D01*
G01X8917686Y-400304D01*
G01X8914638Y-403352D01*
G01X8908288Y-406654D01*
G01X8902192Y-406654D01*
G01X8896096Y-403352D01*
G01X8893048Y-400304D01*
G01X8889746Y-391160D01*
G01X8889746Y-363220D01*
G01X8889746Y-384810D02*
G01X8855710Y-406654D01*
G01X8905240Y-483108D02*
G01X8911590Y-480060D01*
G01X8917686Y-473964D01*
G01X8920734Y-467614D01*
G01X8920734Y-455422D01*
G01X8917686Y-449072D01*
G01X8911590Y-442976D01*
G01X8905240Y-439928D01*
G01X8896096Y-436880D01*
G01X8880602Y-436880D01*
G01X8871204Y-439928D01*
G01X8865108Y-442976D01*
G01X8858758Y-449072D01*
G01X8855710Y-455422D01*
G01X8855710Y-467614D01*
G01X8858758Y-473964D01*
G01X8865108Y-480060D01*
G01X8871204Y-483108D01*
G01X8880602Y-483108D01*
G01X8880602Y-467614D02*
G01X8880602Y-483108D01*
G01X8899144Y-553466D02*
G01X8889746Y-550418D01*
G01X8883650Y-544068D01*
G01X8880602Y-534924D01*
G01X8880602Y-531876D01*
G01X8883650Y-522478D01*
G01X8889746Y-516382D01*
G01X8899144Y-513334D01*
G01X8902192Y-513334D01*
G01X8911590Y-516382D01*
G01X8917686Y-522478D01*
G01X8920734Y-531876D01*
G01X8920734Y-534924D01*
G01X8917686Y-544068D01*
G01X8911590Y-550418D01*
G01X8899144Y-553466D01*
G01X8883650Y-553466D01*
G01X8868156Y-550418D01*
G01X8858758Y-544068D01*
G01X8855710Y-534924D01*
G01X8855710Y-528574D01*
G01X8858758Y-519430D01*
G01X8865108Y-516382D01*
G01X8834120Y-583692D02*
G01X8834120Y-639318D01*
G01X8920734Y-669544D02*
G01X8855710Y-669544D01*
G01X8920734Y-669544D02*
G01X8920734Y-697230D01*
G01X8917686Y-706628D01*
G01X8914638Y-709676D01*
G01X8908288Y-712724D01*
G01X8902192Y-712724D01*
G01X8896096Y-709676D01*
G01X8893048Y-706628D01*
G01X8889746Y-697230D01*
G01X8889746Y-669544D01*
G01X8889746Y-691134D02*
G01X8855710Y-712724D01*
G01X8920734Y-767588D02*
G01X8855710Y-742950D01*
G01X8920734Y-767588D02*
G01X8855710Y-792480D01*
G01X8877554Y-752094D02*
G01X8877554Y-783082D01*
G01X8920734Y-822706D02*
G01X8855710Y-822706D01*
G01X8920734Y-852932D02*
G01X8855710Y-852932D01*
G01X8920734Y-852932D02*
G01X8855710Y-896112D01*
G01X8920734Y-896112D02*
G01X8855710Y-896112D01*
G04 Text End*

G04 PolygonModel Start*
G01X1624140Y-2981180D02*
G01X1624140Y-3122181D01*
G01X1804861Y-3122181D02*
G01X1804861Y-2981180D01*
G01X1789621Y-2965940D02*
G01X1639380Y-2965940D01*
G01X1624140Y-3343420D02*
G01X1624140Y-3202419D01*
G01X1804861Y-3202419D02*
G01X1804861Y-3343420D01*
G01X1789621Y-3358660D02*
G01X1639380Y-3358660D01*
G01X1804861Y-2981180D02*
G03X1789621Y-2965940I-15240J0D01*
G01X1639380Y-2965940D02*
G03X1624140Y-2981180I0J-15240D01*
G01X1804861Y-3343420D02*
G02X1789621Y-3358660I-15240J0D01*
G01X1639380Y-3358660D02*
G02X1624140Y-3343420I0J15240D01*
G01X3092080Y-2942105D02*
G01X3092080Y-3083105D01*
G01X3272801Y-3083105D02*
G01X3272801Y-2942105D01*
G01X3257561Y-2926865D02*
G01X3107320Y-2926865D01*
G01X3092080Y-3304344D02*
G01X3092080Y-3163344D01*
G01X3272801Y-3163344D02*
G01X3272801Y-3304344D01*
G01X3257561Y-3319584D02*
G01X3107320Y-3319584D01*
G01X3272801Y-2942105D02*
G03X3257561Y-2926865I-15240J0D01*
G01X3107320Y-2926865D02*
G03X3092080Y-2942105I0J-15240D01*
G01X3272801Y-3304344D02*
G02X3257561Y-3319584I-15240J0D01*
G01X3107320Y-3319584D02*
G02X3092080Y-3304344I0J15240D01*
G54D12*
G01X1783601Y-851586D02*
G01X1766217Y-851586D01*
G01X1783601Y-1002614D02*
G01X1766217Y-1002614D01*
G01X1783601Y-1002614D02*
G01X1783601Y-1013719D01*
G01X1783601Y-1013719D02*
G01X1766217Y-1013719D01*
G01X1766217Y-840481D02*
G01X1783601Y-840481D01*
G01X1783601Y-840481D02*
G01X1783601Y-851586D01*
G01X1766217Y-851586D02*
G01X1766217Y-840481D01*
G01X1766217Y-1013719D02*
G01X1766217Y-1002614D01*
G01X1708313Y-1013719D02*
G01X1708313Y-840481D01*
G54D11*
G01X1722600Y-1013719D02*
G01X1722600Y-840481D01*
G01X1766217Y-1013719D02*
G01X1484983Y-1013719D01*
G01X1484983Y-1013719D02*
G01X1484983Y-996920D01*
G01X1766217Y-840481D02*
G01X1484983Y-840481D01*
G01X1484983Y-840481D02*
G01X1484983Y-857280D01*
G54D13*
G01X7157999Y-5181600D02*
G01X7157999Y-4978400D01*
G54D14*
G01X7500899Y-5194300D02*
G01X7100900Y-5194300D01*
G01X7100900Y-4974311D01*
G01X7500899Y-4974311D01*
G01X7500899Y-5194300D01*
G54D13*
G01X7107198Y-3581400D02*
G01X7107198Y-3378200D01*
G54D14*
G01X7450098Y-3594100D02*
G01X7050099Y-3594100D01*
G01X7050099Y-3374111D01*
G01X7450098Y-3374111D01*
G01X7450098Y-3594100D01*
G54D13*
G01X4870597Y-4483194D02*
G01X4870597Y-4569595D01*
G01X4870597Y-4569595D02*
G01X4770595Y-4569595D01*
G01X4730598Y-4388198D02*
G01X4730598Y-4450992D01*
G01X4870597Y-4269595D02*
G01X4870597Y-4355996D01*
G01X4870597Y-4269595D02*
G01X4770595Y-4269595D01*
G54D11*
G01X974181Y-817839D02*
G01X855170Y-817839D01*
G01X1159421Y-817839D02*
G01X1278430Y-817839D01*
G01X839930Y-833079D02*
G01X839930Y-1021121D01*
G01X1293670Y-833079D02*
G01X1293670Y-1021121D01*
G01X855170Y-1036361D02*
G01X974181Y-1036361D01*
G01X1278430Y-1036361D02*
G01X1159421Y-1036361D01*
G54D15*
G01X1066800Y-927100D02*
G02X1066800Y-842604I73175J42248D01*
G01X1066800Y-927100D02*
G02X1066800Y-1011596I-73175J-42248D01*
G54D13*
G01X4061996Y-1131001D02*
G01X4061996Y-6742999D01*
G01X4061996Y-1387805D02*
G01X3811999Y-1387805D01*
G01X3811999Y-1131001D02*
G01X4061996Y-1131001D01*
G01X3811996Y-1131001D02*
G01X3811996Y-6742999D01*
G01X3811999Y-6742999D02*
G01X4061996Y-6742999D01*
G01X6601996Y-1131001D02*
G01X6601996Y-6742999D01*
G01X6601996Y-1387805D02*
G01X6351999Y-1387805D01*
G01X6351999Y-1131001D02*
G01X6601996Y-1131001D01*
G01X6351996Y-1131001D02*
G01X6351996Y-6742999D01*
G01X6351999Y-6742999D02*
G01X6601996Y-6742999D01*
G54D10*
G01X2476500Y-4813300D02*
G01X2476500Y-4622800D01*
G01X2476500Y-4622800D02*
G01X2222500Y-4622800D01*
G01X2222500Y-4622800D02*
G01X2222500Y-6146800D01*
G01X2222500Y-6146800D02*
G01X2476500Y-6146800D01*
G54D16*
G01X2476500Y-6146800D02*
G01X2476500Y-4813300D01*
G54D10*
G01X3149600Y-4813300D02*
G01X3149600Y-4622800D01*
G01X3149600Y-4622800D02*
G01X2895600Y-4622800D01*
G01X2895600Y-4622800D02*
G01X2895600Y-6146800D01*
G01X2895600Y-6146800D02*
G01X3149600Y-6146800D01*
G54D16*
G01X3149600Y-6146800D02*
G01X3149600Y-4813300D01*
G54D10*
G01X2819400Y-4813300D02*
G01X2819400Y-4622800D01*
G01X2819400Y-4622800D02*
G01X2565400Y-4622800D01*
G01X2565400Y-4622800D02*
G01X2565400Y-6146800D01*
G01X2565400Y-6146800D02*
G01X2819400Y-6146800D01*
G54D16*
G01X2819400Y-6146800D02*
G01X2819400Y-4813300D01*
G54D10*
G01X2489200Y-6375400D02*
G01X2298700Y-6375400D01*
G01X2298700Y-6375400D02*
G01X2298700Y-6629400D01*
G01X2298700Y-6629400D02*
G01X3060700Y-6629400D01*
G01X3060700Y-6629400D02*
G01X3060700Y-6375400D01*
G54D16*
G01X3060700Y-6375400D02*
G01X2489200Y-6375400D01*
G54D10*
G01X3517900Y-596900D02*
G01X3517900Y-850900D01*
G01X3517900Y-850900D02*
G01X3009900Y-850900D01*
G01X3009900Y-850900D02*
G01X3009900Y-596900D01*
G01X3009900Y-596900D02*
G01X3200400Y-596900D01*
G54D16*
G01X3517900Y-596900D02*
G01X3200400Y-596900D01*
G54D13*
G01X3906200Y-673900D02*
G01X3866200Y-713900D01*
G01X3866200Y-713900D02*
G01X3856200Y-723900D01*
G01X3856200Y-723900D02*
G01X3866200Y-733925D01*
G01X3866200Y-733925D02*
G01X3906200Y-773925D01*
G01X3906200Y-673900D02*
G01X3906200Y-773925D01*
G01X3930523Y-825627D02*
G01X4085463Y-825627D01*
G01X4085463Y-825627D02*
G01X4085463Y-622427D01*
G01X4085463Y-622427D02*
G01X3930523Y-622427D01*
G01X3851783Y-828167D02*
G01X3704463Y-828167D01*
G01X3704463Y-828167D02*
G01X3663823Y-787527D01*
G01X3663823Y-787527D02*
G01X3663823Y-660527D01*
G01X3663823Y-660527D02*
G01X3701923Y-622427D01*
G01X3701923Y-622427D02*
G01X3854323Y-622427D01*
G54D11*
G01X4633463Y-1973737D02*
G01X4761956Y-1973737D01*
G01X4761956Y-1973737D02*
G01X4761956Y-1790319D01*
G01X4761956Y-1790319D02*
G01X4633463Y-1790319D01*
G01X4538223Y-1973737D02*
G01X4409730Y-1973737D01*
G01X4409730Y-1973737D02*
G01X4409730Y-1790319D01*
G01X4409730Y-1790319D02*
G01X4538223Y-1790319D01*
G01X4411223Y-2167393D02*
G01X4282730Y-2167393D01*
G01X4282730Y-2167393D02*
G01X4282730Y-2350811D01*
G01X4282730Y-2350811D02*
G01X4411223Y-2350811D01*
G01X4506463Y-2167393D02*
G01X4634956Y-2167393D01*
G01X4634956Y-2167393D02*
G01X4634956Y-2350811D01*
G01X4634956Y-2350811D02*
G01X4506463Y-2350811D01*
G01X4633463Y-2727885D02*
G01X4761956Y-2727885D01*
G01X4761956Y-2727885D02*
G01X4761956Y-2544467D01*
G01X4761956Y-2544467D02*
G01X4633463Y-2544467D01*
G01X4538223Y-2727885D02*
G01X4409730Y-2727885D01*
G01X4409730Y-2727885D02*
G01X4409730Y-2544467D01*
G01X4409730Y-2544467D02*
G01X4538223Y-2544467D01*
G01X5576907Y-5641419D02*
G01X5576907Y-5769912D01*
G01X5576907Y-5769912D02*
G01X5760325Y-5769912D01*
G01X5760325Y-5769912D02*
G01X5760325Y-5641419D01*
G01X5576907Y-5546179D02*
G01X5576907Y-5417685D01*
G01X5576907Y-5417685D02*
G01X5760325Y-5417685D01*
G01X5760325Y-5417685D02*
G01X5760325Y-5546179D01*
G01X5610220Y-6289309D02*
G01X5738713Y-6289309D01*
G01X5738713Y-6289309D02*
G01X5738713Y-6105891D01*
G01X5738713Y-6105891D02*
G01X5610220Y-6105891D01*
G01X5514980Y-6289309D02*
G01X5386487Y-6289309D01*
G01X5386487Y-6289309D02*
G01X5386487Y-6105891D01*
G01X5386487Y-6105891D02*
G01X5514980Y-6105891D01*
G01X4506463Y-3092259D02*
G01X4634956Y-3092259D01*
G01X4634956Y-3092259D02*
G01X4634956Y-2908841D01*
G01X4634956Y-2908841D02*
G01X4506463Y-2908841D01*
G01X4411223Y-3092259D02*
G01X4282730Y-3092259D01*
G01X4282730Y-3092259D02*
G01X4282730Y-2908841D01*
G01X4282730Y-2908841D02*
G01X4411223Y-2908841D01*
G01X4519163Y-3482033D02*
G01X4647656Y-3482033D01*
G01X4647656Y-3482033D02*
G01X4647656Y-3298614D01*
G01X4647656Y-3298614D02*
G01X4519163Y-3298614D01*
G01X4423923Y-3482033D02*
G01X4295430Y-3482033D01*
G01X4295430Y-3482033D02*
G01X4295430Y-3298614D01*
G01X4295430Y-3298614D02*
G01X4423923Y-3298614D01*
G01X4987920Y-6276609D02*
G01X5116413Y-6276609D01*
G01X5116413Y-6276609D02*
G01X5116413Y-6093191D01*
G01X5116413Y-6093191D02*
G01X4987920Y-6093191D01*
G01X4892680Y-6276609D02*
G01X4764187Y-6276609D01*
G01X4764187Y-6276609D02*
G01X4764187Y-6093191D01*
G01X4764187Y-6093191D02*
G01X4892680Y-6093191D01*
G01X726653Y-4257309D02*
G01X855147Y-4257309D01*
G01X855147Y-4257309D02*
G01X855147Y-4073891D01*
G01X855147Y-4073891D02*
G01X726653Y-4073891D01*
G01X631414Y-4257309D02*
G01X502920Y-4257309D01*
G01X502920Y-4257309D02*
G01X502920Y-4073891D01*
G01X502920Y-4073891D02*
G01X631414Y-4073891D01*
G01X1400586Y-4257309D02*
G01X1529080Y-4257309D01*
G01X1529080Y-4257309D02*
G01X1529080Y-4073891D01*
G01X1529080Y-4073891D02*
G01X1400586Y-4073891D01*
G01X1305347Y-4257309D02*
G01X1176853Y-4257309D01*
G01X1176853Y-4257309D02*
G01X1176853Y-4073891D01*
G01X1176853Y-4073891D02*
G01X1305347Y-4073891D01*
G01X4556120Y-4041409D02*
G01X4684613Y-4041409D01*
G01X4684613Y-4041409D02*
G01X4684613Y-3857991D01*
G01X4684613Y-3857991D02*
G01X4556120Y-3857991D01*
G01X4460880Y-4041409D02*
G01X4332387Y-4041409D01*
G01X4332387Y-4041409D02*
G01X4332387Y-3857991D01*
G01X4332387Y-3857991D02*
G01X4460880Y-3857991D01*
G01X4918080Y-3870691D02*
G01X4789587Y-3870691D01*
G01X4789587Y-3870691D02*
G01X4789587Y-4054109D01*
G01X4789587Y-4054109D02*
G01X4918080Y-4054109D01*
G01X5013320Y-3870691D02*
G01X5141813Y-3870691D01*
G01X5141813Y-3870691D02*
G01X5141813Y-4054109D01*
G01X5141813Y-4054109D02*
G01X5013320Y-4054109D01*
G54D10*
G01X3594100Y-1244600D02*
G01X3594100Y-1498600D01*
G01X3594100Y-1498600D02*
G01X3086100Y-1498600D01*
G01X3086100Y-1498600D02*
G01X3086100Y-1244600D01*
G01X3086100Y-1244600D02*
G01X3276600Y-1244600D01*
G54D16*
G01X3594100Y-1244600D02*
G01X3276600Y-1244600D01*
G54D10*
G01X8089900Y-3276600D02*
G01X8343900Y-3276600D01*
G01X8343900Y-3276600D02*
G01X8343900Y-3784600D01*
G01X8343900Y-3784600D02*
G01X8089900Y-3784600D01*
G01X8089900Y-3784600D02*
G01X8089900Y-3594100D01*
G54D16*
G01X8089900Y-3276600D02*
G01X8089900Y-3594100D01*
G54D13*
G01X1863402Y-2845702D02*
G01X1863402Y-3745700D01*
G01X1863402Y-3745700D02*
G01X3013400Y-3745700D01*
G01X3013400Y-3745700D02*
G01X3013400Y-2845702D01*
G01X3013400Y-2845702D02*
G01X1863402Y-2845702D01*
G54D11*
G01X1236040Y-3704720D02*
G01X719760Y-3704720D01*
G01X719760Y-3704720D02*
G01X719760Y-3229480D01*
G01X719760Y-3229480D02*
G01X1236040Y-3229480D01*
G01X1236040Y-3229480D02*
G01X1236040Y-3704720D01*
G01X896650Y-3704720D02*
G02X1059150Y-3704720I81250J0D01*
G54D13*
G01X5025200Y-5737763D02*
G01X5025200Y-5439801D01*
G01X4525201Y-5651500D02*
G01X4525201Y-5737763D01*
G01X4525264Y-5524500D02*
G01X4525264Y-5439801D01*
G01X4525201Y-5737763D02*
G01X5025200Y-5737763D01*
G01X4525201Y-5439801D02*
G01X5025200Y-5439801D01*
G01X4525201Y-5651500D02*
G03X4525264Y-5524500I32J63500D01*
G54D11*
G01X5192840Y-5419580D02*
G01X5192840Y-5560581D01*
G01X5373561Y-5560581D02*
G01X5373561Y-5419580D01*
G01X5358321Y-5404340D02*
G01X5208080Y-5404340D01*
G01X5192840Y-5781820D02*
G01X5192840Y-5640819D01*
G01X5373561Y-5640819D02*
G01X5373561Y-5781820D01*
G01X5358321Y-5797060D02*
G01X5208080Y-5797060D01*
G01X5373561Y-5419580D02*
G03X5358321Y-5404340I-15240J0D01*
G01X5208080Y-5404340D02*
G03X5192840Y-5419580I0J-15240D01*
G01X5373561Y-5781820D02*
G02X5358321Y-5797060I-15240J0D01*
G01X5208080Y-5797060D02*
G02X5192840Y-5781820I0J15240D01*
G54D17*
G01X7315200Y-5284216D02*
G01X7673899Y-5284216D01*
G01X7673899Y-5284216D02*
G01X7673899Y-6300216D01*
G01X7673899Y-6300216D02*
G01X6983908Y-6300216D01*
G01X6983908Y-6300216D02*
G01X6983908Y-5284216D01*
G01X6983908Y-5284216D02*
G01X7325360Y-5284216D01*
G01X7277100Y-3684016D02*
G01X7635799Y-3684016D01*
G01X7635799Y-3684016D02*
G01X7635799Y-4700016D01*
G01X7635799Y-4700016D02*
G01X6945808Y-4700016D01*
G01X6945808Y-4700016D02*
G01X6945808Y-3684016D01*
G01X6945808Y-3684016D02*
G01X7287260Y-3684016D01*
G01X7277101Y-2096516D02*
G01X7635800Y-2096516D01*
G01X7635800Y-2096516D02*
G01X7635800Y-3112516D01*
G01X7635800Y-3112516D02*
G01X6945809Y-3112516D01*
G01X6945809Y-3112516D02*
G01X6945809Y-2096516D01*
G01X6945809Y-2096516D02*
G01X7287261Y-2096516D01*
G54D10*
G01X1763586Y-6627685D02*
G01X1954086Y-6627685D01*
G01X1954086Y-6627685D02*
G01X1954086Y-6373685D01*
G01X1954086Y-6373685D02*
G01X430086Y-6373685D01*
G01X430086Y-6373685D02*
G01X430086Y-6627685D01*
G54D16*
G01X430086Y-6627685D02*
G01X1763586Y-6627685D01*
G54D13*
G01X2469500Y-910300D02*
G01X2469500Y-785840D01*
G01X2402190Y-848070D02*
G01X2536810Y-848070D01*
G01X2749550Y-1130554D02*
G03X2749550Y-1137666I-399985J-3556D01*
G36*
G01X2049501Y-1405301D02*
G03X2649499Y-1405301I299999J314998D01*
G01X2049501Y-1405301D01*
G37*
G01X2507600Y-1913600D02*
G01X2507600Y-1789140D01*
G01X2440290Y-1851370D02*
G01X2574910Y-1851370D01*
G01X2787650Y-2133854D02*
G03X2787650Y-2140966I-399985J-3556D01*
G36*
G01X2087601Y-2408601D02*
G03X2687599Y-2408601I299999J314998D01*
G01X2087601Y-2408601D01*
G37*
G01X8680823Y-3124200D02*
G01X8680823Y-3187700D01*
G01X8680823Y-3187700D02*
G01X8775700Y-3187700D01*
G01X8775700Y-3187700D02*
G01X8775700Y-3124200D01*
G01X9334500Y-1460182D02*
G01X9182100Y-1460182D01*
G01X9182100Y-1460182D02*
G01X9182100Y-1281303D01*
G01X9182100Y-1281303D02*
G01X9334500Y-1281303D01*
G01X9334500Y-1960181D02*
G01X9182100Y-1960181D01*
G01X9182100Y-1960181D02*
G01X9182100Y-1781302D01*
G01X9182100Y-1781302D02*
G01X9334500Y-1781302D01*
G01X9334500Y-2460180D02*
G01X9182100Y-2460180D01*
G01X9182100Y-2460180D02*
G01X9182100Y-2281301D01*
G01X9182100Y-2281301D02*
G01X9334500Y-2281301D01*
G01X9334500Y-2960179D02*
G01X9182100Y-2960179D01*
G01X9182100Y-2960179D02*
G01X9182100Y-2781300D01*
G01X9182100Y-2781300D02*
G01X9334500Y-2781300D01*
G01X9334500Y-1117600D02*
G01X9334500Y-3124200D01*
G01X9334500Y-1117600D02*
G01X8559800Y-1117600D01*
G01X8559800Y-1117600D02*
G01X8559800Y-3124200D01*
G01X8559800Y-3124200D02*
G01X9334500Y-3124200D01*
G36*
G01X9334500Y-2895600D02*
G01X9271000Y-2895600D01*
G01X9258300Y-2895600D01*
G01X9258300Y-2933700D01*
G01X9194800Y-2870200D01*
G01X9258300Y-2806700D01*
G01X9258300Y-2844800D01*
G01X9334500Y-2844800D01*
G01X9334500Y-2895600D01*
G37*
G36*
G01X9334500Y-2395601D02*
G01X9271000Y-2395601D01*
G01X9258300Y-2395601D01*
G01X9258300Y-2433701D01*
G01X9194800Y-2370201D01*
G01X9258300Y-2306701D01*
G01X9258300Y-2344801D01*
G01X9334500Y-2344801D01*
G01X9334500Y-2395601D01*
G37*
G36*
G01X9334500Y-1895602D02*
G01X9271000Y-1895602D01*
G01X9258300Y-1895602D01*
G01X9258300Y-1933702D01*
G01X9194800Y-1870202D01*
G01X9258300Y-1806702D01*
G01X9258300Y-1844802D01*
G01X9334500Y-1844802D01*
G01X9334500Y-1895602D01*
G37*
G36*
G01X9334500Y-1395603D02*
G01X9271000Y-1395603D01*
G01X9258300Y-1395603D01*
G01X9258300Y-1433703D01*
G01X9194800Y-1370203D01*
G01X9258300Y-1306703D01*
G01X9258300Y-1344803D01*
G01X9334500Y-1344803D01*
G01X9334500Y-1395603D01*
G37*
G01X8706223Y-6515100D02*
G01X8706223Y-6578600D01*
G01X8706223Y-6578600D02*
G01X8801100Y-6578600D01*
G01X8801100Y-6578600D02*
G01X8801100Y-6515100D01*
G01X9359900Y-4851082D02*
G01X9207500Y-4851082D01*
G01X9207500Y-4851082D02*
G01X9207500Y-4672203D01*
G01X9207500Y-4672203D02*
G01X9359900Y-4672203D01*
G01X9359900Y-5351081D02*
G01X9207500Y-5351081D01*
G01X9207500Y-5351081D02*
G01X9207500Y-5172202D01*
G01X9207500Y-5172202D02*
G01X9359900Y-5172202D01*
G01X9359900Y-5851080D02*
G01X9207500Y-5851080D01*
G01X9207500Y-5851080D02*
G01X9207500Y-5672201D01*
G01X9207500Y-5672201D02*
G01X9359900Y-5672201D01*
G01X9359900Y-6351079D02*
G01X9207500Y-6351079D01*
G01X9207500Y-6351079D02*
G01X9207500Y-6172200D01*
G01X9207500Y-6172200D02*
G01X9359900Y-6172200D01*
G01X9359900Y-4508500D02*
G01X9359900Y-6515100D01*
G01X9359900Y-4508500D02*
G01X8585200Y-4508500D01*
G01X8585200Y-4508500D02*
G01X8585200Y-6515100D01*
G01X8585200Y-6515100D02*
G01X9359900Y-6515100D01*
G36*
G01X9359900Y-6286500D02*
G01X9296400Y-6286500D01*
G01X9283700Y-6286500D01*
G01X9283700Y-6324600D01*
G01X9220200Y-6261100D01*
G01X9283700Y-6197600D01*
G01X9283700Y-6235700D01*
G01X9359900Y-6235700D01*
G01X9359900Y-6286500D01*
G37*
G36*
G01X9359900Y-5786501D02*
G01X9296400Y-5786501D01*
G01X9283700Y-5786501D01*
G01X9283700Y-5824601D01*
G01X9220200Y-5761101D01*
G01X9283700Y-5697601D01*
G01X9283700Y-5735701D01*
G01X9359900Y-5735701D01*
G01X9359900Y-5786501D01*
G37*
G36*
G01X9359900Y-5286502D02*
G01X9296400Y-5286502D01*
G01X9283700Y-5286502D01*
G01X9283700Y-5324602D01*
G01X9220200Y-5261102D01*
G01X9283700Y-5197602D01*
G01X9283700Y-5235702D01*
G01X9359900Y-5235702D01*
G01X9359900Y-5286502D01*
G37*
G36*
G01X9359900Y-4786503D02*
G01X9296400Y-4786503D01*
G01X9283700Y-4786503D01*
G01X9283700Y-4824603D01*
G01X9220200Y-4761103D01*
G01X9283700Y-4697603D01*
G01X9283700Y-4735703D01*
G01X9359900Y-4735703D01*
G01X9359900Y-4786503D01*
G37*
G01X7101652Y-6654800D02*
G01X7861300Y-6654800D01*
G01X7861300Y-6654800D02*
G01X7861300Y-6908800D01*
G01X7861300Y-6908800D02*
G01X6845300Y-6908800D01*
G01X6845300Y-6908800D02*
G01X6845300Y-6654800D01*
G01X6845300Y-6654800D02*
G01X7101652Y-6654800D01*
G01X7101652Y-6654800D02*
G01X7101652Y-6908800D01*
G01X764352Y-4495800D02*
G01X1524000Y-4495800D01*
G01X1524000Y-4495800D02*
G01X1524000Y-4749800D01*
G01X1524000Y-4749800D02*
G01X508000Y-4749800D01*
G01X508000Y-4749800D02*
G01X508000Y-4495800D01*
G01X508000Y-4495800D02*
G01X764352Y-4495800D01*
G01X764352Y-4495800D02*
G01X764352Y-4749800D01*
G54D11*
G01X1857931Y-4421680D02*
G01X1857931Y-4696925D01*
G01X1857931Y-4696925D02*
G01X1833629Y-4696925D01*
G01X1672689Y-4421680D02*
G01X1672689Y-4696925D01*
G01X1672689Y-4696925D02*
G01X1696992Y-4696925D01*
G01X1857931Y-4462617D02*
G01X1672689Y-4462620D01*
G36*
G01X1865551Y-4429300D02*
G01X1828549Y-4429300D01*
G01X1828551Y-4398820D01*
G01X1865551Y-4398820D01*
G01X1865551Y-4429300D01*
G37*
G36*
G01X1665069Y-4429300D02*
G01X1702069Y-4429300D01*
G01X1702069Y-4398820D01*
G01X1665069Y-4398820D01*
G01X1665069Y-4429300D01*
G37*
G36*
G01X1765300Y-4521200D02*
G01X1714500Y-4572000D01*
G01X1816100Y-4572000D01*
G01X1765300Y-4521200D01*
G37*
G54D13*
G01X7094499Y-1917700D02*
G01X7094499Y-1714500D01*
G54D14*
G01X7437399Y-1930400D02*
G01X7037400Y-1930400D01*
G01X7037400Y-1710411D01*
G01X7437399Y-1710411D01*
G01X7437399Y-1930400D01*
G54D10*
G01X7874000Y-5562600D02*
G01X8128000Y-5562600D01*
G01X8128000Y-5562600D02*
G01X8128000Y-6070600D01*
G01X8128000Y-6070600D02*
G01X7874000Y-6070600D01*
G01X7874000Y-6070600D02*
G01X7874000Y-5880100D01*
G54D16*
G01X7874000Y-5562600D02*
G01X7874000Y-5880100D01*
G54D10*
G01X7874000Y-3937000D02*
G01X8128000Y-3937000D01*
G01X8128000Y-3937000D02*
G01X8128000Y-4445000D01*
G01X8128000Y-4445000D02*
G01X7874000Y-4445000D01*
G01X7874000Y-4445000D02*
G01X7874000Y-4254500D01*
G54D16*
G01X7874000Y-3937000D02*
G01X7874000Y-4254500D01*
G54D10*
G01X8128000Y-2895600D02*
G01X7874000Y-2895600D01*
G01X7874000Y-2895600D02*
G01X7874000Y-2387600D01*
G01X7874000Y-2387600D02*
G01X8128000Y-2387600D01*
G01X8128000Y-2387600D02*
G01X8128000Y-2578100D01*
G54D16*
G01X8128000Y-2895600D02*
G01X8128000Y-2578100D01*
G54D13*
G01X9296400Y-3729114D02*
G01X9144000Y-3729114D01*
G01X9144000Y-3729114D02*
G01X9144000Y-3462414D01*
G01X9144000Y-3462414D02*
G01X9296400Y-3462414D01*
G01X9296400Y-4229113D02*
G01X9144000Y-4229113D01*
G01X9144000Y-4229113D02*
G01X9144000Y-3962413D01*
G01X9144000Y-3962413D02*
G01X9296400Y-3962413D01*
G01X8556216Y-4348112D02*
G01X8556216Y-3348114D01*
G01X9316209Y-3348114D01*
G01X9316209Y-4348112D01*
G01X8556216Y-4348112D01*
G36*
G01X9321800Y-4127500D02*
G01X9232900Y-4127500D01*
G01X9232900Y-4165600D01*
G01X9169400Y-4102100D01*
G01X9232900Y-4038600D01*
G01X9232900Y-4076700D01*
G01X9321800Y-4076700D01*
G01X9321800Y-4127500D01*
G37*
G36*
G01X9321800Y-3627501D02*
G01X9232900Y-3627501D01*
G01X9232900Y-3665601D01*
G01X9169400Y-3602101D01*
G01X9232900Y-3538601D01*
G01X9232900Y-3576701D01*
G01X9321800Y-3576701D01*
G01X9321800Y-3627501D01*
G37*
G01X609600Y-1858886D02*
G01X762000Y-1858886D01*
G01X762000Y-1858886D02*
G01X762000Y-2125586D01*
G01X762000Y-2125586D02*
G01X609600Y-2125586D01*
G01X609600Y-1358887D02*
G01X762000Y-1358887D01*
G01X762000Y-1358887D02*
G01X762000Y-1625587D01*
G01X762000Y-1625587D02*
G01X609600Y-1625587D01*
G01X1349784Y-1239888D02*
G01X1349784Y-2239886D01*
G01X589791Y-2239886D01*
G01X589791Y-1239888D01*
G01X1349784Y-1239888D01*
G36*
G01X584200Y-1460500D02*
G01X673100Y-1460500D01*
G01X673100Y-1422400D01*
G01X736600Y-1485900D01*
G01X673100Y-1549400D01*
G01X673100Y-1511300D01*
G01X584200Y-1511300D01*
G01X584200Y-1460500D01*
G37*
G36*
G01X584200Y-1960499D02*
G01X673100Y-1960499D01*
G01X673100Y-1922399D01*
G01X736600Y-1985899D01*
G01X673100Y-2049399D01*
G01X673100Y-2011299D01*
G01X584200Y-2011299D01*
G01X584200Y-1960499D01*
G37*
G01X7262391Y-295003D02*
G01X8790394Y-295003D01*
G01X8790391Y-295003D02*
G01X8790394Y-1054999D01*
G01X7262378Y-1054999D02*
G01X7262378Y-295001D01*
G01X7262391Y-1054999D02*
G01X8790394Y-1054999D01*
G01X7262391Y-850900D02*
G01X8790394Y-850900D01*
G01X7262391Y-419100D02*
G01X8790394Y-419100D01*
G01X8788395Y-850900D02*
G01X8816437Y-850900D01*
G01X8816437Y-850900D02*
G01X8839195Y-873658D01*
G01X8839195Y-873658D02*
G01X8839195Y-772058D01*
G01X8839195Y-772058D02*
G01X8813795Y-797458D01*
G01X8813795Y-797458D02*
G01X8801095Y-797458D01*
G01X7732306Y-482600D02*
G01X7808506Y-482600D01*
G01X7808506Y-774700D01*
G01X7732306Y-774700D01*
G01X7732306Y-482600D01*
G01X8242295Y-482600D02*
G01X8318495Y-482600D01*
G01X8318495Y-774700D01*
G01X8242295Y-774700D01*
G01X8242295Y-482600D01*

G04 Rect Start*
G01X4283051Y-7200900D02*
G01X4283051Y-6819900D01*
G01X5172051Y-6819900D01*
G01X5172051Y-7200900D01*
G01X4283051Y-7200900D01*
G01X3781401Y-6822704D02*
G01X3781401Y-1082304D01*
G01X6638901Y-1082304D01*
G01X6638901Y-6822704D01*
G01X3781401Y-6822704D01*
G01X4308451Y-1079500D02*
G01X4308451Y-381000D01*
G01X6111851Y-381000D01*
G01X6111851Y-1079500D01*
G01X4308451Y-1079500D01*
G01X5245100Y-7200900D02*
G01X5245100Y-6819900D01*
G01X6134100Y-6819900D01*
G01X6134100Y-7200900D01*
G01X5245100Y-7200900D01*
G04 Rect End*

G04 Circle Start*
G01X2035701Y-3055701D02*
G03X2061101Y-3055701I12700J0D01*
G03X2035701Y-3055701I-12700J0D01*
G54D19*
G01X1343889Y-3715537D02*
G03X1373911Y-3715537I15011J0D01*
G03X1343889Y-3715537I-15011J0D01*
G01X4569689Y-5689600D02*
G03X4599711Y-5689600I15011J0D01*
G03X4569689Y-5689600I-15011J0D01*
G54D13*
G01X7476249Y-927100D02*
G03X7556564Y-927100I40157J0D01*
G03X7476249Y-927100I-40157J0D01*
G01X7984223Y-927100D02*
G03X8064538Y-927100I40157J0D01*
G03X7984223Y-927100I-40157J0D01*
G01X8494212Y-927100D02*
G03X8574527Y-927100I40157J0D01*
G03X8494212Y-927100I-40157J0D01*
G04 Circle End*

M02*

